<svg width="52" height="53" viewBox="0 0 52 53" fill="none" xmlns="http://www.w3.org/2000/svg">
<rect width="52" height="52" transform="translate(0 0.0146484)" fill="white"/>
<path d="M8.31995 26.0145V48.8945H34.2517" stroke="#69C350" stroke-miterlimit="10" stroke-linecap="round" stroke-linejoin="round"/>
<path d="M2.07996 24.9746L26 3.13464L49.92 24.9746" stroke="#69C350" stroke-miterlimit="10" stroke-linecap="round" stroke-linejoin="round"/>
<path d="M34.3199 5.21472H41.5999V12.4947" stroke="#69C350" stroke-miterlimit="10" stroke-linecap="round" stroke-linejoin="round"/>
<path d="M29.12 13.5345H22.88V19.7745H29.12V13.5345Z" stroke="#69C350" stroke-miterlimit="10" stroke-linecap="round" stroke-linejoin="round"/>
<path d="M41.6357 37.5798C39.7201 38.8573 38.7337 41.1898 41.6357 43.1483C43.2267 47.1259 46.186 46.0551 47.9378 44.2095C49.6895 42.364 50.6059 37.2154 49.3108 34.3977C46.5138 36.5058 44.0222 35.9887 41.6357 37.5798Z" stroke="#69C350" stroke-miterlimit="10" stroke-linecap="round" stroke-linejoin="round"/>
<path d="M36.099 31.9648C38.1594 34.3895 39.2493 37.5795 34.3378 39.721C32.0897 44.7391 28.6705 42.8808 26.3954 40.2015C24.1202 37.5206 23.2515 30.3499 25.2546 26.5616C28.9474 29.688 33.5263 28.9307 36.099 31.9648Z" stroke="#69C350" stroke-miterlimit="10" stroke-linecap="round" stroke-linejoin="round"/>
<path d="M45.6133 39.9661C40.8403 42.3527 38.4537 48.7168 38.4537 48.7168C38.4537 48.7168 36.4427 39.3934 28.4875 32.2338" stroke="#69C350" stroke-miterlimit="10" stroke-linecap="round" stroke-linejoin="round"/>
</svg>
