<svg width="52" height="53" viewBox="0 0 52 53" fill="none" xmlns="http://www.w3.org/2000/svg">
<rect width="52" height="52" transform="translate(0 0.349243)" fill="white"/>
<path d="M7.58331 26.3493V50.1826H27.451" stroke="#69C350" stroke-miterlimit="10" stroke-linecap="round" stroke-linejoin="round"/>
<path d="M1.08331 25.2659L26 2.51593L50.9166 25.2659" stroke="#69C350" stroke-miterlimit="10" stroke-linecap="round" stroke-linejoin="round"/>
<path d="M34.6667 4.68256H42.25V12.2659" stroke="#69C350" stroke-miterlimit="10" stroke-linecap="round" stroke-linejoin="round"/>
<path d="M29.2499 13.3493H22.7499V19.8493H29.2499V13.3493Z" stroke="#69C350" stroke-miterlimit="10" stroke-linecap="round" stroke-linejoin="round"/>
<path d="M36.7134 47.4204C36.7134 48.8015 35.4778 50.1826 33.9513 50.1826C32.4266 50.1826 31.1891 48.9488 31.1891 47.4204C31.1891 45.8957 32.4266 44.6362 33.9513 44.6362C36.0616 44.6362 34.6124 44.6362 36.7134 44.6362C36.7134 45.5569 36.7134 46.3984 36.7134 47.4204Z" stroke="#69C350" stroke-miterlimit="10" stroke-linejoin="round"/>
<path d="M47.762 41.863C47.762 43.2441 46.5264 44.6251 44.9999 44.6251C43.4752 44.6251 42.2377 43.3877 42.2377 41.863C42.2377 40.3383 43.4733 39.1119 44.9999 39.1119C45.5026 39.1119 47.3017 39.1119 47.762 39.1119C47.762 40.0326 47.762 40.9423 47.762 41.863Z" stroke="#69C350" stroke-miterlimit="10" stroke-linejoin="round"/>
<path d="M36.7134 45.5569V33.2138L47.762 28.0964V40.0326" stroke="#69C350" stroke-miterlimit="10" stroke-linejoin="round"/>
</svg>
