<svg width="52" height="53" viewBox="0 0 52 53" fill="none" xmlns="http://www.w3.org/2000/svg">
<rect width="52" height="52" transform="translate(0 0.944214)" fill="white"/>
<path d="M7.80005 26.9442V49.8242H26.873" stroke="#69C350" stroke-miterlimit="10" stroke-linecap="round" stroke-linejoin="round"/>
<path d="M1.56006 25.9042L25.4801 4.06421L49.4001 25.9042" stroke="#69C350" stroke-miterlimit="10" stroke-linecap="round" stroke-linejoin="round"/>
<path d="M33.8 6.14417H41.08V13.4242" stroke="#69C350" stroke-miterlimit="10" stroke-linecap="round" stroke-linejoin="round"/>
<path d="M28.6001 14.4642H22.3601V20.7042H28.6001V14.4642Z" stroke="#69C350" stroke-miterlimit="10" stroke-linecap="round" stroke-linejoin="round"/>
<path d="M35.8633 32.977C35.8633 31.8423 34.6083 30.9225 33.0602 30.9225C31.512 30.9225 30.257 31.8423 30.257 32.977V47.7696C30.257 48.9043 31.512 49.8242 33.0602 49.8242C34.6083 49.8242 35.8633 48.9043 35.8633 47.7696V32.977Z" stroke="#69C350"/>
<path d="M41.4697 32.977C41.4697 31.8423 40.2146 30.9225 38.6665 30.9225C37.1183 30.9225 35.8633 31.8423 35.8633 32.977V47.7696C35.8633 48.9043 37.1183 49.8242 38.6665 49.8242C40.2146 49.8242 41.4697 48.9043 41.4697 47.7696V32.977Z" stroke="#69C350"/>
<path d="M47.0761 32.977C47.0761 31.8423 45.8211 30.9225 44.2729 30.9225C42.7248 30.9225 41.4697 31.8423 41.4697 32.977V47.7696C41.4697 48.9043 42.7248 49.8242 44.2729 49.8242C45.8211 49.8242 47.0761 48.9043 47.0761 47.7696V32.977Z" stroke="#69C350"/>
<path d="M48.758 37.7606C49.6869 37.7606 50.4399 36.9657 50.4399 35.9852C50.4399 35.0046 49.6869 34.2097 48.758 34.2097C47.8291 34.2097 47.076 35.0046 47.076 35.9852C47.076 36.9657 47.8291 37.7606 48.758 37.7606Z" stroke="#69C350"/>
</svg>
