<svg width="52" height="53" viewBox="0 0 52 53" fill="none" xmlns="http://www.w3.org/2000/svg">
<rect width="52" height="52" transform="translate(0 0.232178)" fill="white"/>
<path d="M43.3334 43.5655C43.3334 44.1657 42.8481 44.6488 42.2501 44.6488C41.6521 44.6488 41.1667 44.1657 41.1667 43.5655C41.1667 42.9697 41.6521 42.4822 42.2501 42.4822C42.8481 42.4822 43.3334 42.9697 43.3334 43.5655Z" stroke="#69C350" stroke-miterlimit="10" stroke-linejoin="round"/>
<path d="M50.9167 38.1489H33.5834V51.1489H50.9167V38.1489Z" stroke="#69C350" stroke-miterlimit="10" stroke-linecap="round" stroke-linejoin="round"/>
<path d="M42.25 46.8156V44.6489" stroke="#69C350" stroke-miterlimit="10" stroke-linecap="round" stroke-linejoin="round"/>
<path d="M35.75 38.1488V35.9822C35.75 32.3942 38.6598 29.4822 42.25 29.4822C45.838 29.4822 48.75 32.3942 48.75 35.9822V38.1488" stroke="#69C350" stroke-miterlimit="10" stroke-linecap="round" stroke-linejoin="round"/>
<path d="M7.58337 27.3154V51.1488H29.25" stroke="#69C350" stroke-miterlimit="10" stroke-linecap="round" stroke-linejoin="round"/>
<path d="M1.08337 26.2322L26 3.48218L50.9167 26.2322" stroke="#69C350" stroke-miterlimit="10" stroke-linecap="round" stroke-linejoin="round"/>
<path d="M34.6667 5.64893H42.2501V13.2323" stroke="#69C350" stroke-miterlimit="10" stroke-linecap="round" stroke-linejoin="round"/>
<path d="M29.25 14.3154H22.75V20.8154H29.25V14.3154Z" stroke="#69C350" stroke-miterlimit="10" stroke-linecap="round" stroke-linejoin="round"/>
</svg>
