<svg width="52" height="53" viewBox="0 0 52 53" fill="none" xmlns="http://www.w3.org/2000/svg">
<rect width="52" height="52" transform="translate(0 0.717163)" fill="white"/>
<path d="M7.58331 26.717V50.5504H30.1325" stroke="#69C350" stroke-miterlimit="10" stroke-linecap="round" stroke-linejoin="round"/>
<path d="M1.08331 25.6338L26 2.88379L50.9166 25.6338" stroke="#69C350" stroke-miterlimit="10" stroke-linecap="round" stroke-linejoin="round"/>
<path d="M34.6667 5.05054H42.25V12.6339" stroke="#69C350" stroke-miterlimit="10" stroke-linecap="round" stroke-linejoin="round"/>
<path d="M29.2499 13.717H22.7499V20.217H29.2499V13.717Z" stroke="#69C350" stroke-miterlimit="10" stroke-linecap="round" stroke-linejoin="round"/>
<path d="M42.4023 40.8582V30.3067C42.4023 28.8722 41.2394 27.708 39.8035 27.708C38.3677 27.708 37.2047 28.8722 37.2047 30.3067V40.8582C35.6533 41.7561 34.606 43.431 34.606 45.3528C34.606 48.2245 36.9345 50.5504 39.8035 50.5504C42.6739 50.5504 45.0011 48.2245 45.0011 45.3528C45.0011 43.431 43.9538 41.7561 42.4023 40.8582Z" stroke="#69C350" stroke-miterlimit="10" stroke-linecap="round" stroke-linejoin="round"/>
<path d="M39.8035 46.6523C40.5211 46.6523 41.1029 46.0705 41.1029 45.3529C41.1029 44.6352 40.5211 44.0535 39.8035 44.0535C39.0858 44.0535 38.5041 44.6352 38.5041 45.3529C38.5041 46.0705 39.0858 46.6523 39.8035 46.6523Z" stroke="#69C350" stroke-miterlimit="10" stroke-linecap="round" stroke-linejoin="round"/>
<path d="M39.8035 44.0534V31.0594" stroke="#69C350" stroke-miterlimit="10" stroke-linecap="round" stroke-linejoin="round"/>
<path d="M45.0011 38.3796H47.5999" stroke="#69C350" stroke-miterlimit="10" stroke-linecap="round" stroke-linejoin="round"/>
<path d="M45.0011 34.6691H47.5999" stroke="#69C350" stroke-miterlimit="10" stroke-linecap="round" stroke-linejoin="round"/>
<path d="M45.0011 31.0594H47.5999" stroke="#69C350" stroke-miterlimit="10" stroke-linecap="round" stroke-linejoin="round"/>
</svg>
