<svg width="52" height="52" viewBox="0 0 52 52" fill="none" xmlns="http://www.w3.org/2000/svg">
<rect width="52" height="52" transform="translate(0 -0.000366211)" fill="white"/>
<path d="M8.31995 25.9995V48.8795H33.2619" stroke="#69C350" stroke-miterlimit="10" stroke-linecap="round" stroke-linejoin="round"/>
<path d="M2.07996 24.9596L26 3.11963L49.92 24.9596" stroke="#69C350" stroke-miterlimit="10" stroke-linecap="round" stroke-linejoin="round"/>
<path d="M34.3199 5.19971H41.5999V12.4797" stroke="#69C350" stroke-miterlimit="10" stroke-linecap="round" stroke-linejoin="round"/>
<path d="M29.12 13.5195H22.88V19.7595H29.12V13.5195Z" stroke="#69C350" stroke-miterlimit="10" stroke-linecap="round" stroke-linejoin="round"/>
<path d="M35.3599 24.9596V25.9996" stroke="#69C350" stroke-miterlimit="10" stroke-linecap="round" stroke-linejoin="round"/>
<path d="M28.0798 27.0416L29.1198 28.0816" stroke="#69C350" stroke-miterlimit="10" stroke-linecap="round" stroke-linejoin="round"/>
<path d="M42.64 27.0396L41.6 28.0796" stroke="#69C350" stroke-miterlimit="10" stroke-linecap="round" stroke-linejoin="round"/>
<path d="M25.9999 34.3195H27.0399" stroke="#69C350" stroke-miterlimit="10" stroke-linecap="round" stroke-linejoin="round"/>
<path d="M40.0254 30.1835C38.8824 28.895 37.2173 28.0796 35.3599 28.0796C31.9144 28.0796 29.1199 30.8751 29.1199 34.3196C29.1199 35.0351 29.2426 35.7184 29.4672 36.357" stroke="#69C350" stroke-miterlimit="10" stroke-linecap="round" stroke-linejoin="round"/>
<path d="M33.2799 34.3195H44.7199L49.9199 43.6795H28.0798L33.2799 34.3195Z" stroke="#69C350" stroke-miterlimit="10" stroke-linecap="round" stroke-linejoin="round"/>
<path d="M40.56 43.6797H37.4399V48.8797H40.56V43.6797Z" stroke="#69C350" stroke-miterlimit="10" stroke-linecap="round" stroke-linejoin="round"/>
<path d="M36.9199 34.3195L34.8399 43.6795" stroke="#69C350" stroke-miterlimit="10" stroke-linecap="round" stroke-linejoin="round"/>
<path d="M41.0799 34.3195L43.1599 43.6795" stroke="#69C350" stroke-miterlimit="10" stroke-linecap="round" stroke-linejoin="round"/>
<path d="M31.5462 37.4397H46.4536" stroke="#69C350" stroke-miterlimit="10" stroke-linejoin="round"/>
<path d="M29.8136 40.5597H48.1863" stroke="#69C350" stroke-miterlimit="10" stroke-linejoin="round"/>
</svg>
