<svg width="52" height="53" viewBox="0 0 52 53" fill="none" xmlns="http://www.w3.org/2000/svg">
<rect width="52" height="52" transform="translate(0 0.646729)" fill="white"/>
<path d="M8.31995 26.6467V49.5267H33.152" stroke="#69C350" stroke-miterlimit="10" stroke-linecap="round" stroke-linejoin="round"/>
<path d="M2.07996 25.6067L26 3.76672L49.92 25.6067" stroke="#69C350" stroke-miterlimit="10" stroke-linecap="round" stroke-linejoin="round"/>
<path d="M34.3199 5.84668H41.5999V13.1267" stroke="#69C350" stroke-miterlimit="10" stroke-linecap="round" stroke-linejoin="round"/>
<path d="M29.12 14.1667H22.88V20.4067H29.12V14.1667Z" stroke="#69C350" stroke-miterlimit="10" stroke-linecap="round" stroke-linejoin="round"/>
<path d="M45.92 38.5267C45.92 35.2127 43.232 32.5267 39.92 32.5267C36.606 32.5267 33.92 35.2127 33.92 38.5267C33.92 41.3207 35.833 43.6627 38.42 44.3297V45.5267H41.42V44.3297C44.005 43.6627 45.92 41.3207 45.92 38.5267Z" stroke="#69C350" stroke-miterlimit="10" stroke-linecap="round" stroke-linejoin="round"/>
<path d="M40.42 49.5267H39.42" stroke="#69C350" stroke-miterlimit="10" stroke-linecap="round" stroke-linejoin="round"/>
<path d="M41.42 47.5267H38.42" stroke="#69C350" stroke-miterlimit="10" stroke-linecap="round" stroke-linejoin="round"/>
<path d="M39.92 28.5267V30.5267" stroke="#69C350" stroke-miterlimit="10" stroke-linecap="round" stroke-linejoin="round"/>
<path d="M49.92 38.5267H47.92" stroke="#69C350" stroke-miterlimit="10" stroke-linecap="round" stroke-linejoin="round"/>
<path d="M29.92 38.5267H31.92" stroke="#69C350" stroke-miterlimit="10" stroke-linecap="round" stroke-linejoin="round"/>
<path d="M32.141 30.7487L34.263 32.8707" stroke="#69C350" stroke-miterlimit="10" stroke-linecap="round" stroke-linejoin="round"/>
<path d="M47.697 30.7487L45.575 32.8707" stroke="#69C350" stroke-miterlimit="10" stroke-linecap="round" stroke-linejoin="round"/>
</svg>
