<svg width="52" height="53" viewBox="0 0 52 53" fill="none" xmlns="http://www.w3.org/2000/svg">
<rect width="52" height="52" transform="translate(0 0.798462)" fill="white"/>
<path d="M7.34119 26.2386V49.9122H29.7213" stroke="#69C350" stroke-miterlimit="10" stroke-linecap="round" stroke-linejoin="round"/>
<path d="M0.884766 25.1626L25.6343 2.56512L50.3839 25.1626" stroke="#69C350" stroke-miterlimit="10" stroke-linecap="round" stroke-linejoin="round"/>
<path d="M34.2429 4.71729H41.7754V12.2498" stroke="#69C350" stroke-miterlimit="10" stroke-linecap="round" stroke-linejoin="round"/>
<path d="M28.8625 13.3258H22.4061V19.7822H28.8625V13.3258Z" stroke="#69C350" stroke-miterlimit="10" stroke-linecap="round" stroke-linejoin="round"/>
<path d="M38.0092 40.1101C39.2155 40.1101 40.1935 39.1322 40.1935 37.9258C40.1935 36.7194 39.2155 35.7415 38.0092 35.7415C36.8028 35.7415 35.8248 36.7194 35.8248 37.9258C35.8248 39.1322 36.8028 40.1101 38.0092 40.1101Z" stroke="#69C350" stroke-miterlimit="10"/>
<path d="M38.0092 32.9019C39.2358 32.9069 40.4174 33.3641 41.3278 34.1861C42.0469 32.5847 42.4822 30.8705 42.6144 29.12C42.6144 27.6583 40.5495 26.4733 38.0092 26.4733C35.4689 26.4733 33.404 27.6583 33.4253 29.12C33.7464 30.7572 34.4143 32.3066 35.3839 33.6643C36.1706 33.1697 37.0801 32.9056 38.0092 32.9019V32.9019Z" stroke="#69C350" stroke-miterlimit="10"/>
<path d="M32.9854 37.9259C32.9903 36.6994 33.4476 35.5178 34.2695 34.6074C32.6681 33.8883 30.9539 33.453 29.2034 33.3208C27.7417 33.3208 26.5566 35.3857 26.5566 37.926C26.5566 40.4663 27.7416 42.5311 29.2034 42.5099C30.8406 42.1887 32.3901 41.5209 33.7477 40.5512C33.2532 39.7646 32.9891 38.8551 32.9854 37.9259V37.9259Z" stroke="#69C350" stroke-miterlimit="10"/>
<path d="M38.0092 42.9499C36.7827 42.945 35.6011 42.4877 34.6907 41.6658C33.9716 43.2672 33.5363 44.9814 33.4041 46.7319C33.4041 48.1936 35.469 49.3787 38.0093 49.3787C40.5496 49.3787 42.6145 48.1937 42.5932 46.7319C42.2721 45.0947 41.6042 43.5452 40.6345 42.1876C39.8479 42.6821 38.9384 42.9462 38.0092 42.9499V42.9499Z" stroke="#69C350" stroke-miterlimit="10"/>
<path d="M46.8365 33.3419C45.1932 33.6646 43.6382 34.3359 42.2764 35.3106C42.8493 36.2197 43.1085 37.2915 43.0143 38.362C42.9201 39.4324 42.4777 40.4425 41.7548 41.2375C43.3606 41.9608 45.0803 42.3985 46.8365 42.531C48.277 42.531 49.462 40.4661 49.4833 37.9471C49.4832 35.4139 48.2983 33.3419 46.8365 33.3419Z" stroke="#69C350" stroke-miterlimit="10"/>
<path d="M38.0092 42.9498C40.7838 42.9498 43.0331 40.7005 43.0331 37.9258C43.0331 35.1512 40.7838 32.9019 38.0092 32.9019C35.2345 32.9019 32.9852 35.1512 32.9852 37.9258C32.9852 40.7005 35.2345 42.9498 38.0092 42.9498Z" stroke="#69C350" stroke-miterlimit="10"/>
</svg>
