<?xml version="1.0" encoding="UTF-8"?>
<svg width="68px" height="69px" viewBox="0 0 68 69" version="1.1" xmlns="http://www.w3.org/2000/svg" xmlns:xlink="http://www.w3.org/1999/xlink">
    <title>Logo-Loxone-Tree</title>
    <g id="01-Design-Language-2020-Update" stroke="none" stroke-width="1" fill="none" fill-rule="evenodd">
        <g id="Miniserver-Technik" transform="translate(-723.000000, -4943.000000)">
            <g id="Logo-Loxone-Tree" transform="translate(723.500000, 4944.494668)">
                <path d="M33.666,66.063 C51.845,66.063 66.581,51.326 66.581,33.147 C66.581,14.968 51.845,0.232 33.666,0.232 C15.487,0.232 0.75,14.968 0.75,33.147 C0.75,51.326 15.487,66.063 33.666,66.063 Z" id="Stroke-1" stroke="#1A1919" stroke-width="1.5"></path>
                <line x1="33.666" y1="66.384" x2="33.666" y2="13.305" id="Stroke-3" stroke="#1A1919" stroke-width="2.2"></line>
                <path d="M33.666,16.139 C35.231,16.139 36.5,14.87 36.5,13.305 C36.5,11.739 35.231,10.47 33.666,10.47 C32.1,10.47 30.831,11.739 30.831,13.305 C30.831,14.87 32.1,16.139 33.666,16.139" id="Fill-4" fill="#1A1919"></path>
                <path d="M22.327,38.817 C23.893,38.817 25.162,37.547 25.162,35.982 C25.162,34.417 23.893,33.147 22.327,33.147 C20.762,33.147 19.493,34.417 19.493,35.982 C19.493,37.547 20.762,38.817 22.327,38.817" id="Fill-5" fill="#1A1919"></path>
                <path d="M25.162,27.478 C26.728,27.478 27.997,26.209 27.997,24.643 C27.997,23.078 26.728,21.809 25.162,21.809 C23.596,21.809 22.327,23.078 22.327,24.643 C22.327,26.209 23.596,27.478 25.162,27.478" id="Fill-6" fill="#1A1919"></path>
                <path d="M42.17,24.68 C40.604,24.68 39.335,23.411 39.335,21.845 C39.335,20.28 40.604,19.011 42.17,19.011 C43.735,19.011 45.004,20.28 45.004,21.845 C45.004,23.411 43.735,24.68 42.17,24.68" id="Fill-7" fill="#1A1919"></path>
                <path d="M48.803,41.594 C47.237,41.594 45.968,40.325 45.968,38.76 C45.968,37.194 47.237,35.925 48.803,35.925 C50.368,35.925 51.638,37.194 51.638,38.76 C51.638,40.325 50.368,41.594 48.803,41.594" id="Fill-8" fill="#1A1919"></path>
                <path d="M19.804,50.155 C21.37,50.155 22.639,48.886 22.639,47.32 C22.639,45.755 21.37,44.486 19.804,44.486 C18.239,44.486 16.97,45.755 16.97,47.32 C16.97,48.886 18.239,50.155 19.804,50.155" id="Fill-9" fill="#1A1919"></path>
                <path d="M44.976,34.565 C44.976,32.999 43.707,31.73 42.142,31.73 C40.576,31.73 39.307,32.999 39.307,34.565 C39.307,36.13 40.576,37.399 42.142,37.399 C43.707,37.399 44.976,36.13 44.976,34.565" id="Fill-10" fill="#1A1919"></path>
                <g id="Group-17" transform="translate(19.000000, 22.000000)" stroke="#1A1919" stroke-width="2.2">
                    <path d="M14.843,16.401 L5.916,2.655 M14.843,31.639 L3.362,13.96 M14.488,40.386 L30.146,16.275 M14.647,13.383 L23.28,0.09 M23.142,11.147 L23.142,27.191 M10.98,25.32 L0.493,25.32" id="Stroke-11"></path>
                </g>
            </g>
        </g>
    </g>
</svg>