<?xml version="1.0" encoding="UTF-8"?>
<svg width="68px" height="69px" viewBox="0 0 68 69" version="1.1" xmlns="http://www.w3.org/2000/svg" xmlns:xlink="http://www.w3.org/1999/xlink">
    <title>Logo-Loxone-Air-black</title>
    <g id="01-Design-Language-2020-Update" stroke="none" stroke-width="1" fill="none" fill-rule="evenodd">
        <g id="Miniserver-Technik" transform="translate(-1124.000000, -4943.000000)" fill="#010306">
            <g id="Logo-Loxone-Air-black" transform="translate(1124.000000, 4943.494668)">
                <path d="M33.666,67.937 C15.103,67.937 0,52.833 0,34.271 C0,15.707 15.103,0.606 33.666,0.606 C52.229,0.606 67.332,15.707 67.332,34.271 C67.332,52.833 52.229,67.937 33.666,67.937 M33.666,2.106 C15.93,2.106 1.5,16.534 1.5,34.271 C1.5,52.007 15.93,66.437 33.666,66.437 C51.402,66.437 65.832,52.007 65.832,34.271 C65.832,16.534 51.402,2.106 33.666,2.106" id="Fill-1"></path>
                <path d="M33.649,51.329 C35.215,51.329 36.484,50.06 36.484,48.494 C36.484,46.929 35.215,45.659 33.649,45.659 C32.083,45.659 30.814,46.929 30.814,48.494 C30.814,50.06 32.083,51.329 33.649,51.329" id="Fill-7"></path>
                <path d="M17.15,23.099 L18.946,25.863 C23.182,23.102 28.226,21.481 33.65,21.481 C39.07,21.481 44.113,23.101 48.348,25.86 L50.143,23.096 C45.391,19.998 39.732,18.181 33.65,18.181 C27.564,18.181 21.903,19.999 17.15,23.099" id="Fill-8"></path>
                <path d="M21.777,30.223 L23.573,32.988 C26.476,31.095 29.933,29.985 33.649,29.985 C37.363,29.985 40.819,31.094 43.72,32.986 L45.516,30.22 C42.097,27.992 38.026,26.684 33.649,26.684 C29.27,26.684 25.197,27.993 21.777,30.223" id="Fill-9"></path>
                <path d="M26.404,37.349 L28.2,40.113 C29.769,39.089 31.639,38.488 33.649,38.488 C35.657,38.488 37.524,39.088 39.093,40.111 L40.888,37.345 C38.802,35.987 36.32,35.189 33.649,35.189 C30.977,35.189 28.492,35.987 26.404,37.349" id="Fill-10"></path>
            </g>
        </g>
    </g>
</svg>