<svg xmlns="http://www.w3.org/2000/svg" viewBox="0 0 200 200" fill="currentColor">
  <!-- IN -->
  <rect x="45" y="45" width="10" height="80"/>
  <path d="M 70 45 L 80 45 L 80 95 L 105 45 L 115 45 L 115 125 L 105 125 L 105 75 L 80 125 L 70 125 Z"/>
  
  <!-- TECH -->
  <rect x="20" y="105" width="80" height="10"/>
  <rect x="45" y="105" width="10" height="80"/>
  <path d="M 105 105 L 145 105 L 145 115 L 115 115 L 115 140 L 140 140 L 140 150 L 115 150 L 115 175 L 145 175 L 145 185 L 105 185 Z"/>
  <path d="M 150 135 Q 150 105 180 105 Q 210 105 210 135 Q 210 165 180 165 Q 150 165 150 135 M 160 135 Q 160 115 180 115 Q 200 115 200 135 Q 200 155 180 155 Q 160 155 160 135"/>
  <path d="M 20 145 L 30 145 L 30 115 L 50 115 L 50 145 L 60 145 L 60 105 L 20 105 Z"/>
  
  <!-- PRO -->
  <path d="M 45 165 L 45 225 L 55 225 L 55 200 L 70 200 Q 85 200 85 182.5 Q 85 165 70 165 Z M 55 175 L 70 175 Q 75 175 75 182.5 Q 75 190 70 190 L 55 190 Z"/>
  <path d="M 90 165 L 90 225 L 100 225 L 100 200 L 115 225 L 127 225 L 110 197 Q 125 195 125 182.5 Q 125 165 110 165 Z M 100 175 L 110 175 Q 115 175 115 182.5 Q 115 190 110 190 L 100 190 Z"/>
  <path d="M 130 195 Q 130 165 160 165 Q 190 165 190 195 Q 190 225 160 225 Q 130 225 130 195 M 140 195 Q 140 175 160 175 Q 180 175 180 195 Q 180 215 160 215 Q 140 215 140 195"/>
</svg>
