<svg width="24" height="24" viewBox="0 0 24 24" fill="none" xmlns="http://www.w3.org/2000/svg">
<path d="M7.71429 5.14293V7.71435L10.2857 9.42864M10.2857 9.42864L12.8572 7.71435V5.14293M10.2857 9.42864V10.2858C10.2857 11.2326 11.0532 12.0001 12 12.0001H16.2857C17.2325 12.0001 18 12.7676 18 13.7144C18 14.6611 17.2325 15.4286 16.2857 15.4286H7.71429C6.76752 15.4286 6.00001 16.1962 6.00001 17.1429C6.00001 18.0897 6.76752 18.8572 7.71429 18.8572H12M22.2857 5.14293H1.71429M3.42858 1.71436H20.5714C21.5182 1.71436 22.2857 2.48187 22.2857 3.42864V20.5715C22.2857 21.5183 21.5182 22.2858 20.5714 22.2858H3.42858C2.48181 22.2858 1.71429 21.5183 1.71429 20.5715V3.42864C1.71429 2.48187 2.48181 1.71436 3.42858 1.71436Z" stroke="black" stroke-width="1.5" stroke-linecap="round" stroke-linejoin="round"/>
</svg>
