<svg width="24" height="24" viewBox="0 0 24 24" fill="none" xmlns="http://www.w3.org/2000/svg">
<path d="M6.42854 6.85725C6.65587 6.85725 6.85712 6.656 6.85712 6.42868M6.42854 6.85725C6.20122 6.85725 5.99997 6.656 5.99997 6.42868M6.42854 6.85725V6.0001M6.42854 6.0001C6.65587 6.0001 6.85712 6.20135 6.85712 6.42868M6.42854 6.0001C6.20122 6.0001 5.99997 6.20135 5.99997 6.42868M6.85712 6.42868H5.99997M5.42868 13.8571C5.65601 13.8571 5.85726 13.6559 5.85726 13.4285M5.42868 13.8571C5.20136 13.8571 5.00011 13.6559 5.00011 13.4285M5.42868 13.8571V13M5.42868 13C5.65601 13 5.85726 13.2012 5.85726 13.4285M5.42868 13C5.20136 13 5.00011 13.2012 5.00011 13.4285M5.85726 13.4285H5.00011M10.4284 10.8571C10.6557 10.8571 10.857 10.6559 10.857 10.4285M10.4284 10.8571C10.2011 10.8571 9.99983 10.6559 9.99983 10.4285M10.4284 10.8571V9.99997M10.4284 9.99997C10.6557 9.99997 10.857 10.2012 10.857 10.4285M10.4284 9.99997C10.2011 9.99997 9.99983 10.2012 9.99983 10.4285M10.857 10.4285H9.99983M16.4284 6.85725C16.6557 6.85725 16.857 6.656 16.857 6.42868M16.4284 6.85725C16.2011 6.85725 15.9998 6.656 15.9998 6.42868M16.4284 6.85725V6.0001M16.4284 6.0001C16.6557 6.0001 16.857 6.20135 16.857 6.42868M16.4284 6.0001C16.2011 6.0001 15.9998 6.20135 15.9998 6.42868M16.857 6.42868H15.9998M20.4287 11.8574C20.656 11.8574 20.8573 11.6561 20.8573 11.4288M20.4287 11.8574C20.2014 11.8574 20.0001 11.6561 20.0001 11.4288M20.4287 11.8574V11.0002M20.4287 11.0002C20.656 11.0002 20.8573 11.2015 20.8573 11.4288M20.4287 11.0002C20.2014 11.0002 20.0001 11.2015 20.0001 11.4288M20.8573 11.4288H20.0001M22.2857 22.2858L12.8571 12.8572M0.857117 15.0613V5.51031C0.857117 3.88727 2.17285 2.57153 3.79589 2.57153H20.2041C21.8271 2.57153 23.1428 3.88727 23.1428 5.51031V15.0613C23.1428 16.6844 21.8271 18.0001 20.2041 18.0001H3.79589C2.17285 18.0001 0.857117 16.6844 0.857117 15.0613Z" stroke="black" stroke-width="1.5" stroke-linecap="round" stroke-linejoin="round"/>
</svg>
