<svg width="24" height="24" viewBox="0 0 24 24" fill="none" xmlns="http://www.w3.org/2000/svg">
<path d="M12.0001 13.1158V19.4447M8.83557 16.2803H15.1645M0.857193 7.71432C0.857193 3.92722 3.92724 0.857178 7.71434 0.857178M23.1429 7.71432C23.1429 3.92722 20.0728 0.857178 16.2858 0.857178M5.14291 7.71432C5.14291 6.29415 6.29417 5.14289 7.71434 5.14289M18.8572 7.71432C18.8572 6.29415 17.7059 5.14289 16.2858 5.14289M12.0001 23.1366C15.7867 23.1366 18.8564 20.067 18.8564 16.2803C18.8564 12.4937 15.7867 9.424 12.0001 9.424C8.21342 9.424 5.14374 12.4937 5.14374 16.2803C5.14374 20.067 8.21342 23.1366 12.0001 23.1366Z" stroke="black" stroke-width="1.5" stroke-linecap="round" stroke-linejoin="round"/>
</svg>
