<svg width="24" height="24" viewBox="0 0 24 24" fill="none" xmlns="http://www.w3.org/2000/svg">
<path d="M0.803925 12C0.803925 14.9553 1.9779 17.7895 4.06759 19.8792C6.15728 21.9689 8.99151 23.1429 11.9468 23.1429C14.9021 23.1429 17.7363 21.9689 19.826 19.8792C21.9157 17.7895 23.0896 14.9553 23.0896 12C23.0896 9.04476 21.9157 6.21054 19.826 4.12084C17.7363 2.03115 14.9021 0.857178 11.9468 0.857178C8.99151 0.857178 6.15728 2.03115 4.06759 4.12084C1.9779 6.21054 0.803925 9.04476 0.803925 12Z" stroke="black" stroke-width="1.5" stroke-linecap="round" stroke-linejoin="round"/>
<path d="M10.7017 6.85718C10.2605 6.85718 9.90285 7.21484 9.90285 7.65607V9.90298H7.65597C7.21476 9.90298 6.85708 10.2607 6.85708 10.7019V13.2983C6.85708 13.7395 7.21476 14.0972 7.65597 14.0972H9.90285V16.344C9.90285 16.7852 10.2605 17.1428 10.7017 17.1428H13.2981C13.7393 17.1428 14.097 16.7852 14.097 16.344V14.0972H16.3439C16.7851 14.0972 17.1428 13.7395 17.1428 13.2983V10.7019C17.1428 10.2607 16.7851 9.90298 16.3439 9.90298H14.097V7.65607C14.097 7.21484 13.7393 6.85718 13.2981 6.85718H10.7017Z" stroke="black" stroke-width="1.5" stroke-linecap="round" stroke-linejoin="round"/>
</svg>
