<svg width="24" height="24" viewBox="0 0 24 24" fill="none" xmlns="http://www.w3.org/2000/svg">
<path d="M17.1429 18.0001V19.7144C17.1429 20.6612 17.9104 21.4287 18.8572 21.4287M6.85722 18.0001V19.7144C6.85722 20.6612 6.0897 21.4287 5.14293 21.4287M5.14293 14.5715V11.143C5.14293 10.1962 5.91044 9.42868 6.85722 9.42868H17.1429C18.0897 9.42868 18.8572 10.1962 18.8572 11.143V14.5715M12.0001 18.0001V23.143M2.5715 2.57153H21.4286C22.3754 2.57153 23.1429 3.33905 23.1429 4.28582V12.8572C23.1429 13.804 22.3754 14.5715 21.4286 14.5715H2.5715C1.62473 14.5715 0.857216 13.804 0.857216 12.8572V4.28582C0.857216 3.33904 1.62473 2.57153 2.5715 2.57153Z" stroke="black" stroke-width="1.5" stroke-linecap="round" stroke-linejoin="round"/>
</svg>
