<svg width="24" height="24" viewBox="0 0 24 24" fill="none" xmlns="http://www.w3.org/2000/svg">
<path d="M6.42506 6.00003C4.71067 3.85717 8.13931 3.00004 6.42506 0.857178M12.5347 6.00003C10.8204 3.85717 14.249 3.00004 12.5347 0.857178M18.646 6.00003C16.9317 3.85717 20.3603 3.00004 18.646 0.857178M12 18V12.8572M15.4286 18V12.8572M18.8572 18V12.8572M6.00003 14.5715C6.47341 14.5715 6.85719 14.1877 6.85719 13.7143M6.00003 14.5715C5.52666 14.5715 5.14289 14.1877 5.14289 13.7143M6.00003 14.5715V12.8572M6.85719 13.7143C6.85719 13.2409 6.47341 12.8572 6.00003 12.8572M6.85719 13.7143H5.14289M6.00003 12.8572C5.52666 12.8572 5.14289 13.2409 5.14289 13.7143M0.857178 11.1429V19.7143C0.857178 20.6611 1.62469 21.4286 2.57146 21.4286H21.4286C22.3754 21.4286 23.1429 20.6611 23.1429 19.7143V11.1429C23.1429 10.1961 22.3754 9.42861 21.4286 9.42861H2.57146C1.62469 9.42861 0.857178 10.1961 0.857178 11.1429Z" stroke="black" stroke-width="1.5" stroke-linecap="round" stroke-linejoin="round"/>
</svg>
