<svg width="24" height="24" viewBox="0 0 24 24" fill="none" xmlns="http://www.w3.org/2000/svg">
<path d="M5.14286 18.8572V14.5715C5.14286 10.7844 8.2129 7.71432 12 7.71432C15.7871 7.71432 18.8571 10.7844 18.8571 14.5715V18.8572M12 0.857178V4.28575M2.57143 3.42861L4.99579 5.85297M21.4284 3.42861L19.004 5.85297M12 18.8572V14.5715M19.7143 23.1429H4.28572C3.33895 23.1429 2.57143 22.3754 2.57143 21.4286V20.5715C2.57143 19.6247 3.33895 18.8572 4.28572 18.8572H19.7143C20.6611 18.8572 21.4286 19.6247 21.4286 20.5715V21.4286C21.4286 22.3754 20.6611 23.1429 19.7143 23.1429Z" stroke="black" stroke-width="1.5" stroke-linecap="round" stroke-linejoin="round"/>
</svg>
