<svg width="24" height="24" viewBox="0 0 24 24" fill="none" xmlns="http://www.w3.org/2000/svg">
<path d="M0.857086 4.0188C1.89827 2.74687 3.17074 1.6716 4.61026 0.857178M17.6756 0.857178C19.1151 1.6716 20.3876 2.74687 21.4287 4.0188M11.5714 8.14289V12.4286H8.1428M19.0767 8.17603C17.5589 5.35006 14.5752 3.42861 11.1428 3.42861C6.17225 3.42861 2.1428 7.45805 2.1428 12.4286C2.1428 16.813 5.27785 20.465 9.42852 21.2656M17.9999 18.3976C18.2273 18.3976 18.4453 18.3073 18.606 18.1466C18.7668 17.9858 18.8571 17.7678 18.8571 17.5405M17.9999 18.3976C17.7726 18.3976 17.5546 18.3073 17.3939 18.1466C17.2331 17.9858 17.1428 17.7678 17.1428 17.5405M17.9999 18.3976V16.6834M18.8571 17.5405C18.8571 17.3132 18.7668 17.0951 18.606 16.9344C18.4453 16.7737 18.2273 16.6834 17.9999 16.6834M18.8571 17.5405H17.1428M17.9999 16.6834C17.7726 16.6834 17.5546 16.7737 17.3939 16.9344C17.2331 17.0951 17.1428 17.3132 17.1428 17.5405M16.4747 13.4482L16.8452 12.4917C16.9077 12.3297 17.0176 12.1904 17.1606 12.092C17.3036 11.9936 17.473 11.9407 17.6466 11.9402H18.3533C18.5269 11.9407 18.6963 11.9936 18.8393 12.092C18.9822 12.1904 19.0921 12.3297 19.1547 12.4917L19.5253 13.4482L20.7834 14.1721L21.8002 14.017C21.9695 13.994 22.1418 14.0219 22.2952 14.0971C22.4488 14.1723 22.5764 14.2914 22.6619 14.4393L23.0067 15.0425C23.095 15.1927 23.1358 15.3662 23.1234 15.5401C23.1111 15.7139 23.0465 15.8799 22.9378 16.0162L22.3086 16.8177V18.2654L22.9549 19.0668C23.0636 19.2031 23.1284 19.3692 23.1406 19.5431C23.1529 19.7169 23.1123 19.8904 23.024 20.0405L22.6793 20.6438C22.5937 20.7917 22.466 20.9109 22.3126 20.986C22.1591 21.0612 21.9869 21.089 21.8175 21.066L20.8006 20.9111L19.5425 21.6348L19.172 22.5914C19.1094 22.7534 18.9995 22.8926 18.8564 22.991C18.7134 23.0894 18.5441 23.1424 18.3706 23.1429H17.6466C17.473 23.1424 17.3036 23.0894 17.1606 22.991C17.0176 22.8926 16.9077 22.7534 16.8452 22.5914L16.4747 21.6348L15.2165 20.9111L14.1996 21.066C14.0303 21.089 13.858 21.0612 13.7045 20.986C13.5511 20.9109 13.4235 20.7917 13.3379 20.6438L12.9932 20.0405C12.9049 19.8904 12.8642 19.7169 12.8765 19.5431C12.8888 19.3692 12.9535 19.2031 13.0621 19.0668L13.6912 18.2654V16.8177L13.0449 16.0162C12.9363 15.8799 12.8715 15.7139 12.8592 15.5401C12.8469 15.3662 12.8876 15.1927 12.9759 15.0425L13.3206 14.4393C13.4062 14.2914 13.5339 14.1723 13.6873 14.0971C13.8408 14.0219 14.0131 13.994 14.1824 14.017L15.1993 14.1721L16.4747 13.4482Z" stroke="black" stroke-width="1.5" stroke-linecap="round" stroke-linejoin="round"/>
</svg>
