<svg width="24" height="24" viewBox="0 0 24 24" fill="none" xmlns="http://www.w3.org/2000/svg">
<path d="M0.857239 7.71432C0.857239 3.92722 3.92728 0.857178 7.71438 0.857178M23.143 7.71432C23.143 3.92722 20.0728 0.857178 16.2858 0.857178M5.14295 7.71432C5.14295 6.29415 6.29422 5.14289 7.71438 5.14289M18.8572 7.71432C18.8572 6.29415 17.7059 5.14289 16.2858 5.14289M17.9209 17.3317C17.9209 20.6016 15.2701 23.2525 12.0001 23.2525C8.73006 23.2525 6.0792 20.6016 6.0792 17.3317C6.0792 13.7792 12.0001 7.85829 12.0001 7.85829C12.0001 7.85829 17.9209 13.7792 17.9209 17.3317Z" stroke="black" stroke-width="1.5" stroke-linecap="round" stroke-linejoin="round"/>
</svg>
