<svg width="24" height="24" viewBox="0 0 24 24" fill="none" xmlns="http://www.w3.org/2000/svg">
<path d="M0.857178 7.71432C0.857178 3.92722 3.92722 0.857178 7.71432 0.857178M23.1429 7.71432C23.1429 3.92722 20.0728 0.857178 16.2857 0.857178M5.14289 7.71432C5.14289 6.29415 6.29415 5.14289 7.71432 5.14289M18.8572 7.71432C18.8572 6.29415 17.7059 5.14289 16.2857 5.14289M10.9914 7.77963C10.9199 7.7369 10.8381 7.71432 10.7547 7.71432C10.6713 7.71432 10.5895 7.7369 10.518 7.77963C10.4589 7.82642 10.4191 7.89321 10.406 7.96737C10.3929 8.04153 10.4075 8.11793 10.447 8.18208C11.9028 10.7032 12.2105 14.1357 10.2221 16.0295C9.45701 15.3866 8.84962 14.5767 8.44662 13.6623C7.71128 14.0707 7.10185 14.6727 6.68453 15.403C6.2672 16.1334 6.0579 16.9641 6.07938 17.8049C6.1094 18.5462 6.28738 19.2741 6.60286 19.9454C6.91834 20.6169 7.36494 21.2186 7.91638 21.7149C8.46783 22.2112 9.11297 22.5921 9.81383 22.8353C10.5147 23.0786 11.2572 23.1792 11.9975 23.1312C15.8088 23.1312 17.7854 20.764 17.9157 17.8049C18.0695 14.2541 15.5484 9.88649 10.9914 7.77963Z" stroke="black" stroke-width="1.5" stroke-linecap="round" stroke-linejoin="round"/>
</svg>
