<svg width="24" height="24" viewBox="0 0 24 24" fill="none" xmlns="http://www.w3.org/2000/svg">
<path d="M5.99997 18.8572L7.26699 10.6216C7.5243 8.94899 8.96345 7.71432 10.6557 7.71432H13.3442C15.0365 7.71432 16.4756 8.94899 16.7329 10.6216L18 18.8572M12 0.857178V4.28575M2.5714 3.42861L4.99576 5.85297M21.4284 3.42861L19.004 5.85297M12 18.8572V14.5715M19.7143 23.1429H4.28568C3.33892 23.1429 2.5714 22.3754 2.5714 21.4286V20.5715C2.5714 19.6247 3.33892 18.8572 4.28568 18.8572H19.7143C20.6611 18.8572 21.4285 19.6247 21.4285 20.5715V21.4286C21.4285 22.3754 20.6611 23.1429 19.7143 23.1429Z" stroke="black" stroke-width="1.5" stroke-linecap="round" stroke-linejoin="round"/>
</svg>
