<svg width="24" height="24" viewBox="0 0 24 24" fill="none" xmlns="http://www.w3.org/2000/svg">
<path d="M8.57134 23.1429H11.9999M6.95991 4.28575C5.88926 4.87953 4.99709 5.74913 4.37609 6.80424C3.75509 7.85933 3.42788 9.06146 3.42848 10.2857V16.2857C3.42848 16.9677 3.15756 17.6219 2.67533 18.1041C2.1931 18.5863 1.53904 18.8572 0.857056 18.8572H19.7142C19.0323 18.8572 18.3781 18.5863 17.8959 18.1041C17.4136 17.6219 17.1428 16.9677 17.1428 16.2857V15.4286M17.1428 6.00003L18.4285 4.71432M17.1428 11.1429C19.9832 11.1429 22.2856 8.84035 22.2856 6.00003C22.2856 3.15972 19.9832 0.857178 17.1428 0.857178C14.3025 0.857178 11.9999 3.15972 11.9999 6.00003C11.9999 8.84035 14.3025 11.1429 17.1428 11.1429Z" stroke="black" stroke-width="1.5" stroke-linecap="round" stroke-linejoin="round"/>
</svg>
