<svg width="24" height="24" viewBox="0 0 24 24" fill="none" xmlns="http://www.w3.org/2000/svg">
<path d="M2.17787 0.218341C2.53051 0.00133456 2.99291 0.110994 3.2101 0.463458L9.51479 10.7086C10.0021 11.5005 10.0021 12.4996 9.51479 13.2916L3.2101 23.5357C2.99301 23.8885 2.53064 23.9989 2.17787 23.7818C1.82525 23.5647 1.7157 23.1023 1.93276 22.7496L8.23744 12.5055C8.42798 12.1956 8.42801 11.8045 8.23744 11.4947L1.93276 1.25057C1.71575 0.897926 1.82541 0.435526 2.17787 0.218341Z" fill="black"/>
<path d="M20.7899 0.463458C21.007 0.111111 21.4686 0.0015546 21.8211 0.218341C22.1739 0.435429 22.2843 0.897799 22.0672 1.25057L15.7772 11.4713C15.5779 11.7956 15.5777 12.2046 15.7772 12.5289L22.0672 22.7496C22.2843 23.1024 22.1739 23.5647 21.8211 23.7818C21.4684 23.9985 21.0069 23.8883 20.7899 23.5357L14.4999 13.315C14.0037 12.5086 14.0038 11.4916 14.4999 10.6851L20.7899 0.463458Z" fill="black"/>
</svg>
