<svg width="24" height="24" viewBox="0 0 24 24" fill="none" xmlns="http://www.w3.org/2000/svg">
<path d="M8.79026 0.46346C9.00745 0.11099 9.46985 0.00133508 9.82249 0.218343C10.175 0.435525 10.2846 0.897924 10.0676 1.25057L3.76292 11.4947C3.57235 11.8045 3.57239 12.1956 3.76292 12.5055L10.0676 22.7496C10.2847 23.1023 10.1751 23.5647 9.82249 23.7818C9.46972 23.9989 9.00736 23.8885 8.79026 23.5357L2.48558 13.2916C1.99831 12.4996 1.99828 11.5005 2.48558 10.7086L8.79026 0.46346Z" fill="black"/>
<path d="M14.178 0.218343C14.5306 0.00133319 14.993 0.110994 15.2102 0.46346L21.5002 10.6851C21.9963 11.4916 21.9964 12.5087 21.5002 13.315L15.2102 23.5357C14.9931 23.8885 14.5307 23.9989 14.178 23.7818C13.8253 23.5647 13.7158 23.1023 13.9328 22.7496L20.2229 12.5289C20.4223 12.2047 20.4222 11.7956 20.2229 11.4713L13.9328 1.25057C13.7158 0.897928 13.8255 0.43553 14.178 0.218343Z" fill="black"/>
</svg>
