<svg width="24" height="24" viewBox="0 0 24 24" fill="none" xmlns="http://www.w3.org/2000/svg">
<path d="M10.7076 2.48568C11.4996 1.99825 12.4995 1.99827 13.2916 2.48568L23.5357 8.79037C23.8885 9.00745 23.9989 9.46982 23.7818 9.82259C23.5647 10.1752 23.1023 10.2848 22.7496 10.0677L12.5055 3.76302C12.1955 3.5723 11.8037 3.57229 11.4937 3.76302L1.25058 10.0677C0.897931 10.2847 0.435536 10.1751 0.21835 9.82259C0.00133051 9.46995 0.11099 9.00755 0.463467 8.79037L10.7076 2.48568Z" fill="black"/>
<path d="M22.7496 13.9329C23.1023 13.7159 23.5647 13.8254 23.7818 14.1781C23.9989 14.5308 23.8885 14.9932 23.5357 15.2103L13.315 21.5003C12.5087 21.9965 11.4916 21.9964 10.6851 21.5003L0.463467 15.2103C0.111 14.9931 0.0013396 14.5307 0.21835 14.1781C0.435536 13.8256 0.897935 13.7159 1.25058 13.9329L11.4713 20.223C11.7956 20.4223 12.2047 20.4224 12.5289 20.223L22.7496 13.9329Z" fill="black"/>
</svg>
