<svg width="24" height="24" viewBox="0 0 24 24" fill="none" xmlns="http://www.w3.org/2000/svg">
<path d="M22.7496 1.93275C23.1023 1.7157 23.5647 1.82525 23.7818 2.17787C23.9989 2.53064 23.8885 2.99301 23.5357 3.21009L13.2916 9.51478C12.4995 10.0022 11.4996 10.0022 10.7076 9.51478L0.463465 3.21009C0.110994 2.9929 0.00132997 2.53051 0.218348 2.17787C0.435537 1.82539 0.897933 1.71573 1.25057 1.93275L11.4937 8.23744C11.8037 8.42817 12.1955 8.42816 12.5055 8.23744L22.7496 1.93275Z" fill="black"/>
<path d="M10.6851 14.4999C11.4916 14.0038 12.5086 14.0037 13.315 14.4999L23.5357 20.7899C23.8883 21.0069 23.9985 21.4684 23.7818 21.8211C23.5647 22.1739 23.1024 22.2843 22.7496 22.0672L12.5289 15.7772C12.2046 15.5777 11.7956 15.5779 11.4713 15.7772L1.25057 22.0672C0.897806 22.2843 0.435436 22.1739 0.218348 21.8211C0.00156106 21.4685 0.111117 21.007 0.463465 20.7899L10.6851 14.4999Z" fill="black"/>
</svg>
