<svg width="24" height="24" viewBox="0 0 24 24" fill="none" xmlns="http://www.w3.org/2000/svg">
<path d="M7.71429 12.0001C7.71429 12.4735 7.33053 12.8572 6.85714 12.8572M7.71429 12.0001C7.71429 11.5267 7.33053 11.1429 6.85714 11.1429M7.71429 12.0001L6.00004 12M6.85714 12.8572V11.1429M6.85714 12.8572C6.38376 12.8572 6.00004 12.4734 6.00004 12M6.85714 11.1429C6.38376 11.1429 6.00004 11.5266 6.00004 12M18 12.0001C18 12.4735 17.6162 12.8572 17.1429 12.8572C16.6695 12.8572 16.2857 12.4735 16.2857 12.0001M18 12.0001C18 11.5267 17.6162 11.1429 17.1429 11.1429C16.6695 11.1429 16.2857 11.5267 16.2857 12.0001M18 12.0001H16.2857M12.8571 17.1429C12.8571 17.6163 12.4734 18.0001 12 18.0001M12.8571 17.1429C12.8571 16.6695 12.4734 16.2858 12 16.2858M12.8571 17.1429H11.1429M12 18.0001C11.5266 18.0001 11.1429 17.6163 11.1429 17.1429M12 18.0001V16.2858M12 16.2858C11.5266 16.2858 11.1429 16.6695 11.1429 17.1429M22.2857 12.0001C22.2857 17.6807 17.6806 22.2858 12 22.2858C6.31936 22.2858 1.71429 17.6807 1.71429 12.0001C1.71429 6.31943 6.31936 1.71436 12 1.71436C17.6806 1.71436 22.2857 6.31943 22.2857 12.0001Z" stroke="black" stroke-width="1.5" stroke-linecap="round" stroke-linejoin="round"/>
</svg>
