<svg width="24" height="24" viewBox="0 0 24 24" fill="none" xmlns="http://www.w3.org/2000/svg">
<g clip-path="url(#clip0_7460_1291)">
<path d="M0.106934 18.825V5.11112C0.106934 4.69691 0.44272 4.36112 0.856934 4.36112C1.27115 4.36112 1.60693 4.69691 1.60693 5.11112V18.825C1.60693 19.2392 1.27115 19.575 0.856934 19.575C0.44272 19.575 0.106934 19.2392 0.106934 18.825Z" fill="black"/>
<path d="M4.56424 14.5712V9.42864C4.56424 9.01443 4.90003 8.67864 5.31424 8.67864C5.72846 8.67864 6.06424 9.01443 6.06424 9.42864V14.5712C6.06424 14.9854 5.72846 15.3212 5.31424 15.3212C4.90003 15.3212 4.56424 14.9854 4.56424 14.5712Z" fill="black"/>
<path d="M9.02155 22.2856V1.71436C9.02155 1.30014 9.35734 0.964355 9.77155 0.964355C10.1858 0.964355 10.5216 1.30014 10.5216 1.71436V22.2856C10.5216 22.6999 10.1858 23.0356 9.77155 23.0356C9.35734 23.0356 9.02155 22.6999 9.02155 22.2856Z" fill="black"/>
<path d="M13.4789 18.8568V5.14293C13.4789 4.72871 13.8147 4.39293 14.2289 4.39293C14.6431 4.39293 14.9789 4.72871 14.9789 5.14293V18.8568C14.9789 19.271 14.6431 19.6068 14.2289 19.6068C13.8147 19.6068 13.4789 19.271 13.4789 18.8568Z" fill="black"/>
<path d="M17.9362 14.5712V9.42864C17.9362 9.01443 18.272 8.67864 18.6862 8.67864C19.1004 8.67864 19.4362 9.01443 19.4362 9.42864V14.5712C19.4362 14.9854 19.1004 15.3212 18.6862 15.3212C18.272 15.3212 17.9362 14.9854 17.9362 14.5712Z" fill="black"/>
<path d="M22.3935 13.7145V10.2858C22.3935 9.87157 22.7293 9.53578 23.1435 9.53578C23.5577 9.53578 23.8935 9.87157 23.8935 10.2858V13.7145C23.8934 14.1286 23.5577 14.4645 23.1435 14.4645C22.7293 14.4645 22.3936 14.1286 22.3935 13.7145Z" fill="black"/>
</g>
<defs>
<clipPath id="clip0_7460_1291">
<rect width="24" height="24" fill="white"/>
</clipPath>
</defs>
</svg>
