<svg width="24" height="24" viewBox="0 0 24 24" fill="none" xmlns="http://www.w3.org/2000/svg">
<path d="M5.14293 7.71432V2.57146C5.14293 1.62469 5.91044 0.857178 6.85721 0.857178C7.80399 0.857178 8.5715 1.62469 8.5715 2.57146V7.71432M5.14293 7.71432H8.5715M5.14293 7.71432C4.19615 7.71432 3.42864 8.48183 3.42864 9.42861V16.2857C3.42864 18.1793 4.96366 19.7143 6.85721 19.7143C8.75076 19.7143 10.2858 18.1793 10.2858 16.2857V9.42861C10.2858 8.48183 9.51827 7.71432 8.5715 7.71432M6.85721 20.5715V23.1429M15.4286 7.71432V2.57146C15.4286 1.62469 16.1962 0.857178 17.1429 0.857178C18.0897 0.857178 18.8572 1.62469 18.8572 2.57146V7.71432M15.4286 7.71432H18.8572M15.4286 7.71432C14.4819 7.71432 13.7144 8.48183 13.7144 9.42861V16.2857C13.7144 18.1793 15.2494 19.7143 17.1429 19.7143C19.0365 19.7143 20.5715 18.1793 20.5715 16.2857V9.42861C20.5715 8.48183 19.804 7.71432 18.8572 7.71432M3.42864 12H10.2858M13.7144 12H20.5715M17.1429 20.5715V23.1429" stroke="black" stroke-width="1.5" stroke-linecap="round" stroke-linejoin="round"/>
</svg>
