<svg width="24" height="24" viewBox="0 0 24 24" fill="none" xmlns="http://www.w3.org/2000/svg">
<path d="M14.7055 17.5179H20.3305M20.3305 17.5179L18.2211 19.6273M20.3305 17.5179L18.2211 15.4085M8.57156 19.7143H2.57156C1.62478 19.7143 0.857269 18.9468 0.857269 18V10.187C0.857269 9.70395 1.06102 9.24338 1.4184 8.91849L10.2858 0.857178L19.1533 8.91849M11.893 17.5179C11.893 19.0097 12.4856 20.4405 13.5405 21.4954C14.5954 22.5503 16.0261 23.1429 17.518 23.1429C19.0098 23.1429 20.4406 22.5503 21.4955 21.4954C22.5504 20.4405 23.143 19.0097 23.143 17.5179C23.143 16.0261 22.5504 14.5953 21.4955 13.5404C20.4406 12.4855 19.0098 11.8929 17.518 11.8929C16.0261 11.8929 14.5954 12.4855 13.5405 13.5404C12.4856 14.5953 11.893 16.0261 11.893 17.5179Z" stroke="black" stroke-width="1.5" stroke-linecap="round" stroke-linejoin="round"/>
</svg>
