<svg width="24" height="24" viewBox="0 0 24 24" fill="none" xmlns="http://www.w3.org/2000/svg">
<path d="M4.28573 15.5713V21.4285C4.28573 22.3752 5.05324 23.1428 6.00002 23.1428H18C18.9468 23.1428 19.7143 22.3752 19.7143 21.4285V15.5713M8.57166 0.857178V11.4272M15.4286 1.85746V11.4275M12.0002 15.4286V23.1429M12.0002 15.4286L9.4288 18M12.0002 15.4286L14.5717 18M3.1221 2.18599L1.34188 9.90028C1.09399 10.9745 1.90984 12 3.01227 12H20.9881C22.0905 12 22.9064 10.9745 22.6585 9.90028L20.8783 2.18599C20.6988 1.40816 20.0061 0.857178 19.2079 0.857178H4.79249C3.99422 0.857178 3.3016 1.40817 3.1221 2.18599Z" stroke="black" stroke-width="1.5" stroke-linecap="round" stroke-linejoin="round"/>
</svg>
