<svg width="24" height="24" viewBox="0 0 24 24" fill="none" xmlns="http://www.w3.org/2000/svg">
<path d="M4.28551 7.71432V20.2115C4.28551 21.8304 5.59796 23.1429 7.21694 23.1429H16.7827C18.4016 23.1429 19.7141 21.8304 19.7141 20.2115V7.71432M15.4284 0.857178V4.28575M8.57123 0.857178V4.28575M9.42837 12.8572L11.9998 11.1429L14.5712 12.8572M14.5712 16.2858L11.9998 18L9.42837 16.2858M4.2857 4.28575H19.7143C21.1269 4.28575 21.9333 2.67301 21.0857 1.54289C20.7619 1.11122 20.2539 0.857178 19.7143 0.857178H4.2857C3.74611 0.857178 3.23802 1.11122 2.91427 1.54289C2.06668 2.67301 2.87305 4.28575 4.2857 4.28575Z" stroke="black" stroke-width="1.5" stroke-linecap="round" stroke-linejoin="round"/>
</svg>
