<svg width="24" height="24" viewBox="0 0 24 24" fill="none" xmlns="http://www.w3.org/2000/svg">
<path d="M15.4284 0.857178V4.28575M8.57128 0.857178V4.28575M11.9999 9.42861V17.1429M11.9999 17.1429L9.42842 14.5715M11.9999 17.1429L14.5713 14.5715M4.28557 7.71432V21.4286C4.28557 22.3754 5.05308 23.1429 5.99985 23.1429H17.9999C18.9466 23.1429 19.7141 22.3754 19.7141 21.4286V7.71432M4.28533 4.28575H19.7139C21.1266 4.28575 21.9329 2.67301 21.0853 1.54289C20.7616 1.11122 20.2535 0.857178 19.7139 0.857178H4.28533C3.74575 0.857178 3.23765 1.11122 2.9139 1.54289C2.06631 2.67301 2.87268 4.28575 4.28533 4.28575Z" stroke="black" stroke-width="1.5" stroke-linecap="round" stroke-linejoin="round"/>
</svg>
