<svg width="24" height="24" viewBox="0 0 24 24" fill="none" xmlns="http://www.w3.org/2000/svg">
<path d="M3.24988 5.25H21.2499M12.2499 14.25C12.2499 14.25 9.24988 18.593 9.24988 20.25C9.24988 21.0456 9.56595 21.8087 10.1286 22.3713C10.6912 22.9339 11.4542 23.25 12.2499 23.25C13.0455 23.25 13.8086 22.9339 14.3712 22.3713C14.9338 21.8087 15.2499 21.0456 15.2499 20.25C15.2499 18.593 12.2499 14.25 12.2499 14.25ZM12.2499 14.25V0.75M4.74988 5.25V11.25M4.74988 11.25C5.14384 11.25 5.53395 11.3276 5.89793 11.4784C6.26191 11.6291 6.59262 11.8501 6.8712 12.1287C7.14977 12.4073 7.37075 12.738 7.52152 13.1019C7.67228 13.4659 7.74988 13.856 7.74988 14.25C7.74988 14.644 7.67228 15.0341 7.52152 15.3981C7.37075 15.762 7.14977 16.0927 6.8712 16.3713C6.59262 16.6499 6.26191 16.8709 5.89793 17.0216C5.53395 17.1724 5.14384 17.25 4.74988 17.25C4.35591 17.25 3.9658 17.1724 3.60183 17.0216C3.23785 16.8709 2.90713 16.6499 2.62856 16.3713C2.34998 16.0927 2.129 15.762 1.97824 15.3981C1.82748 15.0341 1.74988 14.644 1.74988 14.25C1.74988 13.856 1.82748 13.4659 1.97824 13.1019C2.129 12.738 2.34998 12.4073 2.62856 12.1287C2.90713 11.8501 3.23785 11.6291 3.60183 11.4784C3.9658 11.3276 4.35591 11.25 4.74988 11.25ZM19.7499 9L16.9839 15.223C16.9588 15.2801 16.9484 15.3426 16.9535 15.4047C16.9586 15.4669 16.9791 15.5268 17.0131 15.5791C17.0471 15.6314 17.0936 15.6744 17.1484 15.7042C17.2032 15.734 17.2645 15.7498 17.3269 15.75H22.1729C22.2353 15.7498 22.2966 15.734 22.3514 15.7042C22.4062 15.6744 22.4527 15.6314 22.4867 15.5791C22.5207 15.5268 22.5412 15.4669 22.5463 15.4047C22.5514 15.3426 22.5409 15.2801 22.5159 15.223L19.7499 9ZM19.7499 9L19.7499 5.25" stroke="black" stroke-width="1.5" stroke-linecap="round" stroke-linejoin="round"/>
</svg>
