<svg width="24" height="24" viewBox="0 0 24 24" fill="none" xmlns="http://www.w3.org/2000/svg">
<path d="M1.71436 11.1429V20.5715C1.71436 21.5183 2.48187 22.2858 3.42864 22.2858H20.5715C21.5183 22.2858 22.2858 21.5183 22.2858 20.5715V11.1429M6.85721 13.7144V22.2858M12.0001 13.7144V22.2858M17.1429 13.7144V22.2858M14.5715 1.71436V6.00007M14.5715 6.00007C14.7988 6.00007 15.0169 6.09038 15.1776 6.25112C15.3384 6.41187 15.4287 6.62988 15.4287 6.85721M14.5715 6.00007C14.3442 6.00007 14.1262 6.09038 13.9654 6.25112C13.8047 6.41187 13.7144 6.62988 13.7144 6.85721M14.5715 6.00007L14.5715 7.71436M9.42864 3.42864V6.00007M9.42864 6.00007C9.65597 6.00007 9.87399 6.09038 10.0347 6.25112C10.1955 6.41187 10.2858 6.62988 10.2858 6.85721M9.42864 6.00007C9.20131 6.00007 8.98329 6.09038 8.82255 6.25112C8.6618 6.41187 8.5715 6.62988 8.5715 6.85721M9.42864 6.00007V7.71436M19.7144 3.42864V6.00007M19.7144 6.00007C19.9417 6.00007 20.1597 6.09038 20.3204 6.25112C20.4812 6.41187 20.5715 6.62988 20.5715 6.85721M19.7144 6.00007C19.487 6.00007 19.269 6.09038 19.1083 6.25112C18.9475 6.41187 18.8572 6.62988 18.8572 6.85721M19.7144 6.00007V7.71436M8.5715 3.42864H20.5715M9.42864 7.71436C9.65597 7.71436 9.87399 7.62405 10.0347 7.4633C10.1955 7.30256 10.2858 7.08454 10.2858 6.85721M9.42864 7.71436C9.20131 7.71436 8.98329 7.62405 8.82255 7.4633C8.6618 7.30256 8.5715 7.08454 8.5715 6.85721M10.2858 6.85721H8.5715M14.5715 7.71436C14.7989 7.71436 15.0169 7.62405 15.1776 7.4633C15.3384 7.30256 15.4287 7.08454 15.4287 6.85721M14.5715 7.71436C14.3442 7.71436 14.1262 7.62405 13.9654 7.4633C13.8047 7.30256 13.7144 7.08454 13.7144 6.85721M15.4287 6.85721H13.7144M19.7144 7.71436C19.9417 7.71436 20.1597 7.62405 20.3204 7.4633C20.4812 7.30256 20.5715 7.08454 20.5715 6.85721M19.7144 7.71436C19.487 7.71436 19.269 7.62405 19.1083 7.4633C18.9475 7.30256 18.8572 7.08454 18.8572 6.85721M20.5715 6.85721H18.8572M1.71436 13.7144H22.2858" stroke="black" stroke-width="1.5" stroke-linecap="round" stroke-linejoin="round"/>
</svg>
