<svg width="24" height="24" viewBox="0 0 24 24" fill="none" xmlns="http://www.w3.org/2000/svg">
<path d="M11.9999 2.61157C15.9768 2.61157 20.081 5.55013 20.4336 10.0069C20.7706 10.0069 21.1043 10.0733 21.4157 10.2023C21.7271 10.3313 22.01 10.5203 22.2483 10.7586C22.4866 10.9969 22.6756 11.2798 22.8046 11.5912C22.9336 11.9026 22.9999 12.2363 22.9999 12.5733C22.9999 12.9103 22.9336 13.244 22.8046 13.5554C22.6756 13.8667 22.4866 14.1497 22.2483 14.388C22.01 14.6263 21.7271 14.8153 21.4157 14.9443C21.1043 15.0732 20.7706 15.1396 20.4336 15.1396C19.8833 16.9476 18.7666 18.5308 17.2481 19.6559C15.7296 20.781 13.8898 21.3883 11.9999 21.3883C10.1101 21.3883 8.27026 20.781 6.75178 19.6559C5.23331 18.5308 4.11658 16.9476 3.56628 15.1396C2.88564 15.1396 2.23288 14.8692 1.7516 14.388C1.27032 13.9067 0.999939 13.2539 0.999939 12.5733C0.999939 11.8926 1.27032 11.2399 1.7516 10.7586C2.23288 10.2773 2.88564 10.0069 3.56628 10.0069C3.91891 5.55013 8.02309 2.61157 11.9999 2.61157ZM11.9999 2.61157C12.404 2.61134 12.8004 2.72222 13.1458 2.93208C13.4911 3.14194 13.7721 3.4427 13.958 3.8015C14.1439 4.16029 14.2276 4.56329 14.2 4.96645C14.1723 5.3696 14.0343 5.75739 13.8011 6.08741C13.5679 6.41742 13.2484 6.67697 12.8776 6.83767C12.5069 6.99836 12.099 7.05402 11.6988 6.99856C11.2985 6.94311 10.9211 6.77866 10.608 6.52321C10.2949 6.26776 10.058 5.93113 9.92335 5.55014M13.9588 16.9813C13.4201 17.4632 12.7226 17.7296 11.9998 17.7296C11.277 17.7296 10.5795 17.4632 10.0407 16.9813M17.1422 11.1043C17.1422 11.494 16.9874 11.8677 16.7118 12.1433C16.4363 12.4188 16.0626 12.5736 15.6729 12.5736C15.2832 12.5736 14.9095 12.4188 14.634 12.1433C14.3584 11.8677 14.2036 11.494 14.2036 11.1043M9.79599 11.1043C9.79599 11.494 9.64119 11.8677 9.36565 12.1433C9.0901 12.4188 8.71639 12.5736 8.32671 12.5736C7.93703 12.5736 7.56331 12.4188 7.28777 12.1433C7.01223 11.8677 6.85743 11.494 6.85743 11.1043" stroke="black" stroke-width="1.5" stroke-linecap="round" stroke-linejoin="round"/>
</svg>
