<svg width="24" height="24" viewBox="0 0 24 24" fill="none" xmlns="http://www.w3.org/2000/svg">
<path d="M12 0.857178C5.84598 0.857178 0.857147 5.84601 0.857147 12C0.857147 18.1541 5.84598 23.1429 12 23.1429C18.1541 23.1429 23.1429 18.1541 23.1429 12C23.1429 5.84601 18.1541 0.857178 12 0.857178ZM12 0.857178L12 6.00003M6.42858 10.7143L8.57143 16.7143M6.42858 10.7143L12 6.00003M6.42858 10.7143L1.71429 9.42861M8.57143 16.7143H15.4286M8.57143 16.7143L5.14286 20.5715M15.4286 16.7143L17.5714 10.7143M15.4286 16.7143L18.8571 20.5715M17.5714 10.7143L12 6.00003M17.5714 10.7143L22.2857 9.42861" stroke="black" stroke-width="1.5" stroke-linecap="round" stroke-linejoin="round"/>
</svg>
