<svg width="24" height="24" viewBox="0 0 24 24" fill="none" xmlns="http://www.w3.org/2000/svg">
<path d="M12.0002 0.857178V12M12.0002 0.857178C14.9555 0.857178 17.7897 2.03115 19.8794 4.12085C21.9691 6.21054 23.1431 9.04477 23.1431 12C23.1431 14.9553 21.9691 17.7895 19.8794 19.8792C17.7897 21.9689 14.9555 23.1429 12.0002 23.1429C9.04493 23.1429 6.2107 21.9689 4.12101 19.8792C2.03132 17.7895 0.857346 14.9553 0.857346 12C0.857346 9.04477 2.03132 6.21054 4.12101 4.12085C6.2107 2.03115 9.04493 0.857178 12.0002 0.857178ZM12.0002 12L2.35065 17.5715M12.0002 12L21.6498 17.5711M6.0002 15.4642V2.60871M18.0005 15.4642L6.86739 21.892M11.9998 5.07174L23.1329 11.4995" stroke="black" stroke-width="1.5" stroke-linecap="round" stroke-linejoin="round"/>
</svg>
