<svg width="24" height="24" viewBox="0 0 24 24" fill="none" xmlns="http://www.w3.org/2000/svg">
<path d="M9.93821 19.0287C14.5129 17.2438 21.1247 14.6645 21.6525 14.4583C22.1802 14.252 22.5476 13.7129 22.5465 13.1463C22.5454 12.5796 22.5465 12.0629 22.5465 11.2973C22.5465 10.5316 21.9065 9.89156 21.1408 9.89156C20.3752 9.89156 18.3893 9.92973 18.3294 9.89156C18.2694 9.8534 18.3294 7.84578 18.3294 7.08014C18.3294 6.31449 17.6893 5.67442 16.9237 5.67442C16.158 5.67442 14.2303 5.79245 14.1122 5.67442C13.9942 5.55639 14.1122 3.62864 14.1122 2.86299C14.1122 2.09735 13.4722 1.45728 12.7065 1.45728C11.9409 1.45728 11.4185 1.45837 10.8519 1.45728C10.2853 1.45618 9.74617 1.82356 9.53992 2.35131C9.33367 2.87907 5.17697 13.5339 4.97135 14.0618M14.1085 5.67435L6.59921 15.6868M18.3255 9.89143L8.31308 17.4008M7.45669 21.514L7.95431 21.0173L2.98746 16.0505L2.48983 16.5472C1.21701 17.9131 1.25573 20.1077 2.57595 21.4279C3.89617 22.7481 6.09072 22.7868 7.45669 21.514ZM4.97124 14.0579L9.94184 19.0285L7.95322 21.0152L2.98356 16.0465L4.97124 14.0579Z" stroke="black" stroke-width="1.5" stroke-linecap="round" stroke-linejoin="round"/>
</svg>
