<svg width="24" height="24" viewBox="0 0 24 24" fill="none" xmlns="http://www.w3.org/2000/svg">
<path d="M12.0001 23.1429C8.64901 23.1429 5.64345 21.6636 3.60075 19.3225M12.0001 23.1429C15.3511 23.1429 18.3567 21.6636 20.3994 19.3225M12.0001 23.1429V0.857178M12.0001 0.857178C8.64901 0.857178 5.64345 2.33643 3.60075 4.67758M12.0001 0.857178C15.3511 0.857178 18.3567 2.33643 20.3994 4.67758M3.60075 4.67758C1.89215 6.63581 0.857208 9.19706 0.857208 12C0.857208 14.803 1.89215 17.3643 3.60075 19.3225M3.60075 4.67758C6.06754 6.18255 7.71425 8.89889 7.71425 11.9999C7.71425 15.101 6.06754 17.8175 3.60075 19.3225M20.3994 19.3225C22.108 17.3643 23.1429 14.803 23.1429 12C23.1429 9.19706 22.108 6.63581 20.3994 4.67758M20.3994 19.3225C17.9326 17.8175 16.2858 15.101 16.2858 11.9999C16.2858 8.89889 17.9326 6.18255 20.3994 4.67758" stroke="black" stroke-width="1.5" stroke-linecap="round" stroke-linejoin="round"/>
</svg>
