<svg width="24" height="24" viewBox="0 0 24 24" fill="none" xmlns="http://www.w3.org/2000/svg">
<path d="M16.7477 22.2856V14.3735H7.25321V22.2856M20.7034 12.7913V21.4946C20.7034 21.9315 20.3491 22.2858 19.9122 22.2858H4.08805C3.65108 22.2858 3.29684 21.9315 3.29684 21.4946V12.7913H1.71442L4.08805 5.6704L12.0001 1.71436L19.9122 5.6704L22.2859 12.7913H20.7034ZM12.0002 10.4177C13.0926 10.4177 13.9782 9.53217 13.9782 8.43973C13.9782 7.34729 13.0926 6.4617 12.0002 6.4617C10.9078 6.4617 10.0222 7.34729 10.0222 8.43973C10.0222 9.53217 10.9078 10.4177 12.0002 10.4177Z" stroke="black" stroke-width="1.5" stroke-linecap="round" stroke-linejoin="round"/>
</svg>
