<svg width="24" height="24" viewBox="0 0 24 24" fill="none" xmlns="http://www.w3.org/2000/svg">
<path d="M20.1225 9.70026C17.7436 11.3535 14.8956 12.197 12 12.1058C9.10445 12.197 6.25644 11.3535 3.87751 9.70026M19.9543 15.2089C17.602 16.7717 14.8231 17.567 12.0001 17.4855C9.17703 17.567 6.39812 16.7717 4.04576 15.2089M5.14292 4.45738C3.31397 9.31965 3.31397 14.6808 5.14292 19.5431C5.82863 20.9145 8.21309 22.286 12.0001 22.286C15.787 22.286 18.1715 20.9145 18.8572 19.5431C20.6861 14.6808 20.6861 9.31965 18.8572 4.45738M11.9999 7.88578C15.8117 7.88578 18.9018 6.50426 18.9018 4.80007C18.9018 3.09588 15.8117 1.71436 11.9999 1.71436C8.18804 1.71436 5.09794 3.09588 5.09794 4.80007C5.09794 6.50426 8.18804 7.88578 11.9999 7.88578Z" stroke="black" stroke-width="1.5" stroke-linecap="round" stroke-linejoin="round"/>
</svg>
