<svg width="24" height="24" viewBox="0 0 24 24" fill="none" xmlns="http://www.w3.org/2000/svg">
<path d="M5.99516 19.9481L4.05596 18.009M5.99516 19.9481C6.12255 20.0755 6.22361 20.2267 6.29258 20.393C6.36154 20.5594 6.39706 20.7378 6.3971 20.9179C6.39714 21.098 6.36171 21.2764 6.29282 21.4428C6.22394 21.6092 6.12294 21.7604 5.99561 21.8878C5.86828 22.0152 5.71711 22.1163 5.55072 22.1852C5.38434 22.2542 5.20599 22.2897 5.02588 22.2898C4.84577 22.2898 4.66741 22.2544 4.50099 22.1855C4.33457 22.1166 4.18335 22.0156 4.05596 21.8883L2.11584 19.9481C1.85869 19.6909 1.71427 19.342 1.71436 18.9782C1.7144 18.7981 1.74992 18.6198 1.81888 18.4534C1.88785 18.287 1.98891 18.1358 2.1163 18.0085C2.37358 17.7513 2.72247 17.6069 3.08622 17.607C3.26634 17.607 3.44468 17.6426 3.61107 17.7115C3.77745 17.7805 3.92863 17.8816 4.05596 18.009M5.99516 19.9481C5.99516 19.9481 19.9426 8.90983 21.2784 7.56766C21.884 6.91772 22.2137 6.05808 22.1981 5.16985C22.1824 4.28161 21.8226 3.43414 21.1944 2.80596C20.5662 2.17779 19.7187 1.81796 18.8305 1.80229C17.9423 1.78662 17.0826 2.11633 16.4327 2.72195C15.0942 4.06138 4.05596 18.009 4.05596 18.009M11.0264 15.9482L8.05587 12.9777M6.11391 15.4152L8.58888 17.8902M16.8002 19.5467C16.8002 20.2742 17.0891 20.9718 17.6035 21.4862C18.1179 22.0006 18.8156 22.2896 19.543 22.2896C20.2705 22.2896 20.9681 22.0006 21.4825 21.4862C21.9969 20.9718 22.2859 20.2742 22.2859 19.5467C22.2859 18.8193 21.9969 18.1216 21.4825 17.6072C20.9681 17.0928 20.2705 16.8039 19.543 16.8039C18.8156 16.8039 18.1179 17.0928 17.6035 17.6072C17.0891 18.1216 16.8002 18.8193 16.8002 19.5467Z" stroke="black" stroke-width="1.5" stroke-linecap="round" stroke-linejoin="round"/>
</svg>
