<svg width="24" height="24" viewBox="0 0 24 24" fill="none" xmlns="http://www.w3.org/2000/svg">
<path d="M19.7145 8.14279H22.2859C22.7528 8.14279 23.1431 8.53304 23.1431 8.99993V14.9999C23.1431 15.4668 22.7528 15.8571 22.2859 15.8571H19.7145V16.2856M19.7145 8.14279V5.99993C19.7145 5.06622 18.9339 4.28564 18.0002 4.28564H2.57163C1.63791 4.28564 0.857346 5.06621 0.857346 5.99993V17.9999C0.857346 18.9336 1.63793 19.7142 2.57163 19.7142H18.0002C18.9339 19.7142 19.7145 18.9336 19.7145 17.9999V16.2856M19.7145 8.14279V16.2856M11.0987 8.15827L7.82833 11.9978H13.072L9.80711 15.8416" stroke="black" stroke-width="1.5" stroke-linecap="round" stroke-linejoin="round"/>
</svg>
