<svg width="24" height="24" viewBox="0 0 24 24" fill="none" xmlns="http://www.w3.org/2000/svg">
<path d="M19.7144 8.14328H22.2858C22.7527 8.14328 23.143 8.53353 23.143 9.00042V15.0004C23.143 15.4673 22.7527 15.8576 22.2858 15.8576H19.7144M19.7144 8.14328V6.00042C19.7144 5.06671 18.9338 4.28613 18.0001 4.28613H2.57156C1.63784 4.28613 0.857269 5.0667 0.857269 6.00042V18.0004C0.857269 18.9341 1.63785 19.7147 2.57156 19.7147H18.0001C18.9338 19.7147 19.7144 18.9341 19.7144 18.0004V15.8576M19.7144 8.14328V15.8576M5.14298 8.57143V15.4286M8.57156 8.57143V15.4286M12.0001 8.57143V15.4286" stroke="black" stroke-width="1.5" stroke-linecap="round" stroke-linejoin="round"/>
</svg>
