<svg width="24" height="24" viewBox="0 0 24 24" fill="none" xmlns="http://www.w3.org/2000/svg">
<path d="M19.7147 8.14328H22.2861C22.753 8.14328 23.1433 8.53353 23.1433 9.00042V15.0004C23.1433 15.4673 22.753 15.8576 22.2861 15.8576H19.7147M19.7147 8.14328V6.00042C19.7147 5.06671 18.9341 4.28613 18.0004 4.28613H2.57186C1.63814 4.28613 0.857574 5.0667 0.857574 6.00042V18.0004C0.857574 18.9341 1.63816 19.7147 2.57186 19.7147H18.0004C18.9341 19.7147 19.7147 18.9341 19.7147 18.0004V15.8576M19.7147 8.14328V15.8576M5.14329 8.57143V15.4286M8.57186 8.57143V15.4286M12.0004 8.57143V15.4286M15.429 8.57143V15.4286" stroke="black" stroke-width="1.5" stroke-linecap="round" stroke-linejoin="round"/>
</svg>
