<svg width="24" height="24" viewBox="0 0 24 24" fill="none" xmlns="http://www.w3.org/2000/svg">
<path d="M10.2857 16.2856C7.4454 16.2856 5.14286 13.9831 5.14286 11.1428V7.71418H15.4286V11.1428C15.4286 13.9831 13.126 16.2856 10.2857 16.2856ZM10.2857 16.2856V20.5713M19.7143 8.14275H22.2857C22.7526 8.14275 23.1429 8.533 23.1429 8.9999V14.9999C23.1429 15.4668 22.7526 15.857 22.2857 15.857H19.7143M19.7143 8.14275V5.9999C19.7143 5.06619 18.9337 4.28561 18 4.28561H17.1429M19.7143 8.14275V15.857M19.7143 15.857V17.9999C19.7143 18.9336 18.9337 19.7142 18 19.7142L15.4286 19.7142M5.14287 19.7141L2.57143 19.7142C1.63773 19.7142 0.857147 18.9336 0.857147 17.9999V5.9999C0.857147 5.06618 1.63772 4.28561 2.57143 4.28561H3.42859M7.71429 3.42847V7.71418M12.8571 3.42847V7.71418" stroke="black" stroke-width="1.5" stroke-linecap="round" stroke-linejoin="round"/>
</svg>
