<svg width="24" height="24" viewBox="0 0 24 24" fill="none" xmlns="http://www.w3.org/2000/svg">
<path d="M1.23822 13.0606C-0.0385805 9.49527 2.17797 5.44054 6.18901 4.00414C10.2001 2.56774 14.4867 4.29362 15.7635 7.85899M15.7623 7.85872L14.9814 7.66421C13.6383 7.32967 12.2258 7.83551 11.4004 8.94659L10.9205 9.59261L10.1396 9.39809C8.79657 9.06355 7.38406 9.56939 6.55869 10.6805L6.07879 11.3265L5.29788 11.132C3.95481 10.7974 2.5423 11.3033 1.71693 12.4144L1.23703 13.0604M6.18984 4.00332L5.61189 2.3894M8.16323 9.51231L10.6182 16.3676M18.8574 4.71432C18.8574 5.28264 19.0832 5.82769 19.4851 6.22955C19.8869 6.63141 20.432 6.85718 21.0003 6.85718C21.5686 6.85718 22.1136 6.63141 22.5155 6.22955C22.9174 5.82769 23.1431 5.28264 23.1431 4.71432C23.1431 4.146 22.9174 3.60096 22.5155 3.19909C22.1136 2.79723 21.5686 2.57146 21.0003 2.57146C20.432 2.57146 19.8869 2.79723 19.4851 3.19909C19.0832 3.60096 18.8574 4.146 18.8574 4.71432ZM12.0003 16.2857C5.71456 16.2857 0.857422 21.4286 0.857422 21.4286H19.7146C19.7146 21.4286 18.2861 16.2857 12.0003 16.2857Z" stroke="black" stroke-width="1.5" stroke-linecap="round" stroke-linejoin="round"/>
</svg>
