<svg width="24" height="24" viewBox="0 0 24 24" fill="none" xmlns="http://www.w3.org/2000/svg">
<path d="M4.28542 21.4287V18.0001M19.714 18.0001V21.4287M20.5711 12.0001V5.51031C20.5711 3.88727 19.2554 2.57153 17.6324 2.57153H6.36705C4.74401 2.57153 3.42828 3.88727 3.42828 5.51031V12.0001M7.71399 12.0001V7.50868C7.71399 6.67552 8.3894 6.0001 9.22256 6.0001H14.7768C15.61 6.0001 16.2854 6.67552 16.2854 7.50868V12.0001M4.65277 18.0001H19.3466C20.9697 18.0001 22.2854 16.6844 22.2854 15.0613V14.9389C22.2854 13.3158 20.9697 12.0001 19.3466 12.0001H4.65277C3.02973 12.0001 1.71399 13.3158 1.71399 14.9389V15.0613C1.71399 16.6844 3.02972 18.0001 4.65277 18.0001Z" stroke="black" stroke-width="1.5" stroke-linecap="round" stroke-linejoin="round"/>
</svg>
