<svg width="24" height="24" viewBox="0 0 24 24" fill="none" xmlns="http://www.w3.org/2000/svg">
<path d="M3.42855 21.4287V18.0001M20.5714 18.0001V21.4287M21.4285 12.0001V5.51031C21.4285 3.88727 20.1128 2.57153 18.4898 2.57153H5.51018C3.88714 2.57153 2.5714 3.88727 2.5714 5.51031V12.0001M5.99997 12.0001V7.50868C5.99997 6.67552 6.67538 6.0001 7.50855 6.0001H16.4914C17.3246 6.0001 18 6.67552 18 7.50868V12.0001M12 6.0001V12.0001M3.79589 18.0001H20.2041C21.8271 18.0001 23.1428 16.6844 23.1428 15.0613V14.9389C23.1428 13.3158 21.8271 12.0001 20.2041 12.0001H3.79589C2.17285 12.0001 0.857117 13.3158 0.857117 14.9389V15.0613C0.857117 16.6844 2.17285 18.0001 3.79589 18.0001Z" stroke="black" stroke-width="1.5" stroke-linecap="round" stroke-linejoin="round"/>
</svg>
