<svg width="24" height="24" viewBox="0 0 24 24" fill="none" xmlns="http://www.w3.org/2000/svg">
<path d="M16.9859 7.92327C17.1936 7.83884 17.3898 7.7318 17.5713 7.6052V11.1429C17.5713 12.0897 18.3388 12.8572 19.2856 12.8572C20.2323 12.8572 20.9998 12.0897 20.9998 11.1429V3.42864C20.9998 2.48187 20.2323 1.71436 19.2856 1.71436H3.85699C2.91021 1.71436 2.1427 2.48187 2.1427 3.42864C2.1427 4.37542 2.91021 5.14293 3.85699 5.14293H4.62844M16.9859 7.92327C16.6374 8.0649 16.2563 8.14293 15.857 8.14293C14.2001 8.14293 12.857 6.79978 12.857 5.14293H4.62844M16.9859 7.92327C16.7796 9.34194 16.4853 11.1926 15.9893 12.1547C14.5309 14.9842 14.4584 17.9192 14.7392 20.9976C14.8448 21.7735 14.2465 22.499 13.4647 22.543H8.60745C7.82486 22.4996 7.22575 21.7732 7.33199 20.9967C7.61293 17.9187 7.54315 14.9829 6.08184 12.1547C4.93757 9.94014 4.62844 7.59499 4.62844 5.14293" stroke="black" stroke-width="1.5" stroke-linecap="round" stroke-linejoin="round"/>
</svg>
