<svg width="24" height="24" viewBox="0 0 24 24" fill="none" xmlns="http://www.w3.org/2000/svg">
<path d="M4.28585 14.5715V21.4286C4.28585 22.3754 5.05336 23.1429 6.00013 23.1429H14.5716C15.5183 23.1429 16.2858 22.3754 16.2858 21.4286V11.1429H19.7144C20.6612 11.1429 21.4287 11.9104 21.4287 12.8572V18C21.4287 18.9468 20.6612 19.7143 19.7144 19.7143H16.2858M4.28585 14.5715C4.28585 15.9916 5.43711 17.1429 6.85727 17.1429C8.27744 17.1429 9.4287 15.9916 9.4287 14.5715V11.1429H15.4287C17.3223 11.1429 18.8573 9.60787 18.8573 7.71432C18.8573 5.82077 17.3223 4.28575 15.4287 4.28575C15.1102 4.28575 14.8018 4.32919 14.5092 4.41045C14.1617 2.39246 12.4031 0.857178 10.2858 0.857178C8.16862 0.857178 6.40998 2.39244 6.06248 4.41045C5.76985 4.32917 5.4615 4.28575 5.14299 4.28575C3.24944 4.28575 1.71442 5.82077 1.71442 7.71432C1.71442 9.3119 2.80708 10.6543 4.28584 11.0349L4.28585 14.5715Z" stroke="black" stroke-width="1.5" stroke-linecap="round" stroke-linejoin="round"/>
</svg>
