<svg width="24" height="24" viewBox="0 0 24 24" fill="none" xmlns="http://www.w3.org/2000/svg">
<path d="M2.57171 17.1428V20.5713M21.4289 17.1428V20.5713M4.28599 8.57132V12.857M19.7146 12.857V8.57132M22.286 12.857H1.71456C1.24118 12.857 0.857422 13.2408 0.857422 13.7142V16.2856C0.857422 16.7589 1.24118 17.1428 1.71456 17.1428H22.286C22.7593 17.1428 23.1431 16.7589 23.1431 16.2856V13.7142C23.1431 13.2408 22.7593 12.857 22.286 12.857ZM2.57171 3.42847H21.4289C21.9022 3.42847 22.286 3.81222 22.286 4.28561V7.71418C22.286 8.18757 21.9022 8.57132 21.4289 8.57132H2.57171C2.09832 8.57132 1.71456 8.18757 1.71456 7.71418V4.28561C1.71456 3.81222 2.09832 3.42847 2.57171 3.42847Z" stroke="black" stroke-width="1.5" stroke-linecap="round" stroke-linejoin="round"/>
</svg>
