<svg width="24" height="24" viewBox="0 0 24 24" fill="none" xmlns="http://www.w3.org/2000/svg">
<path d="M11.9998 1.71432V22.2857M6.85692 8.57146H8.5712M15.4283 8.57146H17.1426M6.85692 5.14289H8.5712M15.4283 5.14289H17.1426M8.5712 18.8572C8.5712 19.3306 8.18745 19.7143 7.71406 19.7143M8.5712 18.8572C8.5712 18.3838 8.18745 18 7.71406 18M8.5712 18.8572H6.85692M7.71406 19.7143C7.24067 19.7143 6.85692 19.3306 6.85692 18.8572M7.71406 19.7143V18M7.71406 18C7.24067 18 6.85692 18.3838 6.85692 18.8572M17.1426 18.8572C17.1426 19.3306 16.7589 19.7143 16.2855 19.7143M17.1426 18.8572C17.1426 18.3838 16.7589 18 16.2855 18M17.1426 18.8572H15.4283M16.2855 19.7143C15.8121 19.7143 15.4283 19.3306 15.4283 18.8572M16.2855 19.7143V18M16.2855 18C15.8121 18 15.4283 18.3838 15.4283 18.8572M18.8569 0.857178H5.14263C4.19586 0.857178 3.42834 1.62469 3.42834 2.57146V21.4286C3.42834 22.3754 4.19586 23.1429 5.14263 23.1429H18.8569C19.8037 23.1429 20.5712 22.3754 20.5712 21.4286V2.57146C20.5712 1.62469 19.8037 0.857178 18.8569 0.857178Z" stroke="black" stroke-width="1.5" stroke-linecap="round" stroke-linejoin="round"/>
</svg>
