<svg width="24" height="24" viewBox="0 0 24 24" fill="none" xmlns="http://www.w3.org/2000/svg">
<path d="M22.2861 18.0001H21.0004C19.3436 18.0001 18.0004 16.6569 18.0004 15.0001C18.0004 16.6569 16.6573 18.0001 15.0004 18.0001C13.3436 18.0001 12.0004 16.6569 12.0004 15.0001C12.0004 16.6569 10.6573 18.0001 9.00044 18.0001C7.34358 18.0001 6.00044 16.6569 6.00044 15.0001C6.00044 16.6569 4.65729 18.0001 3.00044 18.0001H1.71472M1.71472 20.5715V12.0001C1.71472 11.0533 2.48224 10.2858 3.42901 10.2858H20.5719C21.5187 10.2858 22.2861 11.0533 22.2861 12.0001V20.5715C22.2861 21.5183 21.5187 22.2858 20.5719 22.2858H3.42901C2.48224 22.2858 1.71472 21.5183 1.71472 20.5715ZM6.00044 4.71436C6.00044 5.89783 5.04105 6.85721 3.85758 6.85721C2.6741 6.85721 1.71472 5.89783 1.71472 4.71436C1.71472 3.53088 3.85758 1.71436 3.85758 1.71436C3.85758 1.71436 6.00044 3.53088 6.00044 4.71436ZM22.2861 4.71436C22.2861 5.89783 21.3268 6.85721 20.1433 6.85721C18.9597 6.85721 18.0004 5.89783 18.0004 4.71436C18.0004 3.53088 20.1433 1.71436 20.1433 1.71436C20.1433 1.71436 22.2861 3.53088 22.2861 4.71436ZM14.1433 4.71436C14.1433 5.89783 13.1839 6.85721 12.0004 6.85721C10.817 6.85721 9.85758 5.89783 9.85758 4.71436C9.85758 3.53088 12.0004 1.71436 12.0004 1.71436C12.0004 1.71436 14.1433 3.53088 14.1433 4.71436Z" stroke="black" stroke-width="1.5" stroke-linecap="round" stroke-linejoin="round"/>
</svg>
