<svg width="24" height="24" viewBox="0 0 24 24" fill="none" xmlns="http://www.w3.org/2000/svg">
<path d="M11.3833 12.0035V18.8572L16.2861 15.4286L11.3882 12M11.3833 12.0035V11.9966M11.3833 12.0035L11.3882 12M11.3833 12.0035L7.71471 14.5715M11.3833 11.9966V5.14289L16.2861 8.57146L11.3882 12M11.3833 11.9966L7.71471 9.42861M11.3833 11.9966L11.3882 12M20.5718 9.42861V14.5715C20.5718 19.3053 16.7343 23.1429 12.0004 23.1429C7.26655 23.1429 3.42899 19.3053 3.42899 14.5715V9.42861C3.42899 4.69474 7.26655 0.857178 12.0004 0.857178C16.7343 0.857178 20.5718 4.69474 20.5718 9.42861Z" stroke="black" stroke-width="1.5" stroke-linecap="round" stroke-linejoin="round"/>
</svg>
