<svg width="24" height="24" viewBox="0 0 24 24" fill="none" xmlns="http://www.w3.org/2000/svg">
<path d="M5.14266 16.2857C5.51715 13.3823 8.03351 13.0309 9.18386 10.8395C9.36988 10.4851 9.42837 10.081 9.42837 9.68078V2.57146C9.42837 1.62469 10.1959 0.857178 11.1427 0.857178H12.8569C13.8037 0.857178 14.5712 1.62469 14.5712 2.57147V9.68078C14.5712 10.081 14.6297 10.4851 14.8157 10.8395C15.9661 13.0309 18.4825 13.3823 18.8569 16.2857M5.14266 16.2857C4.98064 17.5419 4.92613 18.6694 5.09907 19.7143M5.14266 16.2857H18.8569M18.8569 16.2857C19.019 17.5419 19.0735 18.6694 18.9005 19.7143M5.09907 19.7143C5.26855 20.7384 5.65646 21.6831 6.3757 22.592C6.66568 22.9585 7.12118 23.1429 7.58848 23.1429H16.4111C16.8784 23.1429 17.3339 22.9585 17.6239 22.592C18.3431 21.6831 18.7311 20.7384 18.9005 19.7143M5.09907 19.7143H18.9005M9.42815 4.28575H14.571" stroke="black" stroke-width="1.5" stroke-linecap="round" stroke-linejoin="round"/>
</svg>
