<svg width="24" height="24" viewBox="0 0 24 24" fill="none" xmlns="http://www.w3.org/2000/svg">
<path d="M8.57077 8.57039V3.76929C8.57077 2.64857 7.63387 1.71167 6.51316 1.71167C5.39244 1.71167 4.45554 2.64857 4.45554 3.76929V8.57039M8.57077 8.57039C10.2863 10.4486 11.2612 12.8859 11.3143 15.4291C11.2716 17.7381 10.4647 19.9678 9.01979 21.7693C8.76278 22.0929 8.35841 22.288 7.94526 22.2878C7.53211 22.2877 5.4942 22.2877 5.08106 22.2878C4.66791 22.288 4.26354 22.0929 4.00652 21.7693C2.56162 19.9678 1.75471 17.7381 1.71205 15.4291C1.76512 12.8859 2.74005 10.4486 4.45554 8.57039M8.57077 8.57039H4.45554M12.4217 21.5952C13.4674 22.1044 14.6253 22.3393 15.7867 22.278C16.9481 22.2165 18.0748 21.8607 19.061 21.2441C20.0471 20.6276 20.8602 19.7703 21.4239 18.7531C21.9875 17.7358 22.2833 16.5918 22.2833 15.4288C22.2833 14.2658 21.9875 13.1219 21.4239 12.1046C20.8602 11.0873 20.0471 10.23 19.061 9.61339C18.0749 8.99678 16.9481 8.64105 15.7867 8.57964C14.6253 8.51823 13.4674 8.75315 12.4217 9.26234M8.57073 5.82704H4.45549M15.7722 15.4288C15.5828 15.4288 15.4293 15.2752 15.4293 15.0859M15.7722 15.4288V14.7429M15.7722 15.4288C15.958 15.4288 16.1096 15.281 16.1152 15.0965M15.4293 15.0859C15.4293 14.8965 15.5828 14.7429 15.7722 14.7429M15.4293 15.0859L16.1152 15.0965M15.7722 14.7429C15.9616 14.7429 16.1154 14.8965 16.1154 15.0859C16.1154 15.0894 16.1153 15.093 16.1152 15.0965M16.4582 12.0002C16.2688 12.0002 16.1152 11.8467 16.1152 11.6573M16.4582 12.0002C16.6476 12.0002 16.8009 11.8467 16.8009 11.6573M16.4582 12.0002V11.3143M16.1152 11.6573C16.1152 11.4679 16.2688 11.3143 16.4582 11.3143M16.1152 11.6573H16.8009M16.4582 11.3143C16.6476 11.3143 16.8009 11.4679 16.8009 11.6573M19.2016 14.7428C19.0122 14.7428 18.8587 14.5893 18.8587 14.3999M19.2016 14.7428C19.391 14.7428 19.5444 14.5893 19.5444 14.3999M19.2016 14.7428V14.057M18.8587 14.3999C18.8587 14.2105 19.0122 14.057 19.2016 14.057M18.8587 14.3999H19.5444M19.2016 14.057C19.391 14.057 19.5444 14.2105 19.5444 14.3999" stroke="black" stroke-width="1.5" stroke-linecap="round" stroke-linejoin="round"/>
</svg>
