<svg width="24" height="24" viewBox="0 0 24 24" fill="none" xmlns="http://www.w3.org/2000/svg">
<path d="M11.2501 5.14307V1.71436C11.2501 1.3002 11.5859 0.964439 12.0001 0.964355C12.4143 0.964374 12.7501 1.30016 12.7501 1.71436V5.14307C12.75 5.55722 12.4142 5.89307 12.0001 5.89307C11.5859 5.89305 11.2501 5.5572 11.2501 5.14307Z" fill="black"/>
<path d="M18.7437 4.19664C19.0366 3.9039 19.5114 3.90378 19.8042 4.19664C20.0969 4.48949 20.0969 4.96434 19.8042 5.25718L17.3794 7.68199C17.0865 7.97462 16.6116 7.97384 16.3188 7.68101C16.0262 7.38809 16.026 6.91328 16.3188 6.62047L18.7437 4.19664Z" fill="black"/>
<path d="M22.2859 11.2501C22.7 11.2501 23.0358 11.586 23.0359 12.0001C23.0359 12.4142 22.7001 12.75 22.2859 12.7501H18.8572C18.443 12.7501 18.1072 12.4143 18.1072 12.0001C18.1072 11.5859 18.443 11.2501 18.8572 11.2501H22.2859Z" fill="black"/>
<path d="M16.3188 16.318C16.6117 16.0251 17.0865 16.0251 17.3794 16.318L19.8042 18.7428C20.0967 19.0358 20.096 19.5106 19.8032 19.8034C19.5103 20.0959 19.0354 20.0962 18.7427 19.8034L16.3188 17.3786C16.026 17.0857 16.026 16.6109 16.3188 16.318Z" fill="black"/>
<path d="M11.2501 22.2859V18.8572C11.2501 18.4431 11.5859 18.1073 12.0001 18.1072C12.4143 18.1072 12.7501 18.443 12.7501 18.8572V22.2859C12.75 22.7001 12.4142 23.0359 12.0001 23.0359C11.5859 23.0359 11.2501 22.7001 11.2501 22.2859Z" fill="black"/>
<path d="M6.62144 16.3188C6.91436 16.0261 7.38916 16.026 7.68199 16.3188C7.97467 16.6117 7.97466 17.0865 7.68199 17.3794L5.25718 19.8042C4.96426 20.0968 4.48943 20.096 4.19664 19.8032C3.90395 19.5103 3.90379 19.0355 4.19664 18.7427L6.62144 16.3188Z" fill="black"/>
<path d="M5.14307 11.2501C5.55717 11.2501 5.89298 11.586 5.89307 12.0001C5.89305 12.4142 5.5572 12.75 5.14307 12.7501H1.71436C1.30015 12.7501 0.964355 12.4143 0.964355 12.0001C0.964374 11.5859 1.30016 11.2501 1.71436 11.2501H5.14307Z" fill="black"/>
<path d="M4.19664 4.19664C4.48954 3.90377 4.9643 3.90376 5.25718 4.19664L7.68199 6.62144C7.97446 6.91438 7.97378 7.38925 7.68101 7.68199C7.38808 7.97452 6.91323 7.97478 6.62047 7.68199L4.19664 5.25718C3.90377 4.96429 3.90376 4.48952 4.19664 4.19664Z" fill="black"/>
<path d="M10.5001 12.0001C10.5001 11.1717 11.1717 10.5001 12.0001 10.5001C12.4143 10.5001 12.7501 10.8359 12.7501 11.2501C12.7501 11.6386 12.4547 11.958 12.0762 11.9962L12.0001 12.0001L12.0762 12.004C12.4547 12.0422 12.7501 12.3616 12.7501 12.7501C12.75 13.1643 12.4143 13.5001 12.0001 13.5001C11.1717 13.5001 10.5001 12.8285 10.5001 12.0001Z" fill="black"/>
<path d="M12.0001 12.0001C11.5859 12.0001 11.2501 11.6643 11.2501 11.2501C11.2501 10.8359 11.5859 10.5001 12.0001 10.5001C12.8285 10.5001 13.5001 11.1717 13.5001 12.0001C13.5001 12.8285 12.8285 13.5001 12.0001 13.5001C11.5859 13.5001 11.2501 13.1643 11.2501 12.7501C11.2501 12.3359 11.5859 12.0001 12.0001 12.0001Z" fill="black"/>
</svg>
