<svg width="24" height="24" viewBox="0 0 24 24" fill="none" xmlns="http://www.w3.org/2000/svg">
<path d="M4.12054 19.879L6.54502 17.4547M11.9997 23.1429L12 19.7143M19.8782 19.8792L17.454 17.4547M23.1426 12.0003L19.714 12M19.8785 4.12085L17.454 6.5451M12 0.857178L11.9997 4.28575M4.12054 4.12085L6.5448 6.54533M0.856873 12L4.28544 12.0003M11.9997 16.2857C14.3667 16.2857 16.2854 14.367 16.2854 12C16.2854 9.63309 14.3667 7.71432 11.9997 7.71432C9.63279 7.71432 7.71402 9.63309 7.71402 12C7.71402 14.367 9.63279 16.2857 11.9997 16.2857Z" stroke="black" stroke-width="1.5" stroke-linecap="round" stroke-linejoin="round"/>
</svg>
