<svg width="24" height="24" viewBox="0 0 24 24" fill="none" xmlns="http://www.w3.org/2000/svg">
<path d="M1.71442 12.7909H22.2858M7.25288 2.50562H16.7474C18.2163 2.50562 19.625 3.08913 20.6637 4.1278C21.7024 5.16646 22.2858 6.57518 22.2858 8.04408C22.2858 8.90596 21.5653 9.62649 20.7034 9.62649H3.29683C2.43494 9.62649 1.71442 8.90597 1.71442 8.04408C1.71442 6.57518 2.29795 5.16647 3.3366 4.1278C4.37525 3.08913 5.78398 2.50562 7.25288 2.50562ZM21.4946 15.9558H12.0001L9.6265 18.3294L4.87925 15.9558H2.50563C2.07464 15.9558 1.71442 16.316 1.71442 16.747C1.71442 18.006 2.21457 19.2135 3.10486 20.1038C3.99514 20.9941 5.20262 21.4943 6.46167 21.4943H17.5386C18.7976 21.4943 20.0051 20.9941 20.8954 20.1038C21.7856 19.2135 22.2858 18.006 22.2858 16.747C22.2858 16.316 21.9257 15.9558 21.4946 15.9558Z" stroke="black" stroke-width="1.5" stroke-linecap="round" stroke-linejoin="round"/>
</svg>
