<svg width="24" height="24" viewBox="0 0 24 24" fill="none" xmlns="http://www.w3.org/2000/svg">
<path d="M6.50714 20.0566V22.9081M1.17511 10.1174V8.12898C1.17511 7.31696 1.83338 6.65869 2.6454 6.65869H21.371C22.1829 6.65869 22.8412 7.31696 22.8412 8.12898V10.1174M17.5144 20.0566V22.9081M20.094 13.9858H3.90558M7.73082 16.9724H6.50714M17.5144 16.9724H16.2906M3.90558 4.88414C3.90558 2.9906 5.4406 1.45557 7.33415 1.45557H16.6654C18.559 1.45557 20.094 2.9906 20.094 4.88414V18.3424C20.094 19.289 19.3265 20.0567 18.3797 20.0567H5.61986C4.6731 20.0567 3.90558 19.289 3.90558 18.3424V4.88414Z" stroke="black" stroke-width="1.5" stroke-linecap="round" stroke-linejoin="round"/>
</svg>
