<svg width="24" height="24" viewBox="0 0 24 24" fill="none" xmlns="http://www.w3.org/2000/svg">
<path d="M5.99961 9.4285V14.5714M11.9996 8.57136L10.2853 15.4285M8.57104 19.7142H15.4282C19.6887 19.7142 23.1425 16.2604 23.1425 11.9999C23.1425 7.73945 19.6887 4.28564 15.4282 4.28564H8.57104C4.31055 4.28564 0.85675 7.73945 0.85675 11.9999C0.85675 16.2604 4.31055 19.7142 8.57104 19.7142ZM15.4282 11.1428V12.8571C15.4282 13.8038 16.1957 14.5714 17.1425 14.5714C18.0892 14.5714 18.8568 13.8038 18.8568 12.8571V11.1428C18.8568 10.196 18.0892 9.4285 17.1425 9.4285C16.1957 9.4285 15.4282 10.196 15.4282 11.1428Z" stroke="black" stroke-width="1.5" stroke-linecap="round" stroke-linejoin="round"/>
</svg>
