<svg width="24" height="24" viewBox="0 0 24 24" fill="none" xmlns="http://www.w3.org/2000/svg">
<path d="M1.71454 22.2858H22.286M8.57168 22.2858V17.5715H7.33954C4.23294 17.5715 1.71454 15.0531 1.71454 11.9465V10.5001C1.71454 9.43495 2.57799 8.5715 3.64311 8.5715C4.70823 8.5715 5.57168 9.43495 5.57168 10.5001V12.4286C5.57168 13.1387 6.14732 13.7144 6.8574 13.7144H8.57168V5.14293C8.57168 3.24938 10.1067 1.71436 12.0003 1.71436C13.8938 1.71436 15.4288 3.24938 15.4288 5.14293V9.42864H17.1431C17.8532 9.42864 18.4288 8.853 18.4288 8.14293V6.21436C18.4288 5.14924 19.2923 4.28578 20.3574 4.28578C21.4225 4.28578 22.286 5.14924 22.286 6.21436V7.66078C22.286 10.7674 19.7675 13.2858 16.661 13.2858H15.4288V22.2858" stroke="black" stroke-width="1.5" stroke-linecap="round" stroke-linejoin="round"/>
</svg>
