<svg width="24" height="24" viewBox="0 0 24 24" fill="none" xmlns="http://www.w3.org/2000/svg">
<path d="M3.42859 13.7143V22.2857M8.57145 13.7143V22.2857M14.7827 14.5715H16.2857C16.7404 14.5715 17.1765 14.3908 17.4979 14.0694C17.8193 13.7479 18 13.3118 18 12.8572V10.2857L21.9772 12.4286C22.1074 12.4789 22.2482 12.4966 22.3869 12.4801C22.5256 12.4636 22.6582 12.4135 22.7731 12.334C22.888 12.2546 22.9817 12.1483 23.0462 12.0244C23.1106 11.9004 23.1439 11.7626 23.1429 11.6229V3.80575C23.1439 3.66605 23.1106 3.52824 23.0462 3.40428C22.9817 3.28034 22.888 3.17402 22.7731 3.09459C22.6582 3.01516 22.5256 2.96503 22.3869 2.94854C22.2482 2.93206 22.1074 2.94974 21.9772 3.00003L18 5.14289V2.57146C18 2.1168 17.8193 1.68077 17.4979 1.35928C17.1765 1.03779 16.7404 0.857178 16.2857 0.857178H6.00002C5.54535 0.857178 5.10933 1.03779 4.78783 1.35928C4.46635 1.68077 4.28573 2.1168 4.28573 2.57146V8.72869" stroke="black" stroke-width="1.5" stroke-linecap="round" stroke-linejoin="round"/>
</svg>
