<svg width="24" height="24" viewBox="0 0 24 24" fill="none" xmlns="http://www.w3.org/2000/svg">
<path d="M9.4284 14.5715L5.99983 18L9.4284 21.4286M5.14268 14.5715L1.71411 18L5.14268 21.4286M14.7825 14.5715H16.2855C16.7402 14.5715 17.1763 14.3908 17.4977 14.0694C17.8191 13.7479 17.9998 13.3118 17.9998 12.8572V10.2857L21.977 12.4286C22.1073 12.4789 22.248 12.4966 22.3867 12.4801C22.5254 12.4636 22.6581 12.4135 22.7729 12.334C22.8878 12.2546 22.9815 12.1483 23.046 12.0244C23.1105 11.9004 23.1437 11.7626 23.1427 11.6229V3.80575C23.1437 3.66605 23.1105 3.52824 23.046 3.40428C22.9815 3.28034 22.8878 3.17402 22.7729 3.09459C22.6581 3.01516 22.5254 2.96503 22.3867 2.94854C22.248 2.93206 22.1073 2.94974 21.977 3.00003L17.9998 5.14289V2.57146C17.9998 2.1168 17.8191 1.68077 17.4977 1.35928C17.1763 1.03779 16.7402 0.857178 16.2855 0.857178H5.99983C5.54516 0.857178 5.10913 1.03779 4.78764 1.35928C4.46616 1.68077 4.28554 2.1168 4.28554 2.57146V8.72869" stroke="black" stroke-width="1.5" stroke-linecap="round" stroke-linejoin="round"/>
</svg>
