<svg width="24" height="24" viewBox="0 0 24 24" fill="none" xmlns="http://www.w3.org/2000/svg">
<path d="M14.7828 14.5715H16.2859C16.7405 14.5715 17.1766 14.3908 17.498 14.0694C17.8195 13.7479 18.0002 13.3118 18.0002 12.8572V10.2857L21.9773 12.4286C22.1076 12.4789 22.2483 12.4966 22.387 12.4801C22.5257 12.4636 22.6584 12.4135 22.7732 12.334C22.8881 12.2546 22.9819 12.1483 23.0463 12.0244C23.1108 11.9004 23.144 11.7626 23.143 11.6229V3.80575C23.144 3.66605 23.1108 3.52824 23.0463 3.40428C22.9819 3.28034 22.8881 3.17402 22.7732 3.09459C22.6584 3.01516 22.5257 2.96503 22.387 2.94854C22.2483 2.93206 22.1076 2.94974 21.9773 3.00003L18.0002 5.14289V2.57146C18.0002 2.1168 17.8195 1.68077 17.498 1.35928C17.1766 1.03779 16.7405 0.857178 16.2859 0.857178H6.00016C5.54549 0.857178 5.10947 1.03779 4.78797 1.35928C4.46649 1.68077 4.28587 2.1168 4.28587 2.57146V8.72869M0.8573 18C0.8573 19.364 1.39913 20.6721 2.36361 21.6366C3.32808 22.6011 4.63619 23.1429 6.00016 23.1429C7.36413 23.1429 8.67223 22.6011 9.63671 21.6366C10.6012 20.6721 11.143 19.364 11.143 18C11.143 16.6361 10.6012 15.328 9.63671 14.3635C8.67223 13.399 7.36413 12.8572 6.00016 12.8572C4.63619 12.8572 3.32808 13.399 2.36361 14.3635C1.39913 15.328 0.8573 16.6361 0.8573 18ZM6.00016 19.7143C5.05339 19.7143 4.28587 18.9468 4.28587 18C4.28587 17.0533 5.05339 16.2858 6.00016 16.2858C6.94696 16.2858 7.71444 17.0533 7.71444 18C7.71444 18.9468 6.94696 19.7143 6.00016 19.7143Z" stroke="black" stroke-width="1.5" stroke-linecap="round" stroke-linejoin="round"/>
</svg>
