<svg width="24" height="24" viewBox="0 0 24 24" fill="none" xmlns="http://www.w3.org/2000/svg">
<path d="M1.71472 14.5715V21.4286M14.7831 14.5715H16.2861C16.7408 14.5715 17.1769 14.3908 17.4983 14.0694C17.8197 13.7479 18.0004 13.3118 18.0004 12.8572V10.2857L21.9776 12.4286C22.1079 12.4789 22.2486 12.4966 22.3873 12.4801C22.526 12.4636 22.6587 12.4135 22.7735 12.334C22.8884 12.2546 22.9822 12.1483 23.0466 12.0244C23.1111 11.9004 23.1443 11.7626 23.1433 11.6229V3.80575C23.1443 3.66605 23.1111 3.52824 23.0466 3.40428C22.9822 3.28034 22.8884 3.17402 22.7735 3.09459C22.6587 3.01516 22.526 2.96503 22.3873 2.94854C22.2486 2.93206 22.1079 2.94974 21.9776 3.00003L18.0004 5.14289V2.57146C18.0004 2.1168 17.8197 1.68077 17.4983 1.35928C17.1769 1.03779 16.7408 0.857178 16.2861 0.857178H6.00044C5.54577 0.857178 5.10974 1.03779 4.78825 1.35928C4.46677 1.68077 4.28615 2.1168 4.28615 2.57146V8.72869M10.2861 13.7143L5.14329 18L10.2861 22.2857V13.7143Z" stroke="black" stroke-width="1.5" stroke-linecap="round" stroke-linejoin="round"/>
</svg>
