<svg width="24" height="24" viewBox="0 0 24 24" fill="none" xmlns="http://www.w3.org/2000/svg">
<path d="M14.7824 14.5715H16.2855C16.7401 14.5715 17.1762 14.3908 17.4976 14.0694C17.8191 13.7479 17.9997 13.3118 17.9997 12.8572V10.2857L21.9769 12.4286C22.1072 12.4789 22.2479 12.4966 22.3866 12.4801C22.5253 12.4636 22.658 12.4135 22.7728 12.334C22.8877 12.2546 22.9815 12.1483 23.0459 12.0244C23.1104 11.9004 23.1436 11.7626 23.1426 11.6229V3.80575C23.1436 3.66605 23.1104 3.52824 23.0459 3.40428C22.9815 3.28034 22.8877 3.17402 22.7728 3.09459C22.658 3.01516 22.5253 2.96503 22.3866 2.94854C22.2479 2.93206 22.1072 2.94974 21.9769 3.00003L17.9997 5.14289V2.57146C17.9997 2.1168 17.8191 1.68077 17.4976 1.35928C17.1762 1.03779 16.7401 0.857178 16.2855 0.857178H5.99974C5.54508 0.857178 5.10905 1.03779 4.78755 1.35928C4.46607 1.68077 4.28545 2.1168 4.28545 2.57146V8.72869M2.57117 22.326V13.674C2.57189 13.5293 2.60878 13.3873 2.67812 13.2625C2.74746 13.1376 2.84677 13.0344 2.96602 12.9633C3.08525 12.8921 3.22016 12.8555 3.35706 12.8572C3.49398 12.859 3.62802 12.8989 3.74562 12.9731L10.7545 17.279C10.8724 17.3512 10.9705 17.4547 11.0385 17.5795C11.1068 17.7043 11.1426 17.8459 11.1426 17.9901C11.1426 18.1341 11.1068 18.2757 11.0385 18.4005C10.9705 18.5253 10.8724 18.6288 10.7545 18.701L3.74562 23.027C3.62802 23.1011 3.49398 23.1412 3.35706 23.1429C3.22016 23.1446 3.08525 23.1079 2.96602 23.0368C2.84677 22.9656 2.74746 22.8624 2.67812 22.7376C2.60878 22.6128 2.57189 22.4707 2.57117 22.326Z" stroke="black" stroke-width="1.5" stroke-linecap="round" stroke-linejoin="round"/>
</svg>
