<svg width="24" height="24" viewBox="0 0 24 24" fill="none" xmlns="http://www.w3.org/2000/svg">
<path d="M12.0002 14.5715V23.1429M12.0002 14.5715L4.28594 23.1429M12.0002 14.5715L19.7145 23.1429M19.7145 0.857178H4.28594C3.33918 0.857178 2.57166 1.62469 2.57166 2.57146V12.8572C2.57166 13.8039 3.33918 14.5715 4.28594 14.5715H19.7145C20.6613 14.5715 21.4288 13.8039 21.4288 12.8572V2.57146C21.4288 1.62469 20.6613 0.857178 19.7145 0.857178ZM12.0002 10.7143C13.6571 10.7143 15.0002 9.37118 15.0002 7.71432C15.0002 6.05746 13.6571 4.71432 12.0002 4.71432C10.3434 4.71432 9.00023 6.05746 9.00023 7.71432C9.00023 9.37118 10.3434 10.7143 12.0002 10.7143Z" stroke="black" stroke-width="1.5" stroke-linecap="round" stroke-linejoin="round"/>
</svg>
