<svg width="24" height="24" viewBox="0 0 24 24" fill="none" xmlns="http://www.w3.org/2000/svg">
<path d="M14.7822 14.5715H16.2853C16.74 14.5715 17.176 14.3908 17.4975 14.0694C17.8189 13.7479 17.9996 13.3118 17.9996 12.8572V10.2857L21.9767 12.4286C22.107 12.4789 22.2478 12.4966 22.3864 12.4801C22.5251 12.4636 22.6578 12.4135 22.7727 12.334C22.8875 12.2546 22.9813 12.1483 23.0458 12.0244C23.1102 11.9004 23.1435 11.7626 23.1424 11.6229V3.80575C23.1435 3.66605 23.1102 3.52824 23.0458 3.40428C22.9813 3.28034 22.8875 3.17402 22.7727 3.09459C22.6578 3.01516 22.5251 2.96503 22.3864 2.94854C22.2478 2.93206 22.107 2.94974 21.9767 3.00003L17.9996 5.14289V2.57146C17.9996 2.1168 17.8189 1.68077 17.4975 1.35928C17.176 1.03779 16.74 0.857178 16.2853 0.857178H5.99958C5.54492 0.857178 5.10889 1.03779 4.78739 1.35928C4.46591 1.68077 4.2853 2.1168 4.2853 2.57146V8.72869M3.42815 22.2857H8.57101C9.51778 22.2857 10.2853 21.5182 10.2853 20.5715V15.4286C10.2853 14.4818 9.51778 13.7143 8.57101 13.7143H3.42815C2.48138 13.7143 1.71387 14.4818 1.71387 15.4286V20.5715C1.71387 21.5182 2.48138 22.2857 3.42815 22.2857Z" stroke="black" stroke-width="1.5" stroke-linecap="round" stroke-linejoin="round"/>
</svg>
