<svg width="24" height="24" viewBox="0 0 24 24" fill="none" xmlns="http://www.w3.org/2000/svg">
<path d="M4.45726 18.4343C4.45726 19.1617 4.74624 19.8594 5.26062 20.3738C5.77501 20.8881 6.47266 21.1771 7.20012 21.1771C7.92757 21.1771 8.62522 20.8881 9.13961 20.3738C9.65399 19.8594 9.94297 19.1617 9.94297 18.4343M4.45726 18.4343C4.45726 17.7068 4.74624 17.0092 5.26062 16.4948C5.77501 15.9804 6.47266 15.6914 7.20012 15.6914C7.92757 15.6914 8.62522 15.9804 9.13961 16.4948C9.65399 17.0092 9.94297 17.7068 9.94297 18.4343M4.45726 18.4343L3.08566 18.4343C2.72194 18.4343 2.37311 18.2899 2.11592 18.0327C1.85872 17.7755 1.71423 17.4266 1.71423 17.0629V4.72006C1.71423 4.35634 1.85872 4.00751 2.11592 3.75031C2.37311 3.49312 2.72194 3.34863 3.08566 3.34863H12.6857C14.1406 3.34863 15.5359 3.92659 16.5646 4.95536C17.5934 5.98413 18.1714 7.37944 18.1714 8.83435V18.4343M9.94297 18.4343L18.1714 18.4343M18.1714 18.4343L22.2858 18.434M8.57138 6.09124V10.2055M12.6858 10.2055H4.45726V6.09124H12.6858V10.2055Z" stroke="black" stroke-width="1.5" stroke-linecap="round" stroke-linejoin="round"/>
</svg>
