<svg width="24" height="24" viewBox="0 0 24 24" fill="none" xmlns="http://www.w3.org/2000/svg">
<path d="M11.3143 4.45721C11.3143 5.18466 11.0253 5.88232 10.5109 6.39671C9.99652 6.91109 9.29886 7.20007 8.57141 7.20007C7.84396 7.20007 7.1463 6.91109 6.63192 6.39671C6.11753 5.88232 5.82855 5.18466 5.82855 4.45721C5.82855 3.72976 6.11753 3.03211 6.63192 2.51772C7.1463 2.00333 7.84396 1.71436 8.57141 1.71436C9.29886 1.71436 9.99652 2.00333 10.5109 2.51772C11.0253 3.03211 11.3143 3.72976 11.3143 4.45721ZM11.3143 4.45721L18.1717 4.45738V6.51452M15.4287 4.45738V5.82881M19.0864 13.6001L20.7422 15.2559C20.9991 15.513 21.1435 15.8615 21.1436 16.225V18.1715C21.1436 18.5353 20.9991 18.8841 20.7419 19.1413C20.4847 19.3985 20.1359 19.543 19.7721 19.543M19.0864 13.6001H4.91499M19.0864 13.6001L18.0272 10.8811C17.9362 10.6079 17.7616 10.3704 17.5281 10.202C17.2946 10.0337 17.014 9.94304 16.7261 9.94301H7.27426C6.98639 9.94304 6.70582 10.0337 6.47231 10.202C6.23881 10.3704 6.0642 10.6079 5.97323 10.8811L4.91499 13.6001M4.91499 13.6001L3.25922 15.2559C3.00229 15.513 2.85793 15.8615 2.85785 16.225V18.1715C2.85785 18.5353 3.00234 18.8841 3.25953 19.1413C3.51672 19.3985 3.86555 19.543 4.22928 19.543M4.22928 19.543H19.7721M4.22928 19.543L4.22894 20.9142C4.22894 21.2779 4.37343 21.6267 4.63063 21.8839C4.88782 22.1411 5.23665 22.2856 5.60037 22.2856C5.9641 22.2856 6.31293 22.1411 6.57012 21.8839C6.82731 21.6267 6.9718 21.2779 6.9718 20.9142V19.5428L4.22928 19.543ZM19.7721 19.543L17.0292 19.5428V20.9142C17.0292 21.2779 17.1737 21.6267 17.4308 21.8839C17.688 22.1411 18.0369 22.2856 18.4006 22.2856C18.7643 22.2856 19.1131 22.1411 19.3703 21.8839C19.6275 21.6267 19.772 21.2779 19.772 20.9142L19.7721 19.543ZM6.38352 16.3427H7.75495M16.2448 16.3427H17.6163" stroke="black" stroke-width="1.5" stroke-linecap="round" stroke-linejoin="round"/>
</svg>
