<svg width="24" height="24" viewBox="0 0 24 24" fill="none" xmlns="http://www.w3.org/2000/svg">
<path d="M15.5808 7.2002H16.9522C17.3159 7.2002 17.6648 7.05571 17.922 6.79852C18.1792 6.54133 18.3236 6.19249 18.3236 5.82877C18.3236 5.46505 18.1792 5.11622 17.922 4.85903C17.6648 4.60184 17.3159 4.45735 16.9522 4.45735H15.5808V9.48592M19.9216 15.2556C20.1785 15.5127 20.3229 15.8613 20.323 16.2247V18.1712C20.323 18.535 20.1785 18.8838 19.9213 19.141C19.6641 19.3982 19.3153 19.5427 18.9515 19.5427M4.0944 13.5998L2.43863 15.2556C2.1817 15.5127 2.03734 15.8613 2.03726 16.2247V18.1712C2.03726 18.535 2.18175 18.8838 2.43894 19.141C2.69614 19.3982 3.04497 19.5427 3.40869 19.5427M4.0944 13.5998L5.15315 10.4236C5.24412 10.1505 5.41872 9.91289 5.65223 9.74453C5.88574 9.57617 6.1663 9.48555 6.45418 9.48553H7.41977M4.0944 13.5998H10.4649M3.40869 19.5427H18.9515M3.40869 19.5427L3.40836 20.9142C3.40836 21.2779 3.55285 21.6267 3.81004 21.8839C4.06723 22.1411 4.41606 22.2856 4.77978 22.2856C5.14351 22.2856 5.49234 22.1411 5.74953 21.8839C6.00672 21.6267 6.15121 21.2779 6.15121 20.9142V19.5427L3.40869 19.5427ZM18.9515 19.5427L16.2086 19.5427V20.9142C16.2086 21.2779 16.3531 21.6267 16.6103 21.8839C16.8675 22.1411 17.2163 22.2856 17.58 22.2856C17.9437 22.2856 18.2926 22.1411 18.5498 21.8839C18.8069 21.6267 18.9514 21.2779 18.9514 20.9142L18.9515 19.5427ZM4.78029 16.3427H6.15172M16.2086 16.3427H17.58M16.2856 12.8572C19.5993 12.8572 22.2856 10.1709 22.2856 6.85718C22.2856 3.54347 19.5993 0.857178 16.2856 0.857178C12.9719 0.857178 10.2856 3.54347 10.2856 6.85718C10.2856 10.1709 12.9719 12.8572 16.2856 12.8572Z" stroke="black" stroke-width="1.5" stroke-linecap="round" stroke-linejoin="round"/>
</svg>
