<svg width="24" height="24" viewBox="0 0 24 24" fill="none" xmlns="http://www.w3.org/2000/svg">
<path d="M16.8001 9.94301H21.3715C21.614 9.94301 21.8466 10.0393 22.018 10.2108C22.1894 10.3822 22.2858 10.6148 22.2858 10.8573V21.3716C22.2858 21.6141 22.1894 21.8466 22.018 22.0181C21.8466 22.1895 21.614 22.2859 21.3715 22.2859H17.7144C17.4719 22.2859 17.2393 22.1895 17.0679 22.0181C16.8965 21.8466 16.8001 21.6141 16.8001 21.3716V9.94301ZM16.8001 9.94301L5.14329 1.71436M16.8001 20.9144L22.2858 15.4286M16.8001 16.8002L22.2858 11.3145M8.80044 13.6001L10.4562 15.2559C10.7131 15.513 10.8575 15.8615 10.8576 16.225V18.1715C10.8576 18.5353 10.7131 18.8841 10.4559 19.1413C10.1987 19.3985 9.84988 19.543 9.48615 19.543M8.80044 13.6001H1.71472M8.80044 13.6001L7.74169 10.8811C7.65072 10.6079 7.47612 10.3704 7.24261 10.202C7.0091 10.0337 6.72854 9.94304 6.44067 9.94301H1.71472M9.48615 19.543H1.71472M9.48615 19.543L6.74374 19.5428V20.9142C6.74374 21.2779 6.88823 21.6267 7.14542 21.8839C7.40261 22.1411 7.75144 22.2856 8.11517 22.2856C8.47889 22.2856 8.82772 22.1411 9.08491 21.8839C9.34211 21.6267 9.4866 21.2779 9.4866 20.9142L9.48615 19.543ZM6.74374 16.3427H8.11517" stroke="black" stroke-width="1.5" stroke-linecap="round" stroke-linejoin="round"/>
</svg>
