<svg width="24" height="24" viewBox="0 0 24 24" fill="none" xmlns="http://www.w3.org/2000/svg">
<path d="M20.2498 10.7498L22.0608 12.5608C22.3418 12.842 22.4997 13.2232 22.4998 13.6208V16.7498C22.4998 17.1476 22.3417 17.5291 22.0604 17.8104C21.7791 18.0917 21.3976 18.2498 20.9998 18.2498M20.2498 10.7498H3.74976M20.2498 10.7498L19.0918 5.77576C18.9923 5.47703 18.8013 5.21718 18.5459 5.03304C18.2905 4.84889 17.9836 4.74978 17.6688 4.74976H6.33076C6.01589 4.74978 5.70902 4.84889 5.45363 5.03304C5.19823 5.21718 5.00725 5.47703 4.90776 5.77576L3.74976 10.7498M3.74976 10.7498L1.93876 12.5608C1.65774 12.842 1.49984 13.2232 1.49976 13.6208V16.7498C1.49976 17.1476 1.65779 17.5291 1.9391 17.8104C2.2204 18.0917 2.60193 18.2498 2.99976 18.2498M2.99976 18.2498H20.9998M2.99976 18.2498L2.99976 19.7498C2.99976 20.1476 3.15779 20.5291 3.4391 20.8104C3.7204 21.0917 4.10193 21.2498 4.49976 21.2498C4.89758 21.2498 5.27911 21.0917 5.56042 20.8104C5.84172 20.5291 5.99976 20.1476 5.99976 19.7498V18.2498H2.99976ZM20.9998 18.2498H17.9998V19.7498C17.9998 20.1476 18.1578 20.5291 18.4391 20.8104C18.7204 21.0917 19.1019 21.2498 19.4998 21.2498C19.8976 21.2498 20.2791 21.0917 20.5604 20.8104C20.8417 20.5291 20.9998 20.1476 20.9998 19.7498V18.2498ZM4.49976 13.7498H5.99976M17.9998 13.7498H19.4998" stroke="black" stroke-width="1.5" stroke-linecap="round" stroke-linejoin="round"/>
</svg>
