<svg width="24" height="24" viewBox="0 0 24 24" fill="none" xmlns="http://www.w3.org/2000/svg">
<path d="M6.85672 8.57153C6.85672 8.79886 6.94703 9.01688 7.10777 9.17762C7.26852 9.33837 7.48653 9.42868 7.71386 9.42868M6.85672 8.57153C6.85672 8.3442 6.94703 8.12619 7.10777 7.96544C7.26852 7.8047 7.48653 7.71439 7.71386 7.71439M6.85672 8.57153L8.57101 8.5716M7.71386 9.42868C7.94119 9.42868 8.15921 9.33844 8.31995 9.17769C8.4807 9.01695 8.57101 8.79893 8.57101 8.5716M7.71386 9.42868V7.71439M7.71386 7.71439C7.94119 7.71439 8.15921 7.80477 8.31995 7.96551C8.4807 8.12626 8.57101 8.34427 8.57101 8.5716M17.1424 12.8572V8.57153L21.8991 7.21248C22.635 7.00222 23.1424 6.32956 23.1424 5.56416V4.28582C23.1424 3.33905 22.3749 2.57153 21.4281 2.57153H8.57101C5.25729 2.57153 2.57101 5.25782 2.57101 8.57153C2.57101 11.8852 5.25729 14.5715 8.57101 14.5715H15.4281C16.3749 14.5715 17.1424 13.804 17.1424 12.8572ZM17.1424 12.8572L19.7139 12.8571C20.6607 12.8571 21.4281 12.0896 21.4281 11.1428V7.42854M0.85672 16.2858V21.4287M0.85672 18.8572H8.57101L9.42815 14.5715" stroke="black" stroke-width="1.5" stroke-linecap="round" stroke-linejoin="round"/>
</svg>
