<svg width="24" height="24" viewBox="0 0 24 24" fill="none" xmlns="http://www.w3.org/2000/svg">
<path d="M12 12.796C12.4397 12.796 12.7961 12.4396 12.7961 11.9999M12 12.796C11.5603 12.796 11.204 12.4396 11.204 11.9999M12 12.796V11.2039M12.7961 11.9999C12.7961 11.5603 12.4397 11.2039 12 11.2039M12.7961 11.9999H11.204M12 11.2039C11.5603 11.2039 11.204 11.5603 11.204 11.9999M11.9994 17.5722C15.077 17.5722 17.5719 15.0773 17.5719 11.9997C17.5719 8.9221 15.077 6.42721 11.9994 6.42721C8.92178 6.42721 6.42689 8.9221 6.42689 11.9997C6.42689 15.0773 8.92178 17.5722 11.9994 17.5722ZM20.1491 16.9879C21.0398 15.536 21.5533 13.8279 21.5533 11.9999C21.5533 10.1718 21.0398 8.46371 20.1491 7.01189C20.9772 6.63691 21.5533 5.80334 21.5533 4.83524C21.5533 3.51626 20.484 2.44702 19.165 2.44702C18.1969 2.44702 17.3634 3.02306 16.9884 3.85108C15.5366 2.96049 13.8284 2.44702 12.0004 2.44702C10.1723 2.44702 8.46423 2.96049 7.01241 3.85108C6.63742 3.02306 5.80386 2.44702 4.83575 2.44702C3.51678 2.44702 2.44754 3.51626 2.44754 4.83524C2.44754 5.80334 3.02358 6.63691 3.8516 7.01189C2.96101 8.46371 2.44754 10.1718 2.44754 11.9999C2.44754 13.8279 2.96101 15.536 3.8516 16.9879C3.02358 17.3629 2.44754 18.1963 2.44754 19.1645C2.44754 20.4835 3.51678 21.5527 4.83575 21.5527C5.80386 21.5527 6.63742 20.9767 7.01241 20.1486C8.46423 21.0393 10.1723 21.5527 12.0004 21.5527C13.8284 21.5527 15.5366 21.0393 16.9884 20.1486C17.3634 20.9767 18.1969 21.5527 19.165 21.5527C20.484 21.5527 21.5533 20.4835 21.5533 19.1645C21.5533 18.1963 20.9772 17.3629 20.1491 16.9879Z" stroke="black" stroke-width="1.5" stroke-linecap="round" stroke-linejoin="round"/>
</svg>
