<svg width="24" height="24" viewBox="0 0 24 24" fill="none" xmlns="http://www.w3.org/2000/svg">
<path d="M21.4283 18.3569C21.4283 20.7238 17.207 22.6426 11.9997 22.6426C6.79247 22.6426 2.57115 20.7238 2.57115 18.3569M21.4283 18.3569C21.4283 15.99 17.207 14.0712 11.9997 14.0712C6.79247 14.0712 2.57115 15.99 2.57115 18.3569M21.4283 18.3569V5.64289C21.4283 3.27596 17.207 1.35718 11.9997 1.35718C6.79247 1.35718 2.57115 3.27596 2.57115 5.64289V18.3569M19.5419 15.7855C19.5419 17.679 16.1649 19.214 11.9991 19.214C7.83325 19.214 4.4562 17.679 4.4562 15.7855" stroke="black" stroke-width="1.5" stroke-linecap="round" stroke-linejoin="round"/>
</svg>
