<svg width="24" height="24" viewBox="0 0 24 24" fill="none" xmlns="http://www.w3.org/2000/svg">
<path d="M11.9993 5.5C13.1039 5.5 13.9993 4.60457 13.9993 3.5C13.9993 2.39543 13.1039 1.5 11.9993 1.5C10.8947 1.5 9.9993 2.39543 9.9993 3.5C9.9993 4.60457 10.8947 5.5 11.9993 5.5ZM11.9993 5.5V9M11.9993 9C10.0663 9 8.4993 10.567 8.4993 12.5C8.4993 14.433 10.0663 16 11.9993 16C13.9323 16 15.4993 14.433 15.4993 12.5C15.4993 10.567 13.9323 9 11.9993 9ZM18.6574 10.3368C18.9987 11.3873 20.1271 11.9623 21.1776 11.6209C22.2281 11.2796 22.803 10.1513 22.4616 9.10077C22.1203 8.05027 20.992 7.47536 19.9415 7.81669C18.891 8.15803 18.3161 9.28633 18.6574 10.3368ZM18.6574 10.3368L15.3287 11.4184M16.1141 18.1631C15.2205 18.8124 15.0224 20.0631 15.6716 20.9567C16.3209 21.8504 17.5716 22.0485 18.4653 21.3992C19.3589 20.75 19.557 19.4992 18.9077 18.6056C18.2585 17.712 17.0077 17.5139 16.1141 18.1631ZM16.1141 18.1631L14.0569 15.3316M7.88559 18.1633C6.99197 17.514 5.74123 17.7121 5.09198 18.6057C4.44273 19.4994 4.64083 20.7501 5.53445 21.3993C6.42806 22.0486 7.6788 21.8505 8.32805 20.9569C8.9773 20.0633 8.7792 18.8125 7.88559 18.1633ZM7.88559 18.1633L9.94284 15.3317M5.34288 10.337C5.68421 9.28652 5.10931 8.15821 4.0588 7.81688C3.00829 7.47555 1.87998 8.05045 1.53865 9.10096C1.19732 10.1515 1.77222 11.2798 2.82273 11.6211C3.87324 11.9624 5.00155 11.3875 5.34288 10.337ZM5.34288 10.337L8.67157 11.4186" stroke="black" stroke-width="1.5" stroke-linecap="round" stroke-linejoin="round"/>
</svg>
