<svg width="24" height="24" viewBox="0 0 24 24" fill="none" xmlns="http://www.w3.org/2000/svg">
<path d="M6.05491 17.1978L2.84049 3.05393C2.73655 2.58667 2.82249 2.09726 3.07939 1.69337C3.3363 1.28948 3.74313 1.00418 4.21038 0.900245C4.67764 0.796308 5.16704 0.882245 5.57094 1.13915C5.97483 1.39605 6.26013 1.80288 6.36406 2.27014L8.38546 11.5686C8.45763 11.9002 8.64108 12.1971 8.90534 12.4099C9.1696 12.6228 9.49875 12.7389 9.83809 12.7388H18.6887C19.477 12.7388 20.2331 13.052 20.7906 13.6095C21.3481 14.1669 21.6613 14.9231 21.6613 15.7114V17.1978H6.05491ZM6.05491 17.1978L2.33871 23.143M17.202 23.143V9.76607C17.202 9.37188 17.0454 8.99382 16.7667 8.71508C16.488 8.43634 16.1099 8.27975 15.7157 8.27975H7.67075" stroke="black" stroke-width="1.5" stroke-linecap="round" stroke-linejoin="round"/>
</svg>
