<svg width="24" height="24" viewBox="0 0 24 24" fill="none" xmlns="http://www.w3.org/2000/svg">
<path d="M5.99973 23.0001C7.34719 22.7225 9.90394 21.5257 11.9994 21.5257C14.0949 21.5257 16.6523 22.7225 17.9997 23.0001M1.44281 11.8234C2.37067 11.1884 3.3941 11.1884 4.32196 11.8234C5.47177 12.6104 4.86011 14.5437 5.01436 15.3235C5.16861 16.1032 5.96939 16.6747 6.90767 16.6747H17.0917C18.0299 16.6747 18.8308 16.1032 18.9849 15.3235C19.139 14.5437 18.5275 12.6104 19.6773 11.8234C20.6052 11.1884 21.6286 11.1884 22.5565 11.8234M7.01394 16.6746C7.86086 16.5701 8.76524 7.67704 7.95668 7.40424C7.14812 7.13145 6.33957 6.2585 6.33957 4.94909C6.33957 3.63969 7.81795 3.45274 8.76522 2.49394C9.39673 1.85475 9.57376 0.857178 10.3823 0.857178H13.6165C14.4251 0.857178 14.6021 1.85474 15.2336 2.49394C16.1809 3.45273 17.6592 3.63969 17.6592 4.94909C17.6592 6.2585 16.8507 7.13145 16.0421 7.40424C15.2336 7.67704 16.138 16.5701 16.9849 16.6746M11.9997 16.6746L12 23M11.1911 12.1767H12.8082" stroke="black" stroke-width="1.5" stroke-linecap="round" stroke-linejoin="round"/>
</svg>
