<svg width="24" height="24" viewBox="0 0 24 24" fill="none" xmlns="http://www.w3.org/2000/svg">
<path d="M3.42815 21.4287L5.14243 19.7144M20.571 21.4287L18.8567 19.7144M8.57101 12.0001V11.143C8.57101 10.1962 9.33852 9.42868 10.2853 9.42868H13.7139C14.6606 9.42868 15.4281 10.1962 15.4281 11.143V12.0001M3.69466 11.2582C4.53695 11.5469 5.14243 12.3456 5.14243 13.2858C5.14243 14.4693 6.10182 15.4287 7.28529 15.4287H16.7139C17.8973 15.4287 18.8567 14.4693 18.8567 13.2858C18.8567 12.3456 19.4622 11.5469 20.3045 11.2582M3.69466 11.2582C3.47669 11.1835 3.24287 11.143 2.99958 11.143H2.08121C1.40494 11.143 0.85672 11.6912 0.85672 12.3675V13.7144C0.85672 17.0281 3.54301 19.7144 6.85672 19.7144H17.1424C20.4561 19.7144 23.1424 17.0281 23.1424 13.7144V12.3675C23.1424 11.6912 22.5942 11.143 21.9179 11.143H20.9996C20.7563 11.143 20.5225 11.1835 20.3045 11.2582M3.69466 11.2582L4.90337 4.00399C5.04114 3.17738 5.75632 2.57153 6.59433 2.57153H17.4042C18.2422 2.57153 18.9574 3.17738 19.0951 4.00399L20.3045 11.2582" stroke="black" stroke-width="1.5" stroke-linecap="round" stroke-linejoin="round"/>
</svg>
