<svg width="24" height="24" viewBox="0 0 24 24" fill="none" xmlns="http://www.w3.org/2000/svg">
<path d="M2.40024 11.3145L3.77169 17.4861M3.77169 17.4861L2.40024 22.2862M3.77169 17.4861L6.5146 17.4861C6.87833 17.4861 7.22717 17.6306 7.48436 17.8878C7.74156 18.145 7.88605 18.4938 7.88605 18.8576V22.2862M21.6009 11.3145L20.2295 17.4861M20.2295 17.4861L21.6012 22.2862M20.2295 17.4861L17.4868 17.4861C17.1231 17.4861 16.7742 17.6306 16.5171 17.8878C16.2599 18.145 16.1154 18.4938 16.1154 18.8576V22.2862M12.0004 7.2004V22.2864M7.20074 13.3716H16.8009M2.39961 7.19964C2.24604 7.19946 2.09698 7.14773 1.9763 7.05275C1.85563 6.95777 1.77033 6.82502 1.73407 6.67579C1.69782 6.52656 1.71271 6.36948 1.77635 6.22972C1.84 6.08996 1.94872 5.9756 2.08509 5.90499L11.3278 1.89028C11.533 1.77494 11.7644 1.71436 11.9998 1.71436C12.2352 1.71436 12.4666 1.77494 12.6718 1.89028L21.9145 5.90499C22.0509 5.9756 22.1596 6.08996 22.2232 6.22972C22.2869 6.36948 22.3018 6.52656 22.2655 6.67579C22.2293 6.82502 22.144 6.95777 22.0233 7.05275C21.9026 7.14773 21.7535 7.19946 21.6 7.19964H2.39961Z" stroke="black" stroke-width="1.5" stroke-linecap="round" stroke-linejoin="round"/>
</svg>
