<svg width="24" height="24" viewBox="0 0 24 24" fill="none" xmlns="http://www.w3.org/2000/svg">
<path d="M12.0001 1.71436V18.8572M10.6291 1.71436H13.3719M16.1144 11.7716C16.1144 12.3171 15.8977 12.8404 15.5119 13.2262C15.1261 13.612 14.6029 13.8287 14.0573 13.8287C13.5117 13.8287 12.9885 13.612 12.6027 13.2262C12.2169 12.8404 12.0001 12.3171 12.0001 11.7716C12.0001 12.3171 11.7836 12.8404 11.3978 13.2262C11.012 13.612 10.4888 13.8287 9.94317 13.8287C9.39758 13.8287 8.87434 13.612 8.48855 13.2262C8.10276 12.8404 7.88603 12.3171 7.88603 11.7716M3.77191 18.1717C3.77191 19.2628 4.20538 20.3093 4.97696 21.0809C5.74854 21.8525 6.79502 22.286 7.8862 22.286C8.97737 22.286 10.0239 21.8525 10.7954 21.0809C11.567 20.3093 12.0005 19.2628 12.0005 18.1717C12.0005 19.2628 12.4336 20.3093 13.2052 21.0809C13.9768 21.8525 15.0233 22.286 16.1144 22.286C17.2056 22.286 18.2521 21.8525 19.0237 21.0809C19.7953 20.3093 20.2287 19.2628 20.2287 18.1717M5.14368 14.0575C5.14368 14.4212 4.99919 14.7701 4.74199 15.0273C4.4848 15.2844 4.13597 15.4289 3.77225 15.4289C3.40852 15.4289 3.05969 15.2844 2.8025 15.0273C2.54531 14.7701 2.40082 14.4212 2.40082 14.0575C2.40082 13.2987 3.58629 11.3147 3.77225 11.3147C3.95821 11.3146 5.14368 13.2987 5.14368 14.0575ZM21.6001 14.0574C21.6001 14.4211 21.4557 14.7699 21.1985 15.0271C20.9413 15.2843 20.5924 15.4288 20.2287 15.4288C19.865 15.4288 19.5162 15.2843 19.259 15.0271C19.0018 14.7699 18.8573 14.4211 18.8573 14.0574C18.8573 13.2985 20.0299 11.3145 20.2287 11.3145C20.4275 11.3145 21.6001 13.2985 21.6001 14.0574ZM17.486 7.65727C17.486 8.02099 17.3415 8.36982 17.0843 8.62702C16.8272 8.88421 16.4783 9.0287 16.1146 9.0287C15.7509 9.0287 15.402 8.88421 15.1449 8.62702C14.8877 8.36982 14.7432 8.02099 14.7432 7.65727C14.7432 6.89841 15.9811 4.91441 16.1146 4.91441C16.2481 4.91441 17.486 6.89841 17.486 7.65727ZM9.25696 7.65727C9.25696 8.02099 9.11247 8.36982 8.85527 8.62702C8.59808 8.88421 8.24925 9.0287 7.88553 9.0287C7.5218 9.0287 7.17297 8.88421 6.91578 8.62702C6.65859 8.36982 6.5141 8.02099 6.5141 7.65727C6.5141 6.89841 7.69962 4.91441 7.88553 4.91441C8.07143 4.91441 9.25696 6.89841 9.25696 7.65727Z" stroke="black" stroke-width="1.5" stroke-linecap="round" stroke-linejoin="round"/>
</svg>
