<svg width="24" height="24" viewBox="0 0 24 24" fill="none" xmlns="http://www.w3.org/2000/svg">
<path d="M4.28528 18.685H19.7139M23.0224 5.82854C22.6704 4.3797 21.5556 3.19412 20.1307 2.75515C18.7059 2.31621 17.1167 2.66858 16.0109 3.66854C15.4041 2.00035 13.7746 0.859131 11.9995 0.859131C10.2244 0.859131 8.59488 2.00037 7.98807 3.66854C6.88226 2.66855 5.29307 2.31621 3.86825 2.75515C2.44342 3.19409 1.24907 4.70642 0.976643 5.82854C0.704219 6.95066 0.904576 8.16882 1.522 9.14455C2.13944 10.1203 3.15455 10.8229 4.28521 11.0571C4.28521 12.5 4.28521 20.4885 4.28521 21.4222C4.28521 22.356 5.06576 23.1365 5.9995 23.1365C6.93323 23.1365 17.0658 23.1365 17.9995 23.1365C18.9332 23.1365 19.7138 22.356 19.7138 21.4222C19.7138 20.4885 19.7138 12.5 19.7138 11.0571C20.8444 10.8229 21.8595 10.1204 22.477 9.14455C23.0945 8.16885 23.2949 6.95068 23.0224 5.82854Z" stroke="black" stroke-width="1.5" stroke-linecap="round" stroke-linejoin="round"/>
</svg>
