<svg width="24" height="24" viewBox="0 0 24 24" fill="none" xmlns="http://www.w3.org/2000/svg">
<path d="M10.6024 0.857178L12.4658 3.70816L10.6024 6.44724M22.5052 18.246L19.1045 18.4342L19.095 18.4144M1.49469 19.8597L3.03204 16.8205L6.33583 17.0647M19.095 18.4144L17.6641 15.4509M19.095 18.4144C20.2 16.8828 20.8506 15.0018 20.8506 12.9689C20.8506 9.52387 18.9809 6.51558 16.2008 4.90345M12.4584 3.69739C12.1542 3.66744 11.8458 3.6521 11.5338 3.6521C6.38833 3.6521 2.21707 7.82336 2.21707 12.9689M3.04846 16.8216C4.51419 20.0447 7.76231 22.2856 11.5338 22.2856C13.2151 22.2856 14.7923 21.8403 16.154 21.0613" stroke="black" stroke-width="1.5" stroke-linecap="round" stroke-linejoin="round"/>
</svg>
