<svg width="24" height="24" viewBox="0 0 24 24" fill="none" xmlns="http://www.w3.org/2000/svg">
<path d="M12.0002 9.42861V12H14.5716M12.0002 18.8572C15.7873 18.8572 18.8573 15.7871 18.8573 12C18.8573 8.21294 15.7873 5.14289 12.0002 5.14289C8.21306 5.14289 5.14301 8.21294 5.14301 12C5.14301 15.7871 8.21306 18.8572 12.0002 18.8572ZM21.4287 0.857178H2.57159C1.62481 0.857178 0.8573 1.62469 0.8573 2.57146V21.4286C0.8573 22.3754 1.62481 23.1429 2.57159 23.1429H21.4287C22.3755 23.1429 23.143 22.3754 23.143 21.4286V2.57146C23.143 1.62469 22.3755 0.857178 21.4287 0.857178Z" stroke="black" stroke-width="1.5" stroke-linecap="round" stroke-linejoin="round"/>
</svg>
