<svg width="24" height="24" viewBox="0 0 24 24" fill="none" xmlns="http://www.w3.org/2000/svg">
<path d="M23.1436 17.2499C23.5577 17.2501 23.8936 17.5858 23.8936 17.9999C23.8936 18.4139 23.5577 18.7496 23.1436 18.7499H0.857503C0.44329 18.7499 0.107503 18.4141 0.107503 17.9999C0.107503 17.5856 0.44329 17.2499 0.857503 17.2499H23.1436Z" fill="black"/>
<path d="M22.7501 4.50404C23.1028 4.28699 23.5652 4.39654 23.7823 4.74916C23.9994 5.10193 23.889 5.5643 23.5362 5.78138L13.3155 12.0714C12.5091 12.5676 11.4921 12.5675 10.6856 12.0714L0.463949 5.78138C0.111482 5.5642 0.00182141 5.1018 0.218831 4.74916C0.436018 4.39669 0.898417 4.28703 1.25106 4.50404L11.4718 10.7941C11.796 10.9934 12.2051 10.9935 12.5294 10.7941L22.7501 4.50404Z" fill="black"/>
</svg>
