<svg width="24" height="24" viewBox="0 0 24 24" fill="none" xmlns="http://www.w3.org/2000/svg">
<path d="M5.14121 15.4296H3.76939C3.40557 15.4296 3.05664 15.2851 2.79938 15.0278C2.54211 14.7705 2.39758 14.4216 2.39758 14.0578C2.39758 9.25645 8.57165 7.19873 12.0003 7.19873M12.0003 7.19873C15.4289 7.19873 21.6029 9.25645 21.6029 14.0578C21.6029 14.4216 21.4584 14.7705 21.2011 15.0278C20.9439 15.2851 20.595 15.4296 20.2311 15.4296H18.8593M12.0003 7.19873L12.0004 5.82685C11.1865 5.82648 10.4112 5.30798 10.1 4.55595C9.78878 3.80392 9.971 2.88915 10.5466 2.31378C11.1223 1.73841 12.0371 1.55659 12.789 1.86813C13.5409 2.17968 14.0591 2.95525 14.0591 3.76913M18.8596 22.2887H5.14144V14.0578C5.14144 13.3107 5.76608 12.686 6.51326 12.686H17.4877C18.2349 12.686 18.8596 13.3107 18.8596 14.0578V22.2887Z" stroke="black" stroke-width="1.5" stroke-linecap="round" stroke-linejoin="round"/>
</svg>
