<svg width="24" height="24" viewBox="0 0 24 24" fill="none" xmlns="http://www.w3.org/2000/svg">
<path d="M2.03516 4.9859L4.43081 2.61597C4.95374 2.19643 5.7316 2.23922 6.20537 2.71357L10.0207 6.98227M11.3641 6.98193H6.44828C6.11346 6.98203 5.79109 7.10883 5.54591 7.33685C0.770242 11.7515 0.297635 18.8772 7.85147 22.2856H14.8534C20.0808 19.9185 21.4667 15.6113 20.2412 11.8976M11.3641 6.98193C11.3912 7.19502 11.4465 7.40547 11.5288 7.60757C11.7631 8.18347 12.2041 8.65108 12.7653 8.91869C12.3418 10.0336 12.7912 11.3291 13.8142 11.9421C14.8372 12.5552 16.1915 12.3407 16.975 11.4415C17.755 12.3522 19.1175 12.5741 20.1462 11.9581C20.1786 11.9387 20.2099 11.9184 20.2412 11.8976M11.3641 6.98193C11.3141 6.58778 11.3591 6.18426 11.4986 5.80557C11.7136 5.22215 12.1387 4.74006 12.6906 4.45382C13.2426 4.16759 13.8815 4.09786 14.4822 4.2583C14.4579 3.57718 14.7364 2.90737 15.224 2.42969C15.6922 1.97116 16.3213 1.71436 16.9766 1.71436C17.6319 1.71436 18.2611 1.97116 18.7292 2.42969C19.2294 2.91963 19.471 3.5688 19.471 4.2583C20.6016 3.9419 21.848 4.49839 22.3633 5.56128C22.961 6.79423 22.4166 8.33405 21.1879 8.91869C21.6088 10.001 21.2017 11.2597 20.2412 11.8976M15.3677 7.3862C15.3677 7.8131 15.5373 8.22251 15.8392 8.52437C16.1411 8.82624 16.5505 8.99582 16.9774 8.99582C17.4043 8.99582 17.8137 8.82624 18.1155 8.52437C18.4174 8.22251 18.587 7.8131 18.587 7.3862C18.587 6.9593 18.4174 6.54989 18.1155 6.24802C17.8137 5.94616 17.4043 5.77658 16.9774 5.77658C16.5505 5.77658 16.1411 5.94616 15.8392 6.24802C15.5373 6.54989 15.3677 6.9593 15.3677 7.3862Z" stroke="black" stroke-width="1.5" stroke-linecap="round" stroke-linejoin="round"/>
</svg>
