<svg width="24" height="24" viewBox="0 0 24 24" fill="none" xmlns="http://www.w3.org/2000/svg">
<path d="M7.32718 6.1395L5.67232 3.88121C5.16032 2.96693 5.67232 1.71436 6.58661 1.71436H17.4849C18.3992 1.71436 18.8746 2.97607 18.3992 3.88121L16.6712 6.1395M15.8212 11.7896L13.6361 12.1278C13.146 12.2115 12.6985 12.4585 12.3666 12.8287C12.0346 13.1988 11.8376 13.6704 11.8075 14.1667C11.8234 14.6957 11.6468 15.2124 11.3105 15.621C10.9742 16.0296 10.5011 16.3023 9.97894 16.3884L7.7938 16.7267M19.5423 20.9142C19.5761 21.2382 19.4823 21.5626 19.2809 21.8187C19.0795 22.0747 18.7863 22.2422 18.4634 22.2856H5.5354C5.21254 22.2422 4.91929 22.0747 4.71788 21.8187C4.51646 21.5626 4.42272 21.2382 4.45654 20.9142V11.3142C4.45654 8.2879 6.38568 5.82847 8.76283 5.82847H15.236C17.6131 5.82847 19.5423 8.2879 19.5423 11.3142V20.9142ZM8.40509 17.6543C8.75572 18.005 9.19072 18.2644 9.68523 18.4178C10.1797 18.5711 10.7241 18.6155 11.2872 18.5482C11.8503 18.481 12.4212 18.3035 12.9671 18.0259C13.5131 17.7483 14.0235 17.376 14.4692 16.9303C14.915 16.4845 15.2873 15.9741 15.5649 15.4281C15.8425 14.8822 16.02 14.3113 16.0872 13.7482C16.1545 13.1851 16.1101 12.6408 15.9567 12.1462C15.8034 11.6517 15.544 11.2167 15.1933 10.8661C14.8427 10.5155 14.4077 10.2561 13.9132 10.1027C13.4187 9.94931 12.8743 9.90498 12.3112 9.97221C11.7481 10.0395 11.1773 10.2169 10.6313 10.4946C10.0853 10.7722 9.57488 11.1445 9.12916 11.5902C8.68344 12.0359 8.31115 12.5463 8.03354 13.0923C7.75592 13.6383 7.57843 14.2091 7.5112 14.7722C7.44396 15.3353 7.4883 15.8797 7.64167 16.3742C7.79504 16.8687 8.05446 17.3037 8.40509 17.6543Z" stroke="black" stroke-width="1.5" stroke-linecap="round" stroke-linejoin="round"/>
</svg>
