<svg width="24" height="24" viewBox="0 0 24 24" fill="none" xmlns="http://www.w3.org/2000/svg">
<path d="M4.45787 5.14293C9.22664 5.14293 13.5797 5.14293 16.6691 5.14293C19.7584 5.14293 22.2864 8.05584 22.2864 11.6161C22.2864 12.7456 22.0501 13.8625 21.5259 14.863C21.0017 15.8636 20.2322 16.7147 19.2894 17.3368M14.7436 5.14276L16.8007 2.3999M2.06473 13.3716H19.1829M18.172 11.5226V9.25704H1.71484L3.34319 11.1853C2.28373 12.3733 1.71484 13.9125 1.71484 15.5044C1.71484 18.857 4.18342 21.5999 7.20056 21.5999H14.0577C17.0748 21.5999 19.5434 18.857 19.5434 15.5044C19.5434 14.0609 19.0627 12.6585 18.172 11.5226Z" stroke="black" stroke-width="1.5" stroke-linecap="round" stroke-linejoin="round"/>
</svg>
