<svg width="24" height="24" viewBox="0 0 24 24" fill="none" xmlns="http://www.w3.org/2000/svg">
<path d="M16.2866 10.2858V18.8572M16.2866 10.2858C16.2866 9.35206 15.506 8.5715 14.5723 8.5715H6.00085C5.06713 8.5715 4.28656 9.35207 4.28656 10.2858V18.8572C4.28656 20.7246 5.84773 22.2858 7.71513 22.2858H12.858C14.7254 22.2858 16.2866 20.7246 16.2866 18.8572M16.2866 10.2858C17.735 10.2858 19.0871 10.4541 20.1742 11.541C20.978 12.3447 21.4294 13.4349 21.4294 14.5715C21.4294 15.7081 20.978 16.7984 20.1742 17.602C19.0871 18.6889 17.735 18.8572 16.2866 18.8572M7.71513 1.71436V5.14293M12.858 1.71436V5.14293" stroke="black" stroke-width="1.5" stroke-linecap="round" stroke-linejoin="round"/>
</svg>
