<svg width="24" height="24" viewBox="0 0 24 24" fill="none" xmlns="http://www.w3.org/2000/svg">
<path d="M18.8569 5.95344C18.6201 5.95344 18.4283 5.76156 18.4283 5.52487M18.8569 5.95344C19.0936 5.95344 19.2854 5.76156 19.2854 5.52487M18.8569 5.95344V5.0963M18.4283 5.52487C18.4283 5.28818 18.6201 5.0963 18.8569 5.0963M18.4283 5.52487H19.2854M18.8569 5.0963C19.0936 5.0963 19.2854 5.28818 19.2854 5.52487M6.17403 8.94099C6.09072 9.15692 6.00284 9.79088 5.67996 10.2164C5.21837 10.8247 4.7374 11.0889 3.97944 11.1815C3.4478 11.2465 2.84938 11.0054 2.62363 10.9747C2.17212 10.9134 1.70287 11.1434 1.47463 11.5377C1.36051 11.7349 1.1328 12.1417 1.01503 12.342C0.779492 12.7427 0.817312 13.2769 1.10695 13.6404C1.25177 13.8221 1.76051 14.2149 1.9687 14.709C2.26146 15.4036 2.25722 15.9428 1.9687 16.6393C1.76565 17.1294 1.27475 17.5262 1.12993 17.7079C0.840186 18.0714 0.802558 18.6056 1.03801 19.0063C1.15578 19.2067 1.38349 19.6131 1.49761 19.8105C1.72581 20.205 2.195 20.4346 2.6466 20.3736C2.87235 20.3431 3.47104 20.0995 4.00243 20.1667C4.75227 20.2614 5.22345 20.5295 5.67996 21.1318C6.00259 21.5575 6.09072 22.1913 6.17403 22.4073C6.3407 22.8394 6.77978 23.1415 7.2426 23.1425C7.47406 23.143 7.97631 23.143 8.20776 23.1425C8.67057 23.1415 9.10963 22.8393 9.27633 22.4073C9.35966 22.1913 9.44775 21.5575 9.77038 21.1318C10.2269 20.5295 10.6981 20.2614 11.4479 20.1667C11.9793 20.0995 12.578 20.3431 12.8037 20.3736C13.2553 20.4346 13.7245 20.205 13.9527 19.8105C14.0669 19.6131 14.2946 19.2067 14.4123 19.0063C14.6478 18.6056 14.6102 18.0714 14.3204 17.7079C14.1756 17.5262 13.6669 17.1333 13.4587 16.6393C13.1659 15.9446 13.1701 15.4054 13.4587 14.709C13.6617 14.2189 14.1526 13.8221 14.2974 13.6404C14.5871 13.2769 14.6249 12.7427 14.3894 12.342C14.2716 12.1417 14.0439 11.7349 13.9298 11.5377C13.7015 11.1434 13.2323 10.9134 12.7808 10.9747C12.555 11.0054 11.9563 11.2487 11.4249 11.1815C10.6751 11.0867 10.2039 10.8187 9.74741 10.2164C9.42479 9.79068 9.33665 9.15692 9.25334 8.94099C9.0867 8.50911 8.64768 8.207 8.18477 8.20563C7.95331 8.20494 7.47406 8.20494 7.2426 8.20563C6.77969 8.207 6.34067 8.50911 6.17403 8.94099ZM17.8943 1.31644C17.7904 1.58636 17.7872 1.84762 17.5854 2.11355C17.2969 2.49369 16.9964 2.65885 16.5227 2.71677C16.1904 2.7574 15.9575 2.62581 15.6753 2.58752C15.3931 2.54922 15.0998 2.69289 14.9571 2.93941C14.8145 3.18592 14.8171 3.1917 14.6699 3.44209C14.5227 3.69247 14.5463 4.02638 14.7273 4.25356C14.9084 4.48074 15.1358 4.61266 15.2659 4.92141C15.4489 5.35558 15.4463 5.69259 15.2659 6.12786C15.139 6.43418 14.9227 6.56859 14.7417 6.79573C14.5607 7.02287 14.537 7.35678 14.6843 7.6072C14.8315 7.85763 14.8288 7.8634 14.9715 8.10988C15.1142 8.35636 15.4074 8.50007 15.6896 8.46177C15.9718 8.42348 16.2049 8.29051 16.537 8.3325C17.0056 8.39174 17.3001 8.55929 17.5854 8.93572C17.7871 9.20178 17.7904 9.46292 17.8943 9.73285C17.9982 10.0028 18.273 10.1916 18.562 10.1924C18.8511 10.1933 18.8759 10.1933 19.1653 10.1924C19.4547 10.1916 19.7289 10.0028 19.8332 9.73285C19.9374 9.46292 19.9403 9.20179 20.1419 8.93572C20.4272 8.55923 20.7217 8.39176 21.1904 8.3325C21.5225 8.2905 21.7558 8.42348 22.0379 8.46177C22.3201 8.50007 22.6131 8.35636 22.756 8.10988C22.899 7.8634 22.8957 7.85763 23.0432 7.6072C23.1906 7.35677 23.1668 7.02286 22.9858 6.79573C22.8047 6.56859 22.5772 6.43663 22.4471 6.12786C22.2641 5.69369 22.2668 5.35668 22.4471 4.92141C22.574 4.6151 22.7903 4.48074 22.9713 4.25356C23.1524 4.02638 23.1762 3.69248 23.0288 3.44209C22.8813 3.1917 22.8842 3.18579 22.7416 2.93941C22.5991 2.69303 22.3058 2.5492 22.0235 2.58752C21.7412 2.62583 21.5083 2.75875 21.1761 2.71677C20.7075 2.65753 20.413 2.49 20.1277 2.11355C19.926 1.8475 19.9227 1.58636 19.8188 1.31644C19.7149 1.04652 19.4401 0.857695 19.1511 0.856841C18.862 0.855988 18.8511 0.855988 18.562 0.856841C18.273 0.857695 17.9982 1.04652 17.8943 1.31644ZM9.94978 15.6997C9.94978 16.9423 8.94242 17.9497 7.69978 17.9497C6.45714 17.9497 5.44978 16.9423 5.44978 15.6997C5.44978 14.457 6.45714 13.4497 7.69978 13.4497C8.94242 13.4497 9.94978 14.457 9.94978 15.6997Z" stroke="black" stroke-width="1.5" stroke-linecap="round" stroke-linejoin="round"/>
</svg>
