<svg width="24" height="24" viewBox="0 0 24 24" fill="none" xmlns="http://www.w3.org/2000/svg">
<path d="M3.03206 5.38463C2.54042 6.04998 2.12106 6.77198 1.78558 7.53904C1.32605 8.58976 2.2254 9.35276 2.88853 10.0291C3.75627 10.9141 3.80994 13.0193 2.93597 13.9221C2.26947 14.6105 1.31499 15.3848 1.78558 16.4608C2.12106 17.2279 2.54042 17.9499 3.03206 18.6152C3.72906 19.5585 4.87347 19.1212 5.8024 18.8884C6.88415 18.6172 8.81672 19.7041 9.13314 20.8128C9.39601 21.7339 9.59026 22.9448 10.7571 23.0743C11.573 23.1648 12.4263 23.1648 13.2422 23.0743C14.409 22.9448 14.6032 21.734 14.8661 20.8129C15.1721 19.7405 17.0782 18.608 18.1969 18.8884C19.1258 19.1212 20.2702 19.5585 20.9672 18.6152C21.4588 17.9499 21.8782 17.2279 22.2137 16.4608C22.6843 15.3848 21.7298 14.6106 21.0633 13.9221C20.2901 13.1234 20.2646 10.9028 21.0633 10.0777C21.7298 9.38927 22.6843 8.61501 22.2137 7.53904C21.8782 6.77198 21.4588 6.04998 20.9672 5.38463C20.2702 4.44136 19.1258 4.87858 18.1969 5.11143C17.1151 5.38259 15.1825 4.2957 14.8661 3.18697C14.6032 2.26585 14.409 1.05502 13.2422 0.925559C12.4263 0.835035 11.573 0.835035 10.7571 0.925559C9.59026 1.05502 9.39601 2.26588 9.13314 3.18701C8.81672 4.29572 6.88415 5.3826 5.8024 5.11144C4.87346 4.87859 3.72906 4.44135 3.03206 5.38463Z" stroke="black" stroke-width="1.5" stroke-linecap="round" stroke-linejoin="round"/>
<path d="M12 15.4287C13.8935 15.4287 15.4286 13.8937 15.4286 12.0001C15.4286 10.1066 13.8935 8.57153 12 8.57153C10.1064 8.57153 8.57142 10.1066 8.57142 12.0001C8.57142 13.8937 10.1064 15.4287 12 15.4287Z" stroke="black" stroke-width="1.5" stroke-linecap="round" stroke-linejoin="round"/>
</svg>
