<svg width="24" height="24" viewBox="0 0 24 24" fill="none" xmlns="http://www.w3.org/2000/svg">
<path d="M7.71512 7.71436V5.14293M4.28655 11.1429H1.71512M4.28655 16.2858H1.71512M18.858 16.2858H16.2865M7.71512 22.2858V19.7144M12.858 22.2858V19.7144M10.2865 7.71436H6.00083C5.05406 7.71436 4.28655 8.48187 4.28655 9.42864V18.0001C4.28655 18.9468 5.05406 19.7144 6.00083 19.7144H14.5723C15.519 19.7144 16.2865 18.9468 16.2865 18.0001V14.5715M16.8008 1.71436H22.2865L20.2294 5.14293H22.2865L16.8008 11.3144L17.4865 6.51436H15.4294L16.8008 1.71436ZM7.71512 11.1429H12.858V16.2858H7.71512V11.1429Z" stroke="black" stroke-width="1.5" stroke-linecap="round" stroke-linejoin="round"/>
</svg>
