<svg width="24" height="24" viewBox="0 0 24 24" fill="none" xmlns="http://www.w3.org/2000/svg">
<path d="M7.71345 7.71432V5.14289M4.28488 11.1429H1.71345M4.28488 16.2858H1.71345M18.8563 16.2858H16.2849M7.71345 22.2857V19.7143M12.8563 22.2857V19.7143M10.2849 7.71432H5.99916C5.05239 7.71432 4.28488 8.48183 4.28488 9.42861V18C4.28488 18.9468 5.05239 19.7143 5.99916 19.7143H14.5706C15.5174 19.7143 16.2849 18.9468 16.2849 18V14.5715M7.71345 11.1429H12.8563V16.2857H7.71345V11.1429ZM17.77 0.857178C18.2959 1.48425 18.6168 2.25753 18.6894 3.0727C18.762 3.88787 18.5828 4.70568 18.176 5.41581C17.8158 5.44368 17.4585 5.3337 17.1764 5.10811C16.8943 4.88252 16.7084 4.55817 16.6564 4.20072C16.1171 4.49529 15.6731 4.93784 15.3769 5.47626C15.0806 6.01469 14.9444 6.62655 14.9842 7.23981C14.9842 8.20707 15.3684 9.13472 16.0524 9.81869C16.7363 10.5026 17.664 10.8869 18.6313 10.8869C19.5945 10.8739 20.5146 10.4855 21.1958 9.80429C21.8769 9.12313 22.2653 8.20302 22.2784 7.23981C22.4002 5.81511 22.0146 4.39317 21.1897 3.22524C20.3647 2.05731 19.1535 1.21856 17.77 0.857178Z" stroke="black" stroke-width="1.5" stroke-linecap="round" stroke-linejoin="round"/>
</svg>
