<svg width="24" height="24" viewBox="0 0 24 24" fill="none" xmlns="http://www.w3.org/2000/svg">
<path d="M5.1423 21.4287H10.2852M7.71373 21.4287V18.0001M12.8566 4.28582V3.42868C12.8566 2.95529 13.2403 2.57153 13.7137 2.57153H22.2852C22.7585 2.57153 23.1423 2.95529 23.1423 3.42868V20.5715C23.1423 21.0448 22.7585 21.4287 22.2852 21.4287H15.428M17.9994 10.2858H23.1423M19.7135 6.0001H16.2849M0.856586 9.42868V16.2858C0.856586 17.2326 1.6241 18.0001 2.57087 18.0001H12.8566C13.8034 18.0001 14.5709 17.2326 14.5709 16.2858V9.42868C14.5709 8.48191 13.8034 7.71439 12.8566 7.71439H2.57087C1.6241 7.71439 0.856586 8.48191 0.856586 9.42868Z" stroke="black" stroke-width="1.5" stroke-linecap="round" stroke-linejoin="round"/>
</svg>
