<svg width="24" height="24" viewBox="0 0 24 24" fill="none" xmlns="http://www.w3.org/2000/svg">
<path d="M16.922 4.26562H7.07822M16.922 4.26562L22.2095 8.46562C22.4311 8.72733 22.5509 9.0602 22.547 9.40312V12.7219C22.547 13.4878 21.9066 14.1281 21.1407 14.1281H2.85947C2.0935 14.1281 1.45322 13.4878 1.45322 12.7219V9.42188C1.44924 9.07895 1.56907 8.74608 1.79072 8.48438M16.922 4.26562L16.9219 1.45312M7.07822 4.26562L1.79072 8.48438M7.07822 4.26562L7.07812 1.45312M1.79072 8.48438H22.2101M5.67188 11.2969H7.78125M10.5938 11.2969H12.7031M18.0938 11.2969H18.7031M12.0011 17.4999L12.5464 18.3177C12.8108 18.7144 12.7585 19.2425 12.4214 19.5795C11.9917 20.0093 11.4913 20.4803 11.8234 21.1445L12.5011 22.4999M7.00056 17.4999L7.54581 18.3177C7.81023 18.7144 7.75793 19.2425 7.42087 19.5795C6.99113 20.0093 6.49077 20.4803 6.82289 21.1445L7.50056 22.4999M17 17.4999L17.5453 18.3177C17.8097 18.7144 17.7574 19.2425 17.4203 19.5795C16.9906 20.0093 16.4902 20.4803 16.8223 21.1445L17.5 22.4999" stroke="black" stroke-width="1.5" stroke-linecap="round" stroke-linejoin="round"/>
</svg>
