<svg width="24" height="24" viewBox="0 0 24 24" fill="none" xmlns="http://www.w3.org/2000/svg">
<path d="M7.25194 19.9123H19.2941C19.7093 19.914 20.107 20.0788 20.4019 20.3712L22.2848 22.2859M1.71399 1.71436H3.29641C3.71609 1.71436 4.11858 1.88107 4.41534 2.17783C4.7121 2.47459 4.87882 2.87709 4.87882 3.29678V16.7473M18.3291 4.87925H11.2082C10.3343 4.87925 9.62582 5.58773 9.62582 6.46168V13.5825C9.62582 14.4565 10.3343 15.165 11.2082 15.165H18.3291C19.2031 15.165 19.9116 14.4565 19.9116 13.5825V6.46168C19.9116 5.58773 19.2031 4.87925 18.3291 4.87925ZM7.21369 19.3345C7.22151 19.4661 7.22151 19.5983 7.21369 19.73C7.16245 20.4412 6.83727 21.105 6.30658 21.5812C5.77589 22.0576 5.08109 22.3095 4.36842 22.2839C3.65578 22.2582 2.98086 21.9572 2.48576 21.4439C1.99066 20.9307 1.71399 20.2453 1.71399 19.5321C1.71399 18.8192 1.99066 18.1338 2.48576 17.6205C2.98086 17.1073 3.65578 16.8062 4.36842 16.7806C5.08109 16.755 5.77589 17.0068 6.30658 17.4832C6.83727 17.9595 7.16245 18.6232 7.21369 19.3345Z" stroke="black" stroke-width="1.5" stroke-linecap="round" stroke-linejoin="round"/>
</svg>
