<svg width="24" height="24" viewBox="0 0 24 24" fill="none" xmlns="http://www.w3.org/2000/svg">
<path d="M11.6717 15.7091L9.69363 11.3647H12.6468M8.12332 17.5778L17.1703 13.0958M18.1076 15.8321L15.3889 7.93366H19.9157M5.38798 1.37451L1.52567 6.78175H6.16045L3.07059 11.4165M1.52567 19.2131C1.52567 21.1216 3.12118 22.7171 5.02969 22.7171C6.9382 22.7171 8.53371 21.1216 8.53371 19.2131C8.53371 17.3045 6.93821 15.7091 5.02969 15.7091C3.12117 15.7091 1.52567 17.3045 1.52567 19.2131ZM15.471 19.2131C15.471 21.1217 17.0665 22.7171 18.9751 22.7171C20.8835 22.7171 22.4791 21.1215 22.4791 19.2131C22.4791 17.3046 20.8835 15.7091 18.9751 15.7091C17.0665 15.7091 15.471 17.3044 15.471 19.2131Z" stroke="black" stroke-width="1.5" stroke-linecap="round" stroke-linejoin="round"/>
</svg>
