<svg width="24" height="24" viewBox="0 0 24 24" fill="none" xmlns="http://www.w3.org/2000/svg">
<path d="M15.4288 5.14293C15.4288 6.05224 15.7901 6.92431 16.4331 7.56729C17.076 8.21028 17.9481 8.5715 18.8574 8.5715C19.7667 8.5715 20.6388 8.21028 21.2818 7.56729C21.9248 6.92431 22.286 6.05224 22.286 5.14293C22.286 4.23361 21.9248 3.36154 21.2818 2.71856C20.6388 2.07558 19.7667 1.71436 18.8574 1.71436C17.9481 1.71436 17.076 2.07558 16.4331 2.71856C15.7901 3.36154 15.4288 4.23361 15.4288 5.14293Z" stroke="black" stroke-width="1.5" stroke-linecap="round" stroke-linejoin="round"/>
<path d="M1.71456 16.2858C1.71456 19.5995 4.40085 22.2858 7.71456 22.2858H16.286C18.6529 22.2858 20.5717 20.367 20.5717 18.0001C20.5717 15.6331 18.6529 13.7144 16.286 13.7144C15.2279 13.7144 14.2594 14.0978 13.5118 14.7333C12.8276 12.1721 10.4914 10.2858 7.71456 10.2858C4.40085 10.2858 1.71456 12.9721 1.71456 16.2858Z" stroke="black" stroke-width="1.5" stroke-linecap="round" stroke-linejoin="round"/>
</svg>
