<svg width="24" height="24" viewBox="0 0 24 24" fill="none" xmlns="http://www.w3.org/2000/svg">
<path d="M13.5914 8.01969C15.35 8.01969 16.7757 6.59404 16.7757 4.83541C16.7757 3.07678 15.35 1.65112 13.5914 1.65112C11.8327 1.65112 10.4071 3.07678 10.4071 4.83541C10.4071 6.59404 11.8327 8.01969 13.5914 8.01969ZM13.5914 8.01969L13.5912 14.3884H18.3677C19.2348 14.3884 19.9598 15.1134 19.9598 15.9806V22.3491M9.85631 11.1429C6.7793 11.1429 4.28488 13.6373 4.28488 16.7143C4.28488 19.7913 6.7793 22.2857 9.85631 22.2857C12.174 22.2857 14.1611 20.8706 15.0007 18.8572" stroke="black" stroke-width="1.5" stroke-linecap="round" stroke-linejoin="round"/>
</svg>
