<svg width="24" height="24" viewBox="0 0 24 24" fill="none" xmlns="http://www.w3.org/2000/svg">
<path d="M3.42983 13.0222C3.88831 13.0388 4.35268 12.8837 4.71882 12.5542L12.0013 5.99999L19.2837 12.5542C19.6498 12.8837 20.1142 13.0388 20.5727 13.0222M3.42983 13.0222C2.98348 13.006 2.5427 12.8271 2.2036 12.488C1.46953 11.754 1.49347 10.5566 2.25629 9.85249L10.8385 1.93045C11.4952 1.32429 12.5074 1.32429 13.164 1.93045L21.7462 9.85249C22.5091 10.5566 22.533 11.754 21.7989 12.488C21.4598 12.8271 21.019 13.006 20.5727 13.0222M3.42983 13.0222L3.4294 22.2856H7.71512V17.9999C7.71512 15.633 9.6339 13.7142 12.0008 13.7142C14.3678 13.7142 16.2865 15.633 16.2865 17.9999V22.2856H20.5723L20.5727 13.0222" stroke="black" stroke-width="1.5" stroke-linecap="round" stroke-linejoin="round"/>
</svg>
