<svg width="24" height="24" viewBox="0 0 24 24" fill="none" xmlns="http://www.w3.org/2000/svg">
<path d="M4.05133 8.06721V3.34267C4.05133 2.4729 4.75643 1.76782 5.62618 1.76782H18.225C19.0947 1.76782 19.7998 2.4729 19.7998 3.34267V20.666C19.7998 21.5358 19.0947 22.2408 18.225 22.2408H14.2878M14.2885 12.7918H15.8633M3.75669 15.4492V14.0712C3.75669 13.3404 4.04708 12.6393 4.56392 12.1225C5.08076 11.6056 5.78179 11.3153 6.51267 11.3153C7.24356 11.3153 7.94459 11.6056 8.46143 12.1225C8.97827 12.6393 9.26865 13.3404 9.26865 14.0712V15.4492M6.16741 18.8944C6.16741 19.0847 6.32165 19.2389 6.5119 19.2389C6.70216 19.2389 6.8564 19.0847 6.8564 18.8944M6.16741 18.8944C6.16741 18.7042 6.32165 18.5499 6.5119 18.5499C6.70216 18.5499 6.8564 18.7042 6.8564 18.8944M6.16741 18.8944H6.8564M9.26718 15.4495H3.75522C2.9942 15.4495 2.37723 16.0664 2.37723 16.8275V20.9614C2.37723 21.7224 2.9942 22.3394 3.75522 22.3394H9.26718C10.0282 22.3394 10.6452 21.7224 10.6452 20.9614V16.8275C10.6452 16.0664 10.0282 15.4495 9.26718 15.4495Z" stroke="black" stroke-width="1.5" stroke-linecap="round" stroke-linejoin="round"/>
</svg>
