<svg width="24" height="24" viewBox="0 0 24 24" fill="none" xmlns="http://www.w3.org/2000/svg">
<path d="M17.2003 6.05414V21.6569C17.2003 22.4663 16.5237 23.1429 15.7143 23.1429H8.28442C7.47506 23.1429 6.79844 22.4663 6.79844 21.6569C6.79844 20.8476 6.79739 17.8347 6.79844 16.456C6.79949 15.0773 7.34791 13.7554 8.32316 12.7809C9.2984 11.8064 10.6207 11.259 11.9994 11.259C13.0278 11.259 14.0332 10.9541 14.8884 10.3828C16.6188 9.22686 17.506 7.08595 17.1006 5.04491C16.9003 4.03614 16.4053 3.10942 15.6784 2.3819C14.9514 1.65438 14.0251 1.15872 13.0164 0.957598C12.0078 0.756472 10.9622 0.858902 10.0118 1.25194C9.06139 1.64498 8.24884 2.31098 7.67688 3.16574C7.10492 4.02051 6.79922 5.02567 6.79844 6.05414M9.77119 20.1751H14.2291" stroke="black" stroke-width="1.5" stroke-linecap="round" stroke-linejoin="round"/>
</svg>
