<svg width="24" height="24" viewBox="0 0 24 24" fill="none" xmlns="http://www.w3.org/2000/svg">
<path d="M0.857422 2.57146C0.857422 1.62469 1.62491 0.857178 2.57171 0.857178H14.5717C15.5185 0.857178 16.286 1.62469 16.286 2.57146V5.14289M0.857422 2.57146V19.143C0.857422 19.8808 1.32954 20.5359 2.02965 20.7693L8.88674 23.055C9.99679 23.4249 11.1431 22.5988 11.1431 21.4287V5.52139C11.1431 4.78351 10.671 4.12841 9.97096 3.89508L1.65456 1.12294C1.17542 1.42693 0.857422 1.96203 0.857422 2.57146ZM16.286 15.4286V18C16.286 18.9468 15.5185 19.7143 14.5717 19.7143H11.1431M19.7146 13.7143L23.1431 10.2857L19.7146 6.85718M14.5717 10.2857H22.9289" stroke="black" stroke-width="1.5" stroke-linecap="round" stroke-linejoin="round"/>
</svg>
