<svg width="24" height="24" viewBox="0 0 24 24" fill="none" xmlns="http://www.w3.org/2000/svg">
<path d="M0.857697 2.57146C0.857697 1.62469 1.62518 0.857178 2.57198 0.857178H14.572C15.5187 0.857178 16.2863 1.62469 16.2863 2.57146V3.42861M0.857697 2.57146V19.143C0.857697 19.8808 1.32981 20.5359 2.02992 20.7693L8.88702 23.055C9.99707 23.4249 11.1434 22.5988 11.1434 21.4287V5.52139C11.1434 4.78351 10.6712 4.12841 9.97123 3.89508L1.65484 1.12294C1.1757 1.42693 0.857697 1.96203 0.857697 2.57146ZM16.2863 17.1429V18C16.2863 18.9468 15.5187 19.7143 14.572 19.7143H11.1434M18.0006 13.7143L14.572 10.2857L18.0006 6.85718M23.1434 10.2857H14.7863" stroke="black" stroke-width="1.5" stroke-linecap="round" stroke-linejoin="round"/>
</svg>
