<svg width="24" height="24" viewBox="0 0 24 24" fill="none" xmlns="http://www.w3.org/2000/svg">
<path d="M11.572 17.1429C11.572 17.3796 11.7639 17.5715 12.0006 17.5715C12.2373 17.5715 12.4292 17.3796 12.4292 17.1429M11.572 17.1429C11.572 16.9062 11.7639 16.7143 12.0006 16.7143C12.2373 16.7143 12.4292 16.9062 12.4292 17.1429M11.572 17.1429H12.4292M11.572 6.00003C11.572 6.23673 11.7639 6.42861 12.0006 6.42861C12.2373 6.42861 12.4292 6.23673 12.4292 6.00003M11.572 6.00003C11.572 5.76334 11.7639 5.57146 12.0006 5.57146C12.2373 5.57146 12.4292 5.76334 12.4292 6.00003M11.572 6.00003H12.4292M3.42914 12H20.572M5.14342 0.857178H18.8577C19.8045 0.857178 20.572 1.62469 20.572 2.57146V19.7143C20.572 21.6079 19.037 23.1429 17.1434 23.1429H6.85771C4.96416 23.1429 3.42914 21.6079 3.42914 19.7143V2.57146C3.42914 1.62469 4.19665 0.857178 5.14342 0.857178Z" stroke="black" stroke-width="1.5" stroke-linecap="round" stroke-linejoin="round"/>
</svg>
