<svg width="24" height="24" viewBox="0 0 24 24" fill="none" xmlns="http://www.w3.org/2000/svg">
<path d="M0.857117 17.9925C2.17835 19.6656 3.87625 21.0035 5.81257 21.8968C7.74889 22.7901 9.86889 23.2137 12 23.133C14.1311 23.2137 16.2511 22.7901 18.1873 21.8968C20.1236 21.0035 21.8216 19.6656 23.1428 17.9925M17.9315 11.9952C17.9315 8.79088 12.5001 0.857178 12 0.857178C11.5 0.857178 6.06861 8.79088 6.06861 11.9952C6.06861 13.5676 6.69352 15.0757 7.80589 16.1875C8.91826 17.2994 10.4269 17.9241 12 17.9241C13.5732 17.9241 15.0818 17.2994 16.1942 16.1875C17.3066 15.0757 17.9315 13.5676 17.9315 11.9952Z" stroke="black" stroke-width="1.5" stroke-linecap="round" stroke-linejoin="round"/>
</svg>
