<svg width="24" height="24" viewBox="0 0 24 24" fill="none" xmlns="http://www.w3.org/2000/svg">
<path d="M11.9985 1.4528C14.3199 1.4401 16.5814 2.1894 18.4359 3.58573C20.2905 4.98207 21.6357 6.94831 22.2651 9.18279C22.8946 11.4173 22.7735 13.7966 21.9205 15.9556C21.0675 18.1147 19.5297 19.9342 17.543 21.1351C15.5564 22.336 13.2305 22.8519 10.9224 22.6037C8.61425 22.3555 6.45131 21.3568 4.76541 19.7609C3.07951 18.165 1.96379 16.0601 1.5894 13.769C1.21502 11.4779 1.60267 9.12733 2.69287 7.0778M4.76195 3.18551L5.75663 2.19175M6.75078 5.17486L7.74453 4.18018M7.7134 11.1428L5.99911 12.8571V16.2856H17.9991V12.8571L16.2848 11.1428M7.7134 11.1428H16.2848M7.7134 11.1428L9.07054 7.71422H14.9277L16.2848 11.1428M7.7134 16.2856V17.9999M16.2848 16.2856V17.9999M15.4277 13.7142H14.5705M8.57054 13.7142H9.42768M5.75631 7.16323C5.56044 7.35911 5.3279 7.51448 5.07198 7.62049C4.81605 7.7265 4.54176 7.78106 4.26475 7.78106C3.7053 7.78106 3.16877 7.55882 2.77319 7.16323C2.3776 6.76765 2.15536 6.23112 2.15536 5.67167C2.15536 5.11223 2.3776 4.5757 2.77319 4.18011L4.26475 2.68855L7.24787 5.67167L5.75631 7.16323Z" stroke="black" stroke-width="1.5" stroke-linecap="round" stroke-linejoin="round"/>
</svg>
