<svg width="24" height="24" viewBox="0 0 24 24" fill="none" xmlns="http://www.w3.org/2000/svg">
<path d="M12.0003 22.547V21.1407M9.89094 21.1407H14.1097M11.6817 14.1093C11.2685 12.6042 11.2079 11.0656 11.4004 9.52494M19.7348 9.18771C19.7347 6.28168 18.0517 3.55523 15.4509 2.25882C14.1629 1.6168 12.7213 1.34688 11.2882 1.4794C9.85522 1.61192 8.48759 2.14164 7.33917 3.00896C5.0202 4.76035 3.86307 7.7497 4.39851 10.606C4.93394 13.4622 7.09522 15.8295 9.89109 16.6221V17.6252C9.89594 17.9967 10.2228 18.3235 10.5942 18.3283H13.4067C13.7782 18.3235 14.105 17.9967 14.1098 17.6252V16.6221C17.3988 15.693 19.735 12.6054 19.7348 9.18771ZM11.6632 11.7564C11.6632 11.7564 13.6038 12.1407 14.3819 10.8939C15.9663 8.38136 12.7132 6.15948 12.2632 4.5001C11.3501 4.95024 10.5559 5.60924 9.94512 6.42366C9.33431 7.23808 8.92403 8.18499 8.74757 9.1876C8.50382 10.9032 9.60069 11.8782 11.6632 11.7564Z" stroke="black" stroke-width="1.5" stroke-linecap="round" stroke-linejoin="round"/>
</svg>
