<svg width="24" height="24" viewBox="0 0 24 24" fill="none" xmlns="http://www.w3.org/2000/svg">
<path d="M6.60223 12C5.45845 14.6381 5.89675 17.6555 7.75257 19.9903C9.68977 22.4275 14.2647 22.4275 16.7019 19.9903C19.1773 17.5149 18.5554 13.7809 18.5554 10.5938M16.4456 4.96875V2.15625M20.6643 4.96875V2.15625M10.2303 16.2817C13.5575 13.0192 9.41748 8.43668 9.3556 5.6748C6.21059 6.38586 3.5354 8.60958 2.26154 11.5717C0.704511 15.5529 7.52291 18.9319 10.2303 16.2817ZM20.9083 9.69099C20.1763 10.3505 19.1688 10.6784 18.1888 10.5759C15.5743 10.2131 15.036 7.86681 15.036 5.67188C15.036 5.29891 15.3662 4.96875 15.7391 4.96875H21.3641C21.7371 4.96875 22.0663 5.29892 22.0672 5.67188C22.0712 7.15046 22.1136 8.60508 20.9083 9.69099Z" stroke="black" stroke-width="1.5" stroke-linecap="round" stroke-linejoin="round"/>
</svg>
