<svg width="24" height="24" viewBox="0 0 24 24" fill="none" xmlns="http://www.w3.org/2000/svg">
<path d="M9.89124 4.26562C9.89124 5.01155 9.59492 5.72692 9.06747 6.25436C8.54003 6.78181 7.82466 7.07812 7.07874 7.07812H4.96936V1.45312H7.07874C7.82466 1.45313 8.54003 1.74944 9.06747 2.27689C9.59492 2.80433 9.89124 3.5197 9.89124 4.26562ZM9.89124 4.26562H17.6256C18.7445 4.26562 19.8175 4.7101 20.6087 5.50127C21.3999 6.29244 21.8444 7.36549 21.8444 8.48438C21.8444 9.60326 21.3999 10.6763 20.6087 11.4675C19.8175 12.2587 18.7445 12.7031 17.6256 12.7031H7.07874C6.14633 12.7031 5.25212 13.0735 4.59281 13.7328C3.93351 14.3921 3.56311 15.2863 3.56311 16.2188C3.56311 17.1512 3.93351 18.0454 4.59281 18.7047C5.25212 19.364 6.14633 19.7344 7.07874 19.7344H16.9225M4.96936 2.85938H2.15686M4.96936 5.67188H2.15686M14.1199 16.9217C15.9702 16.9625 15.3735 16.9218 16.4843 16.9217C17.5951 16.9217 18.6811 17.2505 19.6052 17.8667C20.5294 18.483 21.1196 18.8762 21.529 19.1492C21.9384 19.4222 21.9384 20.0462 21.529 20.3192C21.1196 20.5922 20.5294 20.9855 19.6052 21.6017C18.6811 22.218 17.5951 22.5468 16.4843 22.5467C15.3735 22.5467 15.2211 22.5463 13.969 22.5467C12.7169 22.5471 11.5843 21.6785 11.2554 20.4768C10.7657 18.688 12.2697 16.8809 14.1199 16.9217Z" stroke="black" stroke-width="1.5" stroke-linecap="round" stroke-linejoin="round"/>
</svg>
