<svg width="24" height="24" viewBox="0 0 24 24" fill="none" xmlns="http://www.w3.org/2000/svg">
<path d="M13.5 5.25H10.5M13.5 5.25V3.75C13.5 3.35218 13.342 2.97064 13.0607 2.68934C12.7794 2.40804 12.3978 2.25 12 2.25M13.5 5.25C15.118 11.683 17.9043 17.764 21.72 23.19L21.75 23.25H17.25C17.25 20.765 14.899 18.75 12 18.75C9.101 18.75 6.75 20.765 6.75 23.25H2.25L2.28 23.19C6.09573 17.764 8.88199 11.683 10.5 5.25M10.5 5.25V3.75C10.5 3.35218 10.658 2.97064 10.9393 2.68934C11.2206 2.40804 11.6022 2.25 12 2.25M12 2.25V0.75M19.5 15.75H4.5M7.5 9.75H16.5" stroke="black" stroke-width="1.5" stroke-linecap="round" stroke-linejoin="round"/>
</svg>
