<svg width="24" height="24" viewBox="0 0 24 24" fill="none" xmlns="http://www.w3.org/2000/svg">
<path d="M11.9997 18.8572C15.7868 18.8572 18.8569 15.7872 18.8569 12.0001C18.8569 8.21297 15.7868 5.14293 11.9997 5.14293M11.9997 18.8572C8.21262 18.8572 5.14258 15.7872 5.14258 12.0001C5.14258 8.21297 8.21262 5.14293 11.9997 5.14293M11.9997 18.8572V16.2858M11.9997 5.14293V7.71436M9.85686 12.0001C9.85686 12.2368 9.66498 12.4286 9.42829 12.4286C9.1916 12.4286 8.99972 12.2368 8.99972 12.0001M9.85686 12.0001C9.85686 11.7634 9.66498 11.5715 9.42829 11.5715C9.1916 11.5715 8.99972 11.7634 8.99972 12.0001M9.85686 12.0001H8.99972M14.9997 12.0001C14.9997 12.2368 14.8078 12.4286 14.5711 12.4286C14.3345 12.4286 14.1426 12.2368 14.1426 12.0001M14.9997 12.0001C14.9997 11.7634 14.8078 11.5715 14.5711 11.5715C14.3345 11.5715 14.1426 11.7634 14.1426 12.0001M14.9997 12.0001H14.1426M3.42829 22.2858H20.5711C21.5179 22.2858 22.2854 21.5183 22.2854 20.5715V3.42864C22.2854 2.48187 21.5179 1.71436 20.5711 1.71436H3.42829C2.48152 1.71436 1.714 2.48187 1.714 3.42864V20.5715C1.714 21.5183 2.48152 22.2858 3.42829 22.2858Z" stroke="black" stroke-width="1.5" stroke-linecap="round" stroke-linejoin="round"/>
</svg>
