<svg width="24" height="24" viewBox="0 0 24 24" fill="none" xmlns="http://www.w3.org/2000/svg">
<path d="M9.42857 10.2858V13.7144M14.5714 10.2858V13.7144M4.65307 22.2858H19.3469C20.97 22.2858 22.2857 20.97 22.2857 19.347V4.65313C22.2857 3.03009 20.97 1.71436 19.3469 1.71436H4.65306C3.03002 1.71436 1.71429 3.03009 1.71429 4.65313V19.347C1.71429 20.97 3.03002 22.2858 4.65307 22.2858ZM18.8571 12.0001C18.8571 15.7872 15.7871 18.8572 12 18.8572C8.21291 18.8572 5.14286 15.7872 5.14286 12.0001C5.14286 8.21297 8.21291 5.14293 12 5.14293C15.7871 5.14293 18.8571 8.21297 18.8571 12.0001Z" stroke="black" stroke-width="1.5" stroke-linecap="round" stroke-linejoin="round"/>
</svg>
