<svg width="24" height="24" viewBox="0 0 24 24" fill="none" xmlns="http://www.w3.org/2000/svg">
<path d="M12.8563 14.5715C12.8563 15.0449 12.4726 15.4286 11.9992 15.4286C11.5258 15.4286 11.142 15.0449 11.142 14.5715M12.8563 14.5715C12.8563 14.0981 12.4726 13.7143 11.9992 13.7143C11.5258 13.7143 11.142 14.0981 11.142 14.5715M12.8563 14.5715H11.142M17.9992 12C17.9992 12.4734 17.6154 12.8572 17.142 12.8572C16.6686 12.8572 16.2849 12.4734 16.2849 12M17.9992 12C17.9992 11.5266 17.6154 11.1429 17.142 11.1429C16.6686 11.1429 16.2849 11.5266 16.2849 12M17.9992 12H16.2849M7.71345 12C7.71345 12.4734 7.3297 12.8572 6.85631 12.8572C6.38292 12.8572 5.99917 12.4734 5.99917 12M7.71345 12C7.71345 11.5266 7.3297 11.1429 6.85631 11.1429C6.38292 11.1429 5.99917 11.5266 5.99917 12M7.71345 12H5.99917M3.15399 7.43627L1.7805 10.1642C1.19914 11.3188 1.19914 12.6806 1.78051 13.8353L3.15399 16.5632C3.8474 17.9403 5.2577 18.8092 6.7996 18.8092H17.1987C18.7406 18.8092 20.1509 17.9403 20.8443 16.5632L22.2178 13.8353C22.7992 12.6806 22.7992 11.3188 22.2178 10.1642L20.8443 7.43626C20.1509 6.05908 18.7406 5.19019 17.1987 5.19019H6.7996C5.2577 5.19019 3.8474 6.05908 3.15399 7.43627Z" stroke="black" stroke-width="1.5" stroke-linecap="round" stroke-linejoin="round"/>
</svg>
