<svg width="24" height="24" viewBox="0 0 24 24" fill="none" xmlns="http://www.w3.org/2000/svg">
<path d="M11.9992 18.2678C16.807 18.2678 20.7045 14.3704 20.7045 9.56253C20.7045 4.75469 16.807 0.857178 11.9992 0.857178C7.19132 0.857178 3.29381 4.75469 3.29381 9.56253C3.29381 14.3704 7.19132 18.2678 11.9992 18.2678ZM11.9992 18.2678L11.9992 23.143M7.71345 23.1429H16.2849M11.228 10.9277L9.63569 13.796C8.54715 15.7569 5.75225 15.826 4.56801 13.9214C3.38376 12.0168 4.75863 9.42861 7.06498 9.42861H10.3459M10.3459 9.42861C10.3459 8.48184 11.1143 7.71432 12.0611 7.71432C13.0079 7.71432 13.7754 8.48184 13.7754 9.42861C13.7754 10.3754 13.0079 11.1429 12.0611 11.1429C11.1143 11.1429 10.3459 10.3754 10.3459 9.42861ZM11.1773 7.9584L9.56259 5.26714C8.39811 3.32633 9.79613 0.857178 12.0595 0.857178C14.3228 0.857178 15.7208 3.32633 14.5564 5.26714L12.9416 7.9584M12.8931 10.9278L14.4164 13.6717C15.515 15.6506 18.3525 15.6745 19.4841 13.7144C20.6157 11.7542 19.1764 9.30896 16.9133 9.34701L13.775 9.39981" stroke="black" stroke-width="1.5" stroke-linecap="round" stroke-linejoin="round"/>
</svg>
