<svg width="24" height="24" viewBox="0 0 24 24" fill="none" xmlns="http://www.w3.org/2000/svg">
<path d="M0.856583 6.85725C1.80336 6.85725 2.57087 7.62476 2.57087 8.57153V13.7144C2.57087 15.6079 4.10589 17.143 5.99944 17.143M12.8566 8.57153C12.8566 9.51831 12.0891 10.2858 11.1423 10.2858C10.1955 10.2858 9.42801 9.51831 9.42801 8.57153C9.42801 7.62476 10.1955 6.85725 11.1423 6.85725C12.0891 6.85725 12.8566 7.62476 12.8566 8.57153ZM19.7137 8.57153C19.7137 9.51831 18.9462 10.2858 17.9994 10.2858C17.0527 10.2858 16.2852 9.51831 16.2852 8.57153C16.2852 7.62476 17.0527 6.85725 17.9994 6.85725C18.9462 6.85725 19.7137 7.62476 19.7137 8.57153ZM19.7137 15.4287C19.7137 16.3755 18.9462 17.143 17.9994 17.143C17.0527 17.143 16.2852 16.3755 16.2852 15.4287C16.2852 14.4819 17.0527 13.7144 17.9994 13.7144C18.9462 13.7144 19.7137 14.4819 19.7137 15.4287ZM12.8566 15.4287C12.8566 16.3755 12.0891 17.143 11.1423 17.143C10.1955 17.143 9.42801 16.3755 9.42801 15.4287C9.42801 14.4819 10.1955 13.7144 11.1423 13.7144C12.0891 13.7144 12.8566 14.4819 12.8566 15.4287ZM9.42801 2.57153H19.7137C21.6073 2.57153 23.1423 4.10656 23.1423 6.0001V18.0001C23.1423 19.8937 21.6073 21.4287 19.7137 21.4287H9.42801C7.53446 21.4287 5.99944 19.8937 5.99944 18.0001V6.0001C5.99944 4.10656 7.53446 2.57153 9.42801 2.57153Z" stroke="black" stroke-width="1.5" stroke-linecap="round" stroke-linejoin="round"/>
</svg>
