<svg width="24" height="24" viewBox="0 0 24 24" fill="none" xmlns="http://www.w3.org/2000/svg">
<path d="M20.2495 12.75L22.0605 14.561C22.3415 14.8422 22.4994 15.2235 22.4995 15.621V18.75C22.4995 19.1478 22.3414 19.5294 22.0601 19.8107C21.7788 20.092 21.3973 20.25 20.9995 20.25M20.2495 12.75H3.74945M20.2495 12.75L19.0914 7.776C18.992 7.47727 18.801 7.21743 18.5456 7.03328C18.2902 6.84914 17.9833 6.75003 17.6685 6.75M3.74945 12.75L1.93845 14.561C1.65743 14.8422 1.49954 15.2235 1.49945 15.621V18.75C1.49945 19.1478 1.65749 19.5294 1.93879 19.8107C2.2201 20.092 2.60163 20.25 2.99945 20.25M3.74945 12.75L4.90745 7.776C5.00695 7.47727 5.19792 7.21743 5.45332 7.03328C5.70872 6.84914 6.01559 6.75003 6.33045 6.75M2.99945 20.25H20.9995M2.99945 20.25L2.99945 21.75C2.99945 22.1478 3.15749 22.5294 3.43879 22.8107C3.7201 23.092 4.10163 23.25 4.49945 23.25C4.89728 23.25 5.27881 23.092 5.56011 22.8107C5.84142 22.5294 5.99945 22.1478 5.99945 21.75V20.25H2.99945ZM20.9995 20.25H17.9995V21.75C17.9995 22.1478 18.1575 22.5294 18.4388 22.8107C18.7201 23.092 19.1016 23.25 19.4995 23.25C19.8973 23.25 20.2788 23.092 20.5601 22.8107C20.8414 22.5294 20.9995 22.1478 20.9995 21.75V20.25ZM4.49945 15.75H5.99945M17.9995 15.75H19.4995M11.9995 6.75C12.7951 6.75 13.5582 6.43393 14.1208 5.87132C14.6834 5.30871 14.9995 4.54565 14.9995 3.75H8.99945C8.99945 4.54565 9.31552 5.30871 9.87813 5.87132C10.4407 6.43393 11.2038 6.75 11.9995 6.75ZM11.9995 6.75V9.75M10.4995 3.75V0.75M13.4995 3.75V0.75" stroke="black" stroke-width="1.5" stroke-linecap="round" stroke-linejoin="round"/>
</svg>
