<svg width="24" height="24" viewBox="0 0 24 24" fill="none" xmlns="http://www.w3.org/2000/svg">
<path d="M5.14369 22.2858V13.2246C5.14369 11.6015 6.45942 10.2858 8.08247 10.2858H15.9192C17.5422 10.2858 18.858 11.6015 18.858 13.2246V22.2858M12.0008 10.2858V22.2858M6.85798 6.85721L8.57226 5.14293L10.2865 6.85721M13.7151 5.14293L15.4294 6.85721L17.1437 5.14293M1.71512 4.65313V19.347C1.71512 20.97 3.03085 22.2858 4.65389 22.2858H19.3478C20.9708 22.2858 22.2865 20.97 22.2865 19.347V4.65313C22.2865 3.03009 20.9708 1.71436 19.3478 1.71436H4.6539C3.03086 1.71436 1.71512 3.03009 1.71512 4.65313Z" stroke="black" stroke-width="1.5" stroke-linecap="round" stroke-linejoin="round"/>
</svg>
