<svg width="24" height="24" viewBox="0 0 24 24" fill="none" xmlns="http://www.w3.org/2000/svg">
<path d="M6.22835 8.81268C5.91416 7.92375 4.93615 7.28687 3.93965 7.28687C2.7233 7.28687 1.65094 8.27293 1.65094 9.48928C1.65094 10.4367 2.29576 11.2626 3.21492 11.4924C4.13408 11.7221 3.4969 11.5629 4.50798 11.8156C5.51905 12.0684 6.22835 12.9768 6.22835 14.0191V14.153C6.22835 15.417 5.20366 16.4417 3.93965 16.4417C2.94312 16.4417 1.96513 15.8048 1.65094 14.9159M22.35 8.81268C22.0359 7.92375 21.0578 7.28687 20.0613 7.28687C18.8451 7.28687 17.7726 8.27293 17.7726 9.48928C17.7726 10.4367 18.4174 11.2626 19.3367 11.4924C20.256 11.7221 19.6187 11.5629 20.6297 11.8156C21.6407 12.0684 22.35 12.9768 22.35 14.0191V14.153C22.35 15.417 21.3255 16.4417 20.0613 16.4417C19.0648 16.4417 18.0869 15.8048 17.7726 14.9159M9.71177 9.71117V14.2886C9.71177 15.5526 10.7365 16.5773 12.0005 16.5773C13.2645 16.5773 14.2892 15.5526 14.2892 14.2886V9.71117C14.2892 8.44716 13.2645 7.42247 12.0005 7.42247C10.7365 7.42247 9.71177 8.44716 9.71177 9.71117Z" stroke="black" stroke-width="1.5" stroke-linecap="round" stroke-linejoin="round"/>
</svg>
