<svg width="24" height="24" viewBox="0 0 24 24" fill="none" xmlns="http://www.w3.org/2000/svg">
<path d="M18 8.5715V18.8573M18 8.5715H5.99998C4.10644 8.5715 2.57141 7.03647 2.57141 5.14293C2.57141 3.24938 4.10644 1.71436 5.99999 1.71436H18C19.8935 1.71436 21.4286 3.24938 21.4286 5.14293C21.4286 7.03647 19.8935 8.5715 18 8.5715ZM5.99998 18.8573V8.56606M12 12.0001V13.7144M12 12.0001C13.4201 12.0001 14.5714 10.8488 14.5714 9.42864V8.5715M12 12.0001C10.5798 12.0001 9.42855 10.8488 9.42855 9.42864V8.5715M17.9397 5.12284H16.0647M4.2857 22.2858H19.7143C20.661 22.2858 21.4286 21.5183 21.4286 20.5715C21.4286 19.6247 20.661 18.8572 19.7143 18.8572H4.2857C3.33893 18.8572 2.57141 19.6247 2.57141 20.5715C2.57141 21.5183 3.33892 22.2858 4.2857 22.2858Z" stroke="black" stroke-width="1.5" stroke-linecap="round" stroke-linejoin="round"/>
</svg>
