<svg width="24" height="24" viewBox="0 0 24 24" fill="none" xmlns="http://www.w3.org/2000/svg">
<path d="M9.7459 10.7605C9.5433 11.1281 9.42802 11.5506 9.42802 12C9.42802 12.4494 9.54334 12.872 9.74599 13.2396M9.7459 10.7605C9.98092 10.3341 10.3334 9.98157 10.7598 9.74652M9.7459 10.7605L3.61452 7.38825C2.8663 6.97673 1.91032 7.17602 1.57624 7.96188C0.968799 9.39078 0.800557 11.0736 0.869314 12.5533C1.0069 15.4456 4.19667 16.2925 6.73336 14.8972L9.74599 13.2396M9.74599 13.2396C9.98116 13.6662 10.334 14.0188 10.7606 14.2539M10.7606 14.2539C11.1281 14.4562 11.5503 14.5714 11.9995 14.5714C12.4489 14.5714 12.8714 14.4561 13.2391 14.2534M10.7606 14.2539L7.38857 20.3849C6.97706 21.1331 7.17631 22.0892 7.96234 22.4229C9.39106 23.0294 11.0715 23.1942 12.5527 23.1301C15.445 22.9925 16.2918 19.8028 14.8965 17.2661L13.2391 14.2534M13.2391 14.2534C13.6654 14.0184 14.018 13.6658 14.253 13.2394M14.2529 10.7603C14.4556 11.128 14.5709 11.5505 14.5709 12C14.5709 12.4494 14.4556 12.8718 14.253 13.2394M14.2529 10.7603C14.0179 10.334 13.6653 9.98148 13.239 9.74646M14.2529 10.7603L17.2655 9.10268C19.8021 7.7074 22.9918 8.55426 23.1294 11.4466C23.1931 12.9282 23.0287 14.6088 22.4222 16.0378C22.0886 16.8239 21.1324 17.0231 20.3842 16.6116L14.253 13.2394M13.239 9.74646C12.8714 9.54383 12.4489 9.42854 11.9995 9.42854C11.55 9.42854 11.1275 9.54385 10.7598 9.74652M13.239 9.74646L16.6113 3.6148C17.0228 2.86658 16.8236 1.91047 16.0375 1.57682C14.6088 0.97035 12.9284 0.805551 11.4472 0.869602C8.5549 1.00719 7.70707 4.19695 9.10235 6.73365L10.7598 9.74652" stroke="black" stroke-width="1.5" stroke-linecap="round" stroke-linejoin="round"/>
</svg>
