<svg width="24" height="24" viewBox="0 0 24 24" fill="none" xmlns="http://www.w3.org/2000/svg">
<path d="M0.856323 12C0.856323 14.9553 2.0303 17.7895 4.11999 19.8792C6.20968 21.9689 9.04391 23.1429 11.9992 23.1429C14.9545 23.1429 17.7887 21.9689 19.8784 19.8792C21.9681 17.7895 23.142 14.9553 23.142 12C23.142 9.04477 21.9681 6.21054 19.8784 4.12084C17.7887 2.03115 14.9545 0.857178 11.9992 0.857178C9.04391 0.857178 6.20968 2.03115 4.11999 4.12084C2.0303 6.21054 0.856323 9.04477 0.856323 12Z" stroke="black" stroke-width="1.5" stroke-linecap="round" stroke-linejoin="round"/>
<path d="M6.85633 15.3527C6.85447 15.8753 7.43899 16.2869 7.90772 15.9865C8.37645 15.6861 12.3564 12.891 12.7632 12.6133C13.1699 12.3356 13.1699 11.6848 12.7632 11.4071C12.3564 11.1294 8.37645 8.31392 7.90772 8.0135C7.43898 7.71308 6.85447 8.1247 6.85633 8.64725C6.85819 9.1698 6.85819 14.8302 6.85633 15.3527Z" stroke="black" stroke-width="1.5" stroke-linecap="round" stroke-linejoin="round"/>
<path d="M13.0688 15.3525C13.0669 15.8804 13.6617 16.2801 14.1202 15.9863C14.5787 15.6924 18.5683 12.8916 18.9757 12.6131C19.3832 12.3346 19.3783 11.6821 18.9757 11.4069C18.5731 11.1317 14.583 8.30992 14.1202 8.01329C13.6574 7.71667 13.0807 8.11915 13.0688 8.62661C13.0569 9.13407 13.0707 14.8246 13.0688 15.3525Z" stroke="black" stroke-width="1.5" stroke-linecap="round" stroke-linejoin="round"/>
</svg>
