<svg width="24" height="24" viewBox="0 0 24 24" fill="none" xmlns="http://www.w3.org/2000/svg">
<path d="M6.42947 23.1429L3.11313 18.5001C2.55375 17.7168 2.64255 16.6441 3.32307 15.9636C4.09191 15.1947 5.33847 15.1947 6.10731 15.9636L8.14376 18V7.28575C8.14376 6.10227 9.10314 5.14289 10.2866 5.14289C11.4701 5.14289 12.4295 6.10227 12.4295 7.28575V13.8806L16.5097 13.8052C19.1356 13.7567 21.2217 15.9992 20.9839 18.6148L20.5723 23.1429M4.53505 8.57146C4.37339 8.02829 4.28658 7.45287 4.28658 6.85718C4.28658 3.54346 6.97286 0.857178 10.2866 0.857178C13.6003 0.857178 16.2866 3.54346 16.2866 6.85718C16.2866 7.45287 16.1998 8.02829 16.0381 8.57146" stroke="black" stroke-width="1.5" stroke-linecap="round" stroke-linejoin="round"/>
</svg>
