<svg width="24" height="24" viewBox="0 0 24 24" fill="none" xmlns="http://www.w3.org/2000/svg">
<path d="M1.74969 22.2546H22.2497M3.11744 7.31909V22.2547M20.8831 7.31909V22.2547M12.0007 22.2545C9.609 22.2545 7.21733 20.4195 7.21733 18.1545C7.21733 15.6945 8.29335 14.0545 10.0873 14.0545C9.84771 15.4212 9.72835 16.5145 11.1634 16.5145C13.3163 16.5145 12.7323 12.9393 10.4463 9.95455C13.4183 9.95455 16.784 13.3712 16.784 16.7878C16.784 19.5211 15.4684 22.2545 12.0007 22.2545ZM3.41037 1.85229H20.5913C21.4539 1.85229 22.1532 2.55158 22.1532 3.41419V5.75702C22.1532 6.61963 21.4539 7.31892 20.5913 7.31892H3.41037C2.54775 7.31892 1.84847 6.61963 1.84847 5.75702V3.41419C1.84847 2.55158 2.54775 1.85229 3.41037 1.85229Z" stroke="black" stroke-width="1.5" stroke-linecap="round" stroke-linejoin="round"/>
</svg>
