<svg width="24" height="24" viewBox="0 0 24 24" fill="none" xmlns="http://www.w3.org/2000/svg">
<path d="M9.42916 7.71432C6.58884 7.71432 4.2863 10.0169 4.2863 12.8572V21.4286C4.2863 22.3754 5.05382 23.1429 6.00058 23.1429H12.8577C13.8045 23.1429 14.572 22.3754 14.572 21.4286V12.8572C14.572 10.0169 12.2695 7.71432 9.42916 7.71432ZM9.42916 7.71432L9.42916 4.28575M0.857727 11.1429V7.71432C0.857727 5.82077 2.39275 4.28575 4.2863 4.28575H16.2863M14.572 13.7143H11.1434C10.1967 13.7143 9.42916 14.4818 9.42916 15.4286V17.1429C9.42916 18.0897 10.1967 18.8572 11.1434 18.8572H14.572M16.2863 5.33079V3.24069C16.2863 2.84737 16.554 2.50453 16.9355 2.40915L22.0784 1.12343C22.6194 0.988181 23.1434 1.39735 23.1434 1.95498V6.6165C23.1434 7.17414 22.6194 7.58331 22.0784 7.44805L16.9355 6.16233C16.554 6.06695 16.2863 5.72411 16.2863 5.33079Z" stroke="black" stroke-width="1.5" stroke-linecap="round" stroke-linejoin="round"/>
</svg>
