<svg width="24" height="24" viewBox="0 0 24 24" fill="none" xmlns="http://www.w3.org/2000/svg">
<path d="M7.49998 17.4998C7.98493 17.5646 16.076 18.6433 16.561 18.7078C17.046 18.7722 17.5511 18.5851 17.8771 18.2203C18.2031 17.8554 18.3324 17.3325 18.214 16.8578C18.0956 16.383 14.3689 1.47436 14.25 0.999756M12.8806 13.5798L20.2506 1.74976M6.74998 19.7498C6.15325 19.7498 5.58095 19.5127 5.15899 19.0907C4.73704 18.6688 4.49998 18.0965 4.49998 17.4998C4.49998 16.903 4.73704 16.3307 5.15899 15.9088C5.58095 15.4868 6.15325 15.2498 6.74998 15.2498M23.2495 18.9869C23.2498 17.2585 22.0246 15.714 20.3415 15.3209C18.6584 14.9279 8.72278 12.6088 7.26552 12.2699C5.80826 11.931 4.22804 12.2393 3.005 13.101C1.78196 13.9628 0.959976 15.3472 0.788793 16.8335C0.61761 18.3198 1.10337 19.8548 2.09849 20.972C3.0936 22.0893 4.56237 22.7487 6.05852 22.7499C7.55467 22.7512 17.4369 22.7499 19.4865 22.7499C21.5361 22.7499 23.2492 21.0365 23.2495 18.9869Z" stroke="black" stroke-width="1.5" stroke-linecap="round" stroke-linejoin="round"/>
</svg>
