<svg width="24" height="24" viewBox="0 0 24 24" fill="none" xmlns="http://www.w3.org/2000/svg">
<path d="M3.10211 14.1402C3.10211 16.5014 4.04008 18.7658 5.70969 20.4355C7.3793 22.1051 9.64378 23.043 12.005 23.043C14.3661 23.043 16.6306 22.1051 18.3002 20.4355C19.9698 18.7658 20.9078 16.5014 20.9078 14.1402C20.9078 7.58018 12.9996 4.00013 11.9421 1.95732C10.8846 -0.085492 8.72496 3.36303 9.66211 6.17446C10.7901 9.5583 10.4996 12.2659 8.72496 12.2659C6.75729 12.2659 7.40938 7.99198 6.3821 8.51732C5.35483 9.04265 4.49979 9.85162 3.91841 10.8483C3.33704 11.8449 3.05374 12.9874 3.10211 14.1402Z" stroke="black" stroke-width="1.5" stroke-linecap="round" stroke-linejoin="round"/>
<path d="M15.7485 19.2942C15.7485 20.2884 15.3536 21.2419 14.6506 21.9449C13.9476 22.6479 12.9941 23.0428 11.9999 23.0428C11.0058 23.0428 10.0523 22.6479 9.34931 21.9449C8.64632 21.2419 8.25138 20.2884 8.25138 19.2942C8.25138 16.9514 13.4057 17.42 13.4057 13.2028C14.7934 14.9446 15.6114 17.0714 15.7485 19.2942Z" stroke="black" stroke-width="1.5" stroke-linecap="round" stroke-linejoin="round"/>
</svg>
