<svg width="24" height="24" viewBox="0 0 24 24" fill="none" xmlns="http://www.w3.org/2000/svg">
<path d="M22.2887 18.9264C20.0476 19.3949 20.2337 17.0663 18.6569 17.1495C17.2026 17.2262 16.8717 19.052 15.4165 18.995C14.054 18.9415 13.8124 17.249 12.4525 17.1495C10.9075 17.0365 10.4892 19.0487 8.94096 18.995C7.48768 18.9446 7.15552 17.2759 5.70689 17.1495C4.00338 17.0008 3.91311 19.4318 1.72154 18.9633M22.2879 13.7805C20.0468 14.249 20.2327 11.9211 18.6561 12.0044C17.2018 12.0813 16.8709 13.9063 15.4157 13.8501C14.0525 13.7976 13.8092 12.1049 12.4486 12.0065C10.9048 11.895 10.487 13.9023 8.94015 13.8501C7.48577 13.8011 7.15165 12.1321 5.70186 12.0065C3.99839 11.859 3.90809 14.2881 1.71652 13.8195M1.71484 11.897C1.71484 12.3776 1.71484 19.6247 1.71484 20.5715C1.71484 21.5183 2.48236 22.2858 3.42913 22.2858C4.3759 22.2858 19.6252 22.2858 20.572 22.2858C21.5188 22.2858 22.2863 21.5183 22.2863 20.5715C22.2863 19.6247 22.2863 12.3776 22.2863 11.897C22.2863 11.4165 22.0847 10.9581 21.7303 10.6334C21.376 10.3087 12.8577 2.5715 12.0006 1.71436C11.1434 2.5715 2.62498 10.3087 2.27075 10.6334C1.91653 10.9581 1.71484 11.4165 1.71484 11.897Z" stroke="black" stroke-width="1.5" stroke-linecap="round" stroke-linejoin="round"/>
</svg>
