<svg width="24" height="24" viewBox="0 0 24 24" fill="none" xmlns="http://www.w3.org/2000/svg">
<path d="M13.6833 15.6023C12.7512 17.0795 12.0006 19.2824 12.0006 22.2858C12.0006 20.8991 11.2171 19.169 9.83901 17.8038M1.71457 11.897C1.71457 12.3776 1.71457 19.6247 1.71457 20.5715C1.71457 21.5183 2.48209 22.2858 3.42885 22.2858C4.37562 22.2858 19.6249 22.2858 20.5717 22.2858C21.5185 22.2858 22.286 21.5183 22.286 20.5715C22.286 19.6247 22.286 12.3776 22.286 11.897C22.286 11.4165 22.0844 10.9581 21.7301 10.6334C21.3757 10.3087 12.8574 2.5715 12.0003 1.71436C11.1431 2.5715 2.6247 10.3087 2.27048 10.6334C1.91625 10.9581 1.71457 11.4165 1.71457 11.897ZM17.2472 15.5329C16.243 16.5372 14.6148 16.5371 13.6106 15.5329C12.6064 14.5287 12.6064 12.9005 13.6106 11.8963C14.6148 10.8921 17.812 10.9549 18.0003 11.1432C18.1886 11.3315 18.2513 14.5287 17.2472 15.5329ZM5.92427 18.132C6.9285 19.1362 8.55659 19.1362 9.56082 18.132C10.565 17.1278 10.565 15.4997 9.56082 14.4955C8.55662 13.4913 5.37094 13.5425 5.17112 13.7423C4.97129 13.9422 4.92008 17.1278 5.92427 18.132Z" stroke="black" stroke-width="1.5" stroke-linecap="round" stroke-linejoin="round"/>
</svg>
