<svg width="24" height="24" viewBox="0 0 24 24" fill="none" xmlns="http://www.w3.org/2000/svg">
<path d="M12 12.8572C15.3137 12.8572 18 10.1709 18 6.85718V0.857178L12 4.28575L6.00001 0.857178V6.85718C6.00001 10.1709 8.6863 12.8572 12 12.8572ZM12 12.8572V23.1429M12 23.1429V21.4286M12 23.1429L16.2857 23.1429C19.1261 23.1429 21.4286 20.8404 21.4286 18V17.1429C21.4286 16.6695 21.0448 16.2858 20.5714 16.2858H17.1429C14.3026 16.2858 12 18.5882 12 21.4286M12 23.1429L7.7143 23.1429C4.87398 23.1429 2.57144 20.8404 2.57144 18V17.1429C2.57144 16.6695 2.9552 16.2858 3.42858 16.2858H6.85716C9.69747 16.2858 12 18.5882 12 21.4286" stroke="black" stroke-width="1.5" stroke-linecap="round" stroke-linejoin="round"/>
</svg>
