<svg width="24" height="24" viewBox="0 0 24 24" fill="none" xmlns="http://www.w3.org/2000/svg">
<path d="M12.0014 10.5302V15.4285M17.6597 5.01012C18.1083 6.41232 17.0076 7.97116 15.5062 7.96673C16.687 8.86831 16.6686 10.7194 15.5062 11.607C14.3209 12.4635 12.4778 11.9585 12.0027 10.5303C11.6875 12.03 9.70803 12.4187 8.58468 11.607C7.34536 10.7671 7.25432 8.86029 8.44797 7.91546C6.95381 7.91987 5.89443 6.33787 6.34586 4.95885C6.78062 3.63073 8.56471 2.86885 9.71265 3.77961C9.53529 2.35239 10.4385 0.857178 12.0027 0.857178C13.5153 0.857178 14.5835 2.36059 14.2074 3.77961C15.4393 2.89513 17.2342 3.60949 17.6597 5.01012ZM17.3143 21.6172C17.361 21.196 17.8384 16.8878 17.8946 16.3801C17.9508 15.8725 17.5535 15.4286 17.0427 15.4286C16.5319 15.4286 7.46816 15.4286 6.9574 15.4286C6.44665 15.4286 6.04923 15.8725 6.10547 16.3801C6.16172 16.8878 6.63915 21.196 6.68576 21.6172C6.78106 22.4783 7.53364 23.1481 8.40004 23.1429C8.82383 23.1403 15.1763 23.1403 15.6 23.1429C16.4665 23.1482 17.219 22.4783 17.3143 21.6172Z" stroke="black" stroke-width="1.5" stroke-linecap="round" stroke-linejoin="round"/>
</svg>
