<svg width="24" height="24" viewBox="0 0 24 24" fill="none" xmlns="http://www.w3.org/2000/svg">
<path d="M1.65121 18.3683C2.22345 18.8452 4.96972 21.1337 5.54198 21.6106C6.11425 22.0874 6.8356 22.3487 7.58051 22.3487C8.32543 22.3487 17.1053 22.3487 17.8381 22.3487C18.5708 22.3487 19.1648 21.7547 19.1648 21.0218C19.1648 19.5564 17.9767 18.3683 16.5112 18.3683C15.0457 18.3683 9.37994 18.3683 9.37994 18.3683M6.42764 16.7764C7.08709 17.4359 6.96227 17.3111 7.62175 17.9706C8.28123 18.63 9.35048 18.63 10.01 17.9706C10.6694 17.3111 10.6694 16.2418 10.01 15.5823C9.35048 14.9228 8.75356 14.3259 8.15638 13.7287C7.55919 13.1316 6.74927 12.7961 5.90474 12.7961C5.0602 12.7961 2.49575 12.7961 1.65121 12.7961M8.01952 8.81588H22.3488M21.1559 7.62166V8.81577H9.21483V7.62166C9.21483 4.32422 11.8879 1.65112 15.1854 1.65112C18.4829 1.65112 21.1559 4.32422 21.1559 7.62166Z" stroke="black" stroke-width="1.5" stroke-linecap="round" stroke-linejoin="round"/>
</svg>
