<svg width="24" height="24" viewBox="0 0 24 24" fill="none" xmlns="http://www.w3.org/2000/svg">
<path d="M6.85742 7.71439H20.5717M8.57171 7.71439C8.57171 4.87407 10.8742 2.57153 13.7146 2.57153C16.5549 2.57153 18.8574 4.87407 18.8574 7.71439M6.00028 11.143H21.4288C22.3756 11.143 23.1431 11.9105 23.1431 12.8572V17.143C23.1431 18.0897 22.3756 18.8572 21.4288 18.8572M6.00028 11.143C5.0535 11.143 4.28599 11.9105 4.28599 12.8572V17.143C4.28599 18.0897 5.05351 18.8572 6.00028 18.8572M6.00028 11.143L4.28599 11.143C3.33922 11.143 2.57171 10.3754 2.57171 9.42868V8.57153C2.57171 7.62476 1.8042 6.85725 0.857422 6.85725M6.00028 18.8572H21.4288M6.00028 18.8572V19.7144C6.00028 21.1346 7.15155 22.2858 8.57171 22.2858C9.99187 22.2858 11.1431 21.1346 11.1431 19.7144V18.8572M21.4288 18.8572L21.4289 19.7144C21.4289 21.1346 20.2776 22.2858 18.8574 22.2858C17.4373 22.2858 16.286 21.1346 16.286 19.7144V18.8572M9.42885 14.5715V18.8572M18.0003 14.5715V18.8572" stroke="black" stroke-width="1.5" stroke-linecap="round" stroke-linejoin="round"/>
</svg>
