<svg width="24" height="24" viewBox="0 0 24 24" fill="none" xmlns="http://www.w3.org/2000/svg">
<path d="M7.20368 12.6857V16.8742M18.1741 10.629V14.3175M1.76953 17.4848C4.35247 16.5873 7.1602 16.5718 9.75286 17.4409C12.3455 18.3101 14.5766 20.0147 16.0967 22.2877M11.0592 17.9582C14.0536 15.1396 18.1998 13.7386 22.2856 14.1207M7.77416 2.02131C7.71155 1.92741 7.62673 1.85042 7.52722 1.79717C7.42772 1.74392 7.3166 1.71606 7.20375 1.71606C7.09089 1.71606 6.97978 1.74392 6.88027 1.79717C6.78076 1.85042 6.69594 1.92741 6.63333 2.02131C6.57072 2.11521 3.77577 6.51514 3.09016 7.88637C3.77577 7.88634 4.23284 7.88634 5.14695 7.88637C4.6899 8.80047 2.55548 11.5557 2.49597 11.6599C2.43646 11.7641 2.40533 11.8821 2.4057 12.0021C2.40606 12.122 2.43791 12.2398 2.49805 12.3436C2.5582 12.4475 2.64454 12.5337 2.74844 12.5937C2.85234 12.6537 2.97017 12.6854 3.09016 12.6856C3.21014 12.6858 11.1973 12.6856 11.3173 12.6856C11.4374 12.6855 11.5553 12.654 11.6594 12.594C11.7634 12.5341 11.8499 12.4479 11.9101 12.344C11.9704 12.2402 12.0023 12.1223 12.0027 12.0023C12.0031 11.8822 11.972 11.7642 11.9124 11.6599C11.8529 11.5557 10.1747 9.25753 9.26054 7.88637C9.71763 7.88634 10.6318 7.88634 11.3173 7.88637C10.6318 6.51514 7.83678 2.11521 7.77416 2.02131ZM18.6401 1.96548C18.5888 1.88874 18.5194 1.82584 18.438 1.78233C18.3566 1.73883 18.2657 1.71606 18.1734 1.71606C18.0811 1.71606 17.9903 1.73883 17.9089 1.78233C17.8275 1.82584 17.7581 1.88874 17.7068 1.96548C17.6555 2.04222 15.2011 5.60101 14.8072 6.51511C15.6582 6.51514 15.6582 6.51514 16.4901 6.51511C15.6582 7.42927 14.1824 9.70424 14.1334 9.78953C14.0845 9.87482 14.0589 9.95658 14.0592 10.0698C14.0595 10.1831 14.0855 10.2647 14.1349 10.3497C14.1843 10.4347 14.2422 10.4979 14.3404 10.5543C14.4386 10.6107 14.5223 10.6289 14.6207 10.6287C14.719 10.6285 21.6251 10.6285 21.7235 10.6287C21.8218 10.6289 21.9184 10.6032 22.0037 10.5543C22.089 10.5053 22.1599 10.4347 22.2092 10.3497C22.2586 10.2647 22.2847 10.1681 22.285 10.0698C22.2852 9.97149 22.2596 9.87482 22.2107 9.78953C22.1618 9.70424 20.2289 6.97221 19.8559 6.51511C20.2289 6.51514 20.6859 6.51514 21.5388 6.51511C21.143 5.60101 18.6914 2.04222 18.6401 1.96548Z" stroke="black" stroke-width="1.5" stroke-linecap="round" stroke-linejoin="round"/>
</svg>
