<svg width="24" height="24" viewBox="0 0 24 24" fill="none" xmlns="http://www.w3.org/2000/svg">
<path d="M5.67324 18.3281V22.5469M16.9232 22.5469V15.5156M16.9232 15.5156C18.4151 15.5156 19.8458 14.923 20.9007 13.8681C21.9556 12.8132 22.5482 11.3825 22.5482 9.89062C22.5482 8.39878 21.9556 6.96804 20.9007 5.91315C19.8458 4.85826 18.4151 4.26562 16.9232 4.26562C15.4314 4.26562 14.0007 4.85826 12.9458 5.91315C11.8909 6.96804 11.2982 8.39878 11.2982 9.89062C11.2982 11.3825 11.8909 12.8132 12.9458 13.8681C14.0007 14.923 15.4314 15.5156 16.9232 15.5156ZM1.50907 16.5281L5.67157 1.45312L9.83407 16.5281C9.8952 16.7377 9.90669 16.9586 9.86764 17.1734C9.82858 17.3882 9.74006 17.591 9.60907 17.7656C9.47808 17.9403 9.30823 18.082 9.11296 18.1797C8.9177 18.2773 8.70238 18.3281 8.48407 18.3281H2.85907C2.64076 18.3281 2.42544 18.2773 2.23018 18.1797C2.03491 18.082 1.86506 17.9403 1.73407 17.7656C1.60308 17.591 1.51456 17.3882 1.4755 17.1734C1.43645 16.9586 1.44794 16.7377 1.50907 16.5281Z" stroke="black" stroke-width="1.5" stroke-linecap="round" stroke-linejoin="round"/>
</svg>
