<svg width="24" height="24" viewBox="0 0 24 24" fill="none" xmlns="http://www.w3.org/2000/svg">
<path d="M13.7137 16.2858C14.3957 16.2858 15.0497 16.5567 15.532 17.039C16.0142 17.5212 16.2851 18.1753 16.2851 18.8572C16.2851 19.5392 16.0142 20.1933 15.532 20.6755C15.0497 21.1578 14.3957 21.4287 13.7137 21.4287C13.0317 21.4287 12.3777 21.1578 11.8954 20.6755C11.4132 20.1933 11.1423 19.5392 11.1423 18.8572C11.1423 18.1753 11.4132 17.5212 11.8954 17.039C12.3777 16.5567 13.0317 16.2858 13.7137 16.2858ZM13.7137 16.2858L9.428 16.2858L4.28514 11.143M4.28514 11.143H1.71371V17.5715M4.28514 11.143V6.85725C4.28514 6.38386 4.6689 6.0001 5.14228 6.0001H7.70531C9.78534 6.0001 11.6606 7.25304 12.4566 9.1747L15.9206 17.5367M4.71371 20.5715H11.5709M19.7137 2.57153V21.4287H23.1423M0.856567 19.2858C0.856567 19.8541 1.08233 20.3992 1.4842 20.801C1.88606 21.2029 2.4311 21.4287 2.99942 21.4287C3.56775 21.4287 4.11279 21.2029 4.51465 20.801C4.91652 20.3992 5.14228 19.8541 5.14228 19.2858C5.14228 18.7175 4.91652 18.1725 4.51465 17.7706C4.11279 17.3687 3.56775 17.143 2.99942 17.143C2.4311 17.143 1.88606 17.3687 1.4842 17.7706C1.08233 18.1725 0.856567 18.7175 0.856567 19.2858Z" stroke="black" stroke-width="1.5" stroke-linecap="round" stroke-linejoin="round"/>
</svg>
