<svg width="24" height="24" viewBox="0 0 24 24" fill="none" xmlns="http://www.w3.org/2000/svg">
<path d="M16.2183 8.48439V21.1406C16.2183 21.5136 16.0702 21.8713 15.8064 22.135C15.5427 22.3987 15.185 22.5469 14.8121 22.5469H6.37457C6.18831 22.5469 6.00391 22.5099 5.83206 22.4381C5.66021 22.3662 5.50435 22.261 5.37352 22.1284C5.24269 21.9958 5.1395 21.8386 5.06994 21.6658C5.00038 21.493 4.96584 21.3081 4.96832 21.1219V12.6094C4.96742 12.4114 4.92527 12.2158 4.84456 12.035C4.76385 11.8542 4.64636 11.6922 4.49957 11.5594L2.36207 9.68439C2.26365 9.58558 2.19683 9.45973 2.17012 9.32284C2.14341 9.18595 2.15801 9.04421 2.21207 8.91564C2.2645 8.78738 2.35413 8.67775 2.46943 8.60089C2.58472 8.52403 2.72039 8.48345 2.85895 8.48439H16.2183ZM16.2183 8.48439C15.8621 5.80314 13.4804 4.26562 10.5929 4.26562M16.2183 8.48439L4.96793 8.48438C5.32418 5.80312 7.70543 4.26562 10.5929 4.26562M8.48355 15.5156H12.7023M10.5929 8.48438V15.5156M10.5929 4.26562C10.22 4.26562 9.86228 4.11747 9.59856 3.85374C9.33484 3.59002 9.18668 3.23234 9.18668 2.85938C9.18668 2.48641 9.33484 2.12873 9.59856 1.86501C9.86228 1.60128 10.22 1.45313 10.5929 1.45312C10.9659 1.45313 11.3236 1.60128 11.5873 1.86501C11.851 2.12873 11.9992 2.48641 11.9992 2.85938C11.9992 3.23234 11.851 3.59002 11.5873 3.85374C11.3236 4.11747 10.9659 4.26562 10.5929 4.26562ZM16.2179 9.89062H17.6242C18.7423 9.8931 19.8139 10.3384 20.6046 11.129C21.3952 11.9196 21.8405 12.9913 21.8429 14.1094C21.8405 15.2275 21.3952 16.2991 20.6046 17.0897C19.8139 17.8804 18.7423 18.3256 17.6242 18.3281H16.2179M4.96793 18.7969H16.2179" stroke="black" stroke-width="1.5" stroke-linecap="round" stroke-linejoin="round"/>
</svg>
