<svg width="24" height="24" viewBox="0 0 24 24" fill="none" xmlns="http://www.w3.org/2000/svg">
<path d="M9.89148 21.1406V22.5469M19.7352 21.1406V22.5469M12.704 14.1094H16.9227M1.45398 1.45312H7.07898C7.45194 1.45312 7.80963 1.60128 8.07335 1.86501C8.33707 2.12873 8.48523 2.48641 8.48523 2.85938M8.48523 2.85938V7.07812C8.48523 7.45109 8.63339 7.80877 8.89711 8.07249C9.16083 8.33622 9.51852 8.48438 9.89148 8.48438H19.7352C20.1082 8.48438 20.4659 8.33622 20.7296 8.07249C20.9933 7.80877 21.1415 7.45109 21.1415 7.07812V4.26562C21.1415 3.89266 20.9933 3.53498 20.7296 3.27126C20.4659 3.00753 20.1082 2.85938 19.7352 2.85938H8.48523ZM12.704 2.85938V8.48438M16.9227 2.85938V8.48438M8.79327 21.1406H20.8335C21.7803 21.1406 22.5478 20.3731 22.5478 19.4263L22.5478 13.0112C22.5478 12.0644 21.7803 11.2969 20.8335 11.2969H8.79326C7.84649 11.2969 7.07898 12.0644 7.07898 13.0112V19.4263C7.07898 20.3731 7.84649 21.1406 8.79327 21.1406Z" stroke="black" stroke-width="1.5" stroke-linecap="round" stroke-linejoin="round"/>
</svg>
