<svg width="24" height="24" viewBox="0 0 24 24" fill="none" xmlns="http://www.w3.org/2000/svg">
<path d="M7.54406 8.60456V12.5661M9.52513 10.5854H5.56359M17.9419 9.45346C18.1765 9.45346 18.3664 9.26343 18.3664 9.029M17.9419 9.45346C17.7076 9.45346 17.5184 9.26343 17.5184 9.029M17.9419 9.45346V8.60456M18.3664 9.029C18.3664 8.79459 18.1765 8.60456 17.9419 8.60456M18.3664 9.029H17.5184M17.9419 8.60456C17.7076 8.60456 17.5184 8.79459 17.5184 9.029M15.3956 11.1513C15.63 11.1513 15.8201 11.3413 15.8201 11.5758M15.3956 11.1513C15.1612 11.1513 14.9721 11.3413 14.9721 11.5758M15.3956 11.1513L15.3958 12.0001M15.8201 11.5758C15.8201 11.8102 15.6302 12.0001 15.3958 12.0001M15.8201 11.5758H14.9721M15.3958 12.0001C15.1613 12.0001 14.9721 11.8102 14.9721 11.5758M2.15454 8.93479L1.44792 15.2943C1.19034 17.6126 3.00503 19.6401 5.33755 19.6401C6.8199 19.6401 8.17502 18.8025 8.83795 17.4767L9.45407 16.2445H14.5475L15.1636 17.4767C15.8265 18.8025 17.1817 19.6401 18.664 19.6401C20.9965 19.6401 22.8112 17.6126 22.5536 15.2943L21.8469 8.93479C21.5576 6.33028 19.3561 4.35986 16.7356 4.35986H7.26594C4.64541 4.35986 2.44392 6.33028 2.15454 8.93479Z" stroke="black" stroke-width="1.5" stroke-linecap="round" stroke-linejoin="round"/>
</svg>
