<svg width="24" height="24" viewBox="0 0 24 24" fill="none" xmlns="http://www.w3.org/2000/svg">
<path d="M16.286 18.0001C16.286 17.5332 15.8957 17.1429 15.4289 17.1429M16.286 18.0001C16.286 18.4669 15.8957 18.8572 15.4289 18.8572M16.286 18.0001H14.5717M15.4289 17.1429C14.962 17.1429 14.5717 17.5332 14.5717 18.0001M15.4289 17.1429V18.8572M15.4289 18.8572C14.962 18.8572 14.5717 18.4669 14.5717 18.0001M8.80108 19.4614V16.5382M7.33958 17.9997H10.2629M20.4646 20.9464C20.4646 21.8932 19.6971 22.6609 18.7503 22.6609H5.2503C4.30353 22.6609 3.53601 21.8932 3.53601 20.9466V3.05364C3.53601 2.10688 4.30353 1.33936 5.2503 1.33936H18.7503C19.6971 1.33936 20.4646 2.10688 20.4646 3.05364V20.9464ZM17.1959 12.9269H6.80387V4.27323H17.1959V12.9269Z" stroke="black" stroke-width="1.5" stroke-linecap="round" stroke-linejoin="round"/>
</svg>
