<svg width="24" height="24" viewBox="0 0 24 24" fill="none" xmlns="http://www.w3.org/2000/svg">
<path d="M6.0008 22.2858V12.8572C6.0008 12.3838 6.38456 12.0001 6.85794 12.0001H17.1437C17.617 12.0001 18.0008 12.3838 18.0008 12.8572V22.2858M6.0008 15.4286H18.0008M13.7151 19.2858L12.0008 18.4286L10.2865 19.2858M1.71509 11.0399V20.5715C1.71509 21.5183 2.48261 22.2858 3.42937 22.2858H20.5722C21.519 22.2858 22.2865 21.5183 22.2865 20.5715V11.0399C22.2865 10.5594 22.0849 10.1009 21.7306 9.77621L12.0008 1.71436L2.271 9.77621C1.91677 10.1009 1.71509 10.5594 1.71509 11.0399Z" stroke="black" stroke-width="1.5" stroke-linecap="round" stroke-linejoin="round"/>
</svg>
