<svg width="24" height="24" viewBox="0 0 24 24" fill="none" xmlns="http://www.w3.org/2000/svg">
<path d="M5.9997 22.2858V12.8572C5.9997 12.3838 6.38346 12.0001 6.85685 12.0001H17.1426C17.6159 12.0001 17.9997 12.3838 17.9997 12.8572V22.2858M5.9997 15.4286H17.9997M13.714 18.4286L11.9997 19.2858L10.2854 18.4286M1.71399 11.0399V20.5715C1.71399 21.5183 2.48151 22.2858 3.42827 22.2858H20.5711C21.5179 22.2858 22.2854 21.5183 22.2854 20.5715V11.0399C22.2854 10.5594 22.0838 10.1009 21.7295 9.77621L11.9997 1.71436L2.2699 9.77621C1.91568 10.1009 1.71399 10.5594 1.71399 11.0399Z" stroke="black" stroke-width="1.5" stroke-linecap="round" stroke-linejoin="round"/>
</svg>
