<svg width="24" height="24" viewBox="0 0 24 24" fill="none" xmlns="http://www.w3.org/2000/svg">
<path d="M10.286 15.8572L12.0003 15.0001L13.7146 15.8572M13.7146 18.4286L12.0003 19.2858L10.286 18.4286M6.00028 22.2858V12.8572C6.00028 12.3838 6.38404 12.0001 6.85743 12.0001H17.1431C17.6165 12.0001 18.0003 12.3838 18.0003 12.8572V22.2858M1.71457 11.0399V20.5715C1.71457 21.5183 2.48209 22.2858 3.42885 22.2858H20.5717C21.5185 22.2858 22.286 21.5183 22.286 20.5715V11.0399C22.286 10.5594 22.0844 10.1009 21.7301 9.77621L12.0003 1.71436L2.27048 9.77621C1.91625 10.1009 1.71457 10.5594 1.71457 11.0399Z" stroke="black" stroke-width="1.5" stroke-linecap="round" stroke-linejoin="round"/>
</svg>
