<svg width="24" height="24" viewBox="0 0 24 24" fill="none" xmlns="http://www.w3.org/2000/svg">
<path d="M1.71423 8.5715L11.9999 1.71436L22.2857 8.5715M4.22908 19.543C3.86535 19.543 3.51652 19.3985 3.25933 19.1413C3.00214 18.8841 2.85765 18.5353 2.85765 18.1715V16.225C2.85773 15.8615 3.00209 15.513 3.25902 15.2559L4.91479 13.6001H19.0862L20.742 15.2559C20.9989 15.513 21.1433 15.8615 21.1434 16.225V18.1715C21.1434 18.5353 20.9989 18.8841 20.7417 19.1413C20.4845 19.3985 20.1357 19.543 19.7719 19.543M4.22908 19.543H19.7719M4.22908 19.543L4.22874 20.9142C4.22874 21.2779 4.37323 21.6267 4.63042 21.8839C4.88762 22.1411 5.23645 22.2856 5.60017 22.2856C5.9639 22.2856 6.31272 22.1411 6.56992 21.8839C6.82711 21.6267 6.9716 21.2779 6.9716 20.9142V19.5428L4.22908 19.543ZM19.7719 19.543L17.029 19.5428V20.9142C17.029 21.2779 17.1735 21.6267 17.4306 21.8839C17.6878 22.1411 18.0367 22.2856 18.4004 22.2856C18.7641 22.2856 19.1129 22.1411 19.3701 21.8839C19.6273 21.6267 19.7718 21.2779 19.7718 20.9142L19.7719 19.543ZM5.59984 16.3427H6.97126M17.029 16.3427H18.4004M16.7251 9.94301C17.013 9.94304 17.2935 10.0337 17.5271 10.202C17.7606 10.3704 17.9352 10.6079 18.0261 10.8811L19.0849 13.6002H4.91345L5.9722 10.8811C6.06316 10.6079 6.23777 10.3704 6.47128 10.202C6.70478 10.0337 6.98535 9.94304 7.27322 9.94301H16.7251Z" stroke="black" stroke-width="1.5" stroke-linecap="round" stroke-linejoin="round"/>
</svg>
