<svg width="24" height="24" viewBox="0 0 24 24" fill="none" xmlns="http://www.w3.org/2000/svg">
<path d="M7.07784 14.5714H2.57115C2.09776 14.5714 1.714 14.9552 1.714 15.4286V21.4286C1.714 21.902 2.09776 22.2857 2.57115 22.2857H21.4283C21.9017 22.2857 22.2854 21.902 22.2854 21.4286V15.4286C22.2854 14.9552 21.9017 14.5714 21.4283 14.5714H16.9216M7.07784 14.5714H16.9216M7.07784 14.5714V13.5603M16.9216 14.5714L16.9216 13.5603M5.93815 1.45312C6.41711 2.02487 6.7093 2.72969 6.77535 3.47262C6.84139 4.21554 6.67812 4.96086 6.30752 5.60813C5.97923 5.63341 5.6536 5.53303 5.39652 5.3273C5.13944 5.12157 4.97013 4.82585 4.92284 4.5C4.43124 4.76851 4.02665 5.17195 3.75674 5.66278C3.48682 6.15361 3.36284 6.71136 3.3994 7.27031C3.3994 8.15174 3.74955 8.99707 4.37281 9.62034C4.99608 10.2436 5.84141 10.5937 6.72284 10.5938C7.60029 10.5807 8.43814 10.2264 9.05875 9.60595C9.67935 8.98552 10.0339 8.14776 10.0472 7.27031C10.1571 5.97202 9.80523 4.6766 9.05351 3.61239C8.30179 2.54817 7.19851 1.78349 5.93815 1.45312ZM15.9443 1.45312C16.4234 2.02482 16.7156 2.7298 16.7813 3.47284C16.8471 4.21589 16.6832 4.9612 16.3118 5.60813C15.9839 5.63269 15.6588 5.532 15.4022 5.32635C15.1456 5.12071 14.9765 4.82541 14.929 4.5C14.4374 4.76851 14.0328 5.17195 13.7629 5.66278C13.493 6.15361 13.369 6.71136 13.4055 7.27031C13.4055 8.15174 13.7557 8.99707 14.379 9.62034C15.0022 10.2436 15.8475 10.5937 16.729 10.5938C17.6064 10.5807 18.4443 10.2264 19.0649 9.60595C19.6855 8.98552 20.04 8.14776 20.0534 7.27031C20.1633 5.97202 19.8114 4.6766 19.0596 3.61239C18.3079 2.54817 17.2046 1.78349 15.9443 1.45312ZM5.67159 18.3281C5.67159 18.7011 5.81975 19.0588 6.08348 19.3225C6.3472 19.5862 6.70488 19.7344 7.07784 19.7344C7.4508 19.7344 7.80849 19.5862 8.07221 19.3225C8.33594 19.0588 8.48409 18.7011 8.48409 18.3281C8.48409 17.9552 8.33594 17.5975 8.07221 17.3338C7.80849 17.07 7.4508 16.9219 7.07784 16.9219C6.70488 16.9219 6.3472 17.07 6.08348 17.3338C5.81975 17.5975 5.67159 17.9552 5.67159 18.3281ZM15.5153 18.3281C15.5153 18.7011 15.6635 19.0588 15.9272 19.3225C16.1909 19.5862 16.5486 19.7344 16.9216 19.7344C17.2946 19.7344 17.6522 19.5862 17.916 19.3225C18.1797 19.0588 18.3278 18.7011 18.3278 18.3281C18.3278 17.9552 18.1797 17.5975 17.916 17.3338C17.6522 17.07 17.2946 16.9219 16.9216 16.9219C16.5486 16.9219 16.1909 17.07 15.9272 17.3338C15.6635 17.5975 15.5153 17.9552 15.5153 18.3281Z" stroke="black" stroke-width="1.5" stroke-linecap="round" stroke-linejoin="round"/>
</svg>
