<svg width="24" height="24" viewBox="0 0 24 24" fill="none" xmlns="http://www.w3.org/2000/svg">
<path d="M23.1437 12C23.1437 18.1541 18.1549 23.1429 12.0008 23.1429M23.1437 12C23.1437 5.846 18.1549 0.857178 12.0008 0.857178M23.1437 12H0.857971M12.0008 23.1429C5.8468 23.1429 0.857971 18.1541 0.857971 12M12.0008 23.1429C14.3678 23.1429 16.2865 18.1541 16.2865 12C16.2865 5.846 14.3678 0.857178 12.0008 0.857178M12.0008 23.1429C9.63389 23.1429 7.71511 18.1541 7.71511 12C7.71511 5.846 9.63389 0.857178 12.0008 0.857178M0.857971 12C0.857971 5.846 5.8468 0.857178 12.0008 0.857178" stroke="black" stroke-width="1.5" stroke-linecap="round" stroke-linejoin="round"/>
</svg>
