<svg width="24" height="24" viewBox="0 0 24 24" fill="none" xmlns="http://www.w3.org/2000/svg">
<path d="M1.71344 16.2855H4.71344C5.50909 16.2855 6.27215 15.9694 6.83476 15.4068C7.39737 14.8442 7.71344 14.0811 7.71344 13.2855V10.714C7.71344 9.91838 8.0295 9.15531 8.59211 8.5927C9.15472 8.03009 9.91778 7.71403 10.7134 7.71403C11.5091 7.71403 12.2721 7.39795 12.8348 6.83533C13.3974 6.27272 13.7134 5.50968 13.7134 4.71403V0.976876M23.142 11.8286C22.2837 11.3833 21.3319 11.1482 20.3649 11.1429H16.7134C15.9178 11.1429 15.1547 11.459 14.5921 12.0216C14.0295 12.5842 13.7134 13.3472 13.7134 14.1429C13.7134 14.9385 14.0295 15.7016 14.5921 16.2642C15.1547 16.8268 15.9178 17.1429 16.7134 17.1429C17.2817 17.1429 17.8269 17.3687 18.2287 17.7705C18.6305 18.1723 18.8563 18.7175 18.8563 19.2857V20.7772M11.9992 23.1429C18.1533 23.1429 23.142 18.1541 23.142 12C23.142 5.84601 18.1533 0.857178 11.9992 0.857178C5.84512 0.857178 0.856293 5.84601 0.856293 12C0.856293 18.1541 5.84512 23.1429 11.9992 23.1429Z" stroke="black" stroke-width="1.5" stroke-linecap="round" stroke-linejoin="round"/>
</svg>
