<svg width="24" height="24" viewBox="0 0 24 24" fill="none" xmlns="http://www.w3.org/2000/svg">
<path d="M19.4291 23.1429L16.1903 14.3078M4.57196 23.1429L7.81083 14.3078M18.3416 20.1714H5.66348M6.23065 0.857178L6.84475 1.66937C7.08994 1.99097 7.20202 2.39456 7.15776 2.79654C7.11351 3.19851 6.91631 3.56806 6.60704 3.82861C6.43495 3.97162 6.2951 4.14944 6.19668 4.35038C6.09826 4.55132 6.0435 4.77082 6.03602 4.99445C6.02853 5.21807 6.06848 5.44075 6.15325 5.64782C6.23801 5.85489 6.36566 6.04167 6.5278 6.19586M11.8057 0.857178L12.4198 1.66937C12.665 1.99097 12.7771 2.39456 12.7328 2.79654C12.6886 3.19851 12.4914 3.56806 12.1821 3.82861C12.0127 3.97337 11.8753 4.15182 11.7787 4.3526C11.6821 4.55338 11.6283 4.77208 11.6209 4.99478C11.6134 5.21747 11.6524 5.43928 11.7354 5.64607C11.8184 5.85286 11.9435 6.0401 12.1029 6.19586M17.0055 0.857178L17.6196 1.66937C17.8648 1.99097 17.9769 2.39456 17.9326 2.79654C17.8883 3.19851 17.6912 3.56806 17.3819 3.82861C17.2125 3.97337 17.0751 4.15182 16.9785 4.3526C16.8818 4.55338 16.8281 4.77208 16.8206 4.99478C16.8132 5.21747 16.8522 5.43928 16.9352 5.64607C17.0182 5.85286 17.1433 6.0401 17.3026 6.19586M17.579 9.0287C17.7449 9.02877 17.9087 9.06538 18.0588 9.13593C18.2089 9.20648 18.3417 9.30923 18.4476 9.43689C18.5535 9.56454 18.63 9.71395 18.6716 9.87451C18.7132 10.0351 18.7189 10.2028 18.6884 10.3658C18.346 11.8806 17.4987 13.234 16.2855 14.2035C15.0724 15.1731 13.5655 15.7012 12.0125 15.7012C10.4596 15.7012 8.95273 15.1731 7.73958 14.2035C6.52643 13.234 5.67908 11.8806 5.33672 10.3658C5.30412 10.2018 5.30872 10.0325 5.35017 9.8704C5.39162 9.70833 5.46887 9.55762 5.57625 9.42934C5.68362 9.30106 5.81838 9.19849 5.97062 9.12915C6.12286 9.05982 6.28871 9.02549 6.45596 9.0287H17.579Z" stroke="black" stroke-width="1.5" stroke-linecap="round" stroke-linejoin="round"/>
</svg>
