<svg width="24" height="24" viewBox="0 0 24 24" fill="none" xmlns="http://www.w3.org/2000/svg">
<path d="M12.8566 12.8569V19.7139H16.7137L20.8822 10.2163M14.5709 19.7143C14.5709 21.6079 16.1059 23.1429 17.9994 23.1429H21.4279M21.8566 6.85718C21.8566 3.54346 19.1703 0.857178 15.8566 0.857178C14.7171 0.857178 13.5811 0.98188 12.4688 1.22906L2.57086 3.42861V10.2857L12.4688 12.4853C13.5811 12.7325 14.7171 12.8572 15.8566 12.8572C19.1703 12.8572 21.8566 10.1709 21.8566 6.85718ZM12.8566 6.85718C12.8566 7.53916 13.1275 8.19322 13.6097 8.67545C14.092 9.15769 14.746 9.42861 15.428 9.42861C16.11 9.42861 16.764 9.15769 17.2463 8.67545C17.7285 8.19322 17.9994 7.53916 17.9994 6.85718C17.9994 6.17519 17.7285 5.52114 17.2463 5.0389C16.764 4.55667 16.11 4.28575 15.428 4.28575C14.746 4.28575 14.092 4.55667 13.6097 5.0389C13.1275 5.52114 12.8566 6.17519 12.8566 6.85718Z" stroke="black" stroke-width="1.5" stroke-linecap="round" stroke-linejoin="round"/>
</svg>
