<svg width="24" height="24" viewBox="0 0 24 24" fill="none" xmlns="http://www.w3.org/2000/svg">
<path d="M8.48328 9.89062V4.96875C8.48328 4.03635 8.85367 3.14214 9.51298 2.48283C10.1723 1.82352 11.0665 1.45313 11.9989 1.45312C12.9313 1.45313 13.8255 1.82352 14.4848 2.48283C15.1441 3.14214 15.5145 4.03635 15.5145 4.96875V9.89062M7.07703 9.89062V22.5469M16.9208 9.89062V22.5469M9.88953 14.1094H14.1083M21.1021 12.1584C21.3592 13.4605 22.1532 17.4808 22.4906 19.1897C22.8279 20.8986 21.4734 22.5468 19.7315 22.5469C17.9897 22.547 6.00475 22.547 4.26289 22.5469C2.52103 22.5468 1.16651 20.8986 1.50385 19.1897C1.84119 17.4808 2.63525 13.4605 2.89227 12.1584C3.1493 10.8564 4.3251 9.89027 5.65225 9.89062C6.9794 9.89098 17.015 9.89098 18.3422 9.89062C19.6693 9.89027 20.8451 10.8564 21.1021 12.1584Z" stroke="black" stroke-width="1.5" stroke-linecap="round" stroke-linejoin="round"/>
</svg>
