<svg width="24" height="24" viewBox="0 0 24 24" fill="none" xmlns="http://www.w3.org/2000/svg">
<path d="M12.0005 0.857178V6.85718M15.4291 19.7143C15.4291 21.6079 13.8941 23.1429 12.0005 23.1429C10.107 23.1429 8.57195 21.6079 8.57195 19.7143M15.2158 11.4875V10.2447C15.2331 9.4617 14.9742 8.69761 14.4844 8.08642C13.9947 7.47523 13.3054 7.05596 12.5375 6.90213C12.0765 6.82422 11.6042 6.8478 11.1533 6.97122C10.7024 7.09465 10.2838 7.31496 9.9268 7.61678C9.5698 7.9186 9.28294 8.29466 9.08622 8.71875C8.88951 9.14283 8.78767 9.60473 8.78782 10.0722V11.4875C7.26599 12.0817 5.93853 13.0859 4.9527 14.3887C3.96687 15.6914 3.36122 17.2418 3.20295 18.8679C3.19615 18.9774 3.21205 19.0872 3.24967 19.1904C3.28728 19.2935 3.34579 19.3877 3.42152 19.4672C3.49726 19.5466 3.5886 19.6096 3.6898 19.6521C3.79101 19.6946 3.8999 19.7158 4.00966 19.7142H19.994C20.1038 19.7158 20.2127 19.6946 20.3139 19.6521C20.4151 19.6096 20.5064 19.5466 20.5821 19.4672C20.6579 19.3877 20.7164 19.2935 20.754 19.1904C20.7916 19.0872 20.8075 18.9774 20.8007 18.8679C20.6424 17.2418 20.0368 15.6914 19.051 14.3887C18.0651 13.0859 16.7377 12.0817 15.2158 11.4875Z" stroke="black" stroke-width="1.5" stroke-linecap="round" stroke-linejoin="round"/>
</svg>
