<svg width="24" height="24" viewBox="0 0 24 24" fill="none" xmlns="http://www.w3.org/2000/svg">
<path d="M6.00162 11.1429H18.0016M0.858765 9.42864V12.8572C0.858765 13.804 1.62628 14.5715 2.57305 14.5715H3.57726C4.03191 14.5715 4.46795 14.7521 4.78944 15.0736L5.49952 15.7837C5.82101 16.1052 6.25705 16.2858 6.7117 16.2858H17.2915C17.7462 16.2858 18.1822 16.1052 18.5037 15.7837L19.2138 15.0736C19.5353 14.7521 19.9713 14.5715 20.426 14.5715H21.4302C22.377 14.5715 23.1445 13.804 23.1445 12.8572V9.42864C23.1445 8.48187 22.377 7.71436 21.4302 7.71436H2.57305C1.62628 7.71436 0.858765 8.48187 0.858765 9.42864Z" stroke="black" stroke-width="1.5" stroke-linecap="round" stroke-linejoin="round"/>
</svg>
