<svg width="24" height="24" viewBox="0 0 24 24" fill="none" xmlns="http://www.w3.org/2000/svg">
<path d="M11.2691 6.47892C11.0619 6.38316 10.7257 6.50962 10.8758 6.76957C11.9273 8.59037 12.1495 11.0694 10.7134 12.4372C10.1609 11.9728 9.72218 11.3879 9.43114 10.7275C8.35931 11.3228 7.69017 12.4938 7.72146 13.7194C7.81142 15.9404 9.77756 17.7099 11.9957 17.5662C14.7483 17.5662 16.1758 15.8565 16.2699 13.7194C16.381 11.1549 14.5602 8.00054 11.2691 6.47892Z" stroke="black" stroke-width="1.5" stroke-linecap="round" stroke-linejoin="round"/>
<path d="M23.1423 12C23.1423 18.1541 18.1535 23.1429 11.9994 23.1429C5.84539 23.1429 0.856567 18.1541 0.856567 12C0.856567 5.846 5.84539 0.857178 11.9994 0.857178C18.1535 0.857178 23.1423 5.846 23.1423 12Z" stroke="black" stroke-width="1.5" stroke-linecap="round" stroke-linejoin="round"/>
</svg>
