<svg width="24" height="24" viewBox="0 0 24 24" fill="none" xmlns="http://www.w3.org/2000/svg">
<path d="M1.4905 20.0352H22.5487M9.91247 9.50715L2.89341 10.9106V20.0353H9.91247V9.50715ZM9.91247 9.50715L1.45367 11.1993M21.1425 9.50698L9.91126 4.59448V20.0351H21.1425V9.50698ZM21.1425 9.50698L21.1432 4.59448H18.3354V8.27042M8.47488 3.9646L22.5448 10.1193M18.336 20.0352H12.7204V15.824C12.7204 15.451 12.8686 15.0933 13.1324 14.8296C13.3961 14.5659 13.7537 14.4177 14.1267 14.4177H16.9392C17.3122 14.4177 17.6699 14.5659 17.9336 14.8296C18.1973 15.0933 18.3454 15.451 18.3454 15.824L18.336 20.0352Z" stroke="black" stroke-width="1.5" stroke-linecap="round" stroke-linejoin="round"/>
</svg>
