<svg width="24" height="24" viewBox="0 0 24 24" fill="none" xmlns="http://www.w3.org/2000/svg">
<path d="M20.57 13.7142C21.0995 12.8799 21.6135 11.5506 21.5958 10.5626C21.5817 9.13855 21.1297 7.75335 20.3011 6.59508C20.2338 6.49922 20.1438 6.42162 20.039 6.36929C19.9342 6.31697 19.8181 6.29156 19.701 6.29538C19.584 6.29919 19.4697 6.33211 19.3686 6.39114C19.2675 6.45018 19.1826 6.53348 19.1217 6.63352C18.8656 7.03945 18.4957 7.36106 18.0581 7.55827C17.6205 7.75548 17.1346 7.81958 16.6608 7.74258C15.8912 7.0942 15.3176 6.24407 15.0044 5.28769C14.6912 4.3313 14.6509 3.30655 14.888 2.32852C14.9153 2.21833 14.9157 2.10318 14.889 1.99282C14.8624 1.88247 14.8095 1.78017 14.7349 1.6946C14.6602 1.60904 14.5661 1.54273 14.4604 1.50131C14.3547 1.45988 14.2406 1.44456 14.1277 1.45665C12.4595 1.55638 10.8801 2.24151 9.66744 3.39137C8.45481 4.54123 7.68678 6.08209 7.49861 7.74258C7.01158 7.78735 6.52162 7.69733 6.0823 7.48239C5.64298 7.26744 5.27122 6.93584 5.00767 6.52383C4.94833 6.42873 4.86719 6.34912 4.77097 6.2916C4.67474 6.23408 4.5662 6.2003 4.45433 6.19306C4.34246 6.18582 4.23048 6.20533 4.12765 6.24997C4.02481 6.29461 3.93409 6.3631 3.86299 6.44977C3.1552 7.30582 2.68372 8.33217 2.49541 9.42684C2.3071 10.5215 2.71018 12.3449 3.42711 13.7142M11.9983 23.1428V17.9999M6.59698 14.9155L10.8827 11.242C11.5247 10.6917 12.472 10.6917 13.114 11.242L17.3997 14.9155C17.7797 15.2412 17.9983 15.7166 17.9983 16.2171V21.4286C17.9983 22.3754 17.2308 23.1429 16.2841 23.1429H7.71263C6.76585 23.1429 5.99834 22.3754 5.99834 21.4286V16.2171C5.99834 15.7166 6.21702 15.2412 6.59698 14.9155Z" stroke="black" stroke-width="1.5" stroke-linecap="round" stroke-linejoin="round"/>
</svg>
