<svg width="24" height="24" viewBox="0 0 24 24" fill="none" xmlns="http://www.w3.org/2000/svg">
<path d="M21.1395 12V21.8438H16.9207M16.9207 21.8438H7.077M16.9207 21.8438V8.01563L13.1239 2.95312C12.9929 2.77848 12.823 2.63672 12.6277 2.53909C12.4325 2.44146 12.2172 2.39062 11.9989 2.39062C11.7805 2.39062 11.5653 2.44146 11.37 2.53909C11.1747 2.63672 11.0048 2.77848 10.8739 2.95312L7.077 8.01562V12M2.85825 12V21.8438H7.077M7.077 21.8438V12M7.077 12H1.452C1.99875 9.5 2.50251 6.74878 2.63231 6.09938C2.7621 5.44997 3.34913 4.96871 4.01137 4.96875H9.36168M14.6373 4.96875H19.9876C20.6498 4.96871 21.2368 5.44998 21.3666 6.09938C21.4965 6.74877 22.0001 9.5 22.547 12H16.9219M1.452 21.8438H22.5457M14.1082 21.8438H9.8895V16.2188C9.8895 15.4528 10.5298 14.8125 11.2957 14.8125H12.702C13.468 14.8125 14.1082 15.4527 14.1082 16.2188V21.8438Z" stroke="black" stroke-width="1.5" stroke-linecap="round" stroke-linejoin="round"/>
</svg>
