<svg width="24" height="24" viewBox="0 0 24 24" fill="none" xmlns="http://www.w3.org/2000/svg">
<path d="M12.0006 17.8398V14.5201M12.0006 17.8398C12.0006 18.4293 12.3035 18.9775 12.8026 19.2912L16.0883 21.3565C16.646 21.707 17.3552 21.707 17.9129 21.3565L21.1986 19.2912C21.6977 18.9775 22.0006 18.4293 22.0006 17.8398V14.5201C22.0006 13.9306 21.6977 13.3824 21.1986 13.0687L17.9129 11.0034C17.3552 10.6528 16.646 10.6528 16.0883 11.0034L12.8026 13.0687C12.3035 13.3824 12.0006 13.9306 12.0006 14.5201M12.0006 17.8398C12.0006 18.4293 11.6977 18.9775 11.1986 19.2912L7.91286 21.3565C7.35517 21.707 6.64596 21.707 6.08827 21.3565L2.80256 19.2912C2.30346 18.9775 2.00056 18.4293 2.00056 17.8398L2.00056 14.5201C2.00056 13.9306 2.30346 13.3824 2.80256 13.0687L6.08827 11.0034C6.64596 10.6528 7.35517 10.6528 7.91286 11.0034L11.1986 13.0687C11.6977 13.3824 12.0006 13.9306 12.0006 14.5201M16.1986 10.9318L12.9129 12.9971C12.3552 13.3477 11.646 13.3477 11.0883 12.9971L7.80256 10.9318C7.30346 10.6181 7.00057 10.07 7.00057 9.48044V6.1607C7.00057 5.57119 7.30346 5.02304 7.80256 4.70932L11.0883 2.64401C11.646 2.29347 12.3552 2.29347 12.9129 2.64401L16.1986 4.70932C16.6977 5.02304 17.0006 5.57119 17.0006 6.1607V9.48045C17.0006 10.07 16.6977 10.6181 16.1986 10.9318Z" stroke="black" stroke-width="1.5" stroke-linecap="round" stroke-linejoin="round"/>
</svg>
