<svg width="24" height="24" viewBox="0 0 24 24" fill="none" xmlns="http://www.w3.org/2000/svg">
<path d="M13.7126 19.7143H2.56975C1.62298 19.7143 0.855469 18.9468 0.855469 18V10.187C0.855469 9.70395 1.05922 9.24338 1.4166 8.91849L10.284 0.857178L19.1515 8.91849C19.5088 9.24338 19.7126 9.70395 19.7126 10.187M17.9983 18H19.7126V23.1429M17.1412 23.1429H22.284M19.7134 14.5714C19.4768 14.5714 19.2849 14.3795 19.2849 14.1428C19.2849 13.9061 19.4768 13.7143 19.7134 13.7143C19.9501 13.7143 20.142 13.9061 20.142 14.1428C20.142 14.3795 19.9501 14.5714 19.7134 14.5714Z" stroke="black" stroke-width="1.5" stroke-linecap="round" stroke-linejoin="round"/>
</svg>
