<svg width="24" height="24" viewBox="0 0 24 24" fill="none" xmlns="http://www.w3.org/2000/svg">
<path d="M22.697 22.4998C22.4551 21.5465 21.9024 20.7012 21.1262 20.0973C20.35 19.4935 19.3947 19.1656 18.4113 19.1656C17.4279 19.1656 16.4725 19.4935 15.6963 20.0973C14.9202 20.7012 14.3674 21.5465 14.1256 22.4998M11.1423 19.7143H2.57088C1.62411 19.7143 0.856598 18.9468 0.856598 18V10.187C0.856598 9.70395 1.06035 9.24338 1.41773 8.91849L10.2852 0.857178L19.1527 8.91849M15.793 15.5952C15.793 15.9392 15.8607 16.2797 15.9924 16.5975C16.124 16.9153 16.3169 17.204 16.5601 17.4472C16.8033 17.6904 17.0921 17.8834 17.4098 18.015C17.7276 18.1466 18.0682 18.2144 18.4121 18.2144C18.7561 18.2144 19.0967 18.1466 19.4144 18.015C19.7322 17.8834 20.021 17.6904 20.2642 17.4472C20.5074 17.204 20.7003 16.9153 20.8319 16.5975C20.9636 16.2797 21.0313 15.9392 21.0313 15.5952C21.0313 15.2512 20.9636 14.9107 20.8319 14.5929C20.7003 14.2751 20.5074 13.9864 20.2642 13.7432C20.021 13.5 19.7322 13.307 19.4144 13.1754C19.0967 13.0438 18.7561 12.976 18.4121 12.976C18.0682 12.976 17.7276 13.0438 17.4098 13.1754C17.0921 13.307 16.8033 13.5 16.5601 13.7432C16.3169 13.9864 16.124 14.2751 15.9924 14.5929C15.8607 14.9107 15.793 15.2512 15.793 15.5952Z" stroke="black" stroke-width="1.5" stroke-linecap="round" stroke-linejoin="round"/>
</svg>
