<svg width="24" height="24" viewBox="0 0 24 24" fill="none" xmlns="http://www.w3.org/2000/svg">
<path d="M9.42745 19.7143H2.5703C1.62353 19.7143 0.856018 18.9468 0.856018 18V10.187C0.856018 9.70395 1.05977 9.24338 1.41715 8.91849L10.2846 0.857178L18.5979 8.41465M17.9989 18.3976C17.7715 18.3976 17.5535 18.3073 17.3928 18.1466C17.232 17.9858 17.1417 17.7678 17.1417 17.5405C17.1417 17.3132 17.232 17.0951 17.3928 16.9344C17.5535 16.7737 17.7715 16.6834 17.9989 16.6834M18.8532 17.5405C18.8532 17.7679 18.7629 17.9859 18.6022 18.1466C18.4414 18.3074 18.2234 18.3977 17.9961 18.3977V16.6834C18.2234 16.6834 18.4414 16.7737 18.6022 16.9344C18.7629 17.0952 18.8532 17.3132 18.8532 17.5405ZM18.8532 17.5405H17.1389M16.4736 13.4482L16.8441 12.4917C16.9066 12.3297 17.0166 12.1904 17.1596 12.092C17.3025 11.9936 17.4719 11.9407 17.6456 11.9402H18.3522C18.5258 11.9407 18.6952 11.9936 18.8382 12.092C18.9812 12.1904 19.091 12.3297 19.1536 12.4917L19.5242 13.4482L20.7824 14.1721L21.7991 14.017C21.9685 13.994 22.1408 14.0219 22.2942 14.0971C22.4478 14.1723 22.5753 14.2914 22.6609 14.4393L23.0056 15.0425C23.0939 15.1927 23.1347 15.3662 23.1224 15.5401C23.11 15.7139 23.0454 15.8799 22.9367 16.0162L22.3076 16.8177V18.2654L22.9538 19.0668C23.0625 19.2031 23.1273 19.3692 23.1395 19.5431C23.1518 19.7169 23.1112 19.8904 23.0229 20.0405L22.6782 20.6438C22.5926 20.7917 22.4649 20.9109 22.3115 20.986C22.1581 21.0612 21.9858 21.089 21.8164 21.066L20.7995 20.9111L19.5414 21.6348L19.1709 22.5914C19.1084 22.7534 18.9985 22.8926 18.8553 22.991C18.7124 23.0894 18.543 23.1424 18.3695 23.1429H17.6456C17.4719 23.1424 17.3025 23.0894 17.1596 22.991C17.0166 22.8926 16.9066 22.7534 16.8441 22.5914L16.4736 21.6348L15.2154 20.9111L14.1986 21.066C14.0292 21.089 13.8569 21.0612 13.7035 20.986C13.55 20.9109 13.4224 20.7917 13.3368 20.6438L12.9921 20.0405C12.9038 19.8904 12.8631 19.7169 12.8754 19.5431C12.8877 19.3692 12.9524 19.2031 13.0611 19.0668L13.6901 18.2654V16.8177L13.0438 16.0162C12.9352 15.8799 12.8705 15.7139 12.8582 15.5401C12.8459 15.3662 12.8865 15.1927 12.9749 15.0425L13.3196 14.4393C13.4052 14.2914 13.5328 14.1723 13.6862 14.0971C13.8397 14.0219 14.012 13.994 14.1813 14.017L15.1982 14.1721L16.4736 13.4482Z" stroke="black" stroke-width="1.5" stroke-linecap="round" stroke-linejoin="round"/>
</svg>
