<svg width="24" height="24" viewBox="0 0 24 24" fill="none" xmlns="http://www.w3.org/2000/svg">
<path d="M11.1445 21.4286H2.57311C1.62634 21.4286 0.858826 20.6611 0.858826 19.7143V11.0399C0.858826 10.5593 1.0605 10.1009 1.41473 9.77618L11.1445 0.857178L17.1445 6.35717M23.1445 15.4286C23.1445 19.7143 18.0017 23.1429 18.0017 23.1429C18.0017 23.1429 12.8588 19.7143 12.8588 15.4286C12.8588 12.5883 15.1614 10.2857 18.0017 10.2857C20.8421 10.2857 23.1445 12.5883 23.1445 15.4286ZM18.0017 16.2857C18.475 16.2857 18.8588 15.902 18.8588 15.4286C18.8588 14.9552 18.475 14.5715 18.0017 14.5715C17.5284 14.5715 17.1445 14.9552 17.1445 15.4286C17.1445 15.902 17.5284 16.2857 18.0017 16.2857Z" stroke="black" stroke-width="1.5" stroke-linecap="round" stroke-linejoin="round"/>
</svg>
