<svg width="25" height="25" viewBox="0 0 25 25" fill="none" xmlns="http://www.w3.org/2000/svg">
<path d="M8.03574 20.5357H2.6786C1.69237 20.5357 0.892883 19.7362 0.892883 18.75V10.6113C0.892883 10.1082 1.10512 9.62845 1.4774 9.29002L10.7143 0.892822L17.642 7.19072M17.8641 17.2166V15.431M17.8572 19.8662C17.9806 19.8662 18.0806 19.7662 18.0806 19.6428C18.0806 19.5196 17.9806 19.4196 17.8572 19.4196M17.6409 19.6428C17.6409 19.7662 17.7409 19.8662 17.8643 19.8662V19.4196C17.7409 19.4196 17.6409 19.5196 17.6409 19.6428ZM17.6409 19.6428H18.0875M23.9727 20.7319C24.0602 20.8937 24.1061 21.0748 24.1061 21.2587C24.1061 21.4426 24.0602 21.6237 23.9727 21.7855C23.8904 21.9467 23.765 22.0821 23.6107 22.1767C23.4563 22.2712 23.2788 22.3212 23.0977 22.3212H12.6155C12.4345 22.3212 12.2569 22.2712 12.1025 22.1767C11.9481 22.0821 11.8228 21.9467 11.7405 21.7855C11.653 21.6237 11.6072 21.4426 11.6072 21.2587C11.6072 21.0748 11.653 20.8937 11.7405 20.7319L17.0084 11.2319C17.0808 11.0545 17.2043 10.9027 17.3633 10.7958C17.5224 10.6889 17.7096 10.6319 17.9013 10.6319C18.0929 10.6319 18.2802 10.6889 18.4391 10.7958C18.5982 10.9027 18.7218 11.0545 18.7941 11.2319L23.9727 20.7319Z" stroke="black" stroke-width="1.5" stroke-linecap="round" stroke-linejoin="round"/>
</svg>
