<svg width="24" height="24" viewBox="0 0 24 24" fill="none" xmlns="http://www.w3.org/2000/svg">
<path d="M7.71429 19.7143H2.57143C1.62466 19.7143 0.857147 18.9468 0.857147 18V10.187C0.857147 9.70395 1.0609 9.24338 1.41828 8.91849L10.2857 0.857178L19.1532 8.91849C19.5105 9.24338 19.7143 9.70395 19.7143 10.187V11.1268M15.5324 18.7531L20.5712 13.7143L22.2855 15.4286M18.4286 15.8572L20.1429 17.5715M16.2857 20.5715C16.2857 21.9916 15.1345 23.1429 13.7143 23.1429C12.2941 23.1429 11.1429 21.9916 11.1429 20.5715C11.1429 19.1513 12.2941 18 13.7143 18C15.1345 18 16.2857 19.1513 16.2857 20.5715Z" stroke="black" stroke-width="1.5" stroke-linecap="round" stroke-linejoin="round"/>
</svg>
