<svg width="24" height="24" viewBox="0 0 24 24" fill="none" xmlns="http://www.w3.org/2000/svg">
<path d="M14.5714 11.9999L9.42859 18.8571M9.85716 12.8571C9.85716 13.0938 9.66528 13.2856 9.42859 13.2856M9.85716 12.8571C9.85716 12.6204 9.66528 12.4285 9.42859 12.4285M9.85716 12.8571H9.00002M9.42859 13.2856C9.1919 13.2856 9.00002 13.0938 9.00002 12.8571M9.42859 13.2856V12.4285M9.42859 12.4285C9.1919 12.4285 9.00002 12.6204 9.00002 12.8571M15 17.9999C15 18.2366 14.8081 18.4285 14.5714 18.4285M15 17.9999C15 17.7632 14.8081 17.5714 14.5714 17.5714M15 17.9999H14.1429M14.5714 18.4285C14.3348 18.4285 14.1429 18.2366 14.1429 17.9999M14.5714 18.4285V17.5714M14.5714 17.5714C14.3348 17.5714 14.1429 17.7632 14.1429 17.9999M20.5714 14.5714C20.5714 19.3052 16.7339 23.1428 12 23.1428C7.26615 23.1428 3.42859 19.3052 3.42859 14.5714C3.42859 10.498 8.80592 4.27359 11.0423 1.8611C11.5652 1.29695 12.4348 1.29695 12.9578 1.8611C15.1941 4.27359 20.5714 10.498 20.5714 14.5714Z" stroke="black" stroke-width="1.5" stroke-linecap="round" stroke-linejoin="round"/>
</svg>
