<svg width="24" height="24" viewBox="0 0 24 24" fill="none" xmlns="http://www.w3.org/2000/svg">
<path d="M20.3502 11.5371C18.8588 12.8914 15.6702 13.8343 11.8817 13.8343C9.57872 13.8833 7.2889 13.4754 5.14451 12.6343M18.6188 16.8688C16.8367 17.7696 14.854 18.2004 12.8588 18.1201C11.4083 18.1354 9.96366 17.9331 8.57309 17.5201M17.7773 23.0402C16.1488 23.4002 14.6402 22.7659 14.3488 21.6174M12.0017 9.42861C17.6823 9.42861 22.2874 7.50982 22.2874 5.14289C22.2874 2.77596 17.6823 0.857178 12.0017 0.857178C6.32101 0.857178 1.71594 2.77596 1.71594 5.14289C1.71594 7.50982 6.32101 9.42861 12.0017 9.42861Z" stroke="black" stroke-width="1.5" stroke-linecap="round" stroke-linejoin="round"/>
</svg>
