<svg width="24" height="24" viewBox="0 0 24 24" fill="none" xmlns="http://www.w3.org/2000/svg">
<path d="M9.428 17.1429H14.5709M11.9994 17.1429V11.1429H10.2851M12.428 6.85718C12.428 7.09387 12.2361 7.28575 11.9994 7.28575M12.428 6.85718C12.428 6.62048 12.2361 6.42861 11.9994 6.42861M12.428 6.85718H11.5709M11.9994 7.28575C11.7627 7.28575 11.5709 7.09387 11.5709 6.85718M11.9994 7.28575V6.42861M11.9994 6.42861C11.7627 6.42861 11.5709 6.62048 11.5709 6.85718M11.9994 23.1429C18.1535 23.1429 23.1423 18.1541 23.1423 12C23.1423 5.84601 18.1535 0.857178 11.9994 0.857178C5.8454 0.857178 0.856567 5.84601 0.856567 12C0.856567 18.1541 5.8454 23.1429 11.9994 23.1429Z" stroke="black" stroke-width="1.5" stroke-linecap="round" stroke-linejoin="round"/>
</svg>
