<svg width="24" height="24" viewBox="0 0 24 24" fill="none" xmlns="http://www.w3.org/2000/svg">
<path d="M13.4643 15.5158C14.1989 15.4144 14.906 15.1681 15.5446 14.7911L20.1449 19.3905C20.4102 19.6467 20.7654 19.7884 21.1341 19.7852C21.5028 19.782 21.8555 19.6341 22.1162 19.3734C22.377 19.1126 22.5249 18.7599 22.5281 18.3912C22.5313 18.0225 22.3895 17.6673 22.1334 17.4021L17.5303 12.8027C18.1618 11.733 18.4215 10.4843 18.2688 9.25151C18.1161 8.01871 17.5596 6.87113 16.6862 5.98783C15.8127 5.10454 14.6714 4.53522 13.4404 4.36871C12.2094 4.2022 10.9579 4.44787 9.88119 5.06738M7.07874 7.83482C7.4517 7.83482 7.80938 7.98298 8.0731 8.2467C8.33683 8.51043 8.48499 8.86811 8.48499 9.24107C8.48499 9.61403 8.33683 9.97172 8.0731 10.2354C7.80938 10.4992 7.4517 10.6473 7.07874 10.6473C6.70577 10.6473 6.34809 10.4992 6.08437 10.2354C5.82064 9.97172 5.67249 9.61403 5.67249 9.24107C5.67249 8.86811 5.82064 8.51043 6.08437 8.2467C6.34809 7.98298 6.70577 7.83482 7.07874 7.83482ZM7.07874 7.83482V3.5625C7.07874 3.00306 7.30097 2.46653 7.69656 2.07095C8.09214 1.67536 8.62867 1.45313 9.18811 1.45312C9.74755 1.45313 10.2841 1.67536 10.6797 2.07095C11.0752 2.46653 11.2975 3.00306 11.2975 3.5625V4.48969M12.7037 9.94403C12.7035 8.89202 12.4082 7.86118 11.8514 6.96857C11.2947 6.07596 10.4988 5.35737 9.55414 4.89442C8.60948 4.43146 7.55392 4.24269 6.50736 4.34955C5.4608 4.45641 4.46518 4.85462 3.63358 5.49894C2.80198 6.14326 2.16773 7.00788 1.80287 7.99459C1.43802 8.9813 1.35717 10.0505 1.56953 11.0809C1.78188 12.1112 2.27892 13.0614 3.00419 13.8234C3.72946 14.5855 4.65389 15.1288 5.67249 15.3918V21.1443C5.67249 21.5173 5.82064 21.875 6.08437 22.1387C6.34809 22.4024 6.70578 22.5506 7.07874 22.5506C7.4517 22.5506 7.80938 22.4024 8.07311 22.1387C8.33683 21.875 8.48499 21.5173 8.48499 21.1443V15.3918C9.69266 15.08 10.7624 14.3756 11.5261 13.3895C12.2898 12.4033 12.7041 11.1913 12.7037 9.94403Z" stroke="black" stroke-width="1.5" stroke-linecap="round" stroke-linejoin="round"/>
</svg>
