<svg width="24" height="24" viewBox="0 0 24 24" fill="none" xmlns="http://www.w3.org/2000/svg">
<path d="M11.2997 1.45312V22.5469M4.97156 22.5469H17.6278M11.2997 2.85938H14.2331C14.6058 2.85945 14.9632 3.00748 15.2269 3.27094L16.7812 4.96875M11.2991 7.07812H9.77196C9.39926 7.0782 9.04183 7.22623 8.77821 7.48969L7.31196 8.96719M5.45326 14.5565L1.71264 10.8159C1.61252 10.716 1.53814 10.5933 1.49587 10.4584C1.45361 10.3234 1.44473 10.1803 1.46999 10.0411C1.49525 9.90201 1.55391 9.77109 1.64091 9.65962C1.72792 9.54815 1.84068 9.45946 1.96951 9.40117L5.4167 7.86274C5.57809 7.79084 5.75747 7.76955 5.9312 7.80168C6.10493 7.83382 6.26484 7.91787 6.38983 8.04274L8.17108 9.82399C8.29387 9.94667 8.3773 10.1032 8.4107 10.2735C8.4441 10.4438 8.42595 10.6203 8.35858 10.7802L6.87451 14.279C6.81886 14.4107 6.73168 14.5268 6.62065 14.617C6.50961 14.7071 6.37812 14.7686 6.23775 14.796C6.09737 14.8234 5.95241 14.8159 5.81562 14.7741C5.67882 14.7324 5.55439 14.6576 5.45326 14.5565ZM22.2889 6.77734L18.5905 10.4758C18.4906 10.5758 18.3678 10.6498 18.2327 10.6914C18.0977 10.7329 17.9545 10.7407 17.8157 10.714C17.6769 10.6874 17.5468 10.6271 17.4367 10.5385C17.3266 10.4499 17.2399 10.3357 17.1842 10.2058L15.7283 6.81484C15.6603 6.65559 15.6419 6.47958 15.6753 6.3097C15.7087 6.13982 15.7925 5.98394 15.9158 5.86234L17.6802 4.09796C17.8021 3.97497 17.9582 3.89136 18.1281 3.85794C18.2981 3.82451 18.4741 3.84281 18.6336 3.91046L22.0189 5.37202C22.1486 5.42776 22.2627 5.51442 22.3512 5.62443C22.4397 5.73444 22.4999 5.86445 22.5265 6.00309C22.5531 6.14174 22.5454 6.2848 22.504 6.41976C22.4626 6.55473 22.3887 6.6775 22.2889 6.77734Z" stroke="black" stroke-width="1.5" stroke-linecap="round" stroke-linejoin="round"/>
</svg>
