<svg width="24" height="24" viewBox="0 0 24 24" fill="none" xmlns="http://www.w3.org/2000/svg">
<path d="M14.7059 14.353C14.5118 14.353 14.3544 14.1956 14.3544 14.0014C14.3544 13.8073 14.5118 13.6499 14.7059 13.6499M14.7059 14.353C14.9001 14.353 15.0575 14.1956 15.0575 14.0014C15.0575 13.8073 14.9001 13.6499 14.7059 13.6499M14.7059 14.353V13.6499M5.38449 17.1998H18.6167M18.5784 22.0136C17.2017 20.9142 17.0531 19.2701 18.3407 17.7151C18.6349 17.3662 18.7513 16.8817 18.6477 16.4374C18.5442 15.9932 15.3928 2.67511 15.2406 2.01665C15.0885 1.35819 14.4606 0.858386 13.7847 0.857837C13.1088 0.857288 10.9066 0.857279 10.2191 0.857837C9.53164 0.858395 8.91794 1.34683 8.76315 2.01665C8.60835 2.68647 5.45953 15.9932 5.35604 16.4374C5.25254 16.8817 5.36889 17.3662 5.66307 17.7151C6.95064 19.2701 6.80208 20.9142 5.42537 22.0136C5.21737 22.182 5.2768 22.5286 5.42537 22.7663C5.55458 22.9941 5.80719 23.1419 6.06916 23.1427C6.33113 23.1435 17.6825 23.1435 17.9445 23.1427C18.2065 23.1419 18.4592 22.994 18.5883 22.7663C18.727 22.5286 18.7864 22.182 18.5784 22.0136ZM11.42 11.7655C12.3882 11.7655 13.1731 10.9806 13.1731 10.0124C13.1731 9.04414 12.3882 8.25924 11.42 8.25924C10.4517 8.25924 9.66686 9.04414 9.66686 10.0124C9.66686 10.9806 10.4517 11.7655 11.42 11.7655ZM12.6334 4.96418C12.4391 4.96418 12.2818 4.80678 12.2818 4.61262C12.2818 4.41845 12.4391 4.26105 12.6334 4.26105C12.8275 4.26105 12.9849 4.41845 12.9849 4.61262C12.9849 4.80678 12.8275 4.96418 12.6334 4.96418Z" stroke="black" stroke-width="1.5" stroke-linecap="round" stroke-linejoin="round"/>
</svg>
