<svg width="24" height="24" viewBox="0 0 24 24" fill="none" xmlns="http://www.w3.org/2000/svg">
<path d="M8.59342 8.96675C6.04112 9.59574 4.28516 10.9096 4.28516 12.4285C4.28516 14.5588 7.73896 16.2857 11.9994 16.2857C16.2599 16.2857 19.7137 14.5588 19.7137 12.4285C19.7137 10.9096 17.9578 9.59574 15.4055 8.96675M8.59342 8.96675C9.62063 8.71361 10.7768 8.57139 11.9994 8.57139C13.2221 8.57139 14.3783 8.71361 15.4055 8.96675M8.59342 8.96675C8.78945 10.6741 10.2405 11.9997 12.0003 11.9997C13.7602 11.9997 15.2094 10.6741 15.4055 8.96675M23.1423 12C23.1423 15.7871 18.1535 18.8571 11.9994 18.8571C5.84541 18.8571 0.856586 15.7871 0.856586 12C0.856586 8.21287 5.84541 5.14282 11.9994 5.14282C18.1535 5.14282 23.1423 8.21287 23.1423 12Z" stroke="black" stroke-width="1.5" stroke-linecap="round" stroke-linejoin="round"/>
</svg>
