<svg width="24" height="24" viewBox="0 0 24 24" fill="none" xmlns="http://www.w3.org/2000/svg">
<path d="M6.19978 6.19974L7.52561 7.52557M4.52875 11.3545L2.71764 10.8692M11.3524 4.53164L10.8672 2.72053M17.798 17.8009L16.4721 16.475M12.6451 19.4691L13.1304 21.2803M19.4688 12.6467L21.2799 13.132M5.99889 18.0001L7.71317 16.2858M11.1417 12.8572L12.856 11.143M16.2846 7.71439L17.9989 6.0001M16.4749 2.88513C17.7563 1.60372 19.8339 1.60372 21.1152 2.88513C22.3967 4.16654 22.3967 6.24411 21.1152 7.52552L7.52556 21.1152C6.24414 22.3966 4.16658 22.3966 2.88517 21.1152C1.60376 19.8339 1.60376 17.7563 2.88517 16.4749L16.4749 2.88513Z" stroke="black" stroke-width="1.5" stroke-linecap="round" stroke-linejoin="round"/>
</svg>
