<svg width="24" height="24" viewBox="0 0 24 24" fill="none" xmlns="http://www.w3.org/2000/svg">
<path d="M23.1445 14.1429C23.1445 16.2731 18.1557 18 12.0017 18C5.84765 18 0.858818 16.2731 0.858818 14.1429M23.1445 14.1429C23.1445 12.0126 18.1557 10.2857 12.0017 10.2857C5.84765 10.2857 0.858818 12.0126 0.858818 14.1429M23.1445 14.1429V9.85714C23.1445 7.7269 18.1557 6 12.0017 6C5.84765 6 0.858818 7.7269 0.858818 9.85714V14.1429M13.0006 13.714C13.0006 13.8521 12.5528 13.964 12.0006 13.964C11.4483 13.964 11.0006 13.8521 11.0006 13.714C11.0006 13.5759 11.4483 13.464 12.0006 13.464C12.5528 13.464 13.0006 13.5759 13.0006 13.714Z" stroke="black" stroke-width="1.5" stroke-linecap="round" stroke-linejoin="round"/>
</svg>
