<svg width="24" height="24" viewBox="0 0 24 24" fill="none" xmlns="http://www.w3.org/2000/svg">
<path d="M3.55012 18.1323L1.56138 20.121M5.87043 20.4522L3.88169 22.4409M20.1204 1.55908L18.1317 3.54782M22.4407 3.87939L20.452 5.86813M6.85826 17.1429L8.57254 15.4286M11.144 12.8572L12.8583 11.1429M15.4297 8.5715L17.144 6.85721M3.60032 18.1842L5.81634 20.4002C6.48581 21.0697 7.57123 21.0697 8.2407 20.4002L20.4004 8.2405C21.0699 7.57103 21.0699 6.4856 20.4004 5.81613L18.1844 3.60011C17.5149 2.93064 16.4295 2.93064 15.76 3.60011L3.60032 15.7598C2.93085 16.4293 2.93085 17.5147 3.60032 18.1842Z" stroke="black" stroke-width="1.5" stroke-linecap="round" stroke-linejoin="round"/>
</svg>
