<svg width="24" height="24" viewBox="0 0 24 24" fill="none" xmlns="http://www.w3.org/2000/svg">
<path d="M12.6006 5.9999C12.6006 6.33127 12.3319 6.5999 12.0006 6.5999M12.6006 5.9999C12.6006 5.66853 12.3319 5.3999 12.0006 5.3999M12.6006 5.9999H11.4012M12.0006 6.5999C11.6692 6.5999 11.4012 6.33127 11.4012 5.9999M12.0006 6.5999V5.3999M12.0006 5.3999C11.6692 5.3999 11.4012 5.66853 11.4012 5.9999M18.6006 17.9999C18.6006 18.3313 18.3319 18.5999 18.0006 18.5999M18.6006 17.9999C18.6006 17.6685 18.3319 17.3999 18.0006 17.3999M18.6006 17.9999H17.4012M18.0006 18.5999C17.6692 18.5999 17.4012 18.3313 17.4012 17.9999M18.0006 18.5999V17.3999M18.0006 17.3999C17.6692 17.3999 17.4012 17.6685 17.4012 17.9999M6.60056 17.9999C6.60056 18.3313 6.33193 18.5999 6.00056 18.5999M6.60056 17.9999C6.60056 17.6685 6.33193 17.3999 6.00056 17.3999M6.60056 17.9999H5.40123M6.00056 18.5999C5.66919 18.5999 5.40123 18.3313 5.40123 17.9999M6.00056 18.5999V17.3999M6.00056 17.3999C5.66919 17.3999 5.40123 17.6685 5.40123 17.9999M3.42913 13.7144H8.57199C9.51876 13.7144 10.2863 14.4819 10.2863 15.4286V20.5715C10.2863 21.5183 9.51876 22.2858 8.57199 22.2858H3.42913C2.48236 22.2858 1.71484 21.5183 1.71484 20.5715V15.4286C1.71484 14.4819 2.48236 13.7144 3.42913 13.7144ZM15.4291 13.7144H20.572C21.5188 13.7144 22.2863 14.4819 22.2863 15.4286V20.5715C22.2863 21.5183 21.5188 22.2858 20.572 22.2858H15.4291C14.4824 22.2858 13.7148 21.5183 13.7148 20.5715V15.4286C13.7148 14.4819 14.4824 13.7144 15.4291 13.7144ZM9.42913 1.71436H14.572C15.5188 1.71436 16.2863 2.48187 16.2863 3.42864V8.5715C16.2863 9.51827 15.5188 10.2858 14.572 10.2858H9.42913C8.48236 10.2858 7.71484 9.51827 7.71484 8.5715V3.42864C7.71484 2.48187 8.48236 1.71436 9.42913 1.71436Z" stroke="black" stroke-width="1.5" stroke-linecap="round" stroke-linejoin="round"/>
</svg>
