<svg width="24" height="24" viewBox="0 0 24 24" fill="none" xmlns="http://www.w3.org/2000/svg">
<path d="M9.18582 17.9766V19.3828C9.18582 20.1287 9.48214 20.8441 10.0096 21.3715C10.537 21.899 11.2524 22.1953 11.9983 22.1953C12.7442 22.1953 13.4596 21.899 13.9871 21.3715C14.5145 20.8441 14.8108 20.1287 14.8108 19.3828V17.9766H9.18582ZM9.18582 17.9766L9.18582 17.2734C9.18582 16.714 8.96358 16.1775 8.568 15.7819C8.17242 15.3863 7.63589 15.1641 7.07645 15.1641L16.9202 12.3516M7.07645 11.6484L16.9202 8.83594M7.07645 8.13281L16.9202 5.32031M7.07645 5.32031L9.97051 4.49344C10.5547 4.32641 11.0686 3.97365 11.4345 3.48852C11.8004 3.0034 11.9983 2.41231 11.9983 1.80469" stroke="black" stroke-width="1.5" stroke-linecap="round" stroke-linejoin="round"/>
</svg>
