<svg width="24" height="24" viewBox="0 0 24 24" fill="none" xmlns="http://www.w3.org/2000/svg">
<path d="M2.67969 10.3592C2.67969 16.5979 8.87678 21.34 11.1652 22.8784C11.6749 23.2211 12.3273 23.2211 12.8371 22.8784C15.1255 21.34 21.3225 16.5979 21.3225 10.3592C21.3225 5.11137 17.1491 0.857178 12.0011 0.857178C6.85303 0.857178 2.67969 5.11137 2.67969 10.3592Z" stroke="black" stroke-width="1.5" stroke-linecap="round" stroke-linejoin="round"/>
<path d="M8.57255 9.42861C8.57255 11.296 10.1337 12.8572 12.0011 12.8572C13.8685 12.8572 15.4297 11.296 15.4297 9.42861C15.4297 7.56118 13.8685 6.00003 12.0011 6.00003C10.1337 6.00003 8.57255 7.56118 8.57255 9.42861Z" stroke="black" stroke-width="1.5" stroke-linecap="round" stroke-linejoin="round"/>
</svg>
