<svg width="24" height="24" viewBox="0 0 24 24" fill="none" xmlns="http://www.w3.org/2000/svg">
<path d="M2.67914 10.3592C2.67914 16.5979 8.87623 21.34 11.1646 22.8784C11.6744 23.2211 12.3267 23.2211 12.8365 22.8784C15.1249 21.34 21.322 16.5979 21.322 10.3592C21.322 5.11137 17.1486 0.857178 12.0006 0.857178C6.85248 0.857178 2.67914 5.11137 2.67914 10.3592Z" stroke="black" stroke-width="1.5" stroke-linecap="round" stroke-linejoin="round"/>
<path d="M12.3511 5.77025C12.486 6.06157 13.4352 7.95524 13.4868 8.07163C13.5385 8.18803 13.6531 8.2719 13.7797 8.28592C13.9063 8.29993 15.9705 8.61668 16.2868 8.65735C16.6032 8.69801 16.734 9.10376 16.5011 9.32163C16.2683 9.5395 14.7863 11.0283 14.694 11.1145C14.6017 11.2007 14.5576 11.333 14.5797 11.4573L15.0154 13.9788C15.0704 14.2936 14.7261 14.543 14.444 14.3931L12.1868 13.2002C12.0713 13.1435 11.931 13.1435 11.8154 13.2002L9.55827 14.3931C9.27608 14.543 8.932 14.2936 8.98684 13.9788L9.42255 11.4288C9.44464 11.3045 9.4005 11.1721 9.30827 11.0859L7.4797 9.32163C7.24303 9.09696 7.39006 8.68259 7.71541 8.65735L10.2226 8.28592C10.3491 8.2719 10.4638 8.18803 10.5154 8.07163C10.5671 7.95523 11.5162 6.07009 11.6511 5.77877C11.786 5.48746 12.2162 5.47893 12.3511 5.77025Z" stroke="black" stroke-width="1.5" stroke-linecap="round" stroke-linejoin="round"/>
</svg>
