<svg width="24" height="24" viewBox="0 0 24 24" fill="none" xmlns="http://www.w3.org/2000/svg">
<path d="M11.9995 11.8572V10.1429C13.0285 10.1429 13.9814 9.50619 14.3752 8.5555C14.7689 7.6048 14.5454 6.4808 13.8177 5.75317C13.0901 5.02554 11.9661 4.80197 11.0154 5.19575C10.0647 5.58954 9.42804 6.54244 9.42804 7.57144M12.0028 16.143C12.2395 16.143 12.4314 15.9511 12.4314 15.7145M12.0028 16.143C11.7661 16.143 11.5742 15.9511 11.5742 15.7145M12.0028 16.143V15.2859M12.4314 15.7145C12.4314 15.4778 12.2395 15.2859 12.0028 15.2859M12.4314 15.7145H11.5742M12.0028 15.2859C11.7661 15.2859 11.5742 15.4778 11.5742 15.7145M2.67804 10.3592C2.67804 16.5979 8.87513 21.34 11.1635 22.8784C11.6733 23.2211 12.3256 23.2211 12.8354 22.8784C15.1238 21.34 21.3209 16.5979 21.3209 10.3592C21.3209 5.11137 17.1475 0.857178 11.9995 0.857178C6.85138 0.857178 2.67804 5.11137 2.67804 10.3592Z" stroke="black" stroke-width="1.5" stroke-linecap="round" stroke-linejoin="round"/>
</svg>
