<svg width="24" height="24" viewBox="0 0 24 24" fill="none" xmlns="http://www.w3.org/2000/svg">
<path d="M12.9972 5.4999V6.70874C12.9972 7.5079 12.2581 8.08052 11.4972 8.08052C10.7363 8.08052 9.99719 8.65314 9.99719 9.4523C9.99719 10.1808 10.155 11.052 9.55786 11.5981C9.11175 12.0061 8.56012 11.9999 7.99719 11.9999M16.9994 10.2846C16.6353 10.0997 16.2315 10.0021 15.8212 9.9999H14.2722C13.5905 9.9999 12.9994 10.5557 12.9994 11.2454C12.9994 11.9352 13.5905 12.491 14.2722 12.491C14.5132 12.491 14.7445 12.5847 14.915 12.7516C15.1919 13.0226 15.1812 13.3674 15.1812 13.7236M2.67688 10.3592C2.67688 16.5979 8.87397 21.34 11.1624 22.8784C11.6721 23.2211 12.3245 23.2211 12.8343 22.8784C15.1226 21.34 21.3197 16.5979 21.3197 10.3592C21.3197 5.11137 17.1463 0.857178 11.9983 0.857178C6.85022 0.857178 2.67688 5.11137 2.67688 10.3592ZM11.9994 15.0002C14.7609 15.0002 16.9994 12.7616 16.9994 10.0002C16.9994 7.23875 14.7609 5.00017 11.9994 5.00017C9.238 5.00017 6.99942 7.23875 6.99942 10.0002C6.99942 12.7616 9.238 15.0002 11.9994 15.0002Z" stroke="black" stroke-width="1.5" stroke-linecap="round" stroke-linejoin="round"/>
</svg>
