<svg width="24" height="24" viewBox="0 0 24 24" fill="none" xmlns="http://www.w3.org/2000/svg">
<path d="M8.57251 14.1654C9.48238 13.3511 10.6839 12.8559 12.0011 12.8559C13.3183 12.8559 14.5198 13.3511 15.4297 14.1654M21.4297 10.381C21.4297 15.6408 13.7154 23.1429 12.0011 23.1429C10.2868 23.1429 2.57251 15.6408 2.57251 10.381C2.57251 5.12113 6.79383 0.857178 12.0011 0.857178C17.2083 0.857178 21.4297 5.12113 21.4297 10.381ZM12.0006 10.2842C13.4208 10.2842 14.5721 9.13289 14.5721 7.71273C14.5721 6.29256 13.4208 5.1413 12.0006 5.1413C10.5805 5.1413 9.4292 6.29256 9.4292 7.71273C9.4292 9.13289 10.5805 10.2842 12.0006 10.2842Z" stroke="black" stroke-width="1.5" stroke-linecap="round" stroke-linejoin="round"/>
</svg>
