<svg width="24" height="24" viewBox="0 0 24 24" fill="none" xmlns="http://www.w3.org/2000/svg">
<path d="M10.2862 23.1429H5.14336C4.1966 23.1429 3.42908 22.3754 3.42908 21.4286V2.57146C3.42908 1.62469 4.1966 0.857178 5.14336 0.857178H18.8576C19.8044 0.857178 20.5719 1.62469 20.5719 2.57146V7.71432M7.71479 12.8572H9.42908M15.8576 17.1429V15C15.8576 13.3432 17.2008 12 18.8576 12C20.5145 12 21.8576 13.3432 21.8576 15V17.1429M14.5719 22.2857V18C14.5719 17.5267 14.9557 17.1429 15.4291 17.1429H22.2862C22.7595 17.1429 23.1434 17.5267 23.1434 18V22.2857C23.1434 22.7591 22.7595 23.1429 22.2862 23.1429H15.4291C14.9557 23.1429 14.5719 22.7591 14.5719 22.2857Z" stroke="black" stroke-width="1.5" stroke-linecap="round" stroke-linejoin="round"/>
</svg>
