<svg width="24" height="24" viewBox="0 0 24 24" fill="none" xmlns="http://www.w3.org/2000/svg">
<path d="M11.9989 14.5715V18M17.9989 9.42861V6.85718C17.9989 5.26587 17.3668 3.73975 16.2415 2.61454C15.1163 1.48932 13.5902 0.857178 11.9989 0.857178C10.4076 0.857178 8.88145 1.48932 7.75625 2.61454C6.63103 3.73975 5.99888 5.26587 5.99888 6.85718V9.42861M19.7132 9.42861H4.2846C3.33783 9.42861 2.57031 10.1961 2.57031 11.1429V21.4286C2.57031 22.3754 3.33783 23.1429 4.2846 23.1429H19.7132C20.66 23.1429 21.4275 22.3754 21.4275 21.4286V11.1429C21.4275 10.1961 20.66 9.42861 19.7132 9.42861Z" stroke="black" stroke-width="1.5" stroke-linecap="round" stroke-linejoin="round"/>
</svg>
