<svg width="24" height="24" viewBox="0 0 24 24" fill="none" xmlns="http://www.w3.org/2000/svg">
<path d="M7.71539 12C7.71539 13.8936 6.18037 15.4286 4.28682 15.4286C2.39327 15.4286 0.858246 13.8936 0.858246 12C0.858246 10.1065 2.39327 8.57146 4.28682 8.57146C6.18037 8.57146 7.71539 10.1065 7.71539 12ZM7.71539 12L16.2868 12V15.4286M12.0011 12V15.4286M6.0011 4.28575V2.57146C6.0011 1.62469 6.76861 0.857178 7.71539 0.857178H19.7154C20.6622 0.857178 21.4297 1.62469 21.4297 2.57146V21.4286C21.4297 22.3754 20.6622 23.1429 19.7154 23.1429H7.71539C6.76862 23.1429 6.0011 22.3754 6.0011 21.4286V19.7143" stroke="black" stroke-width="1.5" stroke-linecap="round" stroke-linejoin="round"/>
</svg>
