<svg width="24" height="24" viewBox="0 0 24 24" fill="none" xmlns="http://www.w3.org/2000/svg">
<path d="M5.99945 12.4286C6.23615 12.4286 6.42804 12.2367 6.42804 12M5.99945 12.4286C5.76276 12.4286 5.57088 12.2367 5.57088 12M5.99945 12.4286V11.5714M6.42804 12C6.42804 11.7633 6.23615 11.5714 5.99945 11.5714M6.42804 12H5.57088M5.99945 11.5714C5.76276 11.5714 5.57088 11.7633 5.57088 12M16.2852 13.7143H18.8566M10.2852 12.4286C10.5219 12.4286 10.7138 12.2367 10.7138 12M10.2852 12.4286C10.0485 12.4286 9.8566 12.2367 9.8566 12M10.2852 12.4286V11.5714M10.7138 12C10.7138 11.7633 10.5219 11.5714 10.2852 11.5714M10.7138 12H9.8566M10.2852 11.5714C10.0485 11.5714 9.8566 11.7633 9.8566 12M21.428 6H2.57088C1.62411 6 0.856598 6.76752 0.856598 7.71429V16.2857C0.856598 17.2325 1.62411 18 2.57088 18H21.428C22.3748 18 23.1423 17.2325 23.1423 16.2857V7.71429C23.1423 6.76752 22.3748 6 21.428 6Z" stroke="black" stroke-width="1.5" stroke-linecap="round" stroke-linejoin="round"/>
</svg>
