<svg width="24" height="24" viewBox="0 0 24 24" fill="none" xmlns="http://www.w3.org/2000/svg">
<path d="M10.2846 10.2857V9.42861C10.2846 8.48183 11.0521 7.71432 11.9989 7.71432C12.9456 7.71432 13.7132 8.48183 13.7132 9.42861V10.2857M11.9989 0.857178V4.28575M0.856018 20.5715H23.1417M2.5703 20.5715V7.71432C2.5703 4.874 4.87284 2.57146 7.71316 2.57146H16.2846C19.1249 2.57146 21.4274 4.874 21.4274 7.71432V20.5715M4.28459 20.5715V21.4286C4.28459 22.3754 5.0521 23.1429 5.99888 23.1429C6.94565 23.1429 7.71316 22.3754 7.71316 21.4286V20.5715M16.2846 20.5715V21.4286C16.2846 22.3754 17.0521 23.1429 17.9989 23.1429C18.9456 23.1429 19.7132 22.3754 19.7132 21.4286V20.5715M8.5703 10.2857H15.4274C16.3742 10.2857 17.1417 11.0533 17.1417 12V15.4286C17.1417 16.3754 16.3742 17.1429 15.4274 17.1429H8.5703C7.62353 17.1429 6.85602 16.3754 6.85602 15.4286V12C6.85602 11.0533 7.62353 10.2857 8.5703 10.2857Z" stroke="black" stroke-width="1.5" stroke-linecap="round" stroke-linejoin="round"/>
</svg>
