<svg width="24" height="24" viewBox="0 0 24 24" fill="none" xmlns="http://www.w3.org/2000/svg">
<path d="M6.00224 8.25V15L4.86224 21.456C4.81876 21.6735 4.82407 21.898 4.87779 22.1132C4.93151 22.3285 5.0323 22.5291 5.1729 22.7007C5.3135 22.8723 5.49041 23.0106 5.69089 23.1055C5.89136 23.2005 6.11041 23.2499 6.33224 23.25H17.6732C17.8952 23.25 18.1143 23.2008 18.3149 23.1059C18.5155 23.0109 18.6926 22.8727 18.8333 22.7011C18.974 22.5295 19.0749 22.3288 19.1286 22.1135C19.1824 21.8982 19.1877 21.6736 19.1442 21.456L18.0022 15V8.25M18.5331 18H22.5021V6.75C22.5021 5.1587 21.87 3.63258 20.7448 2.50736C19.6195 1.38214 18.0934 0.75 16.5021 0.75M16.5021 0.75L12.1021 8.808M16.5021 0.75H7.50167M7.50167 0.75C5.91038 0.75 4.38425 1.38214 3.25903 2.50736C2.13382 3.63258 1.50167 5.1587 1.50167 6.75V18H5.47167M7.50167 0.75L13.5017 11.25V23.25M18.0017 14.25H6.00167" stroke="black" stroke-width="1.5" stroke-linecap="round" stroke-linejoin="round"/>
</svg>
