<svg width="24" height="24" viewBox="0 0 24 24" fill="none" xmlns="http://www.w3.org/2000/svg">
<path d="M7.79382 22.2965C7.5452 21.7156 7.16928 21.198 6.69382 20.7819C6.21835 20.3657 5.65549 20.0617 5.04678 19.8923C4.43808 19.7228 3.79908 19.6923 3.17699 19.8028C2.55489 19.9134 1.96558 20.1623 1.45257 20.5312M16.2048 22.2965C16.4534 21.7156 16.8293 21.198 17.3048 20.7819C17.7803 20.3657 18.3431 20.0617 18.9518 19.8923C19.5605 19.7228 20.1995 19.6923 20.8216 19.8028C21.4437 19.9134 22.033 20.1623 22.5461 20.5312M16.4195 22.5459C15.8864 21.8874 15.2128 21.3564 14.4481 20.9916C13.6834 20.6268 12.8469 20.4375 11.9996 20.4375C11.1524 20.4375 10.3159 20.6268 9.55116 20.9916C8.78646 21.3564 8.11293 21.8874 7.5798 22.5459M21.1401 8.48438H13.4057L11.9994 9.88969L10.5932 8.48344H2.85882C2.48586 8.48344 2.12817 8.33528 1.86445 8.07156C1.60073 7.80783 1.45257 7.45015 1.45257 7.07719V2.85938C1.45257 2.48641 1.60073 2.12873 1.86445 1.86501C2.12817 1.60128 2.48586 1.45313 2.85882 1.45312H21.1401C21.513 1.45312 21.8707 1.60128 22.1344 1.86501C22.3982 2.12873 22.5463 2.48641 22.5463 2.85938V7.07812C22.5463 7.45109 22.3982 7.80877 22.1344 8.07249C21.8707 8.33622 21.513 8.48438 21.1401 8.48438ZM1.45257 16.5703C1.45257 17.223 1.71184 17.8489 2.17336 18.3105C2.63488 18.772 3.26082 19.0312 3.91351 19.0312C4.56619 19.0312 5.19214 18.772 5.65365 18.3105C6.11517 17.8489 6.37444 17.223 6.37444 16.5703C6.37444 15.9176 6.11517 15.2917 5.65365 14.8302C5.19214 14.3687 4.56619 14.1094 3.91351 14.1094C3.26082 14.1094 2.63488 14.3687 2.17336 14.8302C1.71184 15.2917 1.45257 15.9176 1.45257 16.5703ZM17.6244 16.5703C17.6244 17.223 17.8837 17.8489 18.3452 18.3105C18.8068 18.772 19.4327 19.0312 20.0854 19.0312C20.7381 19.0312 21.364 18.772 21.8255 18.3105C22.287 17.8489 22.5463 17.223 22.5463 16.5703C22.5463 15.9176 22.287 15.2917 21.8255 14.8302C21.364 14.3687 20.7381 14.1094 20.0854 14.1094C19.4327 14.1094 18.8068 14.3687 18.3452 14.8302C17.8837 15.2917 17.6244 15.9176 17.6244 16.5703ZM8.83538 15.8672C8.83538 16.7063 9.16874 17.5111 9.76211 18.1045C10.3555 18.6979 11.1603 19.0312 11.9994 19.0312C12.8386 19.0312 13.6434 18.6979 14.2368 18.1045C14.8302 17.5111 15.1635 16.7063 15.1635 15.8672C15.1635 15.028 14.8302 14.2232 14.2368 13.6299C13.6434 13.0365 12.8386 12.7031 11.9994 12.7031C11.1603 12.7031 10.3555 13.0365 9.76211 13.6299C9.16874 14.2232 8.83538 15.028 8.83538 15.8672Z" stroke="black" stroke-width="1.5" stroke-linecap="round" stroke-linejoin="round"/>
</svg>
