<svg width="24" height="24" viewBox="0 0 24 24" fill="none" xmlns="http://www.w3.org/2000/svg">
<path d="M11.9989 12.0001H1.71317M8.57031 6.00007V7.71436M5.14174 6.00007V7.71436M20.5703 1.71436V8.5715M20.5703 8.5715C21.5171 8.5715 22.2846 9.33901 22.2846 10.2858V14.5715C22.2846 15.5183 21.5171 16.2858 20.5703 16.2858M20.5703 8.5715C19.6235 8.5715 18.856 9.33901 18.856 10.2858V14.5715C18.856 15.5183 19.6235 16.2858 20.5703 16.2858M20.5703 16.2858V19.7144C20.5703 21.1345 19.419 22.2858 17.9989 22.2858C16.5787 22.2858 15.4275 21.1345 15.4275 19.7144V8.0817C15.4275 6.45866 14.1117 5.14293 12.4887 5.14293H11.9989M4.65194 1.71436H9.0601C10.6831 1.71436 11.9989 3.03009 11.9989 4.65313V19.347C11.9989 20.97 10.6831 22.2858 9.0601 22.2858H4.65194C3.0289 22.2858 1.71317 20.97 1.71317 19.347V4.65313C1.71317 3.03009 3.0289 1.71436 4.65194 1.71436ZM8.57031 17.1429C8.57031 18.0897 7.8028 18.8572 6.85602 18.8572C5.90925 18.8572 5.14174 18.0897 5.14174 17.1429C5.14174 16.1962 5.90925 15.4286 6.85602 15.4286C7.8028 15.4286 8.57031 16.1962 8.57031 17.1429Z" stroke="black" stroke-width="1.5" stroke-linecap="round" stroke-linejoin="round"/>
</svg>
