<svg width="24" height="24" viewBox="0 0 24 24" fill="none" xmlns="http://www.w3.org/2000/svg">
<path d="M1.71484 22.2858H12.0006M12.0006 22.2858H20.572C21.5188 22.2858 22.2863 21.5183 22.2863 20.5715V3.42864C22.2863 2.48187 21.5188 1.71436 20.572 1.71436H5.14342C3.24987 1.71436 1.71484 3.24938 1.71484 5.14293V8.5715H10.2863C11.233 8.5715 12.0006 9.33901 12.0006 10.2858V22.2858ZM5.14341 8.5715V18.8572M18.8577 5.14293V6.85721M15.4291 5.14293V6.85721M3.42913 12.0001H6.8577C7.80447 12.0001 8.57199 12.7676 8.57199 13.7144V17.1429C8.57199 18.0897 7.80447 18.8572 6.8577 18.8572H3.42913C2.48236 18.8572 1.71484 18.0897 1.71484 17.1429V13.7144C1.71484 12.7676 2.48236 12.0001 3.42913 12.0001ZM18.8577 17.1429C18.8577 18.0897 18.0902 18.8572 17.1434 18.8572C16.1966 18.8572 15.4291 18.0897 15.4291 17.1429C15.4291 16.1962 16.1966 15.4286 17.1434 15.4286C18.0902 15.4286 18.8577 16.1962 18.8577 17.1429Z" stroke="black" stroke-width="1.5" stroke-linecap="round" stroke-linejoin="round"/>
</svg>
