<svg width="24" height="24" viewBox="0 0 24 24" fill="none" xmlns="http://www.w3.org/2000/svg">
<path d="M7.90512 16.9575C7.90512 13.2976 7.90512 8.17109 7.90512 7.58569C7.90512 7.00029 8.73547 6.84686 8.95248 7.38106C9.16949 7.91527 11.5737 13.8334 11.6854 14.1083C11.7971 14.3833 12.1997 14.3833 12.3114 14.1083C12.4231 13.8334 14.8274 7.91533 15.0444 7.38106C15.2613 6.8468 16.0917 7.00034 16.0917 7.58569C16.0917 8.17104 16.0917 16.3721 16.0917 16.9575M1.55356 11.9999C1.55356 13.3717 1.82376 14.7302 2.34875 15.9976C2.87373 17.265 3.64321 18.4166 4.61325 19.3866C5.58329 20.3567 6.73489 21.1262 8.00231 21.6511C9.26973 22.1761 10.6281 22.4463 12 22.4463C13.3718 22.4463 14.7302 22.1761 15.9977 21.6511C17.2651 21.1262 18.4167 20.3567 19.3867 19.3866C20.3568 18.4166 21.1262 17.265 21.6512 15.9976C22.1762 14.7302 22.4464 13.3717 22.4464 11.9999C22.4464 10.6281 22.1762 9.26964 21.6512 8.00222C21.1262 6.7348 20.3568 5.5832 19.3867 4.61315C18.4167 3.64311 17.2651 2.87364 15.9977 2.34865C14.7302 1.82367 13.3718 1.55347 12 1.55347C10.6281 1.55347 9.26973 1.82367 8.00231 2.34865C6.73489 2.87364 5.58329 3.64311 4.61325 4.61315C3.64321 5.5832 2.87373 6.7348 2.34875 8.00222C1.82376 9.26964 1.55356 10.6281 1.55356 11.9999Z" stroke="black" stroke-width="1.5" stroke-linecap="round" stroke-linejoin="round"/>
</svg>
