<svg width="24" height="24" viewBox="0 0 24 24" fill="none" xmlns="http://www.w3.org/2000/svg">
<path d="M16.4989 6.75002C16.8599 6.74863 17.2165 6.82868 17.5423 6.98423C17.868 7.13977 18.1545 7.36679 18.3804 7.6484C18.6062 7.93 18.7657 8.25892 18.8468 8.61067C18.9279 8.96242 18.9286 9.32795 18.8489 9.68002M16.4989 6.75002V5.25C16.4989 4.05653 16.0248 2.91193 15.1809 2.06802C14.337 1.22411 13.1924 0.75 11.9989 0.75C10.8054 0.75 9.66083 1.22411 8.81692 2.06802C7.97301 2.91193 7.4989 4.05653 7.4989 5.25V6.75L16.4989 6.75002ZM18.8489 9.68002L16.8489 18.79C16.7549 19.2087 16.5197 19.5823 16.1828 19.8481C15.846 20.114 15.428 20.2559 14.9989 20.25H13.4989M18.8489 9.68002L14.9989 10.5001M22.4988 8.25H18.7288M7.49744 6.75002C7.13646 6.74863 6.77981 6.82868 6.45406 6.98423C6.1283 7.13977 5.84183 7.36679 5.61597 7.6484C5.39012 7.93 5.23069 8.25892 5.14957 8.61067C5.06845 8.96242 5.06772 9.32795 5.14744 9.68002L7.14744 18.79C7.24149 19.2087 7.47666 19.5823 7.8135 19.8481C8.15035 20.114 8.56837 20.2559 8.99744 20.25H10.4974M1.4989 8.25H5.2689M5.14845 9.68011L8.99846 10.5001M11.9989 14.25C12.3967 14.25 12.7783 14.408 13.0596 14.6893C13.3409 14.9706 13.4989 15.3522 13.4989 15.75V21.75C13.4989 22.1478 13.3409 22.5294 13.0596 22.8107C12.7783 23.092 12.3967 23.25 11.9989 23.25C11.6011 23.25 11.2195 23.092 10.9382 22.8107C10.6569 22.5294 10.4989 22.1478 10.4989 21.75V15.75C10.4989 15.3522 10.6569 14.9706 10.9382 14.6893C11.2195 14.408 11.6011 14.25 11.9989 14.25Z" stroke="black" stroke-width="1.5" stroke-linecap="round" stroke-linejoin="round"/>
</svg>
