<svg width="24" height="24" viewBox="0 0 24 24" fill="none" xmlns="http://www.w3.org/2000/svg">
<path d="M22.2847 15.1053L22.299 2.49995C22.2962 1.99995 21.799 1.59994 21.299 1.74995L8.62847 5.30758C8.299 5.39902 8.05095 5.74995 8.049 6.09995L8.04297 19.1208M8.04297 10.4172L22.2847 6.46118M19.1229 18.3296C20.8708 18.3296 22.2878 16.9127 22.2878 15.1648C22.2878 13.4169 20.8708 12 19.1229 12C17.375 12 15.9581 13.4169 15.9581 15.1648C15.9581 16.9127 17.375 18.3296 19.1229 18.3296ZM4.87967 22.2856C6.62758 22.2856 8.04452 20.8685 8.04452 19.1207C8.04452 17.3728 6.62758 15.9559 4.87967 15.9559C3.13179 15.9559 1.71484 17.3728 1.71484 19.1207C1.71484 20.8685 3.13179 22.2856 4.87967 22.2856Z" stroke="black" stroke-width="1.5" stroke-linecap="round" stroke-linejoin="round"/>
</svg>
