<svg width="24" height="24" viewBox="0 0 24 24" fill="none" xmlns="http://www.w3.org/2000/svg">
<path d="M20.5709 2.57098H17.1423M18.8566 4.28526V0.856689M21.428 11.1424V7.71383M23.1423 9.42812H19.7137M10.2851 23.1428C5.07788 23.1428 0.856567 18.9215 0.856567 13.7143C0.856567 8.50699 5.07788 4.28568 10.2851 4.28568C10.8272 4.28568 11.3587 4.33143 11.8758 4.41928C9.89458 5.62151 8.57091 7.79905 8.57091 10.2857C8.57091 14.0728 11.641 17.1429 15.4281 17.1429C16.934 17.1429 18.3265 16.6575 19.4577 15.8345C19.4599 15.8722 19.4563 15.912 19.4462 15.9535C18.4411 20.0798 14.7208 23.1428 10.2851 23.1428Z" stroke="black" stroke-width="1.5" stroke-linecap="round" stroke-linejoin="round"/>
</svg>
