<svg width="24" height="24" viewBox="0 0 24 24" fill="none" xmlns="http://www.w3.org/2000/svg">
<path d="M10.2861 23.1445H13.7147M0.857666 0.857143L23.1434 23.1429M5.14673 5.14753C5.51396 4.39044 6.00748 3.69244 6.61378 3.08614C8.04206 1.65787 9.97922 0.855469 11.9991 0.855469C14.0192 0.855469 15.9592 1.66 17.3844 3.08614C18.8092 4.51 19.6152 6.4516 19.6152 8.47149V16.0368C19.6152 16.7942 19.9161 17.5207 20.4516 18.0562C20.9873 18.5919 21.5273 18.8928 22.2849 18.8928H18.892M14.6077 18.893H1.71481C2.47227 18.893 3.01056 18.5921 3.54796 18.0564C4.08357 17.5202 4.38447 16.7944 4.38447 16.037V8.66978" stroke="black" stroke-width="1.5" stroke-linecap="round" stroke-linejoin="round"/>
</svg>
