<svg width="24" height="24" viewBox="0 0 24 24" fill="none" xmlns="http://www.w3.org/2000/svg">
<path d="M0.855469 0.857108L23.1412 23.1428M14.2523 10.7599C14.455 11.1275 14.5703 11.5501 14.5703 11.9995C14.5703 12.4489 14.455 12.8714 14.2524 13.239M14.2523 10.7599C14.0173 10.3336 13.6647 9.98106 13.2384 9.74604C12.8708 9.54341 12.4483 9.42812 11.9989 9.42812C11.5494 9.42812 11.1269 9.54344 10.7592 9.7461C10.5459 9.86368 10.3511 10.0107 10.1802 10.1816M14.2523 10.7599L17.2644 9.10268C19.8011 7.7074 22.9909 8.55426 23.1285 11.4466C23.1922 12.9283 23.0278 14.6088 22.4213 16.0378C22.0876 16.8239 21.1315 17.0231 20.3833 16.6116L14.2524 13.239M14.2524 13.239C14.1348 13.4524 13.9878 13.6472 13.8168 13.8182M13.2396 9.74636L16.6118 3.6148C17.0234 2.86658 16.8241 1.91047 16.0381 1.57682C14.6094 0.97035 12.9289 0.805551 11.4477 0.869602C8.55545 1.00719 7.70762 4.19695 9.1029 6.73365L10.7604 9.74642M10.1754 15.3189L7.38912 20.385C6.97761 21.1332 7.17686 22.0893 7.96289 22.423C9.39161 23.0294 11.072 23.1942 12.5532 23.1302C14.1998 23.0519 15.1834 21.9844 15.4679 20.6113M8.68198 13.8253L6.73391 14.8971C4.19722 16.2923 1.00745 15.4455 0.869863 12.5532C0.787358 10.7777 1.0461 8.70958 1.99546 7.13878" stroke="black" stroke-width="1.5" stroke-linecap="round" stroke-linejoin="round"/>
</svg>
