<svg width="24" height="24" viewBox="0 0 24 24" fill="none" xmlns="http://www.w3.org/2000/svg">
<path d="M0.857178 0.856934L2.9471 2.94685M2.9471 2.94685L18.8311 18.8309M2.9471 2.94685C3.36438 2.51989 4.04447 2.30655 4.60947 2.09939C7.00137 1.22237 9.37533 0.834142 11.9994 0.85825C14.6234 0.882359 16.9893 1.22237 19.3789 2.09939C20.265 2.42459 21.4357 2.76574 21.4279 3.92056V11.4617C21.4279 14.0292 20.5554 16.484 19.0458 18.5455C18.9748 18.6424 18.9037 18.7373 18.8311 18.8309M18.8311 18.8309L23.1429 23.1426M2.56142 7.6909V11.4615C2.56144 14.0313 3.43549 16.4897 4.94842 18.5518C6.52233 20.6969 8.46951 22.0115 10.9209 22.9373C11.6066 23.1944 12.3952 23.1944 13.0809 22.9373C14.2244 22.5021 15.2569 21.9889 16.1963 21.3382" stroke="black" stroke-width="1.5" stroke-linecap="round" stroke-linejoin="round"/>
</svg>
