<svg width="24" height="24" viewBox="0 0 24 24" fill="none" xmlns="http://www.w3.org/2000/svg">
<path d="M1.71597 1.71418L22.2874 22.2856M17.4928 17.4917C17.9891 17.0762 18.6178 16.846 19.2702 16.846C20.0046 16.846 20.709 17.1378 21.2283 17.6571C21.7476 18.1764 22.0394 18.8808 22.0394 19.6152C22.0394 20.2677 21.8092 20.8963 21.3937 21.3926M20.6542 17.2178V11.3101C20.6542 10.2085 20.2166 9.15192 19.4376 8.37292C18.6586 7.59392 17.6021 7.15629 16.5004 7.15629C15.3987 7.15629 14.3422 7.59392 13.5632 8.37292C12.7842 9.15192 12.3466 10.2085 12.3466 11.3101V12.3459M5.42579 5.42268V3.69191C5.42579 3.14108 5.64461 2.61281 6.03411 2.22331C6.42361 1.83381 6.95188 1.61499 7.50272 1.61499C8.05355 1.61499 8.58183 1.83381 8.97132 2.22331C9.36082 2.61281 9.57964 3.14108 9.57964 3.69191V9.57652M5.42579 19.6152V10.1701M12.3466 17.0934V20.3076C12.3466 20.4912 12.4195 20.6673 12.5493 20.7971C12.6792 20.927 12.8552 20.9999 13.0389 20.9999H16.2531M8.88682 22.3842H1.96374L3.34836 19.615H7.5022L8.88682 22.3842Z" stroke="black" stroke-width="1.5" stroke-linecap="round" stroke-linejoin="round"/>
</svg>
