<svg width="24" height="24" viewBox="0 0 24 24" fill="none" xmlns="http://www.w3.org/2000/svg">
<path d="M15.605 8.57146C16.4238 9.45055 16.9247 10.6296 16.9247 11.9257C16.9247 14.6444 14.7207 16.8484 12.0019 16.8484C9.2832 16.8484 7.07923 14.6444 7.07923 11.9257C7.07923 10.6296 7.58009 9.45055 8.39882 8.57146M12.0011 6.56253V11.025M0.858246 12C0.858246 14.9553 2.03222 17.7895 4.12191 19.8792C6.2116 21.9689 9.04583 23.1429 12.0011 23.1429C14.9564 23.1429 17.7906 21.9689 19.8803 19.8792C21.97 17.7895 23.144 14.9553 23.144 12C23.144 9.04477 21.97 6.21054 19.8803 4.12084C17.7906 2.03115 14.9564 0.857178 12.0011 0.857178C9.04583 0.857178 6.2116 2.03115 4.12191 4.12084C2.03222 6.21054 0.858246 9.04477 0.858246 12Z" stroke="black" stroke-width="1.5" stroke-linecap="round" stroke-linejoin="round"/>
</svg>
