<svg width="24" height="24" viewBox="0 0 24 24" fill="none" xmlns="http://www.w3.org/2000/svg">
<path d="M23.1431 17.25C23.5571 17.2503 23.8931 17.586 23.8931 18C23.8931 18.4141 23.5571 18.7498 23.1431 18.75H0.856934C0.44272 18.75 0.106934 18.4142 0.106934 18C0.106934 17.5858 0.44272 17.25 0.856934 17.25H23.1431Z" fill="black"/>
<path d="M10.6851 5.07132C11.4915 4.57525 12.5086 4.57512 13.3149 5.07132L23.5356 11.3614C23.8883 11.5784 23.9985 12.0399 23.7817 12.3926C23.5647 12.7454 23.1023 12.8558 22.7495 12.6387L12.5288 6.34866C12.2046 6.1492 11.7955 6.14932 11.4712 6.34866L1.25049 12.6387C0.89772 12.8558 0.43535 12.7454 0.218262 12.3926C0.00147517 12.04 0.111032 11.5785 0.463379 11.3614L10.6851 5.07132Z" fill="black"/>
</svg>
