<svg width="24" height="24" viewBox="0 0 24 24" fill="none" xmlns="http://www.w3.org/2000/svg">
<path d="M13.7143 23.1429V14.5715M13.7143 14.5715V9.42861M13.7143 14.5715C15.6078 14.5715 17.1429 13.0364 17.1429 11.1429V9.42861M13.7143 14.5715C11.8207 14.5715 10.2857 13.0364 10.2857 11.1429V9.42861M19.7143 18.8572V9.42861C23.1429 9.42861 23.1429 18.8572 23.1429 18.8572H19.7143ZM19.7143 18.8572V23.1429M4.71428 7.28575C5.89775 7.28575 6.85714 6.32636 6.85714 5.14289C6.85714 3.95942 5.89775 3.00003 4.71428 3.00003M4.71428 7.28575C3.53082 7.28575 2.57143 6.32636 2.57143 5.14289C2.57143 3.95942 3.53082 3.00003 4.71428 3.00003M4.71428 7.28575L4.71428 9.42861M4.71428 3.00003L4.71428 0.857178M8.42496 3.00003L6.5692 4.07146M8.42496 7.28575L6.5692 6.21432M1.00446 7.28575L2.86023 6.21432M1.00446 3.00003L2.86023 4.07146" stroke="black" stroke-width="1.5" stroke-linecap="round" stroke-linejoin="round"/>
</svg>
