<svg width="24" height="24" viewBox="0 0 24 24" fill="none" xmlns="http://www.w3.org/2000/svg">
<path d="M19.284 7.28575C20.4675 7.28575 21.4269 6.32636 21.4269 5.14289C21.4269 3.95942 20.4675 3.00003 19.284 3.00003M19.284 7.28575C18.1006 7.28575 17.1412 6.32636 17.1412 5.14289C17.1412 3.95942 18.1006 3.00003 19.284 3.00003M19.284 7.28575V9.42861M19.284 3.00003V0.857178M22.9947 3.00003L21.139 4.07146M22.9947 7.28575L21.139 6.21432M15.5742 7.28575L17.43 6.21432M15.5742 3.00003L17.43 4.07146M4.28404 23.1429V14.5715M4.28404 14.5715V9.42861M4.28404 14.5715C6.17759 14.5715 7.71261 13.0364 7.71261 11.1429V9.42861M4.28404 14.5715C2.39049 14.5715 0.855469 13.0364 0.855469 11.1429V9.42861M11.1412 18.8572V9.42861C14.5698 9.42861 14.5698 18.8572 14.5698 18.8572H11.1412ZM11.1412 18.8572V23.1429" stroke="black" stroke-width="1.5" stroke-linecap="round" stroke-linejoin="round"/>
</svg>
