<svg width="24" height="24" viewBox="0 0 24 24" fill="none" xmlns="http://www.w3.org/2000/svg">
<path d="M14.5731 15.4286V17.1429M19.716 15.4286V17.1429M21.4302 21.4286V23.1429M17.1445 21.4286V23.1429M12.8588 21.4286V23.1429M17.1445 6.85718C14.7776 6.85718 12.8588 8.77596 12.8588 11.1429H21.4302C21.4302 8.77596 19.5115 6.85718 17.1445 6.85718ZM17.1445 6.85718C17.1445 4.01686 19.4471 1.71432 22.2874 1.71432M4.71596 7.28575C5.89943 7.28575 6.85882 6.32636 6.85882 5.14289C6.85882 3.95942 5.89943 3.00003 4.71596 3.00003M4.71596 7.28575C3.53249 7.28575 2.5731 6.32636 2.5731 5.14289C2.5731 3.95942 3.53249 3.00003 4.71596 3.00003M4.71596 7.28575L4.71596 9.42861M4.71596 3.00003L4.71596 0.857178M8.42664 3.00003L6.57087 4.07146M8.42664 7.28575L6.57087 6.21432M1.00614 7.28575L2.86191 6.21432M1.00614 3.00003L2.86191 4.07146" stroke="black" stroke-width="1.5" stroke-linecap="round" stroke-linejoin="round"/>
</svg>
