<svg width="24" height="24" viewBox="0 0 24 24" fill="none" xmlns="http://www.w3.org/2000/svg">
<path d="M18 6.0001C17.7633 6.0001 17.5714 5.80822 17.5714 5.57153M18 6.0001C18.2367 6.0001 18.4286 5.80822 18.4286 5.57153M18 6.0001V5.14296M17.5714 5.57153C17.5714 5.33484 17.7633 5.14296 18 5.14296M17.5714 5.57153H18.4286M18 5.14296C18.2367 5.14296 18.4286 5.33484 18.4286 5.57153M13.7137 6.00007C13.477 6.00007 13.2852 5.80819 13.2852 5.5715M13.7137 6.00007C13.9504 6.00007 14.1423 5.80822 14.1423 5.57153M13.7137 6.00007V5.14293M13.2852 5.5715C13.2852 5.33481 13.477 5.14293 13.7137 5.14293M13.2852 5.5715L14.1423 5.57153M13.7137 5.14293C13.9504 5.14293 14.1423 5.33484 14.1423 5.57153M6 6.0001C5.76331 6.0001 5.57143 5.80822 5.57143 5.57153M6 6.0001C6.23669 6.0001 6.42857 5.80822 6.42857 5.57153M6 6.0001V5.14296M5.57143 5.57153C5.57143 5.33484 5.76331 5.14296 6 5.14296M5.57143 5.57153H6.42857M6 5.14296C6.23669 5.14296 6.42857 5.33484 6.42857 5.57153M9.42802 13.2858H14.5709M1.71373 1.71436H22.2852V22.2858H1.71373V1.71436ZM5.57087 9.85721H18.428V18.4286H5.57087V9.85721Z" stroke="black" stroke-width="1.5" stroke-linecap="round" stroke-linejoin="round"/>
</svg>
