<svg width="24" height="24" viewBox="0 0 24 24" fill="none" xmlns="http://www.w3.org/2000/svg">
<path d="M10.5926 12.7032H12.702C13.2615 12.7032 13.798 12.4809 14.1936 12.0853C14.5892 11.6898 14.8114 11.1532 14.8114 10.5938C14.8114 10.0343 14.5892 9.49782 14.1936 9.10223C13.798 8.70665 13.2615 8.48441 12.702 8.48441H10.5926V12.7032ZM10.5926 12.7032V16.9219M0.856033 12C0.856033 13.4633 1.14425 14.9123 1.70423 16.2642C2.26421 17.6161 3.08499 18.8445 4.1197 19.8792C5.15441 20.9139 6.38279 21.7347 7.7347 22.2947C9.08662 22.8547 10.5356 23.1429 11.9989 23.1429C13.4622 23.1429 14.9112 22.8547 16.2631 22.2947C17.615 21.7347 18.8434 20.9139 19.8781 19.8792C20.9128 18.8445 21.7336 17.6161 22.2935 16.2642C22.8535 14.9123 23.1417 13.4633 23.1417 12C23.1417 10.5367 22.8535 9.08776 22.2935 7.73585C21.7336 6.38393 20.9128 5.15556 19.8781 4.12085C18.8434 3.08614 17.615 2.26536 16.2631 1.70538C14.9112 1.1454 13.4622 0.857178 11.9989 0.857178C10.5356 0.857178 9.08662 1.1454 7.7347 1.70538C6.38279 2.26536 5.15441 3.08614 4.1197 4.12085C3.08499 5.15556 2.26421 6.38393 1.70423 7.73585C1.14425 9.08776 0.856033 10.5367 0.856033 12Z" stroke="black" stroke-width="1.5" stroke-linecap="round" stroke-linejoin="round"/>
</svg>
