<svg width="24" height="24" viewBox="0 0 24 24" fill="none" xmlns="http://www.w3.org/2000/svg">
<path d="M12.8046 10.8046L10.0792 7.17176C10.0401 7.11953 10.0162 7.05742 10.0103 6.99239C10.0045 6.92737 10.0168 6.862 10.046 6.8036C10.0752 6.7452 10.1201 6.69609 10.1757 6.66177C10.2312 6.62744 10.2952 6.60926 10.3605 6.60926H11.0927C11.157 6.60872 11.2199 6.59048 11.2746 6.55656C11.3293 6.52264 11.3735 6.47433 11.4026 6.41693C11.4316 6.35952 11.4443 6.29524 11.4393 6.23111C11.4342 6.16697 11.4116 6.10547 11.3739 6.05332L8.54174 2.0877C8.50921 2.04222 8.46629 2.00515 8.41656 1.97958C8.36683 1.95401 8.31172 1.94067 8.2558 1.94067C8.19988 1.94067 8.14477 1.95401 8.09504 1.97958C8.04531 2.00515 8.0024 2.04222 7.96986 2.0877L5.13768 6.05332C5.1 6.10547 5.07741 6.16697 5.07235 6.23111C5.0673 6.29524 5.07999 6.35952 5.10903 6.41693C5.13807 6.47433 5.18234 6.52264 5.237 6.55656C5.29166 6.59048 5.3546 6.60872 5.41893 6.60926H6.14174C6.20703 6.60926 6.27103 6.62744 6.32657 6.66177C6.3821 6.69609 6.42699 6.7452 6.45619 6.8036C6.48538 6.862 6.49774 6.92737 6.49188 6.99239C6.48602 7.05742 6.46216 7.11953 6.42299 7.17176L3.04799 11.6718C3.00882 11.724 2.98496 11.7861 2.9791 11.8511C2.97323 11.9162 2.98559 11.9815 3.01479 12.0399C3.04399 12.0983 3.08887 12.1474 3.14441 12.1818C3.19995 12.2161 3.26395 12.2343 3.32924 12.2343H4.73549C4.80078 12.2343 4.86478 12.2524 4.92032 12.2868C4.97585 12.3211 5.02074 12.3702 5.04994 12.4286C5.07913 12.487 5.09149 12.5524 5.08563 12.6174C5.07977 12.6824 5.05591 12.7445 5.01674 12.7968L1.64174 17.2968C1.60257 17.349 1.57871 17.4111 1.57285 17.4761C1.56698 17.5412 1.57934 17.6065 1.60854 17.6649C1.63774 17.7233 1.68262 17.7724 1.73816 17.8068C1.7937 17.8411 1.8577 17.8593 1.92299 17.8593H8.25111V22.0781M12.4699 19.2656V15.0468C12.4699 14.6739 12.618 14.3162 12.8817 14.0525C13.1455 13.7887 13.5032 13.6406 13.8761 13.6406H19.5011C19.8741 13.6406 20.2318 13.7887 20.4955 14.0525C20.7592 14.3162 20.9074 14.6739 20.9074 15.0468V19.2656M11.0636 19.2656H22.3136M13.8761 19.2656V22.0781M19.5011 19.2656V22.0781" stroke="black" stroke-width="1.5" stroke-linecap="round" stroke-linejoin="round"/>
</svg>
