<svg width="24" height="24" viewBox="0 0 24 24" fill="none" xmlns="http://www.w3.org/2000/svg">
<path d="M6.66684 14.5742L15.9939 11.4652M3.42242 22.0227L18.425 17.0219M13.8458 6.53813L20.7585 22.3489H3.24496L10.1612 6.53031M9.21483 4.43737C9.21483 4.80327 9.2869 5.16558 9.42692 5.50362C9.56694 5.84167 9.77218 6.14882 10.0309 6.40755C10.2896 6.66628 10.5968 6.87151 10.9348 7.01153C11.2729 7.15155 11.6352 7.22362 12.0011 7.22362C12.367 7.22362 12.7293 7.15155 13.0673 7.01153C13.4054 6.87151 13.7125 6.66628 13.9713 6.40755C14.23 6.14882 14.4352 5.84167 14.5752 5.50362C14.7153 5.16558 14.7873 4.80327 14.7873 4.43737C14.7873 4.07148 14.7153 3.70916 14.5752 3.37112C14.4352 3.03308 14.23 2.72592 13.9713 2.4672C13.7125 2.20847 13.4054 2.00324 13.0673 1.86321C12.7293 1.72319 12.367 1.65112 12.0011 1.65112C11.6352 1.65112 11.2729 1.72319 10.9348 1.86321C10.5968 2.00324 10.2896 2.20847 10.0309 2.4672C9.77218 2.72592 9.56694 3.03308 9.42692 3.37112C9.2869 3.70916 9.21483 4.07148 9.21483 4.43737Z" stroke="black" stroke-width="1.5" stroke-linecap="round" stroke-linejoin="round"/>
</svg>
