<svg width="24" height="24" viewBox="0 0 24 24" fill="none" xmlns="http://www.w3.org/2000/svg">
<path d="M4.68249 20.3998C5.44747 19.1441 6.52262 18.1063 7.80456 17.3863C9.0865 16.6661 10.5321 16.2878 12.0025 16.2878C13.4728 16.2878 14.9185 16.6661 16.2004 17.3863C17.4824 18.1063 18.5574 19.1441 19.3225 20.3998M12.0017 13.7143C14.3686 13.7143 16.2874 11.7955 16.2874 9.42861C16.2874 7.06167 14.3686 5.14289 12.0017 5.14289C9.63475 5.14289 7.71597 7.06167 7.71597 9.42861C7.71597 11.7955 9.63475 13.7143 12.0017 13.7143ZM12.0017 23.1429C18.1558 23.1429 23.1445 18.1541 23.1445 12C23.1445 5.84601 18.1558 0.857178 12.0017 0.857178C5.84765 0.857178 0.858826 5.84601 0.858826 12C0.858826 18.1541 5.84765 23.1429 12.0017 23.1429Z" stroke="black" stroke-width="1.5" stroke-linecap="round" stroke-linejoin="round"/>
</svg>
