<svg width="24" height="24" viewBox="0 0 24 24" fill="none" xmlns="http://www.w3.org/2000/svg">
<path d="M8.81657 12.3979C8.59673 12.3979 8.41854 12.2197 8.41854 11.9999M8.81657 12.3979C9.0364 12.3979 9.21501 12.2197 9.21501 11.9999M8.81657 12.3979V11.6019M8.41854 11.9999C8.41854 11.7801 8.59673 11.6019 8.81657 11.6019M8.41854 11.9999H9.21501M8.81657 11.6019C9.0364 11.6019 9.21501 11.7801 9.21501 11.9999M15.1849 12.3979C15.4047 12.3979 15.5833 12.2197 15.5833 11.9999M15.1849 12.3979V11.6019M15.1849 12.3979C14.9715 12.3979 14.7973 12.23 14.7873 12.0192M15.1849 11.6019C14.965 11.6019 14.7868 11.7801 14.7868 11.9999C14.7868 12.0064 14.787 12.0128 14.7873 12.0192M15.1849 11.6019C15.4047 11.6019 15.5833 11.7801 15.5833 11.9999M15.5833 11.9999L14.7873 12.0192M8.0201 21.0899C8.75761 21.3884 9.56376 21.5529 10.4083 21.5529H13.5926C14.4372 21.5529 15.2433 21.3884 15.9808 21.0899M4.03907 12.7959V2.44702L10.6512 6.51706M19.9612 12.7959V2.44702L13.3705 6.51706M7.25336 8.01935C8.41949 7.04218 10.1141 6.42721 12.0003 6.42721C13.8865 6.42721 15.5811 7.04218 16.7472 8.01935M2.44867 15.9801H7.2251M7.2259 18.3686L3.24554 20.7568M16.779 15.9801H21.5555M16.779 18.3686L20.7594 20.7568M13.194 15.9801H10.8058L11.9999 16.7762L13.194 15.9801Z" stroke="black" stroke-width="1.5" stroke-linecap="round" stroke-linejoin="round"/>
</svg>
