<svg width="24" height="24" viewBox="0 0 24 24" fill="none" xmlns="http://www.w3.org/2000/svg">
<path d="M22.5913 15.9001C19.4913 6.70014 18.8913 6.20013 16.9913 6.20013C16.9913 9.58529 15.5859 9.45286 12.4913 11.0001C12.0913 11.2001 11.7913 11.7001 11.7913 12.2001V12.7001C11.7913 14.1001 12.9913 15.3001 14.3913 15.3001H15.6913V22.6001M15.692 18.5L22.192 14.7M4.99109 7.40004V14.9001C4.99109 16.5001 5.69109 18.0001 6.99109 18.9001C8.29109 19.8001 9.89108 20.1001 11.391 19.7001C12.891 19.3001 14.2067 18.9282 15.6941 18.484M4.99109 7.40004C4.09119 6.50014 2.29045 4.69992 1.69045 4.09992C1.09045 3.49992 1.49045 2.3999 2.39045 2.3999C3.29045 2.3999 6.69045 2.3999 7.59045 2.3999C8.49045 2.3999 8.89045 3.49992 8.29045 4.09992C7.69045 4.69992 5.99841 6.39272 4.99109 7.40004Z" stroke="black" stroke-width="1.5" stroke-miterlimit="10" stroke-linecap="round" stroke-linejoin="round"/>
</svg>
