<svg width="24" height="24" viewBox="0 0 24 24" fill="none" xmlns="http://www.w3.org/2000/svg">
<path d="M5.3142 13.0346C6.70435 14.4247 10.5137 19.7197 14.9705 14.5202C10.5137 9.32062 6.70435 14.6156 5.3142 16.0057M1.49054 8.28599H22.5056M4.42412 3.8291C2.78185 5.35193 1.63659 7.33431 1.1377 9.51769C0.638806 11.7011 0.809441 13.9841 1.62735 16.0691C2.44525 18.1541 3.87247 19.9442 5.72286 21.206C7.57325 22.4677 9.76093 23.1427 12.0006 23.1427C14.2402 23.1427 16.4279 22.4677 18.2783 21.206C20.1287 19.9442 21.5559 18.1541 22.3738 16.0691C23.1917 13.9841 23.3624 11.7011 22.8635 9.51769C22.3646 7.33431 21.2193 5.35193 19.577 3.8291H4.42412Z" stroke="black" stroke-width="1.5" stroke-linecap="round" stroke-linejoin="round"/>
</svg>
