<svg width="24" height="24" viewBox="0 0 24 24" fill="none" xmlns="http://www.w3.org/2000/svg">
<path d="M19.6343 9.00045C20.6315 9.2148 21.5238 9.76604 22.1613 10.5615C22.7991 11.357 23.1429 12.3481 23.1354 13.3683L23.1445 14.2443C23.1397 14.6372 22.9814 15.0128 22.7034 15.2908C22.4253 15.5688 22.0497 15.7271 21.657 15.7319L17.9164 15.715C17.5259 15.712 17.1524 15.5556 16.8765 15.2796C16.6005 15.0037 16.4441 14.6302 16.4411 14.2397C16.4369 13.8468 16.2792 13.4715 16.0016 13.1939C15.724 12.9163 15.3486 12.7586 14.9558 12.7544L9.04971 12.759C8.85412 12.7577 8.66017 12.7953 8.47912 12.8696C8.29808 12.944 8.13358 13.0535 7.99516 13.1919C7.85675 13.3303 7.74719 13.4949 7.67286 13.6759C7.59853 13.8569 7.56092 14.0509 7.56219 14.2465C7.5585 14.637 7.40156 15.0107 7.12518 15.2871C6.84879 15.5635 6.47509 15.7204 6.08453 15.7241L2.34399 15.727C1.95116 15.7229 1.5758 15.5651 1.29821 15.2876C1.02064 15.01 0.862901 14.6346 0.858765 14.2418L0.869282 13.3657C0.863261 12.3455 1.20869 11.3539 1.8475 10.5574C2.48629 9.76099 3.3795 9.20837 4.37692 8.99249C9.41831 8.02327 14.597 8.02598 19.6343 9.00045Z" stroke="black" stroke-width="1.5" stroke-linecap="round" stroke-linejoin="round"/>
</svg>
