<svg width="24" height="24" viewBox="0 0 24 24" fill="none" xmlns="http://www.w3.org/2000/svg">
<path d="M5.57812 19.7344H4.26562C3.5197 19.7344 2.80433 19.438 2.27689 18.9106C1.74944 18.3832 1.45312 17.6678 1.45312 16.9219V7.07812C1.45312 6.3322 1.74944 5.61683 2.27689 5.08939C2.80433 4.56194 3.5197 4.26562 4.26562 4.26562H5.57812M11.8594 19.7344H19.7344C20.4803 19.7344 21.1957 19.438 21.7231 18.9106C22.2505 18.3832 22.5469 17.6678 22.5469 16.9219V7.07812C22.5469 6.3322 22.2505 5.61683 21.7231 5.08939C21.1957 4.56194 20.4803 4.26562 19.7344 4.26562H11.8594M15.2812 7.54688H19.5M19.1484 15.5972C19.3851 15.5972 19.577 15.4054 19.577 15.1687M19.1484 15.5972C18.9118 15.5972 18.7199 15.4054 18.7199 15.1687M19.1484 15.5972V14.7401M19.1484 14.7401C19.3851 14.7401 19.577 14.932 19.577 15.1687M19.1484 14.7401C18.9118 14.7401 18.7199 14.932 18.7199 15.1687M19.577 15.1687H18.7199M19.1484 12.077C19.3851 12.077 19.577 11.8851 19.577 11.6484M19.1484 12.077C18.9118 12.077 18.7199 11.8851 18.7199 11.6484M19.1484 12.077V11.2199M19.1484 11.2199C19.3851 11.2199 19.577 11.4118 19.577 11.6484M19.1484 11.2199C18.9118 11.2199 18.7199 11.4118 18.7199 11.6484M19.577 11.6484H18.7199M15.6228 15.5972C15.8595 15.5972 16.0513 15.4056 16.0513 15.1689M15.6228 15.5972C15.3861 15.5972 15.1942 15.4054 15.1942 15.1687M15.6228 15.5972V14.7401M15.6228 14.7401C15.8595 14.7401 16.0513 14.9322 16.0513 15.1689M15.6228 14.7401C15.3861 14.7401 15.1942 14.932 15.1942 15.1687M16.0513 15.1689L15.1942 15.1687M15.6228 12.077C15.8595 12.077 16.0513 11.8851 16.0513 11.6484M15.6228 12.077C15.3861 12.077 15.1942 11.8851 15.1942 11.6484M15.6228 12.077V11.2199M16.0513 11.6484C16.0513 11.4118 15.8595 11.2199 15.6228 11.2199M16.0513 11.6484H15.1942M15.6228 11.2199C15.3861 11.2199 15.1942 11.4118 15.1942 11.6484M9.42188 2.85938H8.01562C6.46233 2.85938 5.20312 4.11858 5.20312 5.67188V18.3281C5.20312 19.8815 6.46233 21.1406 8.01562 21.1406H9.42188C10.9752 21.1406 12.2344 19.8815 12.2344 18.3281V5.67188C12.2344 4.11858 10.9752 2.85938 9.42188 2.85938Z" stroke="black" stroke-width="1.5" stroke-linecap="round" stroke-linejoin="round"/>
</svg>
