<svg width="24" height="24" viewBox="0 0 24 24" fill="none" xmlns="http://www.w3.org/2000/svg">
<path d="M8.99569 22.2701C7.94219 22.9507 6.6868 23.2475 5.4406 23.1101C4.19442 22.9728 3.03342 22.41 2.15286 21.5162L1.38303 20.7623C1.04554 20.4167 0.856567 19.9523 0.856567 19.4688C0.856567 18.9852 1.04554 18.521 1.38303 18.1752L4.65049 14.937C4.99281 14.6 5.45356 14.4112 5.93353 14.4112C6.41348 14.4112 6.87424 14.6 7.21655 14.937C7.56176 15.275 8.02537 15.4642 8.50814 15.4642C8.99092 15.4642 9.45452 15.275 9.79972 14.937L14.9318 9.79696C15.1031 9.62798 15.239 9.4266 15.3318 9.20453C15.4246 8.98245 15.4724 8.74413 15.4724 8.50339C15.4724 8.26265 15.4246 8.02432 15.3318 7.80223C15.239 7.58016 15.1031 7.37878 14.9318 7.20981C14.5954 6.86697 14.4069 6.4055 14.4069 5.92481C14.4069 5.44411 14.5954 4.98264 14.9318 4.6398L18.1822 1.38445C18.5274 1.04644 18.991 0.857178 19.4737 0.857178C19.9566 0.857178 20.4202 1.04644 20.7654 1.38445L21.5182 2.15546C22.4105 3.03739 22.9724 4.20015 23.1095 5.44827C23.2467 6.69638 22.9505 7.9537 22.2707 9.00881C18.7295 14.2358 14.2237 18.7368 8.99569 22.2701Z" stroke="black" stroke-width="1.5" stroke-linecap="round" stroke-linejoin="round"/>
</svg>
