<svg width="24" height="24" viewBox="0 0 24 24" fill="none" xmlns="http://www.w3.org/2000/svg">
<path d="M6.85827 6.85721L12.0011 1.71436L17.144 6.85721M17.4184 22.2858L7.98984 12.8572L1.71876 19.1282M20.5726 22.2858H3.42969C2.48293 22.2858 1.71541 21.5183 1.71541 20.5715V8.5715C1.71541 7.62472 2.48293 6.85721 3.42969 6.85721H20.5726C21.5194 6.85721 22.2868 7.62472 22.2868 8.5715V20.5715C22.2868 21.5183 21.5194 22.2858 20.5726 22.2858ZM16.2868 14.5715C15.1034 14.5715 14.144 13.6121 14.144 12.4286C14.144 11.2452 15.1034 10.2858 16.2868 10.2858C17.4704 10.2858 18.4297 11.2452 18.4297 12.4286C18.4297 13.6121 17.4704 14.5715 16.2868 14.5715Z" stroke="black" stroke-width="1.5" stroke-linecap="round" stroke-linejoin="round"/>
</svg>
