<svg width="24" height="24" viewBox="0 0 24 24" fill="none" xmlns="http://www.w3.org/2000/svg">
<path d="M8.57031 6.85718C5.60108 4.00003 11.5395 3.71433 8.57031 0.857178M15.4274 6.85718C12.4582 4.00003 18.3968 3.71433 15.4274 0.857178M8.99888 15.4286L9.85603 13.7143M14.9989 15.4286L14.1417 13.7143M12.0005 10.2857C7.49375 10.2857 3.61189 12.9613 1.85665 16.8106C1.39776 17.8169 2.21615 18.8572 3.32222 18.8572H20.6787C21.7849 18.8572 22.6033 17.8169 22.1444 16.8106C20.3892 12.9613 16.5073 10.2857 12.0005 10.2857ZM4.7107 22.0653L3.42746 18.8572H20.5703L19.287 22.0653C19.0268 22.716 18.3964 23.1429 17.6955 23.1429H6.30236C5.60139 23.1429 4.97103 22.716 4.7107 22.0653Z" stroke="black" stroke-width="1.5" stroke-linecap="round" stroke-linejoin="round"/>
</svg>
