<svg width="24" height="24" viewBox="0 0 24 24" fill="none" xmlns="http://www.w3.org/2000/svg">
<path d="M4.77176 7.58538L16.4136 19.2273M5.97694 5.26967C4.94709 6.70753 4.35635 8.41322 4.27631 10.18C4.19627 11.9468 4.63037 13.699 5.52601 15.224L2.12851 18.6215C1.71002 19.0553 1.47855 19.636 1.48391 20.2387C1.48927 20.8414 1.73102 21.4179 2.15715 21.8442C2.58327 22.2704 3.15971 22.5123 3.76241 22.5179C4.3651 22.5234 4.94588 22.2921 5.37976 21.8737L8.77726 18.4762C9.92628 19.1512 11.209 19.5667 12.5355 19.6938C13.862 19.8209 15.2003 19.6565 16.4566 19.212C17.7128 18.7675 18.8567 18.0537 19.8082 17.1206C20.7596 16.1875 21.4955 15.0578 21.9644 13.8104C22.4332 12.563 22.6237 11.2282 22.5225 9.89944C22.4212 8.57069 22.0307 7.28015 21.3783 6.1182C20.7258 4.95625 19.8272 3.951 18.7454 3.17284C17.6637 2.39469 16.4248 1.86245 15.1157 1.61342M8.48493 3.5625C8.48493 4.12194 8.70717 4.65847 9.10276 5.05405C9.49834 5.44964 10.0349 5.67187 10.5943 5.67188C11.1537 5.67187 11.6903 5.44964 12.0859 5.05405C12.4814 4.65847 12.7037 4.12194 12.7037 3.5625C12.7037 3.00306 12.4814 2.46653 12.0859 2.07095C11.6903 1.67536 11.1537 1.45313 10.5943 1.45312C10.0349 1.45313 9.49834 1.67536 9.10276 2.07095C8.70717 2.46653 8.48493 3.00306 8.48493 3.5625Z" stroke="black" stroke-width="1.5" stroke-linecap="round" stroke-linejoin="round"/>
</svg>
