<svg width="24" height="24" viewBox="0 0 24 24" fill="none" xmlns="http://www.w3.org/2000/svg">
<path d="M5.62332 5.19947C9.87515 7.75055 12.4262 10.3263 12.4262 15.4285C12.5767 13.3346 14.1458 11.117 15.6982 9.79747M20.7245 10.421C22.141 9.18797 22.9985 5.08066 22.6292 4.60446C22.26 4.12826 17.9863 3.92418 16.5237 5.08067C15.0216 6.2684 14.6339 8.45324 15.8178 9.95831C17.0017 11.4634 19.2801 11.6782 20.7245 10.421ZM2.93344 8.60098C3.76614 9.31616 4.83825 9.69044 5.93512 9.64887C7.03201 9.6073 8.0727 9.15294 8.84887 8.37677C9.62503 7.60061 10.0794 6.5599 10.121 5.46303C10.1625 4.36614 9.78827 3.29404 9.07309 2.46135C7.37234 0.777621 1.7405 0.895348 1.36877 0.947693C0.997043 1.00004 1.23271 6.90025 2.93344 8.60098ZM18.1701 21.6173C18.2654 20.7561 18.6941 16.8879 18.7504 16.3802C18.8066 15.8726 18.4092 15.4287 17.8984 15.4287C17.3875 15.4287 8.32391 15.4287 7.81316 15.4287C7.30241 15.4287 6.90498 15.8726 6.96123 16.3802C7.01747 16.8879 7.44622 20.7561 7.54151 21.6173C7.63681 22.4784 8.38939 23.1482 9.2558 23.143C10.1222 23.1377 15.5894 23.1377 16.4558 23.143C17.3222 23.1482 18.0748 22.4784 18.1701 21.6173Z" stroke="black" stroke-width="1.5" stroke-linecap="round" stroke-linejoin="round"/>
</svg>
