<svg width="24" height="24" viewBox="0 0 24 24" fill="none" xmlns="http://www.w3.org/2000/svg">
<path d="M12.4297 14.5715C12.4297 15.5183 11.6622 16.2858 10.7154 16.2858C9.76864 16.2858 9.00112 15.5183 9.00112 14.5715C9.00112 13.6248 9.76864 12.8572 10.7154 12.8572C11.6622 12.8572 12.4297 13.6248 12.4297 14.5715ZM12.4297 14.5715L12.4297 7.7144C13.3565 7.68379 14.2633 7.98807 14.984 8.57154M0.858261 5.14296V18.8573M23.144 5.14296V18.8573M17.144 2.57153H6.85826C5.9115 2.57153 5.14398 3.33905 5.14398 4.28582V19.7144C5.14398 20.6612 5.9115 21.4287 6.85826 21.4287H17.144C18.0908 21.4287 18.8583 20.6612 18.8583 19.7144V4.28582C18.8583 3.33905 18.0908 2.57153 17.144 2.57153Z" stroke="black" stroke-width="1.5" stroke-linecap="round" stroke-linejoin="round"/>
</svg>
