<svg width="24" height="24" viewBox="0 0 24 24" fill="none" xmlns="http://www.w3.org/2000/svg">
<path d="M14.3475 8.90268C14.0278 7.99822 13.4375 7.21401 12.6569 6.65644C11.8763 6.09885 10.9431 5.79489 9.98382 5.78578V12.2533M22.2852 6.00007V20.5715C22.2852 21.0261 22.1045 21.4622 21.783 21.7837C21.4616 22.1051 21.0255 22.2858 20.5709 22.2858H5.99944M7.89575 14.3571C9.05771 14.3571 9.99965 13.4152 9.99965 12.2533C9.99965 11.0913 9.05771 10.1493 7.89575 10.1493C6.7338 10.1493 5.79185 11.0913 5.79185 12.2533C5.79185 13.4152 6.7338 14.3571 7.89575 14.3571ZM16.8362 1.71436H3.30556C2.42643 1.71436 1.71373 2.42705 1.71373 3.30619V16.8368C1.71373 17.716 2.42643 18.4286 3.30556 18.4286H16.8362C17.7154 18.4286 18.428 17.716 18.428 16.8368V3.30619C18.428 2.42705 17.7154 1.71436 16.8362 1.71436Z" stroke="black" stroke-width="1.5" stroke-linecap="round" stroke-linejoin="round"/>
</svg>
