<svg width="24" height="24" viewBox="0 0 24 24" fill="none" xmlns="http://www.w3.org/2000/svg">
<path d="M18.0017 8.00017V16.3079M15.2327 8.00017V16.3079M12.0017 23.1429C18.1558 23.1429 23.1445 18.1541 23.1445 12C23.1445 5.84601 18.1558 0.857178 12.0017 0.857178C5.84765 0.857178 0.858818 5.84601 0.858818 12C0.858818 18.1541 5.84765 23.1429 12.0017 23.1429ZM6.00168 15.1907C6.00359 14.6875 6.00359 9.63855 6.00168 9.13536C5.99977 8.63218 6.58808 8.30592 7.01707 8.56305C7.44606 8.82019 11.3162 11.3786 11.7063 11.6277C12.0964 11.8768 12.0964 12.4678 11.7063 12.7169C11.3162 12.966 7.44608 15.5059 7.01707 15.763C6.58806 16.0202 5.99977 15.6939 6.00168 15.1907Z" stroke="black" stroke-width="1.5" stroke-linecap="round" stroke-linejoin="round"/>
</svg>
