<svg width="24" height="24" viewBox="0 0 24 24" fill="none" xmlns="http://www.w3.org/2000/svg">
<path d="M5.31371 3.08493C2.60723 5.11785 0.856567 8.3545 0.856567 12C0.856567 15.6456 2.60723 18.8822 5.31371 20.9151M5.31371 3.08493C6.60941 2.11169 8.12419 1.41434 9.77081 1.08008C10.4909 0.933911 11.2362 0.857178 11.9994 0.857178C12.7626 0.857178 13.5079 0.933902 14.2279 1.08006C15.8745 1.41429 17.3893 2.11162 18.685 3.08484C21.3916 5.11775 23.1423 8.35444 23.1423 12C23.1423 15.6456 21.3916 18.8823 18.685 20.9152C17.3893 21.8884 15.8745 22.5858 14.2279 22.92C13.5079 23.0662 12.7626 23.1429 11.9994 23.1429C11.2362 23.1429 10.4909 23.0662 9.77081 22.92C8.12419 22.5857 6.60941 21.8884 5.31371 20.9151M5.31371 3.08493V20.9151M9.76951 1.08025V22.9202M13.2851 12H19.2851M13.2851 12L15.8566 14.5715M13.2851 12L15.8566 9.42861" stroke="black" stroke-width="1.5" stroke-linecap="round" stroke-linejoin="round"/>
</svg>
