<svg width="24" height="24" viewBox="0 0 24 24" fill="none" xmlns="http://www.w3.org/2000/svg">
<path d="M5.31591 3.08493C2.60943 5.11785 0.858765 8.3545 0.858765 12C0.858765 15.6456 2.60943 18.8822 5.31591 20.9151M5.31591 3.08493C6.61161 2.11169 8.12638 1.41434 9.77301 1.08008C10.4931 0.933911 11.2384 0.857178 12.0016 0.857178C12.7648 0.857178 13.5101 0.933902 14.2301 1.08006C15.8767 1.41429 17.3915 2.11162 18.6872 3.08484M5.31591 3.08493V20.9151M18.6872 3.08484C21.3938 5.11775 23.1445 8.35444 23.1445 12C23.1445 15.6456 21.3938 18.8823 18.6872 20.9152M18.6872 3.08484V20.9152M18.6872 20.9152C17.3915 21.8884 15.8767 22.5858 14.2301 22.92C13.5101 23.0662 12.7648 23.1429 12.0016 23.1429C11.2384 23.1429 10.4931 23.0662 9.77301 22.92C8.12638 22.5857 6.61161 21.8884 5.31591 20.9151M14.2315 1.08025V22.9202M9.77171 1.08025V22.9202" stroke="black" stroke-width="1.5" stroke-linecap="round" stroke-linejoin="round"/>
</svg>
