<svg width="24" height="24" viewBox="0 0 24 24" fill="none" xmlns="http://www.w3.org/2000/svg">
<path d="M17.1397 16.1692C16.7209 16.5966 16.1371 16.8618 15.4913 16.8618C14.2168 16.8618 13.1837 15.8287 13.1837 14.5543C13.1837 15.8287 12.1505 16.8618 10.876 16.8618C9.60146 16.8618 8.56827 15.8287 8.56827 14.5543C8.56827 15.8287 7.53508 16.8618 6.26058 16.8618C5.61482 16.8618 5.03102 16.5966 4.61216 16.1692M18.854 9.31202C18.4352 9.73951 17.8514 10.0047 17.2056 10.0047C15.9311 10.0047 14.8979 8.97157 14.8979 7.69716C14.8979 8.97157 13.8648 10.0047 12.5902 10.0047C11.3157 10.0047 10.2826 8.97157 10.2826 7.69716C10.2826 8.97157 9.24937 10.0047 7.97486 10.0047C7.32911 10.0047 6.74531 9.73946 6.32645 9.31202M23.1412 12C23.1412 8.35444 21.3905 5.11775 18.6839 3.08484C17.3882 2.11162 15.8734 1.41429 14.2268 1.08006C13.5068 0.933902 12.7615 0.857178 11.9983 0.857178C11.2351 0.857178 10.4898 0.933911 9.76971 1.08008C8.12309 1.41434 6.60832 2.11169 5.31261 3.08493C2.60613 5.11785 0.855469 8.3545 0.855469 12C0.855469 15.6456 2.60613 18.8822 5.31261 20.9151C6.60832 21.8884 8.12309 22.5857 9.76971 22.92C10.4898 23.0662 11.2351 23.1429 11.9983 23.1429C12.7615 23.1429 13.5068 23.0662 14.2268 22.92C15.8734 22.5858 17.3882 21.8884 18.6839 20.9152C21.3905 18.8823 23.1412 15.6456 23.1412 12Z" stroke="black" stroke-width="1.5" stroke-linecap="round" stroke-linejoin="round"/>
</svg>
