<svg width="24" height="24" viewBox="0 0 24 24" fill="none" xmlns="http://www.w3.org/2000/svg">
<path d="M0.857727 3.88489C1.40223 4.44066 2.16115 4.7854 3.00058 4.7854C4.65744 4.7854 6.00058 3.44226 6.00058 1.7854C6.00058 3.44226 7.34373 4.7854 9.00058 4.7854C10.6574 4.7854 12.0006 3.44226 12.0006 1.7854C12.0006 3.44226 13.3437 4.7854 15.0006 4.7854C16.6574 4.7854 18.0006 3.44226 18.0006 1.7854C18.0006 3.44226 19.3437 4.7854 21.0006 4.7854C21.8401 4.7854 22.599 4.44066 23.1434 3.88489M0.857727 9.88489C1.40223 10.4407 2.16115 10.7854 3.00058 10.7854C4.65744 10.7854 6.00058 9.44226 6.00058 7.7854C6.00058 9.44226 7.34373 10.7854 9.00058 10.7854C10.6574 10.7854 12.0006 9.44226 12.0006 7.7854C12.0006 9.44226 13.3437 10.7854 15.0006 10.7854C16.6574 10.7854 18.0006 9.44226 18.0006 7.7854C18.0006 9.44226 19.3437 10.7854 21.0006 10.7854C21.8401 10.7854 22.599 10.4407 23.1434 9.88489M15.6366 16.9349L16.8488 15.7228M17.1434 20.5714H18.8577M6.85773 20.5714H5.14344M12.0006 15.4285V13.7143M8.36455 16.9349L7.15237 15.7228M13.7149 20.5714C13.7149 21.5182 12.9474 22.2857 12.0006 22.2857C11.0538 22.2857 10.2863 21.5182 10.2863 20.5714C10.2863 19.6246 11.0538 18.8571 12.0006 18.8571C12.9474 18.8571 13.7149 19.6246 13.7149 20.5714Z" stroke="black" stroke-width="1.5" stroke-linecap="round" stroke-linejoin="round"/>
</svg>
