<svg width="24" height="24" viewBox="0 0 24 24" fill="none" xmlns="http://www.w3.org/2000/svg">
<path d="M1.71484 21.9971C2.10452 22.1822 2.54044 22.2858 3.00056 22.2858C4.65742 22.2858 6.00056 20.9426 6.00056 19.2858C6.00056 20.9426 7.3437 22.2858 9.00056 22.2858C10.6574 22.2858 12.0006 20.9426 12.0006 19.2858C12.0006 20.9426 13.3437 22.2858 15.0006 22.2858C16.6574 22.2858 18.0006 20.9426 18.0006 19.2858C18.0006 20.9426 19.3437 22.2858 21.0006 22.2858C21.4607 22.2858 21.8966 22.1822 22.2863 21.9971M7.71484 15.4286V4.28578C7.71484 2.86562 6.56358 1.71436 5.14341 1.71436M16.2863 15.4286V4.28578C16.2863 2.86562 15.135 1.71436 13.7148 1.71436M7.71484 7.71436H16.2863M7.71484 12.8572H16.2863" stroke="black" stroke-width="1.5" stroke-linecap="round" stroke-linejoin="round"/>
</svg>
