<svg width="24" height="24" viewBox="0 0 24 24" fill="none" xmlns="http://www.w3.org/2000/svg">
<path d="M17.1397 16.1694C16.7209 16.5969 16.1371 16.8621 15.4913 16.8621C14.2168 16.8621 13.1837 15.829 13.1837 14.5546C13.1837 15.829 12.1505 16.8621 10.876 16.8621C9.60146 16.8621 8.56827 15.829 8.56827 14.5546C8.56827 15.829 7.53508 16.8621 6.26058 16.8621C5.61482 16.8621 5.03102 16.5969 4.61216 16.1694M18.854 9.3123C18.4352 9.73979 17.8514 10.005 17.2056 10.005C15.9311 10.005 14.8979 8.97185 14.8979 7.69744C14.8979 8.97185 13.8648 10.005 12.5902 10.005C11.3157 10.005 10.2826 8.97185 10.2826 7.69744C10.2826 8.97185 9.24937 10.005 7.97486 10.005C7.32911 10.005 6.74531 9.73974 6.32645 9.3123M2.56975 3.42847H21.4269C22.3737 3.42847 23.1412 4.19598 23.1412 5.14275V18.857C23.1412 19.8038 22.3737 20.5713 21.4269 20.5713H2.56975C1.62298 20.5713 0.855469 19.8038 0.855469 18.857V5.14275C0.855469 4.19598 1.62298 3.42847 2.56975 3.42847Z" stroke="black" stroke-width="1.5" stroke-linecap="round" stroke-linejoin="round"/>
</svg>
