<svg width="24" height="24" viewBox="0 0 24 24" fill="none" xmlns="http://www.w3.org/2000/svg">
<path d="M5.31432 3.08493C2.60784 5.11785 0.857178 8.3545 0.857178 12C0.857178 15.6456 2.60784 18.8822 5.31432 20.9151M5.31432 3.08493C6.61002 2.11169 8.1248 1.41434 9.77142 1.08008C10.4915 0.933911 11.2368 0.857178 12 0.857178C12.7632 0.857178 13.5085 0.933902 14.2285 1.08006C15.8751 1.41429 17.3899 2.11162 18.6856 3.08484C21.3922 5.11775 23.1429 8.35444 23.1429 12C23.1429 15.6456 21.3922 18.8823 18.6856 20.9152C17.3899 21.8884 15.8751 22.5858 14.2285 22.92C13.5085 23.0662 12.7632 23.1429 12 23.1429C11.2368 23.1429 10.4915 23.0662 9.77142 22.92C8.1248 22.5857 6.61002 21.8884 5.31432 20.9151M5.31432 3.08493V20.9151M9.77012 1.08025V22.9202M19.2857 12H13.2857M19.2857 12L16.7143 14.5715M19.2857 12L16.7143 9.42861" stroke="black" stroke-width="1.5" stroke-linecap="round" stroke-linejoin="round"/>
</svg>
