<svg width="24" height="24" viewBox="0 0 24 24" fill="none" xmlns="http://www.w3.org/2000/svg">
<path d="M5.31542 3.08493C2.60894 5.11785 0.858276 8.3545 0.858276 12C0.858276 15.6456 2.60894 18.8822 5.31542 20.9151M5.31542 3.08493C6.61112 2.11169 8.12589 1.41434 9.77252 1.08008C10.4926 0.933911 11.2379 0.857178 12.0011 0.857178C12.7643 0.857178 13.5096 0.933902 14.2296 1.08006C15.8762 1.41429 17.391 2.11162 18.6867 3.08484C21.3933 5.11775 23.144 8.35444 23.144 12C23.144 15.6456 21.3933 18.8823 18.6867 20.9152C17.391 21.8884 15.8762 22.5858 14.2296 22.92C13.5096 23.0662 12.7643 23.1429 12.0011 23.1429C11.2379 23.1429 10.4926 23.0662 9.77252 22.92C8.12589 22.5857 6.61112 21.8884 5.31542 20.9151M5.31542 3.08493V20.9151M9.77122 1.08025V22.9202M14.5726 9.42861L13.945 10.3699C13.2869 11.357 13.2869 12.643 13.945 13.6302L14.5726 14.5715M18.0011 9.42861L18.6287 10.3699C19.2867 11.357 19.2867 12.643 18.6287 13.6302L18.0011 14.5715" stroke="black" stroke-width="1.5" stroke-linecap="round" stroke-linejoin="round"/>
</svg>
