<svg width="24" height="24" viewBox="0 0 24 24" fill="none" xmlns="http://www.w3.org/2000/svg">
<path d="M0.856018 17.8146C1.12779 17.9383 1.41458 18.0005 1.71316 18.0005C2.26197 18.0005 2.78833 17.7824 3.17639 17.3943L3.6785 16.8922C4.06657 16.5042 4.59292 16.2862 5.14173 16.2862C5.69054 16.2862 6.2169 16.5042 6.60496 16.8922L7.10708 17.3943C7.49514 17.7824 8.02149 18.0005 8.5703 18.0005C9.11912 18.0005 9.64547 17.7824 10.0335 17.3943L10.5356 16.8922C10.9237 16.5042 11.4501 16.2862 11.9989 16.2862C12.5477 16.2862 13.074 16.5042 13.4621 16.8922L13.9642 17.3943C14.3523 17.7824 14.8786 18.0005 15.4274 18.0005C15.9763 18.0005 16.5026 17.7824 16.8907 17.3943C17.2787 17.0062 17.0046 17.2801 17.3927 16.8922C17.7808 16.5042 18.3073 16.2862 18.856 16.2862C19.4048 16.2862 19.9312 16.5042 20.3193 16.8922C20.7074 17.2801 20.4332 17.006 20.8213 17.3941C21.2094 17.7822 21.7358 18.0003 22.2846 18.0003C22.5832 18.0003 22.87 17.9381 23.1417 17.8143M6.85602 12.8576L10.4431 9.27055M14.5703 13.7147L11.3497 10.4942C10.9791 10.1236 10.6769 9.71046 10.4431 9.27055M13.7136 0.857178L11.3497 3.22106C9.71191 4.85888 9.4097 7.3265 10.4431 9.27055M5.14173 20.5715L4.28459 21.4286L5.14173 22.2857M11.9989 20.5715L11.1417 21.4286L11.9989 22.2857M18.856 20.5715L17.9989 21.4286L18.856 22.2857M17.1417 9.42902C15.7216 9.42902 14.5703 8.27776 14.5703 6.8576C14.5703 5.43743 15.7216 4.28617 17.1417 4.28617C18.5618 4.28617 19.7132 5.43743 19.7132 6.8576C19.7132 8.27776 18.5618 9.42902 17.1417 9.42902Z" stroke="black" stroke-width="1.5" stroke-linecap="round" stroke-linejoin="round"/>
</svg>
