<svg width="24" height="24" viewBox="0 0 24 24" fill="none" xmlns="http://www.w3.org/2000/svg">
<path d="M18.3103 13.6869C20.878 14.5837 22.5405 16.0147 22.5405 17.6276C22.5405 20.3453 17.8201 22.5476 11.9977 22.5476C6.17519 22.5476 1.4548 20.3406 1.4548 17.6229C1.4548 16.0157 3.10511 14.5893 5.65789 13.6916M9.53739 3.91752C9.53739 4.24057 9.60102 4.56046 9.72465 4.85892C9.84828 5.15738 10.0295 5.42857 10.2579 5.657C10.4863 5.88543 10.7575 6.06664 11.056 6.19026C11.3545 6.31389 11.6743 6.37752 11.9974 6.37752C12.3204 6.37752 12.6403 6.31389 12.9388 6.19026C13.2373 6.06664 13.5084 5.88543 13.7369 5.657C13.9653 5.42857 14.1465 5.15738 14.2701 4.85892C14.3938 4.56046 14.4574 4.24057 14.4574 3.91752C14.4574 3.59447 14.3938 3.27458 14.2701 2.97612C14.1465 2.67766 13.9653 2.40647 13.7369 2.17804C13.5084 1.9496 13.2373 1.7684 12.9388 1.64478C12.6403 1.52115 12.3204 1.45752 11.9974 1.45752C11.6743 1.45752 11.3545 1.52115 11.056 1.64478C10.7575 1.7684 10.4863 1.9496 10.2579 2.17804C10.0295 2.40647 9.84828 2.67766 9.72465 2.97612C9.60102 3.27458 9.53739 3.59447 9.53739 3.91752ZM15.5113 12.6982V10.5943C15.5113 9.66225 15.141 8.76838 14.482 8.10932C13.8229 7.45026 12.929 7.08001 11.997 7.08001C11.0649 7.08001 10.1711 7.45026 9.51202 8.10932C8.85296 8.76838 8.48271 9.66225 8.48271 10.5943V12.7029H9.88842L10.5913 18.3257H13.4027L14.1056 12.7029L15.5113 12.6982Z" stroke="black" stroke-width="1.5" stroke-linecap="round" stroke-linejoin="round"/>
</svg>
