<svg width="24" height="24" viewBox="0 0 24 24" fill="none" xmlns="http://www.w3.org/2000/svg">
<path d="M7.35771 7.35707V16.6428M23.1445 11.9998C23.1445 18.1539 18.1558 23.1426 12.0017 23.1426C5.84765 23.1426 0.858826 18.1539 0.858826 11.9998C0.858826 5.84576 5.84765 0.856934 12.0017 0.856934C18.1558 0.856934 23.1445 5.84576 23.1445 11.9998ZM16.6316 15.3284C16.6301 14.7859 16.6444 9.2424 16.6459 8.69985C16.6474 8.1573 16.0296 7.80042 15.5602 8.07128C15.0908 8.34213 10.8374 11.1239 10.4102 11.3998C9.98308 11.6758 9.98304 12.3239 10.4102 12.5998C10.8374 12.8758 15.0766 15.6861 15.5459 15.957C16.0152 16.2279 16.6331 15.8709 16.6316 15.3284Z" stroke="black" stroke-width="1.5" stroke-linecap="round" stroke-linejoin="round"/>
</svg>
