<svg width="24" height="24" viewBox="0 0 24 24" fill="none" xmlns="http://www.w3.org/2000/svg">
<path d="M17.9994 18.8572H21.428C21.8826 18.8572 22.3188 18.6765 22.6402 18.3551C22.9616 18.0337 23.1423 17.5976 23.1423 17.1429V10.2858C23.1423 9.83112 22.9616 9.39509 22.6402 9.0736C22.3188 8.75212 21.8826 8.5715 21.428 8.5715H2.57087C2.11621 8.5715 1.68018 8.75212 1.35868 9.0736C1.03719 9.39509 0.856583 9.83112 0.856583 10.2858V17.1429C0.856583 17.5976 1.03719 18.0337 1.35868 18.3551C1.68018 18.6765 2.11621 18.8572 2.57087 18.8572H5.99944M17.9994 7.71436V2.5715C17.9994 2.34417 17.9091 2.12615 17.7485 1.96541C17.5877 1.80466 17.3696 1.71436 17.1423 1.71436H6.85658C6.62925 1.71436 6.41123 1.80466 6.2505 1.96541C6.08975 2.12615 5.99944 2.34417 5.99944 2.5715V7.71436M18.8566 12.0001H17.1423M5.99944 16.2858V21.4286C5.99944 21.656 6.08975 21.874 6.2505 22.0348C6.41123 22.1954 6.62925 22.2858 6.85658 22.2858H17.1423C17.3696 22.2858 17.5877 22.1954 17.7485 22.0348C17.9091 21.874 17.9994 21.656 17.9994 21.4286V16.2858H5.99944Z" stroke="black" stroke-width="1.5" stroke-linecap="round" stroke-linejoin="round"/>
</svg>
