<svg width="24" height="24" viewBox="0 0 24 24" fill="none" xmlns="http://www.w3.org/2000/svg">
<path d="M4.28683 16.2858V19.347C4.28683 20.9701 5.60256 22.2858 7.2256 22.2858H16.7766C18.3997 22.2858 19.7154 20.9701 19.7154 19.347V16.2858M19.7154 12.0001V7.22456C19.7154 5.60152 18.3997 4.28578 16.7766 4.28578H13.7154M14.5725 7.71436H6.85825M7.7154 7.71436V4.65313C7.7154 3.03009 9.03113 1.71436 10.6542 1.71436H10.7766C12.3997 1.71436 13.7154 3.03009 13.7154 4.65313V7.71436M4.7154 12.0001H19.2868C20.4703 12.0001 21.4297 12.9595 21.4297 14.1429C21.4297 15.3264 20.4703 16.2858 19.2868 16.2858H4.7154C3.53193 16.2858 2.57254 15.3264 2.57254 14.1429C2.57254 12.9595 3.53193 12.0001 4.7154 12.0001Z" stroke="black" stroke-width="1.5" stroke-linecap="round" stroke-linejoin="round"/>
</svg>
