<svg width="24" height="24" viewBox="0 0 24 24" fill="none" xmlns="http://www.w3.org/2000/svg">
<path d="M11.5096 7.54283H3.82745C3.03938 7.54283 2.28359 7.85589 1.72634 8.41314C1.16909 8.97039 0.856026 9.72619 0.856026 10.5143V14.9714C0.856026 15.3654 1.01256 15.7434 1.29118 16.022C1.5698 16.3006 1.94771 16.4571 2.34174 16.4571H21.656C22.05 16.4571 22.428 16.3006 22.7066 16.022C22.9852 15.7434 23.1417 15.3654 23.1417 14.9714V10.5143C23.1417 9.72619 22.8286 8.97039 22.2714 8.41314C21.7142 7.85589 20.9583 7.54283 20.1703 7.54283H19.9167M3.82589 11.2573V12.743M6.79911 11.2573V12.743M3.82589 16.457V19.4285M20.1719 16.457V19.4285M15.7127 13.4856C18.1744 13.4856 20.1699 11.4901 20.1699 9.02843C20.1699 6.56682 18.1744 4.57129 15.7127 4.57129C13.2511 4.57129 11.2556 6.56682 11.2556 9.02843C11.2556 11.4901 13.2511 13.4856 15.7127 13.4856Z" stroke="black" stroke-width="1.5" stroke-linecap="round" stroke-linejoin="round"/>
</svg>
