<svg width="24" height="24" viewBox="0 0 24 24" fill="none" xmlns="http://www.w3.org/2000/svg">
<path d="M1.71596 5.99979H3.43024M6.85882 5.99979H10.2874M13.716 5.99979H17.1445M20.5731 5.99979H23.1445M22.2874 17.9998H20.5731M3.43024 17.9998H1.71596M6.85882 17.9998H10.2874M13.716 17.9998H17.1445M23.1445 5.14265V6.85693M6.85882 2.57122V21.4284C6.85882 22.3751 6.0913 23.1426 5.14453 23.1426C4.19776 23.1426 3.43024 22.3751 3.43024 21.4284V2.57122C3.43024 1.62445 4.19776 0.856934 5.14453 0.856934C6.0913 0.856934 6.85882 1.62445 6.85882 2.57122ZM13.716 2.57122V21.4284C13.716 22.3751 12.9484 23.1426 12.0017 23.1426C11.0549 23.1426 10.2874 22.3751 10.2874 21.4284V2.57122C10.2874 1.62445 11.0549 0.856934 12.0017 0.856934C12.9484 0.856934 13.716 1.62445 13.716 2.57122ZM20.5731 2.57122V21.4284C20.5731 22.3751 19.8056 23.1426 18.8588 23.1426C17.912 23.1426 17.1445 22.3751 17.1445 21.4284V2.57122C17.1445 1.62445 17.912 0.856934 18.8588 0.856934C19.8056 0.856934 20.5731 1.62445 20.5731 2.57122Z" stroke="black" stroke-width="1.5" stroke-linecap="round" stroke-linejoin="round"/>
</svg>
