<svg width="24" height="24" viewBox="0 0 24 24" fill="none" xmlns="http://www.w3.org/2000/svg">
<path d="M0.858246 5.14265L5.0475 1.6516C5.66366 1.13813 6.44035 0.856935 7.24242 0.856935L18.2869 0.856934C19.0758 0.856934 19.7154 1.49653 19.7154 2.2855C19.7154 3.86346 18.4362 5.14265 16.8582 5.14265H9.17989M6.0011 6.85712L7.28682 5.57141C7.99689 4.86133 9.14817 4.86133 9.85825 5.57141C10.5683 6.2815 10.5683 7.43276 9.85825 8.14284L7.86246 10.1386C7.21946 10.7816 6.34741 11.1428 5.43808 11.1428H0.858246M15.4297 11.9998C11.1692 11.9998 7.71539 15.4536 7.71539 19.7141H23.144C23.144 15.4536 19.6902 11.9998 15.4297 11.9998ZM15.4297 11.9998V8.57122M7.71539 23.1426H23.144M13.7154 8.57122H17.144" stroke="black" stroke-width="1.5" stroke-linecap="round" stroke-linejoin="round"/>
</svg>
