<svg width="24" height="24" viewBox="0 0 24 24" fill="none" xmlns="http://www.w3.org/2000/svg">
<path d="M11.7303 9.42836C12.5449 8.88678 13.5227 8.57122 14.5742 8.57122C15.6257 8.57122 16.6034 8.88678 17.418 9.42836M19.2125 5.99979C17.8579 5.18359 16.2709 4.71408 14.5742 4.71408C12.8774 4.71408 11.2904 5.18359 9.93583 5.99979M21.4303 14.9697C22.4551 14.3769 23.1445 13.2688 23.1445 11.9998V4.28551C23.1445 2.39196 21.6095 0.856934 19.716 0.856934H4.2874C2.39385 0.856934 0.858826 2.39196 0.858826 4.2855V11.9998C0.858826 13.8933 2.39385 15.4284 4.2874 15.4284H7.71597M13.716 12.8569H15.4303C16.377 12.8569 17.1445 13.6244 17.1445 14.5712V21.4284C17.1445 22.3751 16.377 23.1426 15.4303 23.1426H13.716C12.7692 23.1426 12.0017 22.3751 12.0017 21.4284V14.5712C12.0017 13.6244 12.7692 12.8569 13.716 12.8569Z" stroke="black" stroke-width="1.5" stroke-linecap="round" stroke-linejoin="round"/>
</svg>
