<svg width="24" height="24" viewBox="0 0 24 24" fill="none" xmlns="http://www.w3.org/2000/svg">
<path d="M12.0005 8.57164V14.1431M12.4291 18.4288C12.4291 18.6655 12.2372 18.8574 12.0005 18.8574M12.4291 18.4288C12.4291 18.1921 12.2372 18.0002 12.0005 18.0002M12.4291 18.4288H11.572M12.0005 18.8574C11.7639 18.8574 11.572 18.6655 11.572 18.4288M12.0005 18.8574V18.0002M12.0005 18.0002C11.7639 18.0002 11.572 18.1921 11.572 18.4288M13.5259 1.80023L22.9544 20.6574C23.5066 21.753 22.6822 23.1394 21.4287 23.1431H2.57162C1.32263 23.1394 0.483757 21.7727 1.0459 20.6574L10.4745 1.80023C11.0844 0.609491 12.8993 0.577185 13.5259 1.80023Z" stroke="black" stroke-width="1.5" stroke-linecap="round" stroke-linejoin="round"/>
</svg>
