<svg width="24" height="24" viewBox="0 0 24 24" fill="none" xmlns="http://www.w3.org/2000/svg">
<path d="M11.9989 6.85724V12.4287M12.4274 16.7144C12.4274 16.9511 12.2356 17.143 11.9989 17.143M12.4274 16.7144C12.4274 16.4777 12.2356 16.2858 11.9989 16.2858M12.4274 16.7144H11.5703M11.9989 17.143C11.7622 17.143 11.5703 16.9511 11.5703 16.7144M11.9989 17.143V16.2858M11.9989 16.2858C11.7622 16.2858 11.5703 16.4777 11.5703 16.7144M14.0465 2.22003L21.7784 9.95192C22.9097 11.0832 22.9097 12.9173 21.7784 14.0486L14.0465 21.7805C12.9153 22.9118 11.0811 22.9118 9.94984 21.7805L2.21796 14.0486C1.08669 12.9173 1.08669 11.0832 2.21796 9.95192L9.94985 2.22003C11.0811 1.08876 12.9153 1.08877 14.0465 2.22003Z" stroke="black" stroke-width="1.5" stroke-linecap="round" stroke-linejoin="round"/>
</svg>
