<svg width="24" height="24" viewBox="0 0 24 24" fill="none" xmlns="http://www.w3.org/2000/svg">
<path d="M12.4297 16.7141C12.4297 16.9508 12.2378 17.1426 12.0011 17.1426M12.4297 16.7141C12.4297 16.4774 12.2378 16.2855 12.0011 16.2855M12.4297 16.7141H11.5726M12.0011 17.1426C11.7644 17.1426 11.5726 16.9508 11.5726 16.7141M12.0011 17.1426V16.2855M12.0011 16.2855C11.7644 16.2855 11.5726 16.4774 11.5726 16.7141M12.0011 6.85693V12.4284M12.0011 23.1426C18.1552 23.1426 23.144 18.1539 23.144 11.9998C23.144 5.84576 18.1552 0.856934 12.0011 0.856934C5.84711 0.856934 0.858276 5.84576 0.858276 11.9998C0.858276 18.1539 5.84711 23.1426 12.0011 23.1426Z" stroke="black" stroke-width="1.5" stroke-linecap="round" stroke-linejoin="round"/>
</svg>
