<svg width="24" height="24" viewBox="0 0 24 24" fill="none" xmlns="http://www.w3.org/2000/svg">
<path d="M17.1427 15.3525C17.1448 15.8805 16.5498 16.2801 16.0913 15.9863C15.6328 15.6925 11.6434 12.8914 11.2358 12.6131C10.8283 12.3348 10.8331 11.6819 11.2358 11.4069C11.6386 11.1319 15.6204 8.31509 16.0913 8.01331C16.5622 7.71153 17.1447 8.13186 17.1427 8.64706C17.1406 9.16227 17.1406 14.8246 17.1427 15.3525Z" stroke="black" stroke-width="1.5" stroke-linecap="round" stroke-linejoin="round"/>
<path d="M10.9317 15.3525C10.9336 15.8676 10.3513 16.2881 9.88036 15.9862C9.40937 15.6844 5.42763 12.8881 5.02489 12.6131C4.62214 12.338 4.61732 11.6852 5.02489 11.4069C5.43245 11.1286 9.42908 8.30249 9.88036 8.01325C10.3316 7.72402 10.9196 8.10673 10.9317 8.62657C10.9439 9.14641 10.9299 14.8373 10.9317 15.3525Z" stroke="black" stroke-width="1.5" stroke-linecap="round" stroke-linejoin="round"/>
<path d="M0.857178 11.9998C0.857178 14.9551 2.03115 17.7893 4.12084 19.879C6.21054 21.9687 9.04477 23.1426 12 23.1426C14.9553 23.1426 17.7895 21.9687 19.8792 19.879C21.9689 17.7893 23.1429 14.9551 23.1429 11.9998C23.1429 9.04452 21.9689 6.21029 19.8792 4.1206C17.7895 2.03091 14.9553 0.856934 12 0.856934C9.04477 0.856934 6.21054 2.03091 4.12084 4.1206C2.03115 6.21029 0.857178 9.04452 0.857178 11.9998Z" stroke="black" stroke-width="1.5" stroke-linecap="round" stroke-linejoin="round"/>
</svg>
