<svg width="24" height="24" viewBox="0 0 24 24" fill="none" xmlns="http://www.w3.org/2000/svg">
<path d="M11.5731 15.4284C6.60257 15.4284 2.57312 17.7308 2.57312 20.5712C2.57312 21.0747 2.69974 21.5612 2.93574 22.0212C3.34763 22.8236 4.283 23.1426 5.18504 23.1426H17.9612C18.8633 23.1426 19.7986 22.8236 20.2105 22.0212C20.4464 21.5612 20.5731 21.0747 20.5731 20.5712C20.5731 17.7308 16.5437 15.4284 11.5731 15.4284Z" stroke="black" stroke-width="1.5" stroke-linecap="round" stroke-linejoin="round"/>
<path d="M14.1445 15.4284C18.1683 15.4284 21.4303 13.5096 21.4303 11.1426C21.4303 8.77572 18.1683 6.85693 14.1445 6.85693C10.1208 6.85693 6.85883 8.77572 6.85883 11.1426C6.85883 13.5096 10.1208 15.4284 14.1445 15.4284Z" stroke="black" stroke-width="1.5" stroke-linecap="round" stroke-linejoin="round"/>
<path d="M12.4303 6.85693C15.2706 6.85693 17.5731 5.51379 17.5731 3.85693C17.5731 2.20008 15.2706 0.856934 12.4303 0.856934C9.58995 0.856934 7.28741 2.20008 7.28741 3.85693C7.28741 5.51379 9.58995 6.85693 12.4303 6.85693Z" stroke="black" stroke-width="1.5" stroke-linecap="round" stroke-linejoin="round"/>
</svg>
