<svg width="24" height="24" viewBox="0 0 24 24" fill="none" xmlns="http://www.w3.org/2000/svg">
<path d="M7.71537 16.2855H4.2868C3.34003 16.2855 2.57251 15.518 2.57251 14.5712V11.9998C2.57251 10.5796 3.72377 9.42836 5.14394 9.42836C6.5641 9.42836 7.71537 10.5796 7.71537 11.9998V16.2855ZM7.71537 16.2855L9.80545 16.2855C10.5921 16.2855 11.2778 16.8209 11.4686 17.5841L12.8582 23.1427M2.57251 19.7141H7.71537M20.4406 11.1426C17.012 6.85693 23.8693 5.14265 20.4407 0.856934M15.3011 11.1426C11.8725 6.85693 18.7297 5.14265 15.3011 0.856934M3.00108 4.71408C3.00108 5.88122 3.9768 6.85693 5.14394 6.85693C6.31108 6.85693 7.2868 5.88122 7.2868 4.71408C7.2868 3.54693 6.31108 2.57122 5.14394 2.57122C3.9768 2.57122 3.00108 3.54693 3.00108 4.71408Z" stroke="black" stroke-width="1.5" stroke-linecap="round" stroke-linejoin="round"/>
</svg>
