<svg width="24" height="24" viewBox="0 0 24 24" fill="none" xmlns="http://www.w3.org/2000/svg">
<path d="M6.85603 16.2855V19.7141M11.9989 16.2855V19.7141M17.1417 16.2855V19.7141M9.14174 12.0407C9.14174 10.4627 7.86255 9.18352 6.2846 9.18352C4.70664 9.18352 3.42746 10.4627 3.42746 12.0407V12.857M9.14286 12.857V12.0407C9.14286 10.4627 10.422 9.18352 12 9.18352C13.578 9.18352 14.8571 10.4627 14.8571 12.0407V12.857M14.8549 12.0407C14.8549 10.4627 16.1341 9.18352 17.7121 9.18352C19.29 9.18352 20.5692 10.4627 20.5692 12.0407V12.857M5.99894 5.99979C4.28469 3.42836 7.71317 3.42836 5.14174 0.856934M11.9989 5.99979C10.2847 3.42836 13.7132 3.42836 11.1417 0.856934M17.9989 5.99979C16.2847 3.42836 19.7132 3.42836 17.1417 0.856934M2.57031 12.8569V21.4284C2.57031 22.3751 3.33782 23.1426 4.2846 23.1426H19.7132C20.6599 23.1426 21.4275 22.3751 21.4275 21.4284V12.8569H2.57031Z" stroke="black" stroke-width="1.5" stroke-linecap="round" stroke-linejoin="round"/>
</svg>
