<svg width="24" height="24" viewBox="0 0 24 24" fill="none" xmlns="http://www.w3.org/2000/svg">
<path d="M1.45145 5.67285C1.45145 6.22687 1.72425 6.77545 2.25428 7.2873C2.78431 7.79914 3.56119 8.26421 4.54055 8.65596C5.51992 9.04771 6.6826 9.35846 7.96221 9.57047C9.24181 9.78248 10.6133 9.8916 11.9983 9.8916C13.3834 9.8916 14.7548 9.78248 16.0344 9.57047C17.314 9.35846 18.4767 9.04771 19.4561 8.65596C20.4355 8.26421 21.2123 7.79914 21.7424 7.2873C22.2724 6.77545 22.5452 6.22687 22.5452 5.67285M1.45145 5.67285C1.45145 5.11884 1.72425 4.57025 2.25428 4.05841C2.78431 3.54656 3.56119 3.08149 4.54055 2.68974C5.51992 2.298 6.6826 1.98725 7.96221 1.77523C9.24181 1.56322 10.6133 1.4541 11.9983 1.4541C13.3834 1.4541 14.7548 1.56322 16.0344 1.77523C17.314 1.98725 18.4767 2.298 19.4561 2.68974C20.4355 3.08149 21.2123 3.54656 21.7424 4.05841C22.2724 4.57025 22.5452 5.11884 22.5452 5.67285M1.45145 5.67285V12M22.5452 5.67285V12M1.45145 12C1.45145 14.3297 6.17363 16.2188 11.9983 16.2188C17.823 16.2188 22.5452 14.3307 22.5452 12M1.45145 12V18.3283C1.45145 20.658 6.17363 22.547 11.9983 22.547C17.823 22.547 22.5452 20.658 22.5452 18.3283V12" stroke="black" stroke-width="1.5" stroke-linecap="round" stroke-linejoin="round"/>
</svg>
