<svg width="24" height="24" viewBox="0 0 24 24" fill="none" xmlns="http://www.w3.org/2000/svg">
<path d="M19.7143 4.49122C19.7143 6.49837 15.493 8.1255 10.2857 8.1255C5.07846 8.1255 0.857147 6.49837 0.857147 4.49122M19.7143 4.49122C19.7143 2.48406 15.493 0.856934 10.2857 0.856934C5.07846 0.856934 0.857147 2.48406 0.857147 4.49122M19.7143 4.49122L19.7143 11.5714M0.857147 4.49122V16.08C0.857147 17.7656 3.83474 19.1834 7.87326 19.5943M17.1429 14.5712C19.5098 14.5712 21.4286 16.49 21.4286 18.8569V21.4284M21.4286 21.4284L19.7143 19.7141M21.4286 21.4284L23.1429 19.7141M17.1429 23.1426C14.7759 23.1426 12.8571 21.2238 12.8571 18.8569V16.2855M12.8571 16.2855L11.1429 17.9998M12.8571 16.2855L14.5714 17.9998M10.2857 13.9198C5.07846 13.9198 0.857147 12.2927 0.857147 10.2855" stroke="black" stroke-width="1.5" stroke-linecap="round" stroke-linejoin="round"/>
</svg>
