<svg width="24" height="24" viewBox="0 0 24 24" fill="none" xmlns="http://www.w3.org/2000/svg">
<path d="M19.7132 4.49122C19.7132 6.49837 15.4919 8.1255 10.2846 8.1255C5.07733 8.1255 0.856026 6.49837 0.856026 4.49122M19.7132 4.49122C19.7132 2.48406 15.4919 0.856934 10.2846 0.856934C5.07733 0.856934 0.856026 2.48406 0.856026 4.49122M19.7132 4.49122L19.7132 8.99999M0.856026 4.49122V16.08C0.856026 17.8042 3.971 19.248 8.15009 19.6207M0.856026 10.2855C0.856026 12.2927 5.07733 13.9198 10.2846 13.9198C10.5726 13.9198 10.8576 13.9148 11.1391 13.9051M17.1518 17.9998V16.2855M17.1419 20.7858C17.0235 20.7858 16.9275 20.6898 16.9275 20.5714M17.1419 20.7858C17.2604 20.7858 17.3562 20.6897 17.3562 20.5714M17.1419 20.7858V20.3569M16.9275 20.5714C16.9275 20.4529 17.0235 20.3569 17.1419 20.3569M16.9275 20.5714H17.3562M17.1419 20.3569C17.2604 20.3569 17.3562 20.4529 17.3562 20.5714M17.2935 20.7228C17.2098 20.8065 17.074 20.8065 16.9902 20.7228M17.2935 20.7228C17.3773 20.639 17.377 20.5032 17.2934 20.4196M17.2935 20.7228L16.9903 20.4195M16.9902 20.7228C16.9065 20.639 16.9065 20.5032 16.9903 20.4195M16.9902 20.7228L17.2934 20.4196M16.9903 20.4195C17.074 20.3357 17.2096 20.3358 17.2934 20.4196M23.0127 21.6171C23.0967 21.7725 23.1406 21.9463 23.1406 22.1229C23.1406 22.2994 23.0967 22.4733 23.0127 22.6286C22.9336 22.7834 22.8133 22.9133 22.6652 23.0042C22.5169 23.0949 22.3465 23.1429 22.1727 23.1429H12.1098C11.936 23.1429 11.7655 23.0949 11.6173 23.0042C11.469 22.9133 11.3488 22.7834 11.2698 22.6286C11.1857 22.4733 11.1417 22.2994 11.1417 22.1229C11.1417 21.9463 11.1857 21.7725 11.2698 21.6171L16.3269 12.4972C16.3964 12.3269 16.515 12.1811 16.6677 12.0785C16.8203 11.9759 17.0001 11.9211 17.1841 11.9211C17.368 11.9211 17.5477 11.9759 17.7004 12.0785C17.853 12.1811 17.9716 12.3269 18.0412 12.4972L23.0127 21.6171Z" stroke="black" stroke-width="1.5" stroke-linecap="round" stroke-linejoin="round"/>
</svg>
