<svg width="24" height="24" viewBox="0 0 24 24" fill="none" xmlns="http://www.w3.org/2000/svg">
<path d="M18.0011 16.2855V18.4284L19.7154 18.8569M19.7154 4.49122C19.7154 6.49837 15.4941 8.1255 10.2868 8.1255C5.07957 8.1255 0.858261 6.49837 0.858261 4.49122M19.7154 4.49122C19.7154 2.48406 15.4941 0.856934 10.2868 0.856934C5.07957 0.856934 0.858261 2.48406 0.858261 4.49122M19.7154 4.49122V9.42836M0.858261 4.49122V16.08C0.858261 17.7656 3.83586 19.1834 7.87437 19.5943M10.2868 13.9198C5.07957 13.9198 0.858261 12.2927 0.858261 10.2855M18.0011 23.1426C20.8415 23.1426 23.144 20.8402 23.144 17.9998C23.144 15.1595 20.8415 12.8569 18.0011 12.8569C15.1608 12.8569 12.8583 15.1595 12.8583 17.9998C12.8583 20.8402 15.1608 23.1426 18.0011 23.1426Z" stroke="black" stroke-width="1.5" stroke-linecap="round" stroke-linejoin="round"/>
</svg>
