<svg width="24" height="24" viewBox="0 0 24 24" fill="none" xmlns="http://www.w3.org/2000/svg">
<path d="M3.42913 12.0001C2.48236 12.0001 1.71484 11.2325 1.71484 10.2858V3.42864C1.71484 2.48188 2.48236 1.71436 3.42913 1.71436H20.572C21.5188 1.71436 22.2863 2.48188 22.2863 3.42864V10.2858C22.2863 11.2325 21.5188 12.0001 20.572 12.0001M3.42913 12.0001H20.572M3.42913 12.0001C2.97447 12.0001 2.53844 12.1807 2.21694 12.5022C1.89546 12.8237 1.71484 13.2597 1.71484 13.7144V20.5715C1.71484 21.0261 1.89546 21.4622 2.21694 21.7837C2.53844 22.1051 2.97447 22.2858 3.42913 22.2858H20.572C21.0266 22.2858 21.4627 22.1051 21.7842 21.7837C22.1056 21.4622 22.2863 21.0261 22.2863 20.5715V13.7144C22.2863 13.2597 22.1056 12.8237 21.7842 12.5022C21.4627 12.1807 21.0266 12.0001 20.572 12.0001M6.00056 7.71436C6.47394 7.71436 6.8577 7.3306 6.8577 6.85721M6.00056 7.71436C5.52718 7.71436 5.14341 7.3306 5.14341 6.85721M6.00056 7.71436V6.00007M6.8577 6.85721C6.8577 6.38383 6.47394 6.00007 6.00056 6.00007M6.8577 6.85721H5.14341M6.00056 6.00007C5.52718 6.00007 5.14341 6.38383 5.14341 6.85721M12.8577 6.85721H18.8577M6.00056 18.0001C6.47394 18.0001 6.8577 17.6162 6.8577 17.1429M6.00056 18.0001C5.52718 18.0001 5.14341 17.6162 5.14341 17.1429M6.00056 18.0001V16.2858M6.8577 17.1429C6.8577 16.6695 6.47394 16.2858 6.00056 16.2858M6.8577 17.1429H5.14341M6.00056 16.2858C5.52718 16.2858 5.14341 16.6695 5.14341 17.1429M12.8577 17.1429H18.8577" stroke="black" stroke-width="1.5" stroke-linecap="round" stroke-linejoin="round"/>
</svg>
