<svg width="24" height="24" viewBox="0 0 24 24" fill="none" xmlns="http://www.w3.org/2000/svg">
<path d="M19.7137 4.49122C19.7137 6.49837 15.4924 8.1255 10.2852 8.1255C5.07789 8.1255 0.856583 6.49837 0.856583 4.49122M19.7137 4.49122C19.7137 2.48406 15.4924 0.856934 10.2852 0.856934C5.07789 0.856934 0.856583 2.48406 0.856583 4.49122M19.7137 4.49122V8.57142M0.856583 4.49122V16.08C0.856583 17.9612 4.56477 19.5086 9.31741 19.6954M0.856583 10.2855C0.856583 12.1471 4.48782 13.6818 9.169 13.8946M16.4741 13.448L16.8447 12.4915C16.9072 12.3295 17.0171 12.1902 17.1601 12.0918C17.3031 11.9934 17.4725 11.9405 17.6461 11.9399H18.3527C18.5264 11.9405 18.6958 11.9934 18.8387 12.0918C18.9817 12.1902 19.0916 12.3295 19.1542 12.4915L19.5248 13.448L20.7829 14.1719L21.7997 14.0167C21.969 13.9938 22.1413 14.0216 22.2947 14.0968C22.4483 14.172 22.5759 14.2911 22.6614 14.439L23.0062 15.0422C23.0945 15.1925 23.1353 15.366 23.1229 15.5398C23.1106 15.7137 23.0459 15.8797 22.9373 16.016L22.3081 16.8174V18.2652L22.9544 19.0666C23.0631 19.2029 23.1279 19.369 23.1401 19.5428C23.1524 19.7166 23.1118 19.8901 23.0235 20.0403L22.6787 20.6436C22.5932 20.7915 22.4655 20.9106 22.3121 20.9857C22.1586 21.061 21.9863 21.0888 21.817 21.0658L20.8001 20.9108L19.5419 21.6346L19.1715 22.5912C19.1089 22.7532 18.999 22.8924 18.8559 22.9908C18.7129 23.0892 18.5435 23.1421 18.3701 23.1426H17.6461C17.4725 23.1421 17.3031 23.0892 17.1601 22.9908C17.0171 22.8924 16.9072 22.7532 16.8447 22.5912L16.4741 21.6346L15.216 20.9108L14.1991 21.0658C14.0298 21.0888 13.8575 21.061 13.704 20.9857C13.5506 20.9106 13.423 20.7915 13.3374 20.6436L12.9927 20.0403C12.9044 19.8901 12.8637 19.7166 12.876 19.5428C12.8883 19.369 12.953 19.2029 13.0616 19.0666L13.6907 18.2652V16.8174L13.0444 16.016C12.9358 15.8797 12.871 15.7137 12.8587 15.5398C12.8464 15.366 12.8871 15.1925 12.9754 15.0422L13.3201 14.439C13.4057 14.2911 13.5334 14.172 13.6868 14.0968C13.8402 14.0216 14.0126 13.9938 14.1819 14.0167L15.1988 14.1719L16.4741 13.448ZM17.9994 18.3974C18.2268 18.3974 18.4448 18.3071 18.6055 18.1463C18.7663 17.9856 18.8566 17.7676 18.8566 17.5402C18.8566 17.3129 18.7663 17.0949 18.6055 16.9342C18.4448 16.7734 18.2268 16.6831 17.9994 16.6831C17.7721 16.6831 17.5541 16.7734 17.3933 16.9342C17.2326 17.0949 17.1423 17.3129 17.1423 17.5402C17.1423 17.7676 17.2326 17.9856 17.3933 18.1463C17.5541 18.3071 17.7721 18.3974 17.9994 18.3974Z" stroke="black" stroke-width="1.5" stroke-linecap="round" stroke-linejoin="round"/>
</svg>
