<svg width="24" height="24" viewBox="0 0 24 24" fill="none" xmlns="http://www.w3.org/2000/svg">
<path d="M5.14341 7.71436H13.7148M13.7148 7.71436C13.7148 6.29419 14.8661 5.14293 16.2863 5.14293C17.7064 5.14293 18.8577 6.29419 18.8577 7.71436C18.8577 9.13452 17.7064 10.2858 16.2863 10.2858C14.8661 10.2858 13.7148 9.13452 13.7148 7.71436ZM18.8577 16.2858H13.7148M13.7148 16.2858C13.7148 17.7059 12.5636 18.8572 11.1434 18.8572C9.72325 18.8572 8.57199 17.7059 8.57199 16.2858M13.7148 16.2858C13.7148 14.8656 12.5636 13.7144 11.1434 13.7144C9.72325 13.7144 8.57199 14.8656 8.57199 16.2858M8.57199 16.2858H5.14341M20.7039 1.71436H3.29726C2.42332 1.71436 1.71484 2.42283 1.71484 3.29677V20.7034C1.71484 21.5773 2.42332 22.2858 3.29726 22.2858H20.7039C21.5778 22.2858 22.2863 21.5773 22.2863 20.7034V3.29677C22.2863 2.42283 21.5778 1.71436 20.7039 1.71436Z" stroke="black" stroke-width="1.5" stroke-linecap="round" stroke-linejoin="round"/>
</svg>
