<svg width="24" height="24" viewBox="0 0 24 24" fill="none" xmlns="http://www.w3.org/2000/svg">
<path d="M0.855469 20.5285C1.39998 21.0843 2.15889 21.4291 2.99833 21.4291C4.65518 21.4291 5.99833 20.0859 5.99833 18.4291C5.99833 20.0859 7.34147 21.4291 8.99833 21.4291C10.6552 21.4291 11.9983 20.0859 11.9983 18.4291C11.9983 20.0859 13.3415 21.4291 14.9983 21.4291C16.6552 21.4291 17.9983 20.0859 17.9983 18.4291C17.9983 20.0859 19.3415 21.4291 20.9983 21.4291C21.8378 21.4291 22.5967 21.0843 23.1412 20.5285M0.855469 4.2862H4.28404M0.855469 11.1433H4.28404M14.536 7.23993C13.6247 6.78427 12.5732 6.41624 11.697 6.18841M17.4425 9.13232C18.056 9.60582 19.0724 10.4996 19.4755 11.3758M11.7485 10.6924C10.592 10.2367 9.34769 9.92125 8.57645 9.92125M16.1812 15.1613C15.9884 14.4077 15.4451 13.2861 14.5865 12.743M4.28404 1.71436V13.7144H8.56975V1.71436H4.28404Z" stroke="black" stroke-width="1.5" stroke-linecap="round" stroke-linejoin="round"/>
</svg>
