<svg width="24" height="24" viewBox="0 0 24 24" fill="none" xmlns="http://www.w3.org/2000/svg">
<path d="M11.0057 5.33817C11.6132 6.06236 11.9838 6.95549 12.0677 7.89699C12.1515 8.8385 11.9444 9.78305 11.4745 10.6032C11.0582 10.635 10.6453 10.5075 10.3194 10.2464C9.9936 9.98533 9.77914 9.61018 9.71949 9.19692C9.09663 9.53713 8.584 10.0483 8.242 10.6702C7.9 11.292 7.74289 11.9987 7.78918 12.7069C7.78893 13.2603 7.89769 13.8083 8.10925 14.3196C8.32081 14.8309 8.63103 15.2955 9.02218 15.6869C9.41333 16.0783 9.87775 16.3889 10.3889 16.6008C10.9001 16.8127 11.448 16.9218 12.0014 16.9219C13.1138 16.9069 14.1765 16.4583 14.9632 15.6716C15.7499 14.8849 16.1985 13.8222 16.2136 12.7097C16.3544 11.0641 15.909 9.42171 14.956 8.07277C14.003 6.72383 12.6038 5.75523 11.0057 5.33817Z" stroke="black" stroke-width="1.5" stroke-linecap="round" stroke-linejoin="round"/>
<path d="M2.8594 4.42768C2.8612 4.69629 2.85938 9.30957 2.8594 11.5658C2.85942 13.822 3.54314 16.0253 4.82043 17.8852C6.35233 20.1158 8.52495 21.4119 10.9903 22.3592C11.6403 22.6092 12.3598 22.6092 13.0097 22.3592C15.4751 21.4119 17.6477 20.1158 19.1796 17.8852C20.4569 16.0253 21.1406 13.822 21.1407 11.5658C21.1407 9.30957 21.1389 4.69629 21.1407 4.42768C21.1442 3.89046 20.8154 3.37442 20.3269 3.1508C17.7016 2.00552 14.8642 1.42698 12 1.45299C9.13589 1.42698 6.29848 2.00552 3.67315 3.1508C3.18468 3.37442 2.85581 3.89046 2.8594 4.42768Z" stroke="black" stroke-width="1.5" stroke-linecap="round" stroke-linejoin="round"/>
</svg>
