<svg width="24" height="24" viewBox="0 0 24 24" fill="none" xmlns="http://www.w3.org/2000/svg">
<path d="M17.1423 6.857L10.2852 15.4284L6.85659 12.857M2.85942 4.42976C2.86301 4.96698 2.85881 9.30964 2.85883 11.5659C2.85884 13.8221 3.54256 16.0254 4.81985 17.8852C6.09714 19.7451 7.90803 21.1742 10.0138 21.9843C11.528 22.5668 11.9585 22.7639 13.9851 21.9843C16.0909 21.1742 17.9018 19.7451 19.1791 17.8852C20.4563 16.0254 21.1401 13.8221 21.1401 11.5659C21.1401 9.30964 21.1365 4.96496 21.1401 4.42774C21.1437 3.89052 20.8148 3.37449 20.3263 3.15087C17.722 1.95861 14.8636 1.42705 11.9995 1.45306C9.13531 1.47906 6.2769 1.95861 3.67258 3.15087C3.1841 3.37449 2.85582 3.89254 2.85942 4.42976Z" stroke="black" stroke-width="1.5" stroke-linecap="round" stroke-linejoin="round"/>
</svg>
