<svg width="24" height="24" viewBox="0 0 24 24" fill="none" xmlns="http://www.w3.org/2000/svg">
<path d="M15.4274 7.71415L8.5703 14.5713M8.5703 7.71415L15.4274 14.5713M2.85884 4.42976C2.86243 4.96698 2.85823 9.30964 2.85825 11.5659C2.85827 13.8221 3.54198 16.0254 4.81927 17.8852C6.09656 19.7451 7.90745 21.1742 10.0132 21.9843C11.5274 22.5668 11.9579 22.7639 13.9845 21.9843C16.0903 21.1742 17.9012 19.7451 19.1785 17.8852C20.4558 16.0254 21.1395 13.8221 21.1395 11.5659C21.1395 9.30964 21.1359 4.96496 21.1395 4.42774C21.1431 3.89052 20.8142 3.37449 20.3257 3.15087C17.7214 1.95861 14.863 1.42705 11.9989 1.45306C9.13473 1.47906 6.27632 1.95861 3.672 3.15087C3.18352 3.37449 2.85524 3.89254 2.85884 4.42976Z" stroke="black" stroke-width="1.5" stroke-linecap="round" stroke-linejoin="round"/>
</svg>
