<svg width="24" height="24" viewBox="0 0 24 24" fill="none" xmlns="http://www.w3.org/2000/svg">
<path d="M20.729 14.5711C20.4003 15.7469 19.8791 16.8674 19.1802 17.8851C17.9029 19.7449 16.092 21.1741 13.9862 21.9841C11.9596 22.7637 11.5291 22.5666 10.0149 21.9841C7.90913 21.1741 6.09824 19.7449 4.82095 17.8851C3.54366 16.0252 2.85994 13.8219 2.85992 11.5657C2.85991 9.30948 2.86411 4.96682 2.86052 4.4296C2.85692 3.89238 3.1852 3.37434 3.67367 3.15071C5.75754 2.19673 8.00407 1.69904 10.2861 1.5249M19.7148 4.2855L16.2863 7.71408M16.2863 4.2855L19.7148 7.71408M23.1434 5.99979C23.1434 8.84011 20.8409 11.1426 18.0005 11.1426C15.1602 11.1426 12.8577 8.84011 12.8577 5.99979C12.8577 3.15947 15.1602 0.856934 18.0005 0.856934C20.8409 0.856934 23.1434 3.15947 23.1434 5.99979Z" stroke="black" stroke-width="1.5" stroke-linecap="round" stroke-linejoin="round"/>
</svg>
