<svg width="24" height="24" viewBox="0 0 24 24" fill="none" xmlns="http://www.w3.org/2000/svg">
<path d="M2.8644 6.2899L16.8999 20.3254M5.7807 2.35198L19.9704 16.5417M2.86165 4.42976C2.85805 3.89254 3.18633 3.37449 3.6748 3.15087C6.27913 1.95861 9.13754 1.47906 12.0017 1.45306C14.8658 1.42705 17.7242 1.95861 20.3286 3.15087C20.817 3.37449 21.1459 3.89052 21.1423 4.42774C21.1387 4.96496 21.1423 9.30964 21.1423 11.5659C21.1423 13.8221 20.4586 16.0254 19.1813 17.8852C17.904 19.7451 16.0931 21.1742 13.9873 21.9843C11.9607 22.7639 11.5303 22.5668 10.0161 21.9843C7.91026 21.1742 6.09936 19.7451 4.82208 17.8852C3.54479 16.0254 2.86107 13.8221 2.86105 11.5659C2.86103 9.30964 2.86524 4.96698 2.86165 4.42976Z" stroke="black" stroke-width="1.5" stroke-linecap="round" stroke-linejoin="round"/>
</svg>
