<svg width="24" height="24" viewBox="0 0 24 24" fill="none" xmlns="http://www.w3.org/2000/svg">
<path d="M2.85832 4.42976C2.86191 4.96698 2.85771 9.30964 2.85773 11.5659C2.85775 13.8221 3.54146 16.0254 4.81875 17.8852C6.09604 19.7451 7.90693 21.1742 10.0127 21.9843C11.5269 22.5668 11.9574 22.7639 13.984 21.9843C16.0898 21.1742 17.9007 19.7451 19.178 17.8852C20.4552 16.0254 21.139 13.8221 21.139 11.5659C21.139 9.30964 21.1354 4.96496 21.139 4.42774C21.1426 3.89052 20.8137 3.37449 20.3252 3.15087C17.7209 1.95861 14.8625 1.42705 11.9984 1.45306C9.13421 1.47906 6.2758 1.95861 3.67148 3.15087C3.183 3.37449 2.85473 3.89254 2.85832 4.42976Z" stroke="black" stroke-width="1.5" stroke-linecap="round" stroke-linejoin="round"/>
<path d="M13.7126 6.857H10.2841V9.42843H7.71264V12.857H10.2841V15.4284H13.7126V12.857H16.2841V9.42843H13.7126V6.857Z" stroke="black" stroke-width="1.5" stroke-linecap="round" stroke-linejoin="round"/>
</svg>
