<svg width="24" height="24" viewBox="0 0 24 24" fill="none" xmlns="http://www.w3.org/2000/svg">
<path d="M9.43022 11.1427H14.5731M9.43022 11.1427L7.71593 9.42843M9.43022 11.1427L7.71593 12.857M14.5731 11.1427L16.2874 9.42843M14.5731 11.1427L16.2874 12.857M12.0016 8.57129V13.7141M12.0016 8.57129L13.7159 6.857M12.0016 8.57129L10.2874 6.857M12.0016 13.7141L13.7159 15.4284M12.0016 13.7141L10.2874 15.4284M2.86161 4.42976C2.86521 4.96698 2.861 9.30964 2.86102 11.5659C2.86104 13.8221 3.54476 16.0254 4.82205 17.8852C6.09933 19.7451 7.91023 21.1742 10.016 21.9843C11.5302 22.5668 11.9607 22.7639 13.9873 21.9843C16.0931 21.1742 17.904 19.7451 19.1812 17.8852C20.4585 16.0254 21.1423 13.8221 21.1423 11.5659C21.1423 9.30964 21.1387 4.96496 21.1423 4.42774C21.1459 3.89052 20.817 3.37449 20.3285 3.15087C17.7242 1.95861 14.8658 1.42705 12.0016 1.45306C9.1375 1.47906 6.2791 1.95861 3.67477 3.15087C3.1863 3.37449 2.85802 3.89254 2.86161 4.42976Z" stroke="black" stroke-width="1.5" stroke-linecap="round" stroke-linejoin="round"/>
</svg>
