<svg width="24" height="24" viewBox="0 0 24 24" fill="none" xmlns="http://www.w3.org/2000/svg">
<path d="M2.85826 4.42976C2.86185 4.96698 2.85765 9.30964 2.85767 11.5659C2.85769 13.8221 3.5414 16.0254 4.81869 17.8852C6.09598 19.7451 7.90687 21.1742 10.0127 21.9843C11.5269 22.5668 11.9573 22.7639 13.9839 21.9843C16.0897 21.1742 17.9006 19.7451 19.1779 17.8852C20.4552 16.0254 21.1389 13.8221 21.1389 11.5659C21.1389 9.30964 21.1353 4.96496 21.1389 4.42774C21.1425 3.89052 20.8136 3.37449 20.3252 3.15087C17.7208 1.95861 14.8624 1.42705 11.9983 1.45306C9.13415 1.47906 6.27574 1.95861 3.67142 3.15087C3.18294 3.37449 2.85466 3.89254 2.85826 4.42976Z" stroke="black" stroke-width="1.5" stroke-linecap="round" stroke-linejoin="round"/>
<path d="M15.4269 11.9999C15.4269 13.8934 13.8918 15.4284 11.9983 15.4284C10.1047 15.4284 8.56972 13.8934 8.56972 11.9999C8.56972 10.1063 11.819 5.99986 11.9983 5.99986C12.1776 5.99986 15.4269 10.1063 15.4269 11.9999Z" stroke="black" stroke-width="1.5" stroke-linecap="round" stroke-linejoin="round"/>
</svg>
