<svg width="24" height="24" viewBox="0 0 24 24" fill="none" xmlns="http://www.w3.org/2000/svg">
<path d="M2.8611 4.42976C2.86469 4.96698 2.86048 9.30964 2.8605 11.5659C2.86052 13.8221 3.54424 16.0254 4.82153 17.8852C6.09881 19.7451 7.90971 21.1742 10.0155 21.9843C11.5297 22.5668 11.9602 22.7639 13.9868 21.9843C16.0925 21.1742 17.9034 19.7451 19.1807 17.8852C20.458 16.0254 21.1417 13.8221 21.1418 11.5659C21.1418 9.30964 21.1382 4.96496 21.1418 4.42774C21.1453 3.89052 20.8165 3.37449 20.328 3.15087C17.7237 1.95861 14.8653 1.42705 12.0011 1.45306C9.13699 1.47906 6.27858 1.95861 3.67425 3.15087C3.18578 3.37449 2.8575 3.89254 2.8611 4.42976Z" stroke="black" stroke-width="1.5" stroke-linecap="round" stroke-linejoin="round"/>
<path d="M13.144 5.62068V10.0343H17.144L10.8583 17.0961V12.6825H6.85827L13.144 5.62068Z" stroke="black" stroke-width="1.5" stroke-linecap="round" stroke-linejoin="round"/>
</svg>
