<svg width="24" height="24" viewBox="0 0 24 24" fill="none" xmlns="http://www.w3.org/2000/svg">
<path d="M7.71319 9.42843H12.4275C13.1376 9.42843 13.7132 8.8528 13.7132 8.14272C13.7132 7.43264 13.1376 6.857 12.4275 6.857H11.9989M7.71319 11.9999H14.9989C15.709 11.9999 16.2846 12.5755 16.2846 13.2856C16.2846 13.9957 15.709 14.5713 14.9989 14.5713H14.5703M2.85887 4.42976C2.86246 4.96698 2.85826 9.30964 2.85828 11.5659C2.8583 13.8221 3.54201 16.0254 4.8193 17.8852C6.09659 19.7451 7.90748 21.1742 10.0133 21.9843C11.5275 22.5668 11.9579 22.7639 13.9845 21.9843C16.0903 21.1742 17.9012 19.7451 19.1785 17.8852C20.4558 16.0254 21.1395 13.8221 21.1395 11.5659C21.1395 9.30964 21.1359 4.96496 21.1395 4.42774C21.1431 3.89052 20.8143 3.37449 20.3258 3.15087C17.7214 1.95861 14.863 1.42705 11.9989 1.45306C9.13476 1.47906 6.27635 1.95861 3.67203 3.15087C3.18355 3.37449 2.85527 3.89254 2.85887 4.42976Z" stroke="black" stroke-width="1.5" stroke-linecap="round" stroke-linejoin="round"/>
</svg>
