<svg width="24" height="24" viewBox="0 0 24 24" fill="none" xmlns="http://www.w3.org/2000/svg">
<path d="M20.729 14.5711C20.4003 15.7469 19.8791 16.8674 19.1802 17.8851C17.9029 19.7449 16.092 21.1741 13.9862 21.9841C11.9596 22.7637 11.5292 22.5666 10.015 21.9841C7.90919 21.1741 6.0983 19.7449 4.82101 17.8851C3.54372 16.0252 2.86 13.8219 2.85999 11.5657C2.85997 9.30948 2.86417 4.96682 2.86058 4.4296C2.85698 3.89238 3.18526 3.37434 3.67374 3.15071C5.7576 2.19673 8.00413 1.69904 10.2861 1.5249M18.0006 3.85693V6.42836L19.7149 7.28551M23.1435 5.99979C23.1435 8.84011 20.8409 11.1426 18.0006 11.1426C15.1603 11.1426 12.8578 8.84011 12.8578 5.99979C12.8578 3.15947 15.1603 0.856934 18.0006 0.856934C20.8409 0.856934 23.1435 3.15947 23.1435 5.99979Z" stroke="black" stroke-width="1.5" stroke-linecap="round" stroke-linejoin="round"/>
</svg>
