<svg width="24" height="24" viewBox="0 0 24 24" fill="none" xmlns="http://www.w3.org/2000/svg">
<path d="M20.7295 14.5711C20.4008 15.7469 19.8796 16.8674 19.1807 17.8851C17.9034 19.7449 16.0925 21.1741 13.9867 21.9841C11.9601 22.7637 11.5297 22.5666 10.0155 21.9841C7.90968 21.1741 6.09878 19.7449 4.8215 17.8851C3.54421 16.0252 2.86049 13.8219 2.86047 11.5657C2.86045 9.30948 2.86466 4.96682 2.86107 4.4296C2.85747 3.89238 3.18575 3.37434 3.67422 3.15071C5.75809 2.19673 8.00462 1.69904 10.2866 1.5249M19.9919 4.69524L17.5647 7.39564L15.9587 6.26414M23.144 5.99979C23.144 8.84011 20.8414 11.1426 18.0011 11.1426C15.1608 11.1426 12.8582 8.84011 12.8582 5.99979C12.8582 3.15947 15.1608 0.856934 18.0011 0.856934C20.8414 0.856934 23.144 3.15947 23.144 5.99979Z" stroke="black" stroke-width="1.5" stroke-linecap="round" stroke-linejoin="round"/>
</svg>
