<svg width="24" height="24" viewBox="0 0 24 24" fill="none" xmlns="http://www.w3.org/2000/svg">
<path d="M12.0016 5.14265V23.1426M6.85878 3.42836L9.83021 1.19979C10.1269 0.977238 10.4879 0.856934 10.8588 0.856934H13.1445C13.5154 0.856934 13.8763 0.977239 14.1731 1.19979L17.1445 3.42836M19.7159 9.42836H15.4302V13.7141L19.7159 14.5712M6.00164 23.1426H18.0016C18.9484 23.1426 19.7159 22.3751 19.7159 21.4284V5.14265C19.7159 4.19587 18.9484 3.42836 18.0016 3.42836H16.6175C16.3994 3.42836 16.1833 3.46998 15.9808 3.55097L12.6383 4.88798C12.2296 5.05146 11.7737 5.05146 11.365 4.88798L8.02245 3.55097C7.81996 3.46998 7.60387 3.42836 7.38578 3.42836H6.00164C5.05486 3.42836 4.28735 4.19587 4.28735 5.14265V21.4284C4.28735 22.3751 5.05487 23.1426 6.00164 23.1426Z" stroke="black" stroke-width="1.5" stroke-linecap="round" stroke-linejoin="round"/>
</svg>
