<svg width="24" height="24" viewBox="0 0 24 24" fill="none" xmlns="http://www.w3.org/2000/svg">
<path d="M8.10864 2.57129H6.71011C6.25546 2.57129 5.81942 2.75191 5.49794 3.07339L0.857178 7.71415L4.28575 11.1427L6.00003 9.42843V19.7141C6.00003 20.1688 6.18065 20.6049 6.50213 20.9263C6.82363 21.2477 7.25966 21.4284 7.71432 21.4284H16.2857C16.7404 21.4284 17.1765 21.2477 17.4979 20.9263C17.8193 20.6049 18 20.1688 18 19.7141V9.42843L19.7143 11.1427L23.1429 7.71415L18.5021 3.07339C18.1807 2.75191 17.7446 2.57129 17.29 2.57129H15.8912C15.1773 3.99701 13.7029 4.9758 11.9999 4.9758C10.2969 4.9758 8.82254 3.99701 8.10864 2.57129Z" stroke="black" stroke-width="1.5" stroke-linecap="round" stroke-linejoin="round"/>
</svg>
