<svg width="24" height="24" viewBox="0 0 24 24" fill="none" xmlns="http://www.w3.org/2000/svg">
<path d="M4.2645 16.9217V21.1404C4.2645 21.5134 4.41265 21.8711 4.67638 22.1348C4.9401 22.3985 5.29779 22.5467 5.67075 22.5467C6.04371 22.5467 6.40139 22.3985 6.66511 22.1348C6.92884 21.8711 7.077 21.5134 7.077 21.1404V18.7967M4.2645 16.9217C5.43637 17.6991 11.5309 21.7711 11.9932 22.0778C12.4556 22.3845 12.9984 22.5476 13.5532 22.5465C14.1081 22.5455 17.0846 22.5465 18.0186 22.5465C18.9525 22.5465 19.7333 21.7658 19.7332 20.8318C19.7332 20.074 19.529 19.3302 19.1421 18.6786C18.7553 18.027 18.2001 17.4916 17.5348 17.1287C16.8696 16.7658 14.5205 15.4845 13.5711 14.9668C12.6216 14.4492 12.043 13.4014 12.1104 12.3222C12.1779 11.2429 12.702 4.72274 12.702 2.85903C11.5199 1.88128 10.0155 1.37982 8.48325 1.45278M4.2645 16.9217C4.2645 15.9999 4.2645 4.82526 4.2645 2.85903C5.44656 1.88128 6.95094 1.37982 8.48325 1.45278M8.48325 1.45278V12.7029" stroke="black" stroke-width="1.5" stroke-linecap="round" stroke-linejoin="round"/>
</svg>
