<svg width="24" height="24" viewBox="0 0 24 24" fill="none" xmlns="http://www.w3.org/2000/svg">
<path d="M0.75 15.25H23.25M14.2898 8.46012C12.3246 7.30231 10.6956 6.34778 10.5 6.25C10.4971 8.11982 9.05853 9.74174 7.20241 9.96775C5.3463 10.1938 3.5605 8.96449 3.109 7.15C2.77788 5.81929 0.75 6.09211 0.75 7.459C0.75 8.82589 0.75 15.933 0.75 16.75C0.75 17.567 1.433 18.25 2.25 18.25C3.067 18.25 20.933 18.25 21.75 18.25C22.567 18.25 23.25 17.567 23.25 16.75C23.25 15.933 23.2499 16.511 23.25 15.466C23.2501 14.421 22.6718 13.4098 21.771 12.88C21.3853 12.6531 19.3549 11.4507 17.1198 10.1301M14.2898 8.46012C15.1975 8.99488 16.1768 9.57301 17.1198 10.1301M14.2898 8.46012L12.75 10M17.1198 10.1301L15.75 11.4999" stroke="black" stroke-width="1.5" stroke-linecap="round" stroke-linejoin="round"/>
</svg>
