<svg width="24" height="24" viewBox="0 0 24 24" fill="none" xmlns="http://www.w3.org/2000/svg">
<path d="M16.4442 14.8125C15.8668 14.8118 15.3029 14.5316 14.9536 14.0719C14.6043 13.6121 8.00049 4.4844 6.37547 2.85938C4.41651 2.86092 2.60132 4.06792 1.84212 5.87378C1.08293 7.67965 1.49043 9.82107 2.85984 11.2219C2.85984 13.5 2.85984 18.9684 2.85984 19.7344C2.85984 20.5003 3.50015 21.1406 4.26609 21.1406C5.03203 21.1406 5.67234 20.5003 5.67234 19.7344C5.67234 18.9684 5.66749 13.7777 5.67234 13.4062C5.6772 13.0348 6.00402 12.708 6.37547 12.7031C8.05379 12.7031 9.66337 13.3698 10.8501 14.5566C12.0369 15.7433 12.7036 17.3529 12.7036 19.0312V19.7344C12.7036 20.5003 13.3439 21.1406 14.1098 21.1406C14.8758 21.1406 20.3752 21.1406 21.1411 21.1406C21.907 21.1406 22.5473 20.5003 22.5473 19.7344C22.5473 18.9684 22.5473 20.6063 22.5473 16.9219C22.5473 13.2375 19.7817 12.3 18.7973 12.9187C18.0567 13.4062 17.4848 14.8125 16.4442 14.8125Z" stroke="black" stroke-width="1.5" stroke-linecap="round" stroke-linejoin="round"/>
</svg>
