<svg width="24" height="24" viewBox="0 0 24 24" fill="none" xmlns="http://www.w3.org/2000/svg">
<path d="M9.53961 7.07812C9.53961 5.58628 10.1322 4.15554 11.1871 3.10065C12.242 2.04576 13.6728 1.45313 15.1646 1.45312C16.6565 1.45313 18.0872 2.04576 19.1421 3.10065C20.197 4.15554 20.7896 5.58628 20.7896 7.07812V22.5469M9.53961 7.07812C8.42073 7.07813 7.34767 7.5226 6.5565 8.31377C5.76534 9.10494 5.32086 10.178 5.32086 11.2969H13.7584C13.7584 10.178 13.3139 9.10494 12.5227 8.31377C11.7315 7.5226 10.6585 7.07812 9.53961 7.07812ZM6.02399 14.1094L5.32086 16.2188M3.91461 20.4375L3.21149 22.5469M13.0552 14.1094L13.7584 16.2188M15.1646 20.4375L15.8677 22.5469M9.53961 14.1094V16.2188M9.53961 22.5469V20.4375" stroke="black" stroke-width="1.5" stroke-linecap="round" stroke-linejoin="round"/>
</svg>
