<svg width="24" height="24" viewBox="0 0 24 24" fill="none" xmlns="http://www.w3.org/2000/svg">
<path d="M18.8566 7.71408C20.7502 7.71408 22.2852 6.17905 22.2852 4.2855C22.2852 2.39196 20.7502 0.856934 18.8566 0.856934C16.963 0.856934 15.428 2.39196 15.428 4.2855C15.428 6.17905 16.963 7.71408 18.8566 7.71408Z" stroke="black" stroke-width="1.5" stroke-linecap="round" stroke-linejoin="round"/>
<path d="M18.8566 11.1426C14.5709 11.1426 14.5709 22.2855 14.5709 23.1426H23.1423C23.1423 22.2855 23.1423 11.1426 18.8566 11.1426Z" stroke="black" stroke-width="1.5" stroke-linecap="round" stroke-linejoin="round"/>
<path d="M5.1423 7.71408C7.03585 7.71408 8.57087 6.17905 8.57087 4.2855C8.57087 2.39196 7.03585 0.856934 5.1423 0.856934C3.24875 0.856934 1.71373 2.39196 1.71373 4.2855C1.71373 6.17905 3.24875 7.71408 5.1423 7.71408Z" stroke="black" stroke-width="1.5" stroke-linecap="round" stroke-linejoin="round"/>
<path d="M5.1423 23.1426C0.856582 23.1426 0.856583 11.9998 0.856583 11.1426H9.42801C9.42801 11.9997 9.42801 23.1426 5.1423 23.1426Z" stroke="black" stroke-width="1.5" stroke-linecap="round" stroke-linejoin="round"/>
</svg>
