<svg width="24" height="24" viewBox="0 0 24 24" fill="none" xmlns="http://www.w3.org/2000/svg">
<path d="M9.88728 19.0312V12H10.5904C11.1498 12 11.6864 12.2222 12.082 12.6178C12.4775 13.0134 12.6998 13.5499 12.6998 14.1094C12.6998 14.6688 12.4775 15.2053 12.082 15.6009C11.6864 15.9965 11.1498 16.2188 10.5904 16.2188H9.88728M7.07478 12H5.66853C5.29557 12 4.93789 12.1482 4.67416 12.4119C4.41044 12.6756 4.26228 13.0333 4.26228 13.4062C4.26228 15.5156 7.07478 15.5156 7.07478 17.625C7.07478 17.998 6.92663 18.3556 6.6629 18.6194C6.39918 18.8831 6.04149 19.0312 5.66853 19.0312H4.26228M15.5123 19.0312V13.4062C15.5123 13.0333 15.6604 12.6756 15.9242 12.4119C16.1879 12.1482 16.5456 12 16.9185 12C17.2915 12 17.6492 12.1482 17.9129 12.4119C18.1766 12.6756 18.3248 13.0333 18.3248 13.4062V19.0312M15.5123 16.2188H18.3248M5.66853 9.1875V2.15625M18.3248 9.1875V2.15625M1.44978 2.15625H22.5435M2.38728 9.1875H21.606C21.606 9.1875 22.5435 9.1875 22.5435 10.125V20.9062C22.5435 20.9062 22.5435 21.8438 21.606 21.8438H2.38728C2.38728 21.8438 1.44978 21.8438 1.44978 20.9062V10.125C1.44978 10.125 1.44978 9.1875 2.38728 9.1875Z" stroke="black" stroke-width="1.5" stroke-linecap="round" stroke-linejoin="round"/>
</svg>
