<svg width="24" height="24" viewBox="0 0 24 24" fill="none" xmlns="http://www.w3.org/2000/svg">
<path d="M5.14452 6.85721C6.56469 6.85721 7.71595 5.70594 7.71595 4.28578C7.71595 2.86562 6.56469 1.71436 5.14452 1.71436C3.72436 1.71436 2.5731 2.86562 2.5731 4.28578C2.5731 5.70594 3.72436 6.85721 5.14452 6.85721ZM5.14452 6.85721C7.09089 6.85721 8.72058 8.33207 8.91425 10.2688L9.43024 15.4286H0.85881L1.3748 10.2688C1.56847 8.33207 3.19816 6.85721 5.14452 6.85721ZM18.0017 6.85721C19.4218 6.85721 20.5731 5.70594 20.5731 4.28578C20.5731 2.86562 19.4218 1.71436 18.0017 1.71436C16.5815 1.71436 15.4302 2.86562 15.4302 4.28578C15.4302 5.70594 16.5815 6.85721 18.0017 6.85721ZM18.0017 6.85721C19.5199 6.85721 20.8502 7.87334 21.2497 9.33803L23.1445 17.1429H20.1445L19.716 22.2858H16.2874L15.8588 17.1429H12.8588L14.7537 9.33803C15.1531 7.87334 16.4835 6.85721 18.0017 6.85721ZM7.71595 15.4286L6.85881 22.2858H3.43024L2.5731 15.4286" stroke="black" stroke-width="1.5" stroke-linecap="round" stroke-linejoin="round"/>
</svg>
