<svg width="24" height="24" viewBox="0 0 24 24" fill="none" xmlns="http://www.w3.org/2000/svg">
<path d="M5.27077 16.4277L4.11601 17.5825C2.84377 18.8547 2.84377 20.9173 4.11601 22.1896C5.38823 23.4618 7.45095 23.4618 8.72317 22.1896L12.3401 18.5727C13.4861 17.4267 15.3441 17.4267 16.4901 18.5727C17.6362 19.7187 17.6362 21.5766 16.4901 22.7226L16.0937 23.1191M15.2996 11.2395C16.7424 11.335 18.2174 10.8314 19.3202 9.7286C21.3499 7.69885 21.3499 4.40799 19.3202 2.37826C17.2905 0.348523 13.9996 0.348523 11.9698 2.37826C10.8671 3.48104 10.3634 4.95608 10.459 6.39888L15.2996 11.2395ZM4.7903 13.853L10.4557 6.39851L15.2974 11.2402L7.84291 16.9056C7.16038 17.4244 6.19961 17.3591 5.59344 16.7529L4.94297 16.1025C4.33679 15.4963 4.27159 14.5355 4.7903 13.853Z" stroke="black" stroke-width="1.5" stroke-linecap="round" stroke-linejoin="round"/>
</svg>
