<svg width="24" height="24" viewBox="0 0 24 24" fill="none" xmlns="http://www.w3.org/2000/svg">
<g clip-path="url(#clip0_7460_1282)">
<path d="M2.46436 20.5757V3.42432C2.46438 2.89414 2.89413 2.46436 3.42432 2.46436H14.7183C15.1325 2.46436 15.4683 2.12857 15.4683 1.71436C15.4683 1.30014 15.1325 0.964355 14.7183 0.964355H3.42432C2.06571 0.964355 0.964377 2.06571 0.964355 3.42432V20.5757C0.964355 21.9343 2.0657 23.0356 3.42432 23.0356H14.7144C15.1284 23.0354 15.4644 22.6997 15.4644 22.2856C15.4643 21.8716 15.1283 21.5358 14.7144 21.5356H3.42432C2.89412 21.5356 2.46436 21.1059 2.46436 20.5757Z" fill="black"/>
<path d="M12.7491 3.42432C12.7491 2.8943 13.1791 2.46461 13.7091 2.46436H20.5753C21.1054 2.46438 21.5352 2.89415 21.5352 3.42432V20.5757C21.5352 21.1059 21.1054 21.5356 20.5753 21.5356H13.7091C13.1791 21.5354 12.7491 21.1057 12.7491 20.5757V3.42432ZM11.2491 20.5757C11.2491 21.9341 12.3506 23.0354 13.7091 23.0356H20.5753C21.9339 23.0356 23.0352 21.9343 23.0352 20.5757V3.42432C23.0352 2.06573 21.9339 0.964376 20.5753 0.964355H13.7091C12.3507 0.964606 11.2491 2.06587 11.2491 3.42432V20.5757Z" fill="black"/>
<path d="M19.6067 12.8568V11.1429C19.6067 10.7287 19.2709 10.3929 18.8567 10.3929C18.4424 10.3929 18.1067 10.7287 18.1067 11.1429V12.8568C18.1067 13.271 18.4424 13.6068 18.8567 13.6068C19.2709 13.6068 19.6067 13.271 19.6067 12.8568Z" fill="black"/>
</g>
<defs>
<clipPath id="clip0_7460_1282">
<rect width="24" height="24" fill="white"/>
</clipPath>
</defs>
</svg>
