<svg width="24" height="24" viewBox="0 0 24 24" fill="none" xmlns="http://www.w3.org/2000/svg">
<g clip-path="url(#clip0_7460_1286)">
<path d="M23.0362 19.719V4.28146C23.0362 2.92287 21.9348 1.82152 20.5762 1.8215H15.4288L15.3526 1.8254C14.9743 1.86371 14.6788 2.1831 14.6788 2.5715C14.6788 2.9599 14.9743 3.27929 15.3526 3.31759L15.4288 3.3215H20.5762C21.1064 3.32152 21.5362 3.7513 21.5362 4.28146V19.719C21.536 20.249 21.1063 20.6789 20.5762 20.6789H15.4288C15.0147 20.6791 14.6788 21.0148 14.6788 21.4289C14.6788 21.843 15.0147 22.1788 15.4288 22.1789H20.5762C21.9347 22.1789 23.036 21.0774 23.0362 19.719Z" fill="black"/>
<path d="M2.46436 3.42432C2.46438 2.8943 2.89435 2.46461 3.42432 2.46436H10.2905C10.8207 2.46438 11.2505 2.89415 11.2505 3.42432V20.5757C11.2505 21.1059 10.8207 21.5356 10.2905 21.5356H3.42432C2.89434 21.5354 2.46436 21.1057 2.46436 20.5757V3.42432ZM0.964355 20.5757C0.964355 21.9341 2.06591 23.0354 3.42432 23.0356H10.2905C11.6491 23.0356 12.7505 21.9343 12.7505 20.5757V3.42432C12.7505 2.06573 11.6491 0.964376 10.2905 0.964355H3.42432C2.06592 0.964606 0.964377 2.06587 0.964355 3.42432V20.5757Z" fill="black"/>
<path d="M9.32192 12.8568V11.1429C9.32192 10.7287 8.98613 10.3929 8.57192 10.3929C8.1577 10.3929 7.82192 10.7287 7.82192 11.1429V12.8568C7.82192 13.271 8.1577 13.6068 8.57192 13.6068C8.98613 13.6068 9.32192 13.271 9.32192 12.8568Z" fill="black"/>
<path d="M2.46436 20.5757V3.42432C2.46438 2.8943 2.89435 2.46461 3.42432 2.46436H10.2905C10.7047 2.46436 11.0404 2.12857 11.0404 1.71436C11.0404 1.30014 10.7047 0.964355 10.2905 0.964355H3.42432C2.06592 0.964606 0.964377 2.06587 0.964355 3.42432V20.5757C0.964355 21.9341 2.06591 23.0354 3.42432 23.0356H10.2865C10.7005 23.0354 11.0365 22.6997 11.0365 22.2856C11.0364 21.8716 10.7005 21.5358 10.2865 21.5356H3.42432C2.89434 21.5354 2.46436 21.1057 2.46436 20.5757Z" fill="black"/>
</g>
<defs>
<clipPath id="clip0_7460_1286">
<rect width="24" height="24" fill="white"/>
</clipPath>
</defs>
</svg>
