<svg width="24" height="24" viewBox="0 0 24 24" fill="none" xmlns="http://www.w3.org/2000/svg">
<g clip-path="url(#clip0_7460_1266)">
<path d="M0.964355 19.719V4.28146C0.964377 2.92287 2.06573 1.82152 3.42432 1.8215H8.57178L8.64795 1.8254C9.02625 1.86371 9.32178 2.1831 9.32178 2.5715C9.32178 2.9599 9.02625 3.27929 8.64795 3.31759L8.57178 3.3215H3.42432C2.89416 3.32152 2.46438 3.7513 2.46436 4.28146V19.719C2.46453 20.249 2.89425 20.6789 3.42432 20.6789H8.57178C8.98588 20.6791 9.32179 21.0148 9.32178 21.4289C9.32174 21.843 8.98584 22.1788 8.57178 22.1789H3.42432C2.06582 22.1789 0.964529 21.0774 0.964355 19.719Z" fill="black"/>
<path d="M21.5362 3.42432C21.5362 2.8943 21.1062 2.46461 20.5762 2.46436H13.71C13.1799 2.46438 12.7501 2.89415 12.7501 3.42432V20.5757C12.7501 21.1059 13.1799 21.5356 13.71 21.5356H20.5762C21.1062 21.5354 21.5362 21.1057 21.5362 20.5757V3.42432ZM23.0362 20.5757C23.0362 21.9341 21.9347 23.0354 20.5762 23.0356H13.71C12.3514 23.0356 11.2501 21.9343 11.2501 20.5757V3.42432C11.2501 2.06573 12.3514 0.964376 13.71 0.964355H20.5762C21.9346 0.964606 23.0362 2.06587 23.0362 3.42432V20.5757Z" fill="black"/>
<path d="M14.6786 12.8568V11.1429C14.6786 10.7287 15.0144 10.3929 15.4286 10.3929C15.8429 10.3929 16.1786 10.7287 16.1786 11.1429V12.8568C16.1786 13.271 15.8429 13.6068 15.4286 13.6068C15.0144 13.6068 14.6786 13.271 14.6786 12.8568Z" fill="black"/>
<path d="M21.5362 20.5757V3.42432C21.5362 2.8943 21.1062 2.46461 20.5762 2.46436H13.71C13.2958 2.46436 12.9602 2.12857 12.9602 1.71436C12.9602 1.30014 13.2958 0.964355 13.71 0.964355H20.5762C21.9346 0.964606 23.0362 2.06587 23.0362 3.42432V20.5757C23.0362 21.9341 21.9347 23.0354 20.5762 23.0356H13.7141C13.3 23.0354 12.9641 22.6997 12.9641 22.2856C12.9641 21.8716 13.3001 21.5358 13.7141 21.5356H20.5762C21.1062 21.5354 21.5362 21.1057 21.5362 20.5757Z" fill="black"/>
</g>
<defs>
<clipPath id="clip0_7460_1266">
<rect width="24" height="24" fill="white"/>
</clipPath>
</defs>
</svg>
