<svg width="24" height="24" viewBox="0 0 24 24" fill="none" xmlns="http://www.w3.org/2000/svg">
<g clip-path="url(#clip0_7460_1262)">
<path d="M21.5352 20.5757V3.42432C21.5352 2.89414 21.1054 2.46436 20.5753 2.46436H9.28132C8.86711 2.46436 8.53132 2.12857 8.53132 1.71436C8.53132 1.30014 8.86711 0.964355 9.28132 0.964355H20.5753C21.9339 0.964355 23.0352 2.06571 23.0352 3.42432V20.5757C23.0352 21.9343 21.9339 23.0356 20.5753 23.0356H9.28523C8.87119 23.0354 8.53523 22.6997 8.53523 22.2856C8.5353 21.8716 8.87123 21.5358 9.28523 21.5356H20.5753C21.1055 21.5356 21.5352 21.1059 21.5352 20.5757Z" fill="black"/>
<path d="M11.2505 3.42432C11.2505 2.8943 10.8205 2.46461 10.2905 2.46436H3.42432C2.89416 2.46438 2.46438 2.89415 2.46436 3.42432V20.5757C2.46436 21.1059 2.89414 21.5356 3.42432 21.5356H10.2905C10.8205 21.5354 11.2505 21.1057 11.2505 20.5757V3.42432ZM12.7505 20.5757C12.7505 21.9341 11.6489 23.0354 10.2905 23.0356H3.42432C2.06572 23.0356 0.964355 21.9343 0.964355 20.5757V3.42432C0.964377 2.06573 2.06573 0.964376 3.42432 0.964355H10.2905C11.6489 0.964606 12.7505 2.06587 12.7505 3.42432V20.5757Z" fill="black"/>
<path d="M4.3946 12.8568V11.1429C4.3946 10.7287 4.73039 10.3929 5.1446 10.3929C5.55881 10.3929 5.8946 10.7287 5.8946 11.1429V12.8568C5.8946 13.271 5.55881 13.6068 5.1446 13.6068C4.73039 13.6068 4.3946 13.271 4.3946 12.8568Z" fill="black"/>
</g>
<defs>
<clipPath id="clip0_7460_1262">
<rect width="24" height="24" fill="white"/>
</clipPath>
</defs>
</svg>
