<svg width="24" height="24" viewBox="0 0 24 24" fill="none" xmlns="http://www.w3.org/2000/svg">
<g clip-path="url(#clip0_7460_1271)">
<path d="M21.5356 3.42822C21.5354 2.89595 21.1041 2.46451 20.5718 2.46436H3.42822C2.896 2.46458 2.46458 2.89599 2.46436 3.42822V20.5718C2.46451 21.1041 2.89595 21.5354 3.42822 21.5356H20.5718C21.1041 21.5355 21.5355 21.1041 21.5356 20.5718V3.42822ZM23.0356 20.5718C23.0355 21.9325 21.9325 23.0355 20.5718 23.0356H3.42822C2.06752 23.0354 0.964506 21.9325 0.964355 20.5718V3.42822C0.964583 2.06757 2.06757 0.964582 3.42822 0.964355H20.5718C21.9325 0.964507 23.0354 2.06752 23.0356 3.42822V20.5718Z" fill="black"/>
<path d="M12.0005 0.964355C12.4145 0.964582 12.7505 1.30028 12.7505 1.71436V22.2856C12.7505 22.6997 12.4145 23.0354 12.0005 23.0356H3.42822C2.06752 23.0354 0.964506 21.9325 0.964355 20.5718V3.42822C0.964583 2.06757 2.06757 0.964582 3.42822 0.964355H12.0005ZM2.46436 20.5718C2.46451 21.1041 2.89595 21.5354 3.42822 21.5356H11.2505V2.46436H3.42822C2.896 2.46458 2.46458 2.89599 2.46436 3.42822V20.5718Z" fill="black"/>
<path d="M21.5356 3.42822C21.5354 2.89595 21.1041 2.46451 20.5718 2.46436H12.7501V21.5356H20.5718C21.1041 21.5355 21.5355 21.1041 21.5356 20.5718V3.42822ZM23.0356 20.5718C23.0355 21.9325 21.9325 23.0355 20.5718 23.0356H12.0005C11.5863 23.0356 11.2501 22.6999 11.2501 22.2856V1.71436C11.2501 1.30014 11.5863 0.964355 12.0005 0.964355H20.5718C21.9325 0.964507 23.0354 2.06752 23.0356 3.42822V20.5718Z" fill="black"/>
<path d="M7.82317 12.8568V11.1429C7.82317 10.7287 8.15896 10.3929 8.57317 10.3929C8.98739 10.3929 9.32317 10.7287 9.32317 11.1429V12.8568C9.32317 13.271 8.98739 13.6068 8.57317 13.6068C8.15896 13.6068 7.82317 13.271 7.82317 12.8568Z" fill="black"/>
<path d="M14.6803 12.8568V11.1429C14.6803 10.7287 15.0161 10.3929 15.4303 10.3929C15.8445 10.3929 16.1803 10.7287 16.1803 11.1429V12.8568C16.1803 13.271 15.8445 13.6068 15.4303 13.6068C15.0161 13.6068 14.6803 13.271 14.6803 12.8568Z" fill="black"/>
</g>
<defs>
<clipPath id="clip0_7460_1271">
<rect width="24" height="24" fill="white"/>
</clipPath>
</defs>
</svg>
