<svg width="24" height="24" viewBox="0 0 24 24" fill="none" xmlns="http://www.w3.org/2000/svg">
<g clip-path="url(#clip0_7460_1277)">
<path d="M8.67822 3.42432C8.6782 2.89414 8.24844 2.46436 7.71826 2.46436H3.42432C2.89416 2.46438 2.46438 2.89415 2.46436 3.42432V20.5757C2.46436 21.1059 2.89414 21.5356 3.42432 21.5356H7.71826C8.24845 21.5356 8.67822 21.1059 8.67822 20.5757V3.42432ZM10.1782 20.5757C10.1782 21.9343 9.07688 23.0356 7.71826 23.0356H3.42432C2.06572 23.0356 0.964355 21.9343 0.964355 20.5757V3.42432C0.964378 2.06573 2.06573 0.964377 3.42432 0.964355H7.71826C9.07687 0.964355 10.1782 2.06571 10.1782 3.42432V20.5757Z" fill="black"/>
<path d="M21.5354 3.42432C21.5353 2.89414 21.1056 2.46436 20.5754 2.46436H16.2815C15.7513 2.46438 15.3215 2.89415 15.3215 3.42432V20.5757C15.3215 21.1059 15.7513 21.5356 16.2815 21.5356H20.5754C21.1056 21.5356 21.5354 21.1059 21.5354 20.5757V3.42432ZM23.0354 20.5757C23.0354 21.9343 21.934 23.0356 20.5754 23.0356H16.2815C14.9229 23.0356 13.8215 21.9343 13.8215 20.5757V3.42432C13.8215 2.06573 14.9229 0.964377 16.2815 0.964355H20.5754C21.934 0.964355 23.0353 2.06571 23.0354 3.42432V20.5757Z" fill="black"/>
<path d="M5.25174 12.8568V11.1429C5.25174 10.7287 5.58753 10.3929 6.00174 10.3929C6.41596 10.3929 6.75174 10.7287 6.75174 11.1429V12.8568C6.75174 13.271 6.41596 13.6068 6.00174 13.6068C5.58753 13.6068 5.25174 13.271 5.25174 12.8568Z" fill="black"/>
<path d="M17.2517 12.8568V11.1429C17.2517 10.7287 17.5875 10.3929 18.0017 10.3929C18.416 10.3929 18.7517 10.7287 18.7517 11.1429V12.8568C18.7517 13.271 18.416 13.6068 18.0017 13.6068C17.5875 13.6068 17.2517 13.271 17.2517 12.8568Z" fill="black"/>
</g>
<defs>
<clipPath id="clip0_7460_1277">
<rect width="24" height="24" fill="white"/>
</clipPath>
</defs>
</svg>
