<svg width="24" height="24" viewBox="0 0 24 24" fill="none" xmlns="http://www.w3.org/2000/svg">
<path d="M3.4269 18.8572V22.2858M20.5698 18.8572V22.2858M2.56975 8.5715V7.59191C2.56975 4.34582 5.20122 1.71436 8.4473 1.71436H15.5493C18.7954 1.71436 21.4269 4.34582 21.4269 7.59191V7.71436M11.9983 1.71436V13.7144M0.855469 15.4286V10.7144C0.855469 9.53089 1.81486 8.5715 2.99833 8.5715C4.18179 8.5715 5.14118 9.53089 5.14118 10.7144V13.7144H18.8555V9.85721C18.8555 8.67375 19.8149 7.71436 20.9983 7.71436C22.1818 7.71436 23.1412 8.67375 23.1412 9.85721V15.4286C23.1412 17.3222 21.6062 18.8572 19.7126 18.8572H4.28404C2.39049 18.8572 0.855469 17.3222 0.855469 15.4286Z" stroke="black" stroke-width="1.5" stroke-linecap="round" stroke-linejoin="round"/>
</svg>
