<svg width="24" height="24" viewBox="0 0 24 24" fill="none" xmlns="http://www.w3.org/2000/svg">
<path d="M19.5698 7.71408V11.9998M14.4269 23.1426L16.1412 21.4284M12.7126 11.1426V7.22428C12.7126 5.60124 14.0283 4.2855 15.6514 4.2855H23.1412M12.7126 11.1426L13.6091 11.1426C14.8219 11.1426 15.6512 12.3676 15.2008 13.4936L14.4269 15.4284H23.1412M12.7126 11.1426C11.7658 11.1426 10.9983 11.9102 10.9983 12.8569V18.4785C10.9983 19.2164 11.4705 19.8715 12.1705 20.1048L15.8773 21.3404C16.0521 21.3987 16.2351 21.4284 16.4194 21.4284H23.1412M4.71373 7.2855C5.89719 7.2855 6.85658 6.32612 6.85658 5.14265C6.85658 3.95918 5.89719 2.99979 4.71373 2.99979M4.71373 7.2855C3.53026 7.2855 2.57087 6.32612 2.57087 5.14265C2.57087 3.95918 3.53026 2.99979 4.71373 2.99979M4.71373 7.2855L4.71373 9.42836M4.71373 2.99979L4.71373 0.856934M8.42441 2.99979L6.56864 4.07122M8.42441 7.28551L6.56864 6.21408M1.00391 7.28551L2.85968 6.21408M1.00391 2.99979L2.85968 4.07122" stroke="black" stroke-width="1.5" stroke-linecap="round" stroke-linejoin="round"/>
</svg>
