<svg width="24" height="24" viewBox="0 0 24 24" fill="none" xmlns="http://www.w3.org/2000/svg">
<path d="M2.57311 9.42864C1.62634 9.42864 0.858826 10.1962 0.858826 11.1429V16.7756C0.858826 18.3986 2.17456 19.7144 3.7976 19.7144H20.2058C21.8288 19.7144 23.1445 18.3986 23.1445 16.7756V11.1429C23.1445 10.1962 22.377 9.42864 21.4303 9.42864M2.57311 9.42864C3.51989 9.42864 4.2874 10.1962 4.2874 11.1429V12.0001C4.2874 13.4202 5.43867 14.5715 6.85883 14.5715H17.1445C18.5647 14.5715 19.716 13.4202 19.716 12.0001V11.1429C19.716 10.1962 20.4835 9.42864 21.4303 9.42864M2.57311 9.42864V7.59191C2.57311 4.34582 5.20458 1.71436 8.45066 1.71436H15.5527C18.7988 1.71436 21.4303 4.34582 21.4303 7.59191V9.42864M4.2874 19.7144V22.2858M19.716 19.7144V22.2858M9.43025 6.00007V9.42864M14.5731 6.00007V9.42864" stroke="black" stroke-width="1.5" stroke-linecap="round" stroke-linejoin="round"/>
</svg>
