<svg width="24" height="24" viewBox="0 0 24 24" fill="none" xmlns="http://www.w3.org/2000/svg">
<path d="M9.42858 5.99986V10.2856M14.5714 5.99986V10.2856M4.28572 21.4284L6 19.7141M18 19.7141L19.7143 21.4284M2.57143 9.42843V5.51006C2.57143 3.88702 3.88717 2.57129 5.51021 2.57129H18.4898C20.1128 2.57129 21.4286 3.88702 21.4286 5.51006V9.42843M2.57143 9.42843L3.46795 9.42843C4.68074 9.42843 5.51004 10.6533 5.05962 11.7794L4.28572 13.7141H19.7143L18.9404 11.7794C18.49 10.6533 19.3193 9.42843 20.5321 9.42843L21.4286 9.42843M2.57143 9.42843C1.62466 9.42843 0.857147 10.1959 0.857147 11.1427V16.7643C0.857147 17.5022 1.32931 18.1572 2.02933 18.3906L5.73609 19.6262C5.91089 19.6844 6.09394 19.7141 6.27819 19.7141H17.7218C17.9061 19.7141 18.0891 19.6844 18.2639 19.6262L21.9707 18.3906C22.6707 18.1572 23.1429 17.5022 23.1429 16.7643V11.1427C23.1429 10.1959 22.3754 9.42843 21.4286 9.42843" stroke="black" stroke-width="1.5" stroke-linecap="round" stroke-linejoin="round"/>
</svg>
