<svg width="24" height="24" viewBox="0 0 24 24" fill="none" xmlns="http://www.w3.org/2000/svg">
<path d="M12.0011 0.856934V2.57122M22.2868 11.1426H20.5725M3.42968 11.1426H1.71539M5.94097 5.08168L4.72879 3.86949M18.0614 5.08168L19.2735 3.86949M3.85825 18.8569H20.144M10.2868 14.5712L7.71539 23.1426M13.7154 14.5712L16.2868 23.1426M17.144 11.1426C17.144 8.30233 14.8414 5.99979 12.0011 5.99979C9.16079 5.99979 6.85825 8.30233 6.85825 11.1426M21.0471 20.6617L18.4757 15.5189C18.1853 14.9381 17.5917 14.5712 16.9424 14.5712H7.06135C6.41203 14.5712 5.81844 14.9381 5.52805 15.5189L2.95662 20.6617C2.38671 21.8015 3.21556 23.1426 4.48993 23.1426H19.5138C20.7882 23.1426 21.617 21.8015 21.0471 20.6617Z" stroke="black" stroke-width="1.5" stroke-linecap="round" stroke-linejoin="round"/>
</svg>
