<svg width="24" height="24" viewBox="0 0 24 24" fill="none" xmlns="http://www.w3.org/2000/svg">
<path d="M5.14389 9.25545C5.36936 9.03869 5.54688 8.77707 5.66499 8.48746C5.7831 8.19785 5.83918 7.8867 5.8296 7.57408C5.8296 6.45134 4.45817 5.89089 4.45817 4.76815C4.44824 4.45535 4.50415 4.14395 4.62227 3.85414C4.7404 3.56434 4.91811 3.30259 5.14389 3.08587M20.2276 9.25545C20.4533 9.03848 20.631 8.77656 20.7491 8.48662C20.8672 8.19668 20.9231 7.88517 20.9133 7.57225C20.9133 6.45134 19.5419 5.89089 19.5419 4.76815C19.5319 4.45535 19.5879 4.14395 19.706 3.85414C19.8241 3.56434 20.0018 3.30259 20.2276 3.08587M18.8602 14.1268C20.5562 14.9926 21.603 16.1784 21.603 17.4858C21.603 20.1373 17.3059 22.2858 12.003 22.2858C6.7002 22.2858 2.40125 20.1354 2.40125 17.484C2.40125 16.1757 3.44718 14.9908 5.14409 14.1249M9.25839 4.4572C9.25839 5.93422 10.5097 7.20005 12.0012 7.20005C13.4783 7.20005 14.7441 5.94875 14.7441 4.4572C14.7441 2.98019 13.4928 1.71436 12.0012 1.71436C10.5242 1.71436 9.25839 2.96566 9.25839 4.4572ZM12.9932 9.6031C12.4015 9.45614 11.7845 9.44253 11.1869 9.56325C9.63614 9.90795 8.42627 11.1235 8.0274 12.6132C7.84152 13.3075 7.88724 14.0294 7.88724 14.7408C7.88724 15.1046 8.20923 15.4265 8.57295 15.4265C8.93668 15.4265 9.48726 15.4265 9.94438 15.4265C9.9444 15.6552 9.94438 18.4914 9.94438 18.8551C9.94438 19.2188 10.2664 19.5408 10.6301 19.5408C10.9938 19.5408 13.0092 19.5408 13.3729 19.5408C13.7367 19.5408 14.0586 19.2188 14.0586 18.8551C14.0586 18.4914 14.0586 16.1124 14.0586 15.4265C14.5158 15.4265 15.0663 15.4265 15.4301 15.4265C15.7938 15.4265 16.1158 15.1046 16.1158 14.7408C16.1158 14.0325 16.1683 13.3063 15.9925 12.6132C15.6252 11.1654 14.4714 9.97022 12.9932 9.6031Z" stroke="black" stroke-width="1.5" stroke-linecap="round" stroke-linejoin="round"/>
</svg>
