<svg width="24" height="24" viewBox="0 0 24 24" fill="none" xmlns="http://www.w3.org/2000/svg">
<path d="M11.9983 14.9998C11.7616 14.9998 11.5698 14.8079 11.5698 14.5712M11.9983 14.9998C12.235 14.9998 12.4269 14.8079 12.4269 14.5712M11.9983 14.9998V14.1426M11.5698 14.5712C11.5698 14.3345 11.7616 14.1426 11.9983 14.1426M11.5698 14.5712H12.4269M11.9983 14.1426C12.235 14.1426 12.4269 14.3345 12.4269 14.5712M11.9983 5.61642C11.7616 5.61642 11.5698 5.42454 11.5698 5.18785M11.9983 5.61642C12.235 5.61642 12.4269 5.42454 12.4269 5.18785M11.9983 5.61642V4.75928M11.5698 5.18785C11.5698 4.95116 11.7616 4.75928 11.9983 4.75928M11.5698 5.18785H12.4269M11.9983 4.75928C12.235 4.75928 12.4269 4.95116 12.4269 5.18785M19.7126 0.856934H4.28405C3.33728 0.856934 2.56976 1.62445 2.56976 2.57122V21.4284C2.56976 22.3752 3.33728 23.1426 4.28405 23.1426H19.7126C20.6594 23.1426 21.4269 22.3752 21.4269 21.4284V2.57122C21.4269 1.62445 20.6594 0.856934 19.7126 0.856934ZM11.9983 19.7141C14.8386 19.7141 17.1412 17.4116 17.1412 14.5712C17.1412 11.7309 14.8386 9.42836 11.9983 9.42836C9.15802 9.42836 6.85548 11.7309 6.85548 14.5712C6.85548 17.4116 9.15802 19.7141 11.9983 19.7141Z" stroke="black" stroke-width="1.5" stroke-linecap="round" stroke-linejoin="round"/>
</svg>
