<svg width="24" height="24" viewBox="0 0 24 24" fill="none" xmlns="http://www.w3.org/2000/svg">
<path d="M23.1428 12.0001H18M5.99997 12.0001H0.857117M5.99997 3.42871V20.5716M18 3.42871V20.5716M12 8.1882C11.7633 8.1882 11.5714 7.99632 11.5714 7.75963M12 8.1882C12.2367 8.1882 12.4285 7.99632 12.4285 7.75963M12 8.1882V7.33105M11.5714 7.75963C11.5714 7.52293 11.7633 7.33105 12 7.33105M11.5714 7.75963H12.4285M12 7.33105C12.2367 7.33105 12.4285 7.52293 12.4285 7.75963M14.3733 14.9672C14.3733 16.2782 13.3106 17.3409 11.9997 17.3409C10.6888 17.3409 9.62609 16.2782 9.62609 14.9672C9.62609 13.6563 10.6888 12.5936 11.9997 12.5936C13.3106 12.5936 14.3733 13.6563 14.3733 14.9672ZM0.857117 5.143V18.8573C0.857117 19.8041 1.62463 20.5716 2.5714 20.5716H21.4285C22.3753 20.5716 23.1428 19.8041 23.1428 18.8573V5.14299C23.1428 4.19622 22.3753 3.42871 21.4285 3.42871H2.5714C1.62463 3.42871 0.857117 4.19622 0.857117 5.143Z" stroke="black" stroke-width="1.5" stroke-linecap="round" stroke-linejoin="round"/>
</svg>
