<svg width="24" height="24" viewBox="0 0 24 24" fill="none" xmlns="http://www.w3.org/2000/svg">
<path d="M12.0017 16.2855V20.5712M12.0017 20.5712L7.71599 23.1426M12.0017 20.5712L16.2874 23.1426M12.0017 8.99979C11.765 8.99979 11.5731 8.80791 11.5731 8.57122M12.0017 8.99979C12.2384 8.99979 12.4303 8.80791 12.4303 8.57122M12.0017 8.99979V8.14265M11.5731 8.57122C11.5731 8.33453 11.765 8.14265 12.0017 8.14265M11.5731 8.57122H12.4303M12.0017 8.14265C12.2384 8.14265 12.4303 8.33453 12.4303 8.57122M7.22619 0.856934H16.7772C18.4002 0.856934 19.716 2.17267 19.716 3.79571V13.3467C19.716 14.9698 18.4003 16.2855 16.7772 16.2855H7.22619C5.60315 16.2855 4.28741 14.9698 4.28741 13.3467V3.79571C4.28741 2.17267 5.60315 0.856934 7.22619 0.856934ZM16.2874 8.57122C16.2874 10.9382 14.3686 12.8569 12.0017 12.8569C9.63477 12.8569 7.71599 10.9382 7.71599 8.57122C7.71599 6.20428 9.63477 4.2855 12.0017 4.2855C14.3686 4.2855 16.2874 6.20428 16.2874 8.57122Z" stroke="black" stroke-width="1.5" stroke-linecap="round" stroke-linejoin="round"/>
</svg>
