<svg width="24" height="24" viewBox="0 0 24 24" fill="none" xmlns="http://www.w3.org/2000/svg">
<path d="M2.57257 14.963H21.4299M4.92971 14.963L5.71535 23.1426M17.4822 14.963C17.4822 11.9359 15.0282 9.48193 12.0011 9.48193C8.97406 9.48193 6.52012 11.9359 6.52012 14.963M19.0714 14.963L18.2857 23.1426M12.0011 6.85693C13.658 6.85693 15.0011 5.51379 15.0011 3.85693C15.0011 2.20008 13.658 0.856934 12.0011 0.856934C10.3443 0.856934 9.00114 2.20008 9.00114 3.85693C9.00114 5.51379 10.3443 6.85693 12.0011 6.85693ZM12.0011 21.4447C12.9479 21.4447 13.7154 20.6772 13.7154 19.7304C13.7154 18.7836 12.9479 18.0161 12.0011 18.0161C11.0544 18.0161 10.2869 18.7836 10.2869 19.7304C10.2869 20.6772 11.0544 21.4447 12.0011 21.4447Z" stroke="black" stroke-width="1.5" stroke-linecap="round" stroke-linejoin="round"/>
</svg>
