<svg width="24" height="24" viewBox="0 0 24 24" fill="none" xmlns="http://www.w3.org/2000/svg">
<path d="M12.0005 21.4284V17.1427M8.57195 17.1427H15.4291M12.0005 3.42843C11.7638 3.42843 11.572 3.23655 11.572 2.99986M12.0005 3.42843C12.2372 3.42843 12.4291 3.23655 12.4291 2.99986M12.0005 3.42843V2.57129M11.572 2.99986C11.572 2.76317 11.7638 2.57129 12.0005 2.57129M11.572 2.99986H12.4291M12.0005 2.57129C12.2372 2.57129 12.4291 2.76317 12.4291 2.99986M12.0005 7.71415C11.7638 7.71415 11.572 7.52227 11.572 7.28557M12.0005 7.71415C12.2372 7.71415 12.4291 7.52227 12.4291 7.28557M12.0005 7.71415V6.857M11.572 7.28557C11.572 7.04888 11.7638 6.857 12.0005 6.857M11.572 7.28557H12.4291M12.0005 6.857C12.2372 6.857 12.4291 7.04888 12.4291 7.28557M12.0005 11.9999C11.7638 11.9999 11.572 11.808 11.572 11.5713M12.0005 11.9999C12.2372 11.9999 12.4291 11.808 12.4291 11.5713M12.0005 11.9999V11.1427M11.572 11.5713C11.572 11.3346 11.7638 11.1427 12.0005 11.1427M11.572 11.5713H12.4291M12.0005 11.1427C12.2372 11.1427 12.4291 11.3346 12.4291 11.5713M1.58928 7.54972C1.42192 7.71709 1.15056 7.71709 0.983192 7.54972C0.815824 7.38236 0.815824 7.111 0.983192 6.94364M1.59099 7.54969C1.75836 7.38232 1.75836 7.11097 1.59099 6.9436C1.42362 6.77624 1.15227 6.77624 0.984898 6.9436M4.62276 10.5803C4.45539 10.7476 4.18404 10.7476 4.01667 10.5803C3.84931 10.4129 3.84931 10.1416 4.01667 9.97419M4.61777 10.5802C4.78514 10.4129 4.78514 10.1415 4.61777 9.97416C4.4504 9.80679 4.17905 9.80679 4.01168 9.97416M7.64954 13.6108C7.48218 13.7782 7.21082 13.7782 7.04346 13.6108C6.87609 13.4435 6.87609 13.1721 7.04346 13.0047M7.65125 13.6108C7.81862 13.4434 7.81862 13.1721 7.65125 13.0047C7.48389 12.8373 7.21253 12.8373 7.04517 13.0047M22.4135 7.54972C22.5808 7.71709 22.8522 7.71709 23.0195 7.54972C23.187 7.38236 23.187 7.111 23.0195 6.94364M22.4117 7.54969C22.2444 7.38232 22.2444 7.11097 22.4117 6.9436C22.579 6.77624 22.8504 6.77624 23.0179 6.9436M19.38 10.5803C19.5473 10.7476 19.8187 10.7476 19.9862 10.5803C20.1535 10.4129 20.1535 10.1416 19.9862 9.97419M19.3782 10.5802C19.2109 10.4129 19.2109 10.1415 19.3782 9.97416C19.5457 9.80679 19.8169 9.80679 19.9844 9.97416M16.3532 13.6108C16.5206 13.7782 16.7919 13.7782 16.9593 13.6108C17.1267 13.4435 17.1267 13.1721 16.9593 13.0047M16.3515 13.6108C16.1841 13.4434 16.1841 13.1721 16.3515 13.0047C16.5189 12.8373 16.7902 12.8373 16.9576 13.0047" stroke="black" stroke-width="1.5" stroke-linecap="round" stroke-linejoin="round"/>
</svg>
