<svg width="24" height="24" viewBox="0 0 24 24" fill="none" xmlns="http://www.w3.org/2000/svg">
<path d="M23.1412 16.2858H20.5698V18.8572H17.9983V21.4286H15.4269M1.45764 11.9999H2.91044C3.74702 11.9999 4.54286 11.6388 5.09375 11.0092L6.04894 9.91758C6.50419 9.39728 7.1619 9.09884 7.85325 9.09884V13.5983C7.85325 14.4269 7.49888 15.216 6.87954 15.7666L5.56322 16.9366C4.94388 17.4871 4.58951 18.2763 4.58951 19.1049V21.4285M12.2059 14.901V11.9999C12.2059 11.5434 11.991 11.1134 11.6257 10.8395L10.4653 9.96917C9.71201 9.40423 8.79584 9.09884 7.85428 9.09884M9.48717 17.1814C9.95528 17.9132 10.2657 18.5094 11.0998 18.8949C12.0369 19.3282 13.7436 18.8949 13.7436 18.8949M7.71262 6.51444C6.29245 6.51444 5.14119 5.36318 5.14119 3.94301C5.14119 2.52284 6.29245 1.37158 7.71262 1.37158C9.13279 1.37158 10.284 2.52284 10.284 3.94301C10.284 5.36318 9.13279 6.51444 7.71262 6.51444Z" stroke="black" stroke-width="1.5" stroke-linecap="round" stroke-linejoin="round"/>
</svg>
