<svg width="24" height="24" viewBox="0 0 24 24" fill="none" xmlns="http://www.w3.org/2000/svg">
<path d="M13.5155 11.9999H12.0627C11.2262 11.9999 10.4303 11.6388 9.87944 11.0092L8.92425 9.91758C8.469 9.39728 7.81129 9.09884 7.11994 9.09884V13.5983C7.11994 14.4269 7.47431 15.216 8.09365 15.7666L9.40997 16.9366C10.0293 17.4871 10.3837 18.2763 10.3837 19.1049V21.4285M2.77396 14.901V11.9999C2.77396 11.5434 2.98892 11.1134 3.35418 10.8395L4.51462 9.96917C5.26788 9.40423 6.18404 9.09884 7.12561 9.09884M2.3186 21.4284L4.24695 19.7755C4.64618 19.4334 4.9449 18.9891 5.11117 18.4904L5.58234 17.0768M23.1445 16.2858H20.5731V18.8572H18.0016V21.4286H15.4302M7.71593 6.51444C6.29576 6.51444 5.1445 5.36318 5.1445 3.94301C5.1445 2.52284 6.29576 1.37158 7.71593 1.37158C9.13609 1.37158 10.2874 2.52284 10.2874 3.94301C10.2874 5.36318 9.13609 6.51444 7.71593 6.51444Z" stroke="black" stroke-width="1.5" stroke-linecap="round" stroke-linejoin="round"/>
</svg>
