<svg width="24" height="24" viewBox="0 0 24 24" fill="none" xmlns="http://www.w3.org/2000/svg">
<path d="M12.8373 1.86882L15.563 7.36015C15.6869 7.63951 15.9621 7.86652 16.2658 7.90015L22.283 8.77739C23.0473 8.87571 23.3436 9.86054 22.7973 10.3717L18.4602 14.6745C18.2387 14.8814 18.1327 15.1991 18.1859 15.4974L19.2316 21.5488C19.3636 22.3091 18.5228 22.8822 17.8602 22.5302L12.443 19.6802C12.1656 19.5441 11.829 19.5441 11.5515 19.6802L6.1344 22.5302C5.45294 22.8922 4.63423 22.288 4.76297 21.5488L5.80869 15.4288C5.86169 15.1305 5.75578 14.8128 5.5344 14.606L1.14583 10.3717C0.591184 9.84513 0.925044 8.8385 1.71155 8.77739L7.72869 7.90015C8.03244 7.86652 8.30756 7.63953 8.43154 7.36015L11.1573 1.86882C11.4833 1.16492 12.5208 1.18563 12.8373 1.86882Z" stroke="black" stroke-width="1.5" stroke-linecap="round" stroke-linejoin="round"/>
</svg>
