<svg width="24" height="24" viewBox="0 0 24 24" fill="none" xmlns="http://www.w3.org/2000/svg">
<path d="M1.71373 6.85721L3.62771 2.71025C3.90791 2.10314 4.51555 1.71436 5.18421 1.71436H18.8148C19.4833 1.71436 20.091 2.10314 20.3712 2.71025L22.2852 6.85721M1.71373 6.85721H22.2852M1.71373 6.85721V8.5715C1.71373 10.465 3.24875 12.0001 5.1423 12.0001C7.03585 12.0001 8.57087 10.465 8.57087 8.5715M22.2852 6.85721V8.5715C22.2852 10.465 20.7502 12.0001 18.8566 12.0001C16.963 12.0001 15.428 10.465 15.428 8.5715M8.57087 6.85721V8.5715M8.57087 8.5715C8.57087 10.465 10.1059 12.0001 11.9994 12.0001C13.893 12.0001 15.428 10.465 15.428 8.5715M15.428 6.85721V8.5715M15.428 22.2858V18.9107C15.428 17.0172 13.893 15.4822 11.9994 15.4822C10.1059 15.4822 8.57087 17.0172 8.57087 18.9107V22.2858M2.57087 14.5715V20.5715C2.57087 21.5183 3.33838 22.2858 4.28515 22.2858H19.7137C20.6605 22.2858 21.428 21.5183 21.428 20.5715V14.5715" stroke="black" stroke-width="1.5" stroke-linecap="round" stroke-linejoin="round"/>
</svg>
