<svg width="24" height="24" viewBox="0 0 24 24" fill="none" xmlns="http://www.w3.org/2000/svg">
<path d="M20.5725 1.71436H3.42969C2.48291 1.71436 1.7154 2.48187 1.7154 3.42864V20.5715C1.7154 21.5183 2.48291 22.2858 3.42969 22.2858H20.5725C21.5193 22.2858 22.2868 21.5183 22.2868 20.5715V3.42864C22.2868 2.48187 21.5193 1.71436 20.5725 1.71436Z" stroke="black" stroke-width="1.5" stroke-linecap="round" stroke-linejoin="round"/>
<path d="M18.0011 7.71436C18.0011 8.66113 17.2336 9.42864 16.2868 9.42864C15.3401 9.42864 14.5725 8.66113 14.5725 7.71436C14.5725 6.76758 15.3401 6.00007 16.2868 6.00007C17.2336 6.00007 18.0011 6.76758 18.0011 7.71436Z" stroke="black" stroke-width="1.5" stroke-linecap="round" stroke-linejoin="round"/>
<path d="M8.57254 9.42864C9.51932 9.42864 10.2868 8.66113 10.2868 7.71436C10.2868 6.76758 9.51932 6.00007 8.57254 6.00007H6.85826C5.91148 6.00007 5.14397 6.76758 5.14397 7.71436C5.14397 8.66113 5.91148 9.42864 6.85826 9.42864H8.57254Z" stroke="black" stroke-width="1.5" stroke-linecap="round" stroke-linejoin="round"/>
<path d="M18.0011 16.2858C18.0011 17.2326 17.2336 18.0001 16.2868 18.0001C15.3401 18.0001 14.5725 17.2326 14.5725 16.2858C14.5725 15.339 15.3401 14.5715 16.2868 14.5715C17.2336 14.5715 18.0011 15.339 18.0011 16.2858Z" stroke="black" stroke-width="1.5" stroke-linecap="round" stroke-linejoin="round"/>
<path d="M9.42969 16.2858C9.42969 17.2326 8.66217 18.0001 7.7154 18.0001C6.76863 18.0001 6.00112 17.2326 6.00112 16.2858C6.00112 15.339 6.76863 14.5715 7.7154 14.5715C8.66217 14.5715 9.42969 15.339 9.42969 16.2858Z" stroke="black" stroke-width="1.5" stroke-linecap="round" stroke-linejoin="round"/>
</svg>
