<svg width="24" height="24" viewBox="0 0 24 24" fill="none" xmlns="http://www.w3.org/2000/svg">
<path d="M5.14453 19.3926L4.39453 22.3926M15.6445 19.3926L17.1445 22.3926M4.71596 7.2855C5.89942 7.2855 6.85881 6.32612 6.85881 5.14265C6.85881 3.95918 5.89942 2.99979 4.71596 2.99979M4.71596 7.2855C3.53249 7.2855 2.5731 6.32612 2.5731 5.14265C2.5731 3.95918 3.53249 2.99979 4.71596 2.99979M4.71596 7.2855L4.71596 9.42836M4.71596 2.99979L4.71596 0.856934M8.42663 2.99979L6.57087 4.07122M8.42663 7.28551L6.57087 6.21408M1.00613 7.28551L2.8619 6.21408M1.00613 2.99979L2.8619 4.07122M21.9955 12.1145C21.2995 11.1063 19.875 10.845 18.8665 11.5405L14.1445 14.8925H4.39453C3.16903 14.8925 2.14453 15.917 2.14453 17.1425C2.14453 18.368 3.16903 19.3925 4.39453 19.3925H14.8945C15.4591 19.3918 16.0025 19.1774 16.4155 18.7925L21.4225 15.2425C22.4298 14.5462 22.6912 13.1222 21.9955 12.1145Z" stroke="black" stroke-width="1.5" stroke-linecap="round" stroke-linejoin="round"/>
</svg>
