<svg width="24" height="24" viewBox="0 0 24 24" fill="none" xmlns="http://www.w3.org/2000/svg">
<path d="M10.2868 15.4284L12.0011 13.7141M12.0011 13.7141L13.7154 15.4284M12.0011 13.7141L12.0011 21.4284M23.144 13.7141H21.4297M5.32988 7.04541L4.11274 5.82826M7.71542 17.9133C6.65498 16.8311 6.00113 15.349 6.00113 13.7141C6.00113 10.4004 8.68742 7.71415 12.0011 7.71415C15.3148 7.71415 18.0011 10.4004 18.0011 13.7141C18.0011 15.349 17.3473 16.8311 16.2868 17.9133M17.144 21.4284H23.144M0.858276 21.4284H6.85828M2.57256 13.7141H0.858276M12.0011 2.57129V4.28557M19.8879 5.82826L18.6708 7.04541" stroke="black" stroke-width="1.5" stroke-linecap="round" stroke-linejoin="round"/>
</svg>
