<svg width="24" height="24" viewBox="0 0 24 24" fill="none" xmlns="http://www.w3.org/2000/svg">
<path d="M10.2863 19.7141L12.0006 21.4284L13.7149 19.7141M7.71487 17.9133C6.65443 16.8311 6.00058 15.349 6.00058 13.7141C6.00058 10.4004 8.68687 7.71415 12.0006 7.71415C15.3143 7.71415 18.0006 10.4004 18.0006 13.7141C18.0006 15.349 17.3468 16.8311 16.2863 17.9133M12.0006 13.7141V20.5713M0.857727 21.4284H6.85773M17.1434 21.4284H23.1434M23.1434 13.7141H21.4292M19.8874 5.82826L18.6702 7.04541M12.0006 2.57129V4.28557M5.32933 7.04541L4.11219 5.82826M2.57201 13.7141H0.857727" stroke="black" stroke-width="1.5" stroke-linecap="round" stroke-linejoin="round"/>
</svg>
