<svg width="24" height="24" viewBox="0 0 24 24" fill="none" xmlns="http://www.w3.org/2000/svg">
<path d="M8.11029 2.57129H6.71176C6.25711 2.57129 5.82107 2.75191 5.49959 3.07339L0.858826 7.71415L4.2874 11.1427L6.00168 9.42843V19.7141C6.00168 20.1688 6.1823 20.6049 6.50378 20.9263C6.82528 21.2477 7.26131 21.4284 7.71597 21.4284H16.2874C16.7421 21.4284 17.1781 21.2477 17.4996 20.9263C17.821 20.6049 18.0017 20.1688 18.0017 19.7141V9.42843L19.716 11.1427L23.1445 7.71415L18.5038 3.07339C18.1824 2.75191 17.7463 2.57129 17.2916 2.57129H15.8929C15.179 3.99701 13.7046 4.9758 12.0016 4.9758C10.2986 4.9758 8.82419 3.99701 8.11029 2.57129Z" stroke="black" stroke-width="1.5" stroke-linecap="round" stroke-linejoin="round"/>
</svg>
