<svg width="24" height="24" viewBox="0 0 24 24" fill="none" xmlns="http://www.w3.org/2000/svg">
<path d="M20.1726 11.0034C20.1728 10.696 20.0776 10.3961 19.9002 10.1451C19.7228 9.89412 19.4719 9.70431 19.1822 9.60185C18.6027 9.39699 18.1011 9.01751 17.7463 8.51568C17.3915 8.01385 17.2011 7.41436 17.2012 6.79979V1.59979C17.2012 1.40277 17.1229 1.21382 16.9836 1.07451C16.8443 0.935199 16.6554 0.856934 16.4583 0.856934H14.9726C14.7756 0.856934 14.5867 0.935199 14.4474 1.07451C14.308 1.21382 14.2298 1.40277 14.2298 1.59979V3.08551C14.2298 3.67656 13.995 4.2434 13.577 4.66134C13.1591 5.07928 12.5923 5.31408 12.0012 5.31408C11.4101 5.31408 10.8433 5.07928 10.4254 4.66134C10.0074 4.2434 9.77263 3.67656 9.77263 3.08551V1.59979C9.77263 1.40277 9.69436 1.21382 9.55505 1.07451C9.41574 0.935199 9.22679 0.856934 9.02977 0.856934H7.54406C7.34704 0.856934 7.15809 0.935199 7.01878 1.07451C6.87947 1.21382 6.8012 1.40277 6.8012 1.59979V6.79979C6.80132 7.41436 6.61087 8.01385 6.2561 8.51568C5.90132 9.01751 5.39967 9.39699 4.82025 9.60185C4.53046 9.70431 4.27958 9.89412 4.10218 10.1451C3.92479 10.3961 3.82961 10.696 3.82977 11.0034V22.3998C3.82977 22.5968 3.90804 22.7858 4.04735 22.9251C4.18666 23.0644 4.37561 23.1426 4.57263 23.1426H19.4298C19.6268 23.1426 19.8157 23.0644 19.9551 22.9251C20.0944 22.7858 20.1726 22.5968 20.1726 22.3998V11.0034Z" stroke="black" stroke-width="1.5" stroke-linecap="round" stroke-linejoin="round"/>
</svg>
