<svg width="24" height="24" viewBox="0 0 24 24" fill="none" xmlns="http://www.w3.org/2000/svg">
<path d="M12 23.1426C6.31939 23.1426 1.71432 18.5376 1.71432 12.8569C1.71432 11.3438 2.04106 9.90697 2.62783 8.61317C1.55488 7.83425 0.857178 6.56993 0.857178 5.14265C0.857178 2.77572 2.77596 0.856934 5.14289 0.856934C6.75045 0.856934 8.15129 1.74202 8.88466 3.05146C9.86738 2.73953 10.9141 2.57122 12 2.57122M12 23.1426C17.6807 23.1426 22.2857 18.5376 22.2857 12.8569C22.2857 11.3438 21.959 9.90697 21.3722 8.61317C22.4452 7.83425 23.1429 6.56993 23.1429 5.14265C23.1429 2.77572 21.2241 0.856934 18.8572 0.856934C17.2497 0.856934 15.8488 1.74202 15.1154 3.05146C14.1327 2.73953 13.086 2.57122 12 2.57122M12 23.1426C11.3247 23.1426 10.6559 23.0096 10.0319 22.7512C9.40799 22.4927 8.84104 22.1139 8.36349 21.6363C7.88593 21.1588 7.50711 20.5918 7.24865 19.9679C6.9902 19.3439 6.85718 18.6752 6.85718 17.9998C6.85718 17.3244 6.9902 16.6557 7.24865 16.0317C7.50711 15.4077 7.88593 14.8408 8.36349 14.3632C8.84104 13.8857 9.40799 13.5069 10.0319 13.2484C10.6559 12.99 11.3247 12.8569 12 12.8569C12.6754 12.8569 13.3442 12.99 13.9681 13.2484C14.5921 13.5069 15.159 13.8857 15.6366 14.3632C16.1141 14.8408 16.493 15.4077 16.7514 16.0317C17.0099 16.6557 17.1429 17.3244 17.1429 17.9998C17.1429 18.6752 17.0099 19.3439 16.7514 19.9679C16.493 20.5918 16.1141 21.1588 15.6366 21.6363C15.159 22.1139 14.5921 22.4927 13.9681 22.7512C13.3442 23.0096 12.6754 23.1426 12 23.1426ZM12 2.57122C9.76087 2.57122 7.68881 3.28673 6.00003 4.50159M12 2.57122C14.2392 2.57122 16.3113 3.28673 18 4.50159M8.14289 10.2855C7.9062 10.2855 7.71432 10.0936 7.71432 9.85693M8.14289 10.2855C8.37958 10.2855 8.57146 10.0936 8.57146 9.85693M8.14289 10.2855V9.42836M7.71432 9.85693C7.71432 9.62024 7.9062 9.42836 8.14289 9.42836M7.71432 9.85693H8.57146M8.14289 9.42836C8.37958 9.42836 8.57146 9.62024 8.57146 9.85693M15.8572 10.2855C15.6205 10.2855 15.4286 10.0936 15.4286 9.85693M15.8572 10.2855C16.0939 10.2855 16.2857 10.0936 16.2857 9.85693M15.8572 10.2855V9.42836M15.4286 9.85693C15.4286 9.62024 15.6205 9.42836 15.8572 9.42836M15.4286 9.85693H16.2857M15.8572 9.42836C16.0939 9.42836 16.2857 9.62024 16.2857 9.85693M13.2857 17.1426H10.7143L12 17.9998L13.2857 17.1426Z" stroke="black" stroke-width="1.5" stroke-linecap="round" stroke-linejoin="round"/>
</svg>
