<svg width="24" height="24" viewBox="0 0 24 24" fill="none" xmlns="http://www.w3.org/2000/svg">
<path d="M12.0006 10.2859V13.7145M7.71484 17.1431H16.2863M6.00056 1.71533H18.0006C18.9473 1.71533 19.7148 2.48284 19.7148 3.42962V8.57248C19.7148 9.51925 18.9473 10.2868 18.0006 10.2868H6.00056C5.05379 10.2868 4.28627 9.51925 4.28627 8.57247V3.42962C4.28627 2.48284 5.05378 1.71533 6.00056 1.71533ZM3.42913 13.7153H20.572C21.5188 13.7153 22.2863 14.4828 22.2863 15.4296V20.5725C22.2863 21.5192 21.5188 22.2868 20.572 22.2868H19.5678C19.1131 22.2868 18.6771 22.1061 18.3556 21.7847L17.6455 21.0746C17.324 20.7531 16.888 20.5725 16.4333 20.5725H6.95887C6.37155 20.5725 5.83464 20.9043 5.57199 21.4296C5.30933 21.9549 4.77242 22.2868 4.1851 22.2868H3.42913C2.48235 22.2868 1.71484 21.5192 1.71484 20.5725V15.4296C1.71484 14.4828 2.48236 13.7153 3.42913 13.7153Z" stroke="black" stroke-width="1.5" stroke-linecap="round" stroke-linejoin="round"/>
</svg>
