<svg width="24" height="24" viewBox="0 0 24 24" fill="none" xmlns="http://www.w3.org/2000/svg">
<path d="M17.1406 17.1428V18.857M16.2834 17.9999H17.9977M5.1428 0.85791V14.5722M5.1428 0.85791L8.57138 4.28564M5.1428 0.85791L1.71423 4.28564M17.1428 23.1436C19.9832 23.1436 22.2857 20.8412 22.2857 18.0008C22.2857 16.0972 21.2514 14.4352 19.7142 13.5459V3.42934C19.7142 2.00917 18.5629 0.85791 17.1428 0.85791C15.7226 0.85791 14.5714 2.00917 14.5714 3.42934V13.5459C13.0342 14.4352 11.9999 16.0972 11.9999 18.0008C11.9999 20.8412 14.3025 23.1436 17.1428 23.1436ZM17.9999 17.9999C17.9999 17.5331 17.6097 17.1428 17.1428 17.1428C16.6759 17.1428 16.2857 17.5331 16.2857 17.9999C16.2857 18.4668 16.6759 18.8571 17.1428 18.8571C17.6097 18.8571 17.9999 18.4668 17.9999 17.9999Z" stroke="black" stroke-width="1.5" stroke-linecap="round" stroke-linejoin="round"/>
</svg>
