<svg width="24" height="24" viewBox="0 0 24 24" fill="none" xmlns="http://www.w3.org/2000/svg">
<path d="M5.57312 1.71408V7.71408M2.57312 4.71408H8.57312M2.57312 13.2855H8.57312M18.0017 17.9998C18.0017 17.5329 17.6114 17.1426 17.1445 17.1426M18.0017 17.9998C18.0017 18.4666 17.6114 18.8569 17.1445 18.8569M18.0017 17.9998H16.2874M17.1445 17.1426C16.6777 17.1426 16.2874 17.5329 16.2874 17.9998M17.1445 17.1426V18.8569M17.1445 18.8569C16.6777 18.8569 16.2874 18.4666 16.2874 17.9998M17.1445 23.1426C19.9849 23.1426 22.2874 20.8402 22.2874 17.9998C22.2874 16.0962 21.2532 14.4342 19.716 13.545V3.42836C19.716 2.0082 18.5647 0.856934 17.1445 0.856934C15.7244 0.856934 14.5731 2.0082 14.5731 3.42836V13.545C13.0359 14.4342 12.0017 16.0962 12.0017 17.9998C12.0017 20.8402 14.3042 23.1426 17.1445 23.1426Z" stroke="black" stroke-width="1.5" stroke-linecap="round" stroke-linejoin="round"/>
</svg>
