<svg width="24" height="24" viewBox="0 0 24 24" fill="none" xmlns="http://www.w3.org/2000/svg">
<path d="M17.9984 17.9998C17.9984 17.5329 17.6081 17.1426 17.1412 17.1426M17.9984 17.9998C17.9984 18.4666 17.6081 18.8569 17.1412 18.8569M17.9984 17.9998H16.2841M17.1412 17.1426C16.6744 17.1426 16.2841 17.5329 16.2841 17.9998M17.1412 17.1426V18.8569M17.1412 18.8569C16.6744 18.8569 16.2841 18.4666 16.2841 17.9998M5.14122 0.856934V14.5712M5.14122 14.5712L8.56979 11.1426M5.14122 14.5712L1.71265 11.1426M17.1412 23.1435C19.9816 23.1435 22.2841 20.841 22.2841 18.0006C22.2841 16.0971 21.2498 14.435 19.7126 13.5458V3.4292C19.7126 2.00903 18.5613 0.857771 17.1412 0.857771C15.7211 0.857771 14.5698 2.00903 14.5698 3.4292V13.5458C13.0326 14.435 11.9984 16.0971 11.9984 18.0006C11.9984 20.841 14.3009 23.1435 17.1412 23.1435Z" stroke="black" stroke-width="1.5" stroke-linecap="round" stroke-linejoin="round"/>
</svg>
