<svg width="24" height="24" viewBox="0 0 24 24" fill="none" xmlns="http://www.w3.org/2000/svg">
<path d="M17.1406 17.1426V18.8569M16.2835 17.9998H17.9978M4.28459 1.71408L5.99888 3.42836M5.99888 3.42836L7.71317 1.71408M5.99888 3.42836V5.99979M1.71317 4.2855L3.42745 5.99979M3.42745 5.99979L1.71317 7.71408M3.42745 5.99979H5.99888M10.2846 4.2855L8.57031 5.99979M8.57031 5.99979L10.2846 7.71408M8.57031 5.99979H5.99888M5.99888 8.57122L4.28459 10.2855M5.99888 8.57122L7.71317 10.2855M5.99888 8.57122V5.99979M17.1417 23.1426C19.9821 23.1426 22.2846 20.8402 22.2846 17.9998C22.2846 16.0962 21.2504 14.4342 19.7132 13.545V3.42836C19.7132 2.0082 18.5619 0.856934 17.1417 0.856934C15.7216 0.856934 14.5703 2.0082 14.5703 3.42836V13.545C13.0331 14.4342 11.9989 16.0962 11.9989 17.9998C11.9989 20.8402 14.3014 23.1426 17.1417 23.1426ZM17.9989 17.9998C17.9989 17.5329 17.6086 17.1426 17.1417 17.1426C16.6749 17.1426 16.2846 17.5329 16.2846 17.9998C16.2846 18.4666 16.6749 18.8569 17.1417 18.8569C17.6086 18.8569 17.9989 18.4666 17.9989 17.9998Z" stroke="black" stroke-width="1.5" stroke-linecap="round" stroke-linejoin="round"/>
</svg>
