<svg width="24" height="24" viewBox="0 0 24 24" fill="none" xmlns="http://www.w3.org/2000/svg">
<path d="M5.57143 0.856934V10.2855M0.85714 5.57122H10.2857M17.1406 17.1426V18.8569M16.2835 17.9998H17.9978M17.1429 23.1426C19.9833 23.1426 22.2857 20.8402 22.2857 17.9998C22.2857 16.0962 21.2515 14.4342 19.7143 13.545V3.42836C19.7143 2.0082 18.563 0.856934 17.1429 0.856934C15.7227 0.856934 14.5714 2.0082 14.5714 3.42836V13.545C13.0342 14.4342 12 16.0962 12 17.9998C12 20.8402 14.3025 23.1426 17.1429 23.1426ZM18 17.9998C18 17.5329 17.6097 17.1426 17.1429 17.1426C16.676 17.1426 16.2857 17.5329 16.2857 17.9998C16.2857 18.4666 16.676 18.8569 17.1429 18.8569C17.6097 18.8569 18 18.4666 18 17.9998Z" stroke="black" stroke-width="1.5" stroke-linecap="round" stroke-linejoin="round"/>
</svg>
