<svg width="24" height="24" viewBox="0 0 24 24" fill="none" xmlns="http://www.w3.org/2000/svg">
<path d="M1.71652 5.14265H9.43081M18.0022 17.9998C18.0022 17.5329 17.612 17.1426 17.1451 17.1426M18.0022 17.9998C18.0022 18.4666 17.612 18.8569 17.1451 18.8569M18.0022 17.9998H16.288M17.1451 17.1426C16.6782 17.1426 16.288 17.5329 16.288 17.9998M17.1451 17.1426V18.8569M17.1451 18.8569C16.6782 18.8569 16.288 18.4666 16.288 17.9998M17.1451 23.1426C19.9855 23.1426 22.288 20.8402 22.288 17.9998C22.288 16.0962 21.2537 14.4342 19.7165 13.545V3.42836C19.7165 2.0082 18.5652 0.856934 17.1451 0.856934C15.7249 0.856934 14.5737 2.0082 14.5737 3.42836V13.545C13.0365 14.4342 12.0022 16.0962 12.0022 17.9998C12.0022 20.8402 14.3048 23.1426 17.1451 23.1426Z" stroke="black" stroke-width="1.5" stroke-linecap="round" stroke-linejoin="round"/>
</svg>
