<svg width="24" height="24" viewBox="0 0 24 24" fill="none" xmlns="http://www.w3.org/2000/svg">
<path d="M12.1406 17.1426V18.8569M11.2835 17.9998H12.9978M6.00111 2.57122H2.57254M6.00111 6.85693H2.57254M6.00111 11.1426H2.57254M12.1417 23.1426C14.9821 23.1426 17.2846 20.8402 17.2846 17.9998C17.2846 16.0962 16.2504 14.4342 14.7132 13.545V3.42836C14.7132 2.0082 13.5619 0.856934 12.1417 0.856934C10.7216 0.856934 9.57031 2.0082 9.57031 3.42836V13.545C8.03311 14.4342 6.99888 16.0962 6.99888 17.9998C6.99888 20.8402 9.30142 23.1426 12.1417 23.1426ZM12.9989 17.9998C12.9989 17.5329 12.6086 17.1426 12.1417 17.1426C11.6749 17.1426 11.2846 17.5329 11.2846 17.9998C11.2846 18.4666 11.6749 18.8569 12.1417 18.8569C12.6086 18.8569 12.9989 18.4666 12.9989 17.9998Z" stroke="black" stroke-width="1.5" stroke-linecap="round" stroke-linejoin="round"/>
</svg>
