<svg width="24" height="24" viewBox="0 0 24 24" fill="none" xmlns="http://www.w3.org/2000/svg">
<path d="M17.1406 17.1426V18.8569M16.2835 17.9998H17.9978M5.99386 8.13135C7.17733 8.13135 8.13672 7.17196 8.13672 5.98849C8.13672 4.80502 7.17733 3.84563 5.99386 3.84563M5.99386 8.13135C4.8104 8.13135 3.85101 7.17196 3.85101 5.98849C3.85101 4.80502 4.8104 3.84563 5.99386 3.84563M5.99386 8.13135L5.99386 10.2742M5.99386 3.84563L5.99386 1.70278M9.70454 3.84563L7.84877 4.91706M9.70454 8.13135L7.84877 7.05992M2.28404 8.13135L4.13981 7.05992M2.28404 3.84563L4.13981 4.91706M17.1434 23.1426C19.9838 23.1426 22.2863 20.8402 22.2863 17.9998C22.2863 16.0962 21.252 14.4342 19.7148 13.545V3.42836C19.7148 2.0082 18.5635 0.856934 17.1434 0.856934C15.7233 0.856934 14.572 2.0082 14.572 3.42836V13.545C13.0348 14.4342 12.0006 16.0962 12.0006 17.9998C12.0006 20.8402 14.3031 23.1426 17.1434 23.1426ZM18.0006 17.9998C18.0006 17.5329 17.6103 17.1426 17.1434 17.1426C16.6766 17.1426 16.2863 17.5329 16.2863 17.9998C16.2863 18.4666 16.6766 18.8569 17.1434 18.8569C17.6103 18.8569 18.0006 18.4666 18.0006 17.9998Z" stroke="black" stroke-width="1.5" stroke-linecap="round" stroke-linejoin="round"/>
</svg>
