<svg width="24" height="24" viewBox="0 0 24 24" fill="none" xmlns="http://www.w3.org/2000/svg">
<path d="M23.1469 11.8629C23.1303 13.7678 22.6974 15.6459 21.8783 17.3658M12.0011 23.0058C5.99832 23.0058 0.858261 17.9245 0.858261 11.8629M12.0011 6.00021V12.0002H16.2868M1.58148 7.74878C1.95508 6.81511 2.45706 5.93808 3.0729 5.14307M6.37612 2.19463C7.34222 1.63677 8.38893 1.23197 9.47898 0.994629M22.4256 7.74878C22.052 6.81511 21.5501 5.93808 20.9342 5.14307M17.6219 2.19463C16.6557 1.63677 15.609 1.23197 14.519 0.994629M20.5725 22.1486C21.9927 22.1486 23.144 20.9973 23.144 19.5772C23.144 18.1571 21.9927 17.0058 20.5725 17.0058C19.1524 17.0058 18.0011 18.1571 18.0011 19.5772C18.0011 20.9973 19.1524 22.1486 20.5725 22.1486Z" stroke="black" stroke-width="1.5" stroke-linecap="round" stroke-linejoin="round"/>
</svg>
