<svg width="24" height="24" viewBox="0 0 24 24" fill="none" xmlns="http://www.w3.org/2000/svg">
<path d="M5.99776 11.1426L5.14062 4.2855H18.8549L17.9978 11.1426M6.8549 17.7072C7.39109 17.8967 7.9681 17.9998 8.56919 17.9998H15.4263C16.0274 17.9998 16.6044 17.8967 17.1406 17.7072M6.8549 17.7072C4.85743 17.0011 3.42633 15.0962 3.42633 12.8569C3.42633 11.9102 4.19384 11.1426 5.14062 11.1426H18.8549C19.8017 11.1426 20.5692 11.9102 20.5692 12.8569C20.5692 15.0962 19.1381 17.0011 17.1406 17.7072M6.8549 17.7072L6.8549 21.428C6.8549 22.3748 7.62242 23.1423 8.56919 23.1423H15.4263C16.3731 23.1423 17.1406 22.3748 17.1406 21.428L17.1406 17.7072M5.99776 4.28551H17.9978C18.9445 4.28551 19.712 3.51799 19.712 2.57122C19.712 1.62445 18.9445 0.856934 17.9978 0.856934H5.99776C5.05099 0.856934 4.28347 1.62445 4.28347 2.57122C4.28347 3.51799 5.05099 4.28551 5.99776 4.28551Z" stroke="black" stroke-width="1.5" stroke-linecap="round" stroke-linejoin="round"/>
</svg>
