<svg width="24" height="24" viewBox="0 0 24 24" fill="none" xmlns="http://www.w3.org/2000/svg">
<path d="M6.85602 5.14293V4.65313C6.85602 3.03009 8.17175 1.71436 9.79479 1.71436H14.203C15.826 1.71436 17.1417 3.03009 17.1417 4.65313V5.14293M3.79479 22.2858H20.203C21.826 22.2858 23.1417 20.97 23.1417 19.347V8.0817C23.1417 6.45866 21.826 5.14293 20.203 5.14293H3.79479C2.17175 5.14293 0.856018 6.45866 0.856018 8.0817V19.347C0.856018 20.9701 2.17175 22.2858 3.79479 22.2858ZM4.28459 13.7144C4.28459 14.6611 5.0521 15.4286 5.99888 15.4286H12.4576C13.0504 16.4534 14.1584 17.1429 15.4274 17.1429C16.6965 17.1429 17.8045 16.4534 18.3973 15.4286H17.1417C16.195 15.4286 15.4274 14.6611 15.4274 13.7144C15.4274 12.7676 16.195 12.0001 17.1417 12.0001H18.3973C17.8045 10.9753 16.6965 10.2858 15.4274 10.2858C14.1584 10.2858 13.0504 10.9753 12.4576 12.0001H5.99888C5.0521 12.0001 4.28459 12.7676 4.28459 13.7144Z" stroke="black" stroke-width="1.5" stroke-linecap="round" stroke-linejoin="round"/>
</svg>
