<svg width="24" height="24" viewBox="0 0 24 24" fill="none" xmlns="http://www.w3.org/2000/svg">
<path d="M6.18078 11.9056L10.1198 17.815M5.29015 17.0032L5.86149 17.8604M14.8046 3.27801L2.06183 16.0227C1.83414 16.2504 1.6924 16.55 1.66074 16.8705C1.62908 17.191 1.70946 17.5125 1.88819 17.7804L4.2514 21.3257C4.36568 21.4973 4.5166 21.6413 4.69328 21.7474C4.86996 21.8536 5.068 21.9192 5.27311 21.9395C5.47821 21.9599 5.68528 21.9344 5.87937 21.8651C6.07345 21.7957 6.24973 21.6841 6.39547 21.5384L12.797 15.1368V12.1858H15.7518V9.22737H18.7065V6.27266L21.937 5.99408C22.0827 5.84834 22.1943 5.67207 22.2637 5.47798C22.333 5.28389 22.3585 5.07682 22.3381 4.87172C22.3178 4.66661 22.2522 4.46857 22.146 4.29189C22.0399 4.11521 21.8959 3.96429 21.7243 3.85001L20.0761 2.75616C19.2725 2.22057 18.3082 1.97988 17.3471 2.07502C16.3861 2.17016 15.4876 2.59525 14.8046 3.27801Z" stroke="black" stroke-width="1.5" stroke-linecap="round" stroke-linejoin="round"/>
</svg>
