<svg width="24" height="24" viewBox="0 0 24 24" fill="none" xmlns="http://www.w3.org/2000/svg">
<path d="M6.85935 9.42864V22.2858M4.28792 22.2858H9.43078M18.0022 22.2858V1.71436M15.4308 1.71436H20.5736M22.2879 22.2858V18.0001C22.2879 15.6331 20.3691 13.7144 18.0022 13.7144C15.6353 13.7144 13.7165 15.6331 13.7165 18.0001V22.2858M10.9603 5.07634L11.9568 10.0586C11.987 10.2097 12.0022 10.3634 12.0022 10.5175C12.0022 11.8097 10.9547 12.8572 9.66246 12.8572H4.05623C2.76404 12.8572 1.71649 11.8097 1.71649 10.5175C1.71649 10.3634 1.73171 10.2097 1.76192 10.0586L2.75838 5.07634C3.14934 3.12149 4.86579 1.71436 6.85935 1.71436C8.85291 1.71436 10.5694 3.12149 10.9603 5.07634Z" stroke="black" stroke-width="1.5" stroke-linecap="round" stroke-linejoin="round"/>
</svg>
