<svg width="24" height="24" viewBox="0 0 24 24" fill="none" xmlns="http://www.w3.org/2000/svg">
<path d="M19.711 7.71415H23.1395M5.13953 5.99986H11.9967M5.13953 9.42843H11.9967M13.711 2.57129H5.13953C2.7726 2.57129 0.853821 4.49007 0.853821 6.857V8.57129C0.853821 10.9382 2.7726 12.857 5.13953 12.857V17.9999H9.42525V12.857H13.711C14.6577 12.857 15.4252 12.0895 15.4252 11.1427V4.28557C15.4252 3.33881 14.6577 2.57129 13.711 2.57129ZM15.4252 5.14272H17.1395C18.0863 5.14272 18.8538 5.91024 18.8538 6.857V8.57129C18.8538 9.51805 18.0863 10.2856 17.1395 10.2856H15.4252V5.14272ZM2.56811 17.9999H11.9967V21.4284H2.56811V17.9999Z" stroke="black" stroke-width="1.5" stroke-linecap="round" stroke-linejoin="round"/>
</svg>
