<svg width="24" height="24" viewBox="0 0 24 24" fill="none" xmlns="http://www.w3.org/2000/svg">
<path d="M7.71765 0.856934L1.71765 6.85693H7.71765M7.71765 0.856934H15.4319M7.71765 0.856934V12.8569M7.71765 6.85693H15.4319M7.71765 6.85693L1.71765 12.8569H7.71765M15.4319 6.85693H21.4319L15.4319 0.856934M15.4319 6.85693L21.4319 12.8569H15.4319M7.71765 12.8569H15.4319M15.4319 0.856934V12.8569M15.4319 12.8569L16.1868 14.6683M11.5747 17.2794L6.96279 14.6683L4.11497 21.5031M11.5747 17.2794L4.11497 21.5031M11.5747 17.2794L19.0345 21.503M11.5747 17.2794L16.1868 14.6683M4.11497 21.5031L3.43194 23.1428M19.0345 21.503L16.1868 14.6683M19.0345 21.503L19.7178 23.1428M7.71573 12.8569L6.96095 14.6684" stroke="black" stroke-width="1.5" stroke-linecap="round" stroke-linejoin="round"/>
</svg>
