<svg width="24" height="24" viewBox="0 0 24 24" fill="none" xmlns="http://www.w3.org/2000/svg">
<path d="M11.9966 8.28537V23.1422M11.9966 14.9711C14.968 14.9711 16.4537 13.4854 16.4537 10.514M11.994 11.9996C11.4984 12.0295 11.0022 11.9539 10.538 11.7778C10.0738 11.6018 9.65225 11.3292 9.3012 10.9781C8.95016 10.6271 8.67759 10.2055 8.50151 9.74137C8.32543 9.27718 8.24985 8.78092 8.27976 8.28537M22.3958 11.2571C22.3938 10.2663 22.1083 9.29687 21.573 8.46319C21.0377 7.62952 20.2749 6.96648 19.3749 6.55241C19.4551 6.1259 19.4395 5.68687 19.3291 5.26714C19.2188 4.84741 19.0164 4.4575 18.7367 4.12565C18.457 3.7938 18.107 3.52833 17.712 3.34848C17.317 3.16864 16.887 3.07891 16.453 3.08581C16.3906 3.08581 16.3322 3.10067 16.2698 3.10463C15.7931 2.41149 15.1549 1.8447 14.4104 1.45312C13.6658 1.06154 12.8372 0.856934 11.996 0.856934C11.1547 0.856934 10.3261 1.06154 9.58154 1.45312C8.83698 1.8447 8.19884 2.41149 7.72214 3.10463C7.65974 3.10067 7.6013 3.08581 7.5389 3.08581C7.10496 3.07891 6.67491 3.16864 6.27993 3.34848C5.88495 3.52833 5.53492 3.7938 5.25522 4.12565C4.97552 4.4575 4.77315 4.84741 4.66277 5.26714C4.5524 5.68687 4.53678 6.1259 4.61705 6.55241C3.62612 7.00837 2.80408 7.765 2.26772 8.71481C1.73135 9.66462 1.50794 10.7593 1.62923 11.8433C1.75052 12.9274 2.21033 13.9456 2.94335 14.7534C3.67637 15.5612 4.6453 16.1174 5.7125 16.3431C5.97432 16.9082 6.36315 17.4051 6.84865 17.7952C7.33415 18.1852 7.90319 18.4578 8.5114 18.5918C9.1196 18.7257 9.75053 18.7173 10.355 18.5673C10.9594 18.4172 11.521 18.1296 11.996 17.7268C12.4711 18.1295 13.0329 18.417 13.6375 18.5668C14.2421 18.7166 14.8731 18.7248 15.4813 18.5905C16.0895 18.4563 16.6585 18.1834 17.1439 17.793C17.6293 17.4026 18.0179 16.9054 18.2794 16.3401C19.4439 16.0924 20.4881 15.4524 21.2373 14.5272C21.9866 13.602 22.3955 12.4476 22.3958 11.2571Z" stroke="black" stroke-width="1.5" stroke-linecap="round" stroke-linejoin="round"/>
</svg>
