<svg width="24" height="24" viewBox="0 0 24 24" fill="none" xmlns="http://www.w3.org/2000/svg">
<path d="M12.7444 12.6954V23.1426M12.7415 21.6572L9.40962 19.1583M18.6823 4.57196C18.2992 4.57705 17.9183 4.63198 17.5493 4.73538C17.0823 3.4615 16.1915 2.38693 15.0263 1.69188C13.861 0.996834 12.4923 0.723577 11.1495 0.917941C9.80669 1.11231 8.57157 1.76247 7.65125 2.75939C6.73093 3.75632 6.18139 5.03938 6.09478 6.39339C5.42061 6.08911 4.67088 5.99328 3.94185 6.11821C3.21282 6.24313 2.53776 6.58311 2.00336 7.09448C1.46896 7.60586 1.0996 8.26529 0.942705 8.98812C0.785812 9.71095 0.848548 10.4642 1.12286 11.1511C1.39717 11.838 1.87053 12.4272 2.48217 12.8432C3.0938 13.2591 3.8158 13.4827 4.55545 13.4853C5.2951 13.4879 6.01865 13.2694 6.63319 12.8577C7.24774 12.4461 7.72523 11.8602 8.00436 11.1753C8.96457 12.0664 10.1952 12.6109 11.5006 12.722C12.8059 12.8331 14.1109 12.5044 15.2079 11.7883C15.6766 12.3784 16.2874 12.8397 16.9832 13.129C17.679 13.4184 18.4368 13.5263 19.1857 13.4426C19.9346 13.3589 20.6499 13.0864 21.2646 12.6506C21.8794 12.2148 22.3733 11.63 22.7002 10.9511C23.0271 10.2721 23.1762 9.52131 23.1335 8.76898C23.0908 8.01666 22.8578 7.28751 22.4562 6.64991C22.0546 6.01231 21.4976 5.48716 20.8375 5.1237C20.1775 4.76025 19.4359 4.5704 18.6823 4.57196ZM5.3114 17.9427C5.3114 18.5338 5.54619 19.1006 5.96411 19.5185C6.38204 19.9364 6.94887 20.1712 7.5399 20.1712C8.13094 20.1712 8.69777 19.9364 9.11569 19.5185C9.53362 19.1006 9.7684 18.5338 9.7684 17.9427C9.7684 17.3517 9.53362 16.7849 9.11569 16.3669C8.69777 15.949 8.13094 15.7142 7.5399 15.7142C6.94887 15.7142 6.38204 15.949 5.96411 16.3669C5.54619 16.7849 5.3114 17.3517 5.3114 17.9427Z" stroke="black" stroke-width="1.5" stroke-linecap="round" stroke-linejoin="round"/>
</svg>
