<svg width="24" height="24" viewBox="0 0 24 24" fill="none" xmlns="http://www.w3.org/2000/svg">
<path d="M11.9988 9.77114V23.1426M11.9988 20.9143C12.4944 20.9442 12.9907 20.8686 13.4549 20.6925C13.9191 20.5164 14.3406 20.2439 14.6917 19.8928C15.0427 19.5418 15.3153 19.1202 15.4914 18.656C15.6674 18.1918 15.743 17.6956 15.7131 17.2M9.02528 11.2569C8.98209 11.5596 9.00996 11.8682 9.10668 12.1583C9.2034 12.4484 9.36632 12.712 9.58254 12.9282C9.79877 13.1444 10.0624 13.3074 10.3524 13.4041C10.6425 13.5008 10.9511 13.5287 11.2539 13.4855H11.9967M9.34155 2.7537L4.8844 12.2355C3.89393 14.5136 5.33309 17.1998 7.54185 17.1998H16.4561C18.6649 17.1998 20.1021 14.5156 19.1136 12.2355L14.6564 2.7537C14.4662 2.20014 14.1079 1.71981 13.6315 1.37976C13.155 1.03972 12.5843 0.856934 11.999 0.856934C11.4137 0.856934 10.843 1.03972 10.3665 1.37976C9.89011 1.71981 9.53177 2.20014 9.34155 2.7537Z" stroke="black" stroke-width="1.5" stroke-linecap="round" stroke-linejoin="round"/>
</svg>
