<svg width="24" height="24" viewBox="0 0 24 24" fill="none" xmlns="http://www.w3.org/2000/svg">
<path d="M14.5715 7.42857H19.7143C20.6236 7.42857 21.4956 7.78979 22.1387 8.43278C22.7817 9.07576 23.1429 9.94783 23.1429 10.8571V17.7143H20.5715M2.57146 17.7143H0.857178V5.71429C0.857178 4.78057 1.63775 4 2.57146 4H12.8572C13.7909 4 14.5715 4.78057 14.5715 5.71429V17.7143M13.7143 17.7147H9.42861M17.5715 21.1429C15.9146 21.1429 14.5715 19.7997 14.5715 18.1429C14.5715 16.486 15.9146 15.1429 17.5715 15.1429C19.2283 15.1429 20.5715 16.486 20.5715 18.1429C20.5715 19.7997 19.2283 21.1429 17.5715 21.1429ZM6.00003 21.1429C4.34318 21.1429 3.00003 19.7997 3.00003 18.1429C3.00003 16.486 4.34318 15.1429 6.00003 15.1429C7.65689 15.1429 9.00004 16.486 9.00004 18.1429C9.00004 19.7997 7.65689 21.1429 6.00003 21.1429Z" stroke="black" stroke-width="1.5" stroke-linecap="round" stroke-linejoin="round"/>
</svg>
