<svg width="24" height="24" viewBox="0 0 24 24" fill="none" xmlns="http://www.w3.org/2000/svg">
<path d="M17.5518 11.3504C16.2786 8.21263 13.2007 5.99979 9.60604 5.99979C4.87216 5.99979 1.03461 9.83736 1.03461 14.5712C1.03461 19.305 4.87216 23.1426 9.60604 23.1426C11.9421 23.1426 14.06 22.208 15.606 20.6924M21.2578 5.99979V13.7141L16.115 16.2855M22.9721 0.856934H19.5435V5.99979H22.9721V0.856934ZM10.356 14.5712C10.356 14.1734 10.0039 13.8212 9.60604 13.8212C9.20821 13.8212 8.85604 14.1734 8.85604 14.5712C8.85604 14.969 9.20821 15.3212 9.60604 15.3212C10.0039 15.3212 10.356 14.969 10.356 14.5712Z" stroke="black" stroke-width="1.5" stroke-linecap="round" stroke-linejoin="round"/>
</svg>
