<svg width="24" height="24" viewBox="0 0 24 24" fill="none" xmlns="http://www.w3.org/2000/svg">
<path d="M6.79687 0.856934V5.31507M17.2031 0.856934V5.31507M17.2045 5.31508C16.671 6.22016 15.9106 6.97037 14.9985 7.49158C14.0863 8.01278 13.0539 8.28693 12.0033 8.28693C10.9527 8.28693 9.92032 8.01278 9.00814 7.49158C8.09596 6.97037 7.33558 6.22016 6.80214 5.31508C6.03716 5.45201 5.32054 5.7843 4.72179 6.27973C4.12304 6.77516 3.66248 7.41692 3.38479 8.14275C3.10709 8.86859 3.02168 9.65387 3.13684 10.4224C3.252 11.191 3.56382 11.9168 4.04206 12.5293C4.86883 13.577 5.31773 13.8825 5.3161 16.2078V23.1427H18.6905V16.2078C18.6898 14.378 19.1386 13.5775 19.9645 12.5293C20.4428 11.9168 20.7546 11.191 20.8698 10.4224C20.9849 9.65387 20.8995 8.86859 20.6218 8.14275C20.3441 7.41692 19.8836 6.77516 19.2848 6.27973C18.6861 5.7843 17.9694 5.45201 17.2045 5.31508Z" stroke="black" stroke-width="1.5" stroke-linecap="round" stroke-linejoin="round"/>
</svg>
