<svg width="24" height="24" viewBox="0 0 24 24" fill="none" xmlns="http://www.w3.org/2000/svg">
<path d="M7.71763 7.71408V2.57122C7.71763 1.62445 8.48515 0.856934 9.43192 0.856934H14.5748C15.5216 0.856934 16.2891 1.62445 16.2891 2.57122V7.71408M11.1462 4.2855H12.8605M10.7176 11.1426H13.2891M12.0033 19.7141V23.1426M17.147 7.71408C16.6802 7.71408 7.32818 7.71408 6.86133 7.71408C6.39448 7.71408 6.00419 8.10437 6.00419 8.57122C6.00419 9.03807 6.0023 12.5615 6.00419 13.0112C6.00607 13.4609 6.18463 13.8919 6.50133 14.2112C6.74134 14.4532 7.48075 15.1916 8.07348 15.7837C8.39514 16.105 8.57562 16.5409 8.57562 16.9956C8.57562 17.5247 8.57562 17.9998 8.57562 17.9998C8.57562 18.9335 9.3562 19.7141 10.2899 19.7141C11.2236 19.7141 12.7848 19.7141 13.7185 19.7141C14.6522 19.7141 15.4328 18.9335 15.4328 17.9998C15.4328 17.9998 15.4328 17.5247 15.4328 16.9956C15.4328 16.5409 15.6133 16.1049 15.935 15.7835C16.5913 15.1278 17.2557 14.4647 17.507 14.2112C17.8237 13.8919 18.0023 13.4609 18.0042 13.0112C18.0061 12.5615 18.0042 9.03811 18.0042 8.57122C18.0042 8.10433 17.6139 7.71408 17.147 7.71408Z" stroke="black" stroke-width="1.5" stroke-linecap="round" stroke-linejoin="round"/>
</svg>
