<svg width="24" height="24" viewBox="0 0 24 24" fill="none" xmlns="http://www.w3.org/2000/svg">
<path d="M7.71205 7.71408V2.57122C7.71205 1.62445 8.47957 0.856934 9.42634 0.856934H14.5692C15.516 0.856934 16.2835 1.62445 16.2835 2.57122V7.71408M7.71205 7.71408H16.2835M7.71205 7.71408C6.76528 7.71408 5.99777 8.48159 5.99777 9.42836V19.7141C5.99777 20.6233 6.35899 21.4954 7.00198 22.1384C7.64496 22.7814 8.51703 23.1426 9.42634 23.1426H14.5692C16.4627 23.1426 17.9978 21.6076 17.9978 19.7141V9.42836C17.9978 8.48159 17.2303 7.71408 16.2835 7.71408M11.1406 4.2855H12.8549M10.7121 11.1426H13.2835" stroke="black" stroke-width="1.5" stroke-linecap="round" stroke-linejoin="round"/>
</svg>
