<svg width="24" height="24" viewBox="0 0 24 24" fill="none" xmlns="http://www.w3.org/2000/svg">
<path d="M5.48549 19.5429V3.7715C5.48549 3.22591 5.70222 2.70267 6.08801 2.31688C6.4738 1.93109 6.99704 1.71436 7.54263 1.71436C8.08822 1.71436 8.61146 1.93109 8.99725 2.31688C9.38304 2.70267 9.59977 3.22591 9.59977 3.7715V13.3715C9.59977 13.9171 9.81651 14.4403 10.2023 14.8261C10.5881 15.2119 11.1113 15.4286 11.6569 15.4286H12.3426M20.5712 17.1686V11.3172C20.5712 10.226 20.1377 9.17954 19.3662 8.40796C18.5946 7.63638 17.5481 7.20292 16.4569 7.20292C15.3657 7.20292 14.3193 7.63638 13.5477 8.40796C12.7761 9.17954 12.3426 10.226 12.3426 11.3172V20.2287C12.3426 20.4106 12.4149 20.585 12.5435 20.7136C12.6721 20.8422 12.8465 20.9145 13.0283 20.9145H16.8245M8.91406 22.2856H2.05692L3.42834 19.5428H7.54263L8.91406 22.2856ZM16.4609 19.543C16.4609 20.2705 16.7499 20.9681 17.2643 21.4825C17.7787 21.9969 18.4763 22.2859 19.2038 22.2859C19.9312 22.2859 20.6289 21.9969 21.1433 21.4825C21.6577 20.9681 21.9466 20.2705 21.9466 19.543C21.9466 18.8156 21.6577 18.1179 21.1433 17.6035C20.6289 17.0891 19.9312 16.8002 19.2038 16.8002C18.4763 16.8002 17.7787 17.0891 17.2643 17.6035C16.7499 18.1179 16.4609 18.8156 16.4609 19.543Z" stroke="black" stroke-width="1.5" stroke-linecap="round" stroke-linejoin="round"/>
</svg>
