<svg width="24" height="24" viewBox="0 0 24 24" fill="none" xmlns="http://www.w3.org/2000/svg">
<path d="M5.99666 19.7141L7.30482 22.3304C7.55372 22.8282 8.06251 23.1426 8.61908 23.1426H15.3742C15.9308 23.1426 16.4396 22.8282 16.6885 22.3304L17.9967 19.7141M4.59711 16.2855H19.4023M9.42523 5.99979V11.9998M14.5681 5.99979V11.9998M5.21994 19.7141H18.7713C19.2753 19.7141 19.6706 19.2813 19.6249 18.7793L18.0665 1.63647C18.0264 1.19498 17.6562 0.856934 17.2129 0.856934H6.77839C6.33507 0.856934 5.9649 1.19498 5.92476 1.63647L4.36632 18.7793C4.32069 19.2813 4.71592 19.7141 5.21994 19.7141Z" stroke="black" stroke-width="1.5" stroke-linecap="round" stroke-linejoin="round"/>
</svg>
