<svg width="24" height="24" viewBox="0 0 24 24" fill="none" xmlns="http://www.w3.org/2000/svg">
<path d="M19.7132 21.4284H4.28461M4.28461 17.9998H9.42746V15.4284M9.42746 15.4284H14.5703M9.42746 15.4284L8.57032 11.9998M14.5703 15.4284V17.9998H19.7132M14.5703 15.4284L15.4275 11.9998M8.57032 11.9998H15.4275M8.57032 11.9998C7.62355 11.9998 6.85603 11.2323 6.85603 10.2855V2.57122C6.85603 1.62445 7.62355 0.856934 8.57032 0.856934H15.4275C16.3742 0.856934 17.1417 1.62445 17.1417 2.57122V10.2855C17.1417 11.2323 16.3742 11.9998 15.4275 11.9998M4.2846 16.2855H0.856033V23.1426H4.2846V16.2855ZM19.7132 16.2855H23.1417V23.1426H19.7132V16.2855Z" stroke="black" stroke-width="1.5" stroke-linecap="round" stroke-linejoin="round"/>
</svg>
