<svg width="24" height="24" viewBox="0 0 24 24" fill="none" xmlns="http://www.w3.org/2000/svg">
<path d="M16.2879 11.1427V4.28557C16.2879 3.33881 15.5204 2.57129 14.5737 2.57129H13.7165M16.2879 11.1427L16.2879 17.9999M16.2879 11.1427L17.1451 11.1427C20.4588 11.1427 23.1451 13.829 23.1451 17.1427C23.1451 17.616 22.7613 17.9999 22.2879 17.9999H16.2879M16.2879 17.9999H14.5737C12.6801 17.9999 11.1451 16.4649 11.1451 14.5713V13.7141C11.1451 11.8206 9.61007 10.2856 7.71652 10.2856H4.28795C2.3944 10.2856 0.859375 11.8206 0.859375 13.7141V16.2856C0.859375 17.2324 1.62689 17.9999 2.57366 17.9999H16.2879ZM2.57366 6.857H9.4308M19.7165 5.14272H18.0022C17.0555 5.14272 16.2879 5.91024 16.2879 6.857C16.2879 7.80377 17.0555 8.57129 18.0022 8.57129H19.7165V5.14272ZM17.9973 21.4283C16.5762 21.4283 15.4241 20.2761 15.4241 18.8549C15.4241 18.5551 15.4754 18.2673 15.5696 17.9999H20.425C20.5193 18.2673 20.5706 18.5551 20.5706 18.8549C20.5706 20.2761 19.4186 21.4283 17.9973 21.4283ZM5.99735 21.4283C4.57619 21.4283 3.42411 20.2761 3.42411 18.8549C3.42411 18.5551 3.47538 18.2673 3.56963 17.9999H8.42507C8.51932 18.2673 8.5706 18.5551 8.5706 18.8549C8.5706 20.2761 7.41851 21.4283 5.99735 21.4283Z" stroke="black" stroke-width="1.5" stroke-linecap="round" stroke-linejoin="round"/>
</svg>
