<svg width="24" height="24" viewBox="0 0 24 24" fill="none" xmlns="http://www.w3.org/2000/svg">
<path d="M2.57477 23.1431C3.23611 21.6295 4.74646 20.5716 6.50388 20.5716C8.26129 20.5716 9.77165 21.6295 10.433 23.1431M13.577 23.1431C14.2383 21.6295 15.7487 20.5716 17.5061 20.5716C19.2636 20.5716 20.7739 21.6295 21.4353 23.1431M8.07254 11.8659V11.6005C8.73387 10.0869 10.2442 9.02909 12.0016 9.02909C13.7591 9.02909 15.2694 10.0869 15.9307 11.6005V11.8659M20.2007 0.856934H3.80602C3.12601 0.856934 2.57477 1.40819 2.57477 2.08818V10.6371C2.57477 11.3171 3.12601 11.8683 3.80602 11.8683H20.2007C20.8806 11.8683 21.4319 11.3171 21.4319 10.6371V2.08818C21.4319 1.40819 20.8806 0.856934 20.2007 0.856934ZM4.36271 16.7141C4.36271 17.2824 4.58848 17.8274 4.99034 18.2293C5.39221 18.6312 5.93725 18.8569 6.50557 18.8569C7.07389 18.8569 7.61894 18.6312 8.0208 18.2293C8.42266 17.8274 8.64843 17.2824 8.64843 16.7141C8.64843 16.1458 8.42266 15.6007 8.0208 15.1988C7.61894 14.797 7.07389 14.5712 6.50557 14.5712C5.93725 14.5712 5.39221 14.797 4.99034 15.1988C4.58848 15.6007 4.36271 16.1458 4.36271 16.7141ZM15.3583 16.7141C15.3583 17.2824 15.584 17.8274 15.9859 18.2293C16.3877 18.6312 16.9328 18.8569 17.5011 18.8569C18.0694 18.8569 18.6145 18.6312 19.0163 18.2293C19.4182 17.8274 19.644 17.2824 19.644 16.7141C19.644 16.1458 19.4182 15.6007 19.0163 15.1988C18.6145 14.797 18.0694 14.5712 17.5011 14.5712C16.9328 14.5712 16.3877 14.797 15.9859 15.1988C15.584 15.6007 15.3583 16.1458 15.3583 16.7141ZM10.0748 5.43938C10.0748 5.69265 10.1247 5.94343 10.2216 6.17742C10.3185 6.4114 10.4605 6.62401 10.6396 6.80309C10.8187 6.98217 11.0313 7.12423 11.2653 7.22115C11.4993 7.31807 11.7501 7.36795 12.0033 7.36795C12.2566 7.36795 12.5074 7.31807 12.7414 7.22115C12.9754 7.12423 13.188 6.98217 13.367 6.80309C13.5461 6.62401 13.6882 6.4114 13.7851 6.17742C13.882 5.94343 13.9319 5.69265 13.9319 5.43938C13.9319 5.18612 13.882 4.93534 13.7851 4.70135C13.6882 4.46737 13.5461 4.25476 13.367 4.07568C13.188 3.89659 12.9754 3.75454 12.7414 3.65762C12.5074 3.5607 12.2566 3.51081 12.0033 3.51081C11.7501 3.51081 11.4993 3.5607 11.2653 3.65762C11.0313 3.75454 10.8187 3.89659 10.6396 4.07568C10.4605 4.25476 10.3185 4.46737 10.2216 4.70135C10.1247 4.93534 10.0748 5.18612 10.0748 5.43938Z" stroke="black" stroke-width="1.5" stroke-linecap="round" stroke-linejoin="round"/>
</svg>
