<svg width="24" height="24" viewBox="0 0 24 24" fill="none" xmlns="http://www.w3.org/2000/svg">
<path d="M8.57254 19.5535H11.3154M16.8023 12.6964V15.4392C16.8023 15.8029 16.6578 16.1518 16.4006 16.409C16.1435 16.6662 15.7946 16.8106 15.4309 16.8106H4.45958C4.09586 16.8106 3.74703 16.6662 3.48984 16.409C3.23265 16.1518 3.08816 15.8029 3.08816 15.4392V8.58214C3.08816 8.21842 3.23265 7.8696 3.48984 7.61241C3.74703 7.35522 4.09586 7.21073 4.45958 7.21073H8.57383M16.797 22.2966H3.08281C2.86153 22.2959 2.64369 22.2417 2.44789 22.1386C2.25208 22.0355 2.08414 21.8866 1.95838 21.7045C1.83262 21.5225 1.7528 21.3126 1.72571 21.093C1.69862 20.8734 1.72508 20.6505 1.80282 20.4433L2.83139 17.7005C2.92921 17.4398 3.10406 17.2151 3.3327 17.0562C3.56134 16.8973 3.83294 16.8117 4.11137 16.8109H15.7684C16.0469 16.8117 16.3184 16.8973 16.5471 17.0562C16.7757 17.2151 16.9506 17.4398 17.0484 17.7005L18.077 20.4433C18.1547 20.6505 18.1812 20.8734 18.1541 21.093C18.127 21.3126 18.0472 21.5225 17.9214 21.7045C17.7957 21.8866 17.6277 22.0355 17.4319 22.1386C17.2361 22.2417 17.0183 22.2959 16.797 22.2966ZM22.2894 3.09651L19.5466 4.01079V3.09651C19.5466 2.73279 19.4021 2.38397 19.1449 2.12678C18.8877 1.86959 18.5389 1.7251 18.1752 1.7251H12.6895C12.3258 1.7251 11.9769 1.86959 11.7197 2.12678C11.4626 2.38397 11.3181 2.73279 11.3181 3.09651V8.58218C11.3181 8.9459 11.4626 9.29473 11.7197 9.55192C11.9769 9.80911 12.3258 9.9536 12.6895 9.9536H18.1752C18.5389 9.9536 18.8877 9.80911 19.1449 9.55192C19.4021 9.29473 19.5466 8.9459 19.5466 8.58218V7.6679L22.2894 8.58218V3.09651Z" stroke="black" stroke-width="1.5" stroke-linecap="round" stroke-linejoin="round"/>
</svg>
