<svg width="24" height="24" viewBox="0 0 24 24" fill="none" xmlns="http://www.w3.org/2000/svg">
<path d="M21.4186 17.9999C22.5152 16.1887 23.1071 14.117 23.1328 11.9999C23.1071 9.88272 22.5152 7.81104 21.4186 5.99986M17.9967 9.42843C18.5926 10.1489 18.8982 11.0659 18.8538 11.9999C18.8982 12.9338 18.5926 13.8508 17.9967 14.5713M5.13953 8.56143H2.56811C1.63439 8.56143 0.853821 9.34436 0.853821 10.2809V13.7199C0.853821 14.6565 1.63439 15.4394 2.56811 15.4394H5.13953L10.9852 21.1308C12.0915 21.8987 13.681 21.0902 13.711 19.7381V4.26265C13.7431 2.90969 12.2488 2.09999 11.1395 2.86986L5.13953 8.56143Z" stroke="black" stroke-width="1.5" stroke-linecap="round" stroke-linejoin="round"/>
</svg>
