<svg width="24" height="24" viewBox="0 0 24 24" fill="none" xmlns="http://www.w3.org/2000/svg">
<path d="M6.86051 13.7145L8.5748 17.1431M8.5748 17.1431L6.00337 18.8574M8.5748 17.1431H14.5748M6.00337 18.8574L1.71765 17.1431M6.00337 18.8574V22.286M14.5748 17.1431L16.2891 13.7145M14.5748 17.1431L18.0034 18.8574M18.0034 18.8574H22.2891M18.0034 18.8574L15.4319 22.286M14.346 8.80153C14.346 8.80153 12.0041 10.2861 12.0041 13.7149M10.3962 6.9616C10.3962 6.9616 12.0065 9.42884 12.0065 13.7147M1.71765 16.6533V19.3472C1.71765 20.9702 3.03339 22.286 4.65643 22.286H19.3503C20.9733 22.286 22.2891 20.9702 22.2891 19.3472V16.6533C22.2891 15.0303 20.9733 13.7145 19.3503 13.7145H4.65643C3.03339 13.7145 1.71765 15.0303 1.71765 16.6533ZM18.2299 4.91358C18.4592 5.14293 18.2096 7.96434 17.3727 8.80118C16.5359 9.63802 15.1791 9.63802 14.3423 8.80118C13.5054 7.96434 13.5054 6.60756 14.3423 5.77072C15.1791 4.93388 18.0005 4.68423 18.2299 4.91358ZM10.3935 3.32482C11.3977 4.32902 11.3977 5.95716 10.3935 6.96137C9.38925 7.96557 7.76111 7.96557 6.75691 6.96137C5.7527 5.95716 4.93863 1.71453 5.04262 1.61053C5.14662 1.50654 9.38925 2.32061 10.3935 3.32482Z" stroke="black" stroke-width="1.5" stroke-linecap="round" stroke-linejoin="round"/>
</svg>
