<svg width="24" height="24" viewBox="0 0 24 24" fill="none" xmlns="http://www.w3.org/2000/svg">
<path d="M17.0728 15.4284H15.632C14.3716 15.4284 13.1284 15.1349 12.0011 14.5712C10.8737 14.0075 9.6306 13.7141 8.37017 13.7141H6.92933M2.57251 5.99979H21.4297M19.7154 0.856934H4.2868C3.34003 0.856934 2.57251 1.62444 2.57251 2.57122V21.4284C2.57251 22.3752 3.34003 23.1426 4.2868 23.1426H19.7154C20.6622 23.1426 21.4297 22.3752 21.4297 21.4284V2.57122C21.4297 1.62444 20.6622 0.856934 19.7154 0.856934ZM17.1439 14.5712C17.1439 17.4116 14.8414 19.7141 12.0011 19.7141C9.16077 19.7141 6.85822 17.4116 6.85822 14.5712C6.85822 13.9701 6.96134 13.3931 7.15087 12.8569C7.85686 10.8595 9.76185 9.42836 12.0011 9.42836C14.8414 9.42836 17.1439 11.7309 17.1439 14.5712Z" stroke="black" stroke-width="1.5" stroke-linecap="round" stroke-linejoin="round"/>
</svg>
