<svg width="24" height="24" viewBox="0 0 24 24" fill="none" xmlns="http://www.w3.org/2000/svg">
<path d="M17.9978 16.2856H9.42635C8.00619 16.2856 6.85492 15.1344 6.85492 13.7142C6.85492 12.2941 8.00619 11.1428 9.42635 11.1428H17.9978C20.8381 11.1428 23.1406 13.4453 23.1406 16.2856C23.1406 19.126 20.8381 21.4285 17.9978 21.4285H9.85492C5.35775 21.4285 1.71207 17.7828 1.71207 13.2856C1.71207 8.78847 4.92918 5.14279 9.42635 5.14279M9.42635 5.14279C9.42635 6.53623 10.602 7.64083 11.9928 7.55391L14.1381 7.41982M9.42635 5.14279C9.42635 3.74934 10.602 2.64493 11.9928 2.73185L14.1381 2.86594M14.1381 2.86594V7.41982M14.1381 2.86594L21.4297 3.32166C22.3914 3.38177 23.1406 4.17928 23.1406 5.14288C23.1406 6.10648 22.3914 6.90399 21.4297 6.9641L14.1381 7.41982" stroke="black" stroke-width="1.5" stroke-linecap="round" stroke-linejoin="round"/>
</svg>
