<svg width="24" height="24" viewBox="0 0 24 24" fill="none" xmlns="http://www.w3.org/2000/svg">
<path d="M8.6518 17.2H11.6232M13.1121 0.856934C11.1426 0.859293 9.2545 1.6427 7.86188 3.03532C6.46926 4.42793 5.68585 6.31605 5.6835 8.28551V18.9401C4.81444 19.2473 4.06202 19.8165 3.52986 20.5691C2.99771 21.3218 2.71199 22.2209 2.71207 23.1426H11.6264C11.6264 22.2209 11.3407 21.3218 10.8086 20.5691C10.2764 19.8165 9.52398 19.2473 8.65492 18.9401V8.28551C8.65492 7.1034 9.12451 5.96971 9.96039 5.13383C10.7963 4.29795 11.93 3.82836 13.1121 3.82836C14.2942 3.82836 15.4279 4.29795 16.2637 5.13383C17.0996 5.96971 17.5692 7.1034 17.5692 8.28551V9.02836C17.5692 9.4224 17.7257 9.8003 18.0044 10.0789C18.283 10.3575 18.6609 10.5141 19.0549 10.5141C19.449 10.5141 19.8269 10.3575 20.1055 10.0789C20.3841 9.8003 20.5406 9.4224 20.5406 9.02836V8.28551C20.5383 6.31605 19.7549 4.42793 18.3623 3.03532C16.9696 1.6427 15.0815 0.859293 13.1121 0.856934ZM21.2853 17.9426C21.2853 16.7145 19.2636 13.4856 19.027 13.4856C18.7904 13.4855 16.8331 16.7145 16.8281 17.9426C16.8479 19.161 17.8348 20.1712 19.0517 20.1712C20.2625 20.1712 21.2853 19.0851 21.2853 17.9426Z" stroke="black" stroke-width="1.5" stroke-linecap="round" stroke-linejoin="round"/>
</svg>
