<svg width="24" height="24" viewBox="0 0 24 24" fill="none" xmlns="http://www.w3.org/2000/svg">
<path d="M10.8035 5.14293V1.71436M6.85932 1.71436H14.9164M14.366 7.19999H17.6575C18.7487 7.19999 19.7952 7.63346 20.5667 8.40504C21.3383 9.17663 21.7718 10.2231 21.7718 11.3143V14.0572H18.3459V12.6857C18.3459 12.322 18.2014 11.9732 17.9443 11.716C17.6871 11.4588 17.3382 11.3143 16.9745 11.3143H14.3669M7.23925 7.19999H2.57361M2.57361 11.3141H7.23925M2.57361 1.71436V16.8002M6.68522 9.25725C6.68522 10.3484 7.11869 11.3949 7.89027 12.1665C8.66186 12.9381 9.70835 13.3716 10.7995 13.3716C11.8907 13.3716 12.9372 12.9381 13.7088 12.1665C14.4804 11.3949 14.9139 10.3484 14.9139 9.25725C14.9139 8.16606 14.4804 7.11957 13.7088 6.34798C12.9372 5.5764 11.8907 5.14293 10.7995 5.14293C9.70835 5.14293 8.66186 5.5764 7.89027 6.34798C7.11869 7.11957 6.68522 8.16606 6.68522 9.25725ZM22.0317 20.3146C22.0317 20.8374 21.824 21.3388 21.4543 21.7085C21.0846 22.0782 20.5832 22.2859 20.0604 22.2859C19.5376 22.2859 19.0363 22.0782 18.6666 21.7085C18.2969 21.3388 18.0892 20.8374 18.0892 20.3146C18.0892 19.2257 19.4031 17.0287 20.0604 17.0287C20.7178 17.0287 22.0317 19.223 22.0317 20.3146Z" stroke="black" stroke-width="1.5" stroke-linecap="round" stroke-linejoin="round"/>
</svg>
