<svg width="24" height="24" viewBox="0 0 24 24" fill="none" xmlns="http://www.w3.org/2000/svg">
<path d="M0.858261 20.5278C1.40277 21.0836 2.16168 21.4284 3.00112 21.4284C4.65798 21.4284 6.00112 20.0852 6.00112 18.4284C6.00112 20.0852 7.34426 21.4284 9.00112 21.4284C10.658 21.4284 12.0011 20.0852 12.0011 18.4284C12.0011 20.0852 13.3443 21.4284 15.0011 21.4284C16.658 21.4284 18.0011 20.0852 18.0011 18.4284C18.0011 20.0852 19.3443 21.4284 21.0011 21.4284C21.8406 21.4284 22.5995 21.0836 23.144 20.5278M0.858261 13.6707C1.40277 14.2265 2.16168 14.5712 3.00112 14.5712C4.65798 14.5712 6.00112 13.2281 6.00112 11.5712C6.00112 13.2281 7.34426 14.5712 9.00112 14.5712C10.658 14.5712 12.0011 13.2281 12.0011 11.5712C12.0011 13.2281 13.3443 14.5712 15.0011 14.5712C16.658 14.5712 18.0011 13.2281 18.0011 11.5712C18.0011 13.2281 19.3443 14.5712 21.0011 14.5712C21.8406 14.5712 22.5995 14.2265 23.144 13.6707M12.0011 0.856934V7.71408M12.0011 7.71408L14.5725 5.14265M12.0011 7.71408L9.42969 5.14265" stroke="black" stroke-width="1.5" stroke-linecap="round" stroke-linejoin="round"/>
</svg>
