<svg width="24" height="24" viewBox="0 0 24 24" fill="none" xmlns="http://www.w3.org/2000/svg">
<path d="M0.856033 20.5278C1.40054 21.0836 2.15946 21.4284 2.99889 21.4284C4.65575 21.4284 5.99889 20.0852 5.99889 18.4284C5.99889 20.0852 7.34203 21.4284 8.99889 21.4284C10.6557 21.4284 11.9989 20.0852 11.9989 18.4284C11.9989 20.0852 13.342 21.4284 14.9989 21.4284C16.6557 21.4284 17.9989 20.0852 17.9989 18.4284C17.9989 20.0852 19.342 21.4284 20.9989 21.4284C21.8384 21.4284 22.5973 21.0836 23.1417 20.5278M0.856033 13.6707C1.40054 14.2265 2.15946 14.5712 2.99889 14.5712C4.65575 14.5712 5.99889 13.2281 5.99889 11.5712C5.99889 13.2281 7.34203 14.5712 8.99889 14.5712C10.6557 14.5712 11.9989 13.2281 11.9989 11.5712C11.9989 13.2281 13.342 14.5712 14.9989 14.5712C16.6557 14.5712 17.9989 13.2281 17.9989 11.5712C17.9989 13.2281 19.342 14.5712 20.9989 14.5712C21.8384 14.5712 22.5973 14.2265 23.1417 13.6707M11.9989 0.856934V7.71408M11.9989 0.856934L14.5703 3.42836M11.9989 0.856934L9.42746 3.42836" stroke="black" stroke-width="1.5" stroke-linecap="round" stroke-linejoin="round"/>
</svg>
