<svg width="24" height="24" viewBox="0 0 24 24" fill="none" xmlns="http://www.w3.org/2000/svg">
<path d="M8.04729 6.37437H7.14305C4.14667 6.37437 1.71762 8.80342 1.71762 11.7998V22.3963H5.67366V11.9128C5.67366 11.0389 6.38214 10.3304 7.25608 10.3304H8.04729M15.9609 6.37479H16.8652C19.8615 6.37479 22.2906 8.80384 22.2906 11.8002V12.7045H18.3346V11.9133C18.3346 11.0393 17.6261 10.3308 16.7521 10.3308H15.9609M12.0064 4.79228V1.62744M12.0064 1.62744H9.6328M12.0064 1.62744H14.3801M8.04575 6.50663V10.1989C8.04575 11.1457 8.81326 11.9132 9.76003 11.9132H14.2435C15.1903 11.9132 15.9578 11.1457 15.9578 10.1989V6.50663C15.9578 5.55985 15.1903 4.79234 14.2435 4.79234H9.76003C8.81326 4.79234 8.04575 5.55985 8.04575 6.50663ZM22.1845 19.8462C22.1845 20.374 21.9749 20.8802 21.6016 21.2535C21.2284 21.6267 20.7222 21.8364 20.1944 21.8364C19.6666 21.8364 19.1604 21.6267 18.7871 21.2535C18.4139 20.8802 18.2042 20.374 18.2042 19.8462C18.2042 18.7468 19.5307 16.5287 20.1944 16.5287C20.8581 16.5287 22.1845 18.7441 22.1845 19.8462Z" stroke="black" stroke-width="1.5" stroke-linecap="round" stroke-linejoin="round"/>
</svg>
