<svg width="24" height="24" viewBox="0 0 24 24" fill="none" xmlns="http://www.w3.org/2000/svg">
<path d="M16.711 17.6996C16.711 20.3032 14.6003 22.4139 11.9967 22.4139C9.39305 22.4139 7.28238 20.3032 7.28238 17.6996C7.28238 14.871 11.4967 10.1567 11.9967 10.1567C12.4966 10.1567 16.711 14.871 16.711 17.6996Z" stroke="black" stroke-width="1.5" stroke-linecap="round" stroke-linejoin="round"/>
<path d="M21.8538 6.9001C21.8538 8.55694 20.5107 9.9001 18.8538 9.9001C17.197 9.9001 15.8538 8.55694 15.8538 6.9001C15.8538 5.1001 18.711 2.1001 18.8538 2.1001C18.9966 2.1001 21.8538 5.1001 21.8538 6.9001Z" stroke="black" stroke-width="1.5" stroke-linecap="round" stroke-linejoin="round"/>
<path d="M8.13953 6.9001C8.13953 8.55694 6.79638 9.9001 5.13953 9.9001C3.48267 9.9001 2.13953 8.55694 2.13953 6.9001C2.13953 5.1001 5.28241 2.1001 5.13953 2.1001C4.99664 2.1001 8.13953 5.1001 8.13953 6.9001Z" stroke="black" stroke-width="1.5" stroke-linecap="round" stroke-linejoin="round"/>
</svg>
