<svg width="24" height="24" viewBox="0 0 24 24" fill="none" xmlns="http://www.w3.org/2000/svg">
<path d="M20.1663 3.45766H22.3949M20.1663 3.45766L20.1659 10.8861C20.1659 12.4623 19.5397 13.9739 18.4252 15.0884C17.3107 16.2029 15.7991 16.829 14.223 16.829C12.6469 16.829 11.1353 16.2029 10.0208 15.0884C8.90626 13.9739 8.28014 12.4623 8.28014 10.8861M20.1663 3.45766C20.1663 2.8666 19.9311 2.29968 19.5131 1.88174C19.0952 1.4638 18.5283 1.229 17.9373 1.229C17.3462 1.229 16.7794 1.4638 16.3614 1.88174C15.9435 2.29968 15.7087 2.86652 15.7087 3.45758C15.7087 7.17186 14.7182 9.40043 9.76585 10.8861M2.34041 19.8007H23.1404M20.1663 16.8292L23.1377 19.8006L20.1663 22.772M14.2266 16.8292V22.772M5.31094 6.4292C4.12883 6.4292 2.99514 6.89879 2.15926 7.73467C1.32339 8.57054 0.853798 9.70423 0.853798 10.8863H9.76808C9.76808 9.70423 9.29849 8.57054 8.46262 7.73467C7.62674 6.89879 6.49305 6.4292 5.31094 6.4292Z" stroke="black" stroke-width="1.5" stroke-linecap="round" stroke-linejoin="round"/>
</svg>
