<svg width="24" height="24" viewBox="0 0 24 24" fill="none" xmlns="http://www.w3.org/2000/svg">
<path d="M12.3304 15.4286H21.9304M10.2388 9.31207C9.91138 8.9378 9.58579 8.58963 9.58598 8.05676V2.40007C9.58598 2.03635 9.26401 1.71436 8.90027 1.71436H6.15741C5.7937 1.71436 5.4717 2.03634 5.4717 2.40007L5.47535 8.0595C5.47522 8.39144 5.35105 8.70932 5.13249 8.95916L2.67764 11.8072C2.20965 12.3928 1.99859 13.1679 2.1053 13.91L3.2637 21.1329C3.45482 21.7953 3.84906 22.2858 4.61592 22.2858H8.93501M5.47321 5.82889H9.5875M9.5875 18.1714H6.15893L5.47321 14.0571H9.5875M13.8977 22.286H20.363C21.2286 22.286 21.9304 21.5842 21.9304 20.7186V12.8819C21.9304 12.0162 21.2286 11.3145 20.363 11.3145H13.8977C13.0321 11.3145 12.3304 12.0162 12.3304 12.8819V20.7186C12.3304 21.5842 13.0321 22.286 13.8977 22.286Z" stroke="black" stroke-width="1.5" stroke-linecap="round" stroke-linejoin="round"/>
</svg>
