<svg width="24" height="24" viewBox="0 0 24 24" fill="none" xmlns="http://www.w3.org/2000/svg">
<path d="M5.14063 21.4288V23.1431M5.14063 18.0002H5.99777M9.42634 18.0002H10.2835M1.71205 5.14307L4.28348 14.5716M22.2835 5.14307L19.7121 14.5716M6.08482 3.4287C9.34196 0.171555 14.6563 0.171555 17.9134 3.4287M9.17857 6.05617C10.6505 4.58423 13.1738 4.58423 14.6458 6.05617M18.8549 21.4288V23.1431M11.9107 10.067C12.1474 10.067 12.3393 9.87517 12.3393 9.63846M11.9107 10.067C11.674 10.067 11.4821 9.87559 11.4821 9.63888M11.9107 10.067V9.20989M12.3393 9.63846C12.3393 9.40177 12.1474 9.20989 11.9107 9.20989M12.3393 9.63846L11.4821 9.63888M11.9107 9.20989C11.674 9.20989 11.4821 9.40219 11.4821 9.63888M0.854912 19.7145V16.2859C0.854912 15.3392 1.62242 14.5716 2.5692 14.5716H21.4263C22.3731 14.5716 23.1406 15.3392 23.1406 16.2859V19.7145C23.1406 20.6613 22.3731 21.4288 21.4263 21.4288H2.5692C1.62242 21.4288 0.854912 20.6613 0.854912 19.7145Z" stroke="black" stroke-width="1.5" stroke-linecap="round" stroke-linejoin="round"/>
</svg>
