<svg width="24" height="24" viewBox="0 0 24 24" fill="none" xmlns="http://www.w3.org/2000/svg">
<path d="M16.2868 17.1426V14.5712M16.7154 20.1493C16.7154 20.386 16.5235 20.5779 16.2868 20.5779M16.7154 20.1493C16.7154 19.9127 16.5235 19.7208 16.2868 19.7208M16.7154 20.1493H15.8582M16.2868 20.5779C16.0501 20.5779 15.8582 20.386 15.8582 20.1493M16.2868 20.5779V19.7208M16.2868 19.7208C16.0501 19.7208 15.8582 19.9127 15.8582 20.1493M21.4229 7.71408V2.57122C21.4229 1.62445 20.6554 0.856934 19.7087 0.856934H4.28008C3.33331 0.856934 2.5658 1.62445 2.5658 2.57122V21.4284C2.5658 22.3751 3.33331 23.1426 4.28008 23.1426H5.78008M11.4208 23.143C10.129 23.143 9.30132 21.7683 9.90576 20.6266L14.7728 11.4333C15.4167 10.2171 17.159 10.2171 17.8029 11.4333L22.6699 20.6266C23.2744 21.7683 22.4467 23.143 21.1549 23.143H11.4208Z" stroke="black" stroke-width="1.5" stroke-linecap="round" stroke-linejoin="round"/>
</svg>
