<svg width="24" height="24" viewBox="0 0 24 24" fill="none" xmlns="http://www.w3.org/2000/svg">
<path d="M17.1462 10.2855H4.28906M17.1462 10.2855L20.5748 7.71408H23.1462V12.8569H20.5748L17.1462 10.2855ZM14.5748 10.2855V23.1426M9.43192 5.99979V14.5712M9.43192 5.99979C10.3787 5.99979 11.1462 3.51799 11.1462 2.57122C11.1462 1.62445 10.3787 0.856934 9.43192 0.856934C8.48514 0.856934 7.71763 1.62445 7.71763 2.57122C7.71763 3.51799 8.48514 5.99979 9.43192 5.99979ZM9.43192 14.5712C8.48514 14.5712 7.71763 17.053 7.71763 17.9998C7.71763 18.9466 8.48514 19.7141 9.43192 19.7141C10.3787 19.7141 11.1462 18.9466 11.1462 17.9998C11.1462 17.053 10.3787 14.5712 9.43192 14.5712ZM4.28906 7.71408V12.8569L0.860489 10.2855L4.28906 7.71408Z" stroke="black" stroke-width="1.5" stroke-linecap="round" stroke-linejoin="round"/>
</svg>
