<svg width="24" height="24" viewBox="0 0 24 24" fill="none" xmlns="http://www.w3.org/2000/svg">
<path d="M21.4241 7.71408V2.57122C21.4241 1.62445 20.6566 0.856934 19.7098 0.856934H4.28124C3.33447 0.856934 2.56696 1.62445 2.56696 2.57122V21.4284C2.56696 22.3751 3.33447 23.1426 4.28124 23.1426H10.2812M21.8527 17.1426V14.9998C21.8527 13.3429 20.5095 11.9998 18.8527 11.9998M16.2812 17.1426H21.4241C22.3709 17.1426 23.1384 17.9102 23.1384 18.8569V21.4284C23.1384 22.3751 22.3709 23.1426 21.4241 23.1426H16.2812C15.3345 23.1426 14.567 22.3751 14.567 21.4284V18.8569C14.567 17.9102 15.3345 17.1426 16.2812 17.1426Z" stroke="black" stroke-width="1.5" stroke-linecap="round" stroke-linejoin="round"/>
</svg>
