<svg width="24" height="24" viewBox="0 0 24 24" fill="none" xmlns="http://www.w3.org/2000/svg">
<path d="M11.981 12.4687V23.1905M6.05469 23.1905H17.9144M9.46562 6.1446C9.36044 5.30232 9.48721 4.44732 9.83225 3.67179C10.1773 2.89627 10.7275 2.22966 11.4236 1.74386C12.1196 1.25806 12.9351 0.971499 13.782 0.915092C14.6289 0.858685 15.4752 1.03457 16.2295 1.42377L12.769 8.13399M16.6928 9.30755C17.422 9.66337 18.0458 10.2033 18.5024 10.874C18.959 11.5447 19.2328 12.3229 19.2966 13.1318C19.3604 13.9406 19.212 14.7521 18.8661 15.4861C18.5203 16.2201 17.9889 16.8511 17.3245 17.3168L13.5078 11.8679M9.28619 14.5645C8.62095 14.8747 7.89192 15.0236 7.15833 14.999C6.42474 14.9745 5.70728 14.7773 5.06425 14.4233C4.42122 14.0694 3.87075 13.5688 3.45758 12.9621C3.04441 12.3554 2.78019 11.6598 2.68639 10.9319L9.74872 10.0287M9.74442 10.2306C9.74442 10.8242 9.98022 11.3934 10.3999 11.8131C10.8197 12.2329 11.3889 12.4687 11.9825 12.4687C12.5761 12.4687 13.1453 12.2329 13.565 11.8131C13.9848 11.3934 14.2205 10.8242 14.2205 10.2306C14.2205 9.63703 13.9848 9.06777 13.565 8.64805C13.1453 8.22833 12.5761 7.99254 11.9825 7.99254C11.3889 7.99254 10.8197 8.22833 10.3999 8.64805C9.98022 9.06777 9.74442 9.63703 9.74442 10.2306Z" stroke="black" stroke-width="1.5" stroke-linecap="round" stroke-linejoin="round"/>
</svg>
