<svg width="24" height="24" viewBox="0 0 24 24" fill="none" xmlns="http://www.w3.org/2000/svg">
<path d="M21.4185 7.71408V2.56693C21.4185 1.62253 20.653 0.856934 19.7085 0.856934H4.2714C3.327 0.856934 2.5614 1.62253 2.5614 2.56693V21.4326C2.5614 22.3771 3.32699 23.1426 4.2714 23.1426H10.2757M15.8471 17.1426V14.9998C15.8471 13.3429 17.1903 11.9998 18.8471 11.9998C20.504 11.9998 21.8471 13.3429 21.8471 14.9998V17.1426M16.2757 17.1426H21.4185C22.3653 17.1426 23.1328 17.9102 23.1328 18.8569V21.4284C23.1328 22.3751 22.3653 23.1426 21.4185 23.1426H16.2757C15.3289 23.1426 14.5614 22.3751 14.5614 21.4284V18.8569C14.5614 17.9102 15.3289 17.1426 16.2757 17.1426Z" stroke="black" stroke-width="1.5" stroke-linecap="round" stroke-linejoin="round"/>
</svg>
