<svg width="24" height="24" viewBox="0 0 24 24" fill="none" xmlns="http://www.w3.org/2000/svg">
<path d="M0.856018 0.856934V23.1426M0.856018 9.02816L5.70242 5.79722M0.856018 10.514L5.70341 13.745M9.76896 5.31424V14.2285M14.2288 5.31424V14.2285M18.6819 5.31424V14.2285M23.1444 9.77139C23.1444 10.9535 22.6748 12.0872 21.8389 12.9231C21.0031 13.7589 19.8694 14.2285 18.6873 14.2285H6.80155C6.40752 14.2285 6.02962 14.072 5.751 13.7934C5.47237 13.5147 5.31584 13.1369 5.31584 12.7428V6.79996C5.31584 6.40592 5.47237 6.02802 5.751 5.7494C6.02962 5.47077 6.40752 5.31424 6.80155 5.31424H18.6873C19.8694 5.31424 21.0031 5.78383 21.8389 6.61971C22.6748 7.45559 23.1444 8.58928 23.1444 9.77139Z" stroke="black" stroke-width="1.5" stroke-linecap="round" stroke-linejoin="round"/>
</svg>
