<svg width="24" height="24" viewBox="0 0 24 24" fill="none" xmlns="http://www.w3.org/2000/svg">
<path d="M14.6875 15.3649C15.5542 15.7932 16.5783 15.9155 17.5888 15.6274C19.8664 14.978 21.1028 12.5209 20.2667 10.305L16.9487 1.50928L15.9621 1.79058M21.9705 21.355L16.8839 22.8053M6.41668 15.6262L4.57589 22.0823M2.03125 21.355L7.11786 22.8053M5.39955 5.89293L12.404 7.90855M18.6056 5.91302L15.7455 6.73748M17.5871 15.6262L19.4279 22.0823M3.73975 10.305L7.05786 1.50928L13.3193 3.29456L11.4998 12.5002C11.0414 14.8238 8.69522 16.2768 6.41766 15.6274C4.14011 14.978 2.90383 12.5209 3.73975 10.305Z" stroke="black" stroke-width="1.5" stroke-linecap="round" stroke-linejoin="round"/>
</svg>
