<svg width="24" height="24" viewBox="0 0 24 24" fill="none" xmlns="http://www.w3.org/2000/svg">
<path d="M6.49214 11.3143L10.3569 6.7638C10.8086 6.31203 11.3593 5.97165 11.9653 5.76963C12.5714 5.56761 13.2162 5.5095 13.8486 5.5999L15.2054 5.79373L19.0848 1.91528C19.1484 1.85158 19.2239 1.80105 19.3071 1.76658C19.3902 1.7321 19.4793 1.71436 19.5693 1.71436C19.6594 1.71436 19.7485 1.7321 19.8316 1.76658C19.9148 1.80105 19.9903 1.85158 20.0539 1.91528L21.024 2.88443C21.0877 2.94811 21.1383 3.02373 21.1728 3.10695C21.2072 3.19018 21.225 3.27938 21.225 3.36947C21.225 3.45956 21.2072 3.54876 21.1728 3.63198C21.1383 3.71521 21.0877 3.79082 21.024 3.8545L17.1446 7.73387L17.3385 9.09069C17.432 9.83303 17.3918 10.5861 17.2196 11.3143M19.4954 13.3397L19.841 12.1191C19.8583 12.0206 19.8539 11.9194 19.828 11.8228C19.8021 11.7261 19.7554 11.6363 19.6911 11.5596C19.6268 11.4829 19.5465 11.4213 19.4558 11.3789C19.3651 11.3366 19.2663 11.3146 19.1662 11.3145H4.19827C4.09813 11.3145 3.99919 11.3364 3.90842 11.3786C3.81764 11.4209 3.73723 11.4826 3.67283 11.5593C3.60843 11.636 3.56161 11.7258 3.53565 11.8225C3.5097 11.9193 3.50525 12.0205 3.5226 12.1191L3.86821 13.3397M6.19754 14.1873L2.76892 18.1718M17.0524 14.1873L20.481 18.1718M5.52115 18.4914L6.27636 21.1566C6.33322 21.4733 6.49964 21.76 6.74651 21.9664C6.99338 22.1728 7.30498 22.2859 7.62678 22.2858H15.7412C16.0635 22.2857 16.3755 22.1722 16.6225 21.965C16.8694 21.7579 17.0355 21.4704 17.0916 21.1529L17.8496 18.4914" stroke="black" stroke-width="1.5" stroke-linecap="round" stroke-linejoin="round"/>
</svg>
