<svg width="24" height="24" viewBox="0 0 24 24" fill="none" xmlns="http://www.w3.org/2000/svg">
<path d="M10.9954 6.59119C10.726 5.16467 10.5905 3.71612 10.5905 2.2644V2.16038C10.5905 1.97397 10.5165 1.79519 10.3846 1.66338C10.2528 1.53157 10.0741 1.45752 9.88765 1.45752H8.48194C8.29553 1.45752 8.11675 1.53157 7.98494 1.66338C7.85313 1.79519 7.77908 1.97397 7.77908 2.16038V2.2644C7.77892 4.9856 7.30319 7.68583 6.37337 10.2432C5.44354 12.8006 4.96781 15.5009 4.96765 18.2221V21.1375C4.96765 21.3221 5.00401 21.5049 5.07465 21.6755C5.1453 21.846 5.24884 22.001 5.37938 22.1315C5.50991 22.262 5.66487 22.3656 5.83542 22.4362C6.00597 22.5069 6.18876 22.5432 6.37337 22.5432H11.2934M10.6506 12.4981C10.1747 12.6347 9.68191 12.7038 9.18677 12.7034C8.00542 12.7101 6.85801 12.3085 5.93863 11.5666M14.8114 22.5429H17.6228M16.2177 22.5432V19.0289M13.7735 12.7033H18.6635M7.78015 17.623C7.78015 17.8076 7.81651 17.9904 7.88716 18.1609C7.9578 18.3315 8.06134 18.4865 8.19188 18.617C8.32241 18.7475 8.47737 18.8511 8.64792 18.9217C8.81847 18.9924 9.00126 19.0287 9.18587 19.0287C9.37047 19.0287 9.55326 18.9924 9.72381 18.9217C9.89436 18.8511 10.0493 18.7475 10.1799 18.617C10.3104 18.4865 10.4139 18.3315 10.4846 18.1609C10.5552 17.9904 10.5916 17.8076 10.5916 17.623C10.5916 17.2502 10.4435 16.8926 10.1799 16.629C9.91623 16.3654 9.55868 16.2173 9.18587 16.2173C8.81305 16.2173 8.4555 16.3654 8.19188 16.629C7.92825 16.8926 7.78015 17.2502 7.78015 17.623ZM17.774 18.5786C17.3071 18.873 16.7665 19.0292 16.2146 19.0292C15.6627 19.0292 15.122 18.873 14.6552 18.5786C14.2289 18.3149 13.8866 17.9351 13.6683 17.4839C13.4501 17.0326 13.3649 16.5285 13.4228 16.0306L14.1725 8.91295C14.1878 8.79298 14.2468 8.68288 14.3383 8.60382C14.4299 8.52476 14.5474 8.48233 14.6683 8.48468H17.7608C17.8818 8.48233 17.9993 8.52476 18.0908 8.60382C18.1823 8.68288 18.2414 8.79298 18.2566 8.91295L19.0063 16.0306C19.0642 16.5285 18.9791 17.0326 18.7608 17.4839C18.5426 17.9351 18.2002 18.3149 17.774 18.5786Z" stroke="black" stroke-width="1.5" stroke-linecap="round" stroke-linejoin="round"/>
</svg>
