<svg width="24" height="24" viewBox="0 0 24 24" fill="none" xmlns="http://www.w3.org/2000/svg">
<path d="M21.5548 5.85622L18.3899 9.01254C18.0946 9.31801 17.6759 9.49551 17.2505 9.49551C16.1217 9.49551 14.4562 7.9097 14.4562 6.83468C14.4562 6.4216 14.6186 6.02498 14.9085 5.72997L18.0734 2.57365C17.4921 1.21125 15.0264 1.78422 14.0124 2.16637C11.885 2.96804 10.3626 4.9594 10.1507 7.21756C10.0524 8.26492 10.2323 9.31834 10.6703 10.2726L2.17778 18.742C1.55087 19.3673 1.56127 20.3841 2.20083 20.9964L3.08824 21.8461C3.70719 22.4387 4.68696 22.4314 5.29698 21.8295L13.887 13.3556C14.8161 13.7382 15.8281 13.8838 16.831 13.7766C19.0697 13.5372 21.0329 12.0234 21.8284 9.92281C22.2116 8.91122 22.7455 6.58415 21.5548 5.85622Z" stroke="black" stroke-width="1.5" stroke-linecap="round" stroke-linejoin="round"/>
</svg>
