<svg width="24" height="24" viewBox="0 0 24 24" fill="none" xmlns="http://www.w3.org/2000/svg">
<path d="M5.14064 12.8572V7.71436M18.8549 12.0032C20.8684 11.1636 22.2835 9.17645 22.2835 6.85879C22.2835 4.54111 20.8684 2.55398 18.8549 1.71436V5.57308C18.8549 6.51984 18.0874 7.28736 17.1406 7.28736H16.2835C15.3367 7.28736 14.5692 6.51984 14.5692 5.57308V1.71436C12.5558 2.55398 11.1406 4.54111 11.1406 6.85879C11.1406 9.17645 12.5558 11.1636 14.5692 12.0032V20.1445C14.5692 21.328 15.5286 22.2873 16.7121 22.2873C17.8956 22.2873 18.8549 21.328 18.8549 20.1445V12.0032ZM6.85492 12.8572H3.42635C2.47959 12.8572 1.71207 13.6247 1.71207 14.5715V18.8572C1.71207 20.7508 3.24709 22.2858 5.14064 22.2858C7.03419 22.2858 8.56921 20.7508 8.56921 18.8572V14.5715C8.56921 13.6247 7.80169 12.8572 6.85492 12.8572ZM5.99778 7.71436H4.2835L2.56921 6.00007L3.42635 1.71436H6.85492L7.71207 6.00007L5.99778 7.71436Z" stroke="black" stroke-width="1.5" stroke-linecap="round" stroke-linejoin="round"/>
</svg>
